<svg width="346" height="89" viewBox="0 0 346 89" fill="none" xmlns="http://www.w3.org/2000/svg">
<path fill-rule="evenodd" clip-rule="evenodd" d="M15.6348 1.08337C14.2911 -0.00847667 12.289 1.00683 12.376 2.736L13.2072 19.2619C13.3221 21.5471 11.5003 23.4628 9.21222 23.4628H4C1.79086 23.4628 0 25.2537 0 27.4628V84.2655C0 86.4746 1.79086 88.2655 3.99999 88.2655H342C344.209 88.2655 346 86.4747 346 84.2655V27.4628C346 25.2537 344.209 23.4628 342 23.4628H44.5961C43.6774 23.4628 42.7867 23.1466 42.0736 22.5672L15.6348 1.08337Z" fill="#C3F9EB"/>
<path d="M32.8767 46.4542C32.75 46.6569 32.75 46.9102 32.75 47.4168L32.75 58.2497C32.75 58.7563 32.75 59.0096 32.8767 59.2123C33.0034 59.415 33.2311 59.5259 33.6864 59.7479L44.2835 64.913C47.0409 66.257 48.4196 66.929 49.9568 66.4052C51.494 65.8814 52.0216 64.7575 53.0768 62.5097C55.9744 56.337 55.9744 49.3295 53.0768 43.1569C52.0216 40.909 51.494 39.7851 49.9568 39.2613C48.4196 38.7375 47.0409 39.4095 44.2835 40.7535L33.6864 45.9186C33.2311 46.1406 33.0034 46.2516 32.8767 46.4542Z" fill="#007373"/>
<path d="M30.2475 47.7474C30.25 47.7796 30.25 47.8406 30.25 47.9627L30.25 57.7036C30.25 57.8259 30.25 57.887 30.2475 57.9193C30.2168 58.3135 30.0416 58.5331 29.664 58.6505C29.6331 58.66 29.5397 58.6813 29.3531 58.7237C28.6943 58.8736 28.3639 58.9487 28.0986 58.9795C24.8037 59.3615 22.75 56.7136 22.75 53.6688V51.9977C22.75 48.9529 24.8037 46.305 28.0986 46.687C28.3639 46.7178 28.6936 46.7928 29.3525 46.9426C29.5395 46.9852 29.633 47.0064 29.6638 47.016C30.0416 47.1333 30.2169 47.353 30.2475 47.7474Z" fill="#007373"/>
<path d="M38.3388 66.282C37.2038 65.5386 36.2706 64.6854 35.5271 63.5054C35.4359 63.3607 35.347 63.2101 35.2604 63.0531C35.1756 62.8992 35.1331 62.8222 35.0771 62.769C35.0211 62.7157 34.9478 62.68 34.8011 62.6085L31.3582 60.9304C30.8631 60.6891 30.3606 60.6303 29.8139 60.7547C29.589 60.8058 29.4286 61.0047 29.4265 61.2354C29.4181 62.1921 29.4111 63.2174 29.4231 63.9645C29.4469 65.4469 29.5379 66.7546 29.837 67.9638C30.4614 70.4888 31.9337 72.3453 34.8338 74.6453C35.2956 75.0116 35.9506 75.0055 36.4055 74.6306L38.891 72.582C41.0875 70.7718 40.429 67.6512 38.3388 66.282Z" fill="#007373"/>
<path d="M76.6846 67.5C75.9814 67.5 75.752 67.1777 75.9961 66.5332L83.1738 47.6807C83.4766 46.8896 83.9355 46.4941 84.5508 46.4941H86.6016C87.2168 46.4941 87.6758 46.8896 87.9785 47.6807L95.1562 66.5332C95.4004 67.1777 95.1709 67.5 94.4678 67.5H92.1387C91.4941 67.5 91.0449 67.1631 90.791 66.4893L89.2969 62.5488H81.8555L80.3613 66.4893C80.1074 67.1631 79.6582 67.5 79.0137 67.5H76.6846ZM83.2178 58.916H87.9346L86.1328 54.2578C85.918 53.7109 85.7861 53.3154 85.7373 53.0713C85.6982 52.8174 85.6543 52.4463 85.6055 51.958H85.5469C85.498 52.4463 85.4492 52.8174 85.4004 53.0713C85.3613 53.3154 85.2344 53.7109 85.0195 54.2578L83.2178 58.916ZM96.5918 59.8096C96.5918 57.6611 97.0557 55.7959 97.9834 54.2139C98.9209 52.6221 100.537 51.8262 102.832 51.8262C103.711 51.8262 104.463 51.9531 105.088 52.207C105.713 52.4609 106.279 53.0078 106.787 53.8477H106.846C106.807 53.457 106.787 53.0664 106.787 52.6758V46.7578C106.787 46.1719 107.08 45.8789 107.666 45.8789H110.01C110.596 45.8789 110.889 46.1719 110.889 46.7578V66.6211C110.889 67.207 110.596 67.5 110.01 67.5H107.695C107.207 67.5 106.943 67.207 106.904 66.6211L106.846 65.7715H106.787C106.279 66.6113 105.713 67.1582 105.088 67.4121C104.463 67.666 103.711 67.793 102.832 67.793C100.537 67.793 98.9209 67.002 97.9834 65.4199C97.0557 63.8281 96.5918 61.958 96.5918 59.8096ZM100.928 59.8096C100.928 61.3721 101.128 62.6172 101.528 63.5449C101.938 64.4629 102.803 64.9219 104.121 64.9219C104.854 64.9219 105.479 64.5117 105.996 63.6914C106.523 62.8613 106.787 61.7871 106.787 60.4688V59.1504C106.787 57.832 106.523 56.7627 105.996 55.9424C105.479 55.1123 104.854 54.6973 104.121 54.6973C102.803 54.6973 101.938 55.1611 101.528 56.0889C101.128 57.0068 100.928 58.2471 100.928 59.8096ZM113.862 53.2617C113.618 52.5 113.779 52.1191 114.346 52.1191H116.968C117.427 52.1191 117.72 52.3682 117.847 52.8662L120.117 61.4502C120.244 61.9287 120.347 62.4023 120.425 62.8711C120.513 63.3398 120.566 63.7207 120.586 64.0137H120.674C120.693 63.7207 120.742 63.3398 120.82 62.8711C120.908 62.4023 121.016 61.9287 121.143 61.4502L123.413 52.8662C123.54 52.3682 123.833 52.1191 124.292 52.1191H126.914C127.48 52.1191 127.642 52.5 127.397 53.2617L123.149 66.5186C122.944 67.1729 122.588 67.5 122.08 67.5H119.18C118.672 67.5 118.315 67.1729 118.11 66.5186L113.862 53.2617ZM128.818 59.8096C128.818 57.3389 129.434 55.3906 130.664 53.9648C131.904 52.5391 133.652 51.8262 135.908 51.8262C138.525 51.8262 140.469 52.5 141.738 53.8477C143.008 55.1953 143.643 57.3633 143.643 60.3516C143.643 60.9375 143.369 61.2305 142.822 61.2305H133.154C133.311 62.8516 133.711 63.8721 134.355 64.292C135 64.7119 135.747 64.9219 136.597 64.9219C137.407 64.9219 138.027 64.8145 138.457 64.5996C138.887 64.3848 139.248 64.0918 139.541 63.7207C139.873 63.291 140.283 63.2227 140.771 63.5156L142.236 64.4092C142.812 64.7607 142.896 65.1807 142.485 65.6689C141.89 66.3818 141.191 66.9141 140.391 67.2656C139.59 67.6172 138.325 67.793 136.597 67.793C133.794 67.793 131.797 67.0801 130.605 65.6543C129.414 64.2285 128.818 62.2803 128.818 59.8096ZM133.169 58.3008H139.541C139.541 57.2461 139.277 56.3867 138.75 55.7227C138.223 55.0488 137.383 54.7119 136.23 54.7119C135.312 54.7119 134.585 55.0342 134.048 55.6787C133.511 56.3135 133.218 57.1875 133.169 58.3008ZM147.715 67.5C147.129 67.5 146.836 67.207 146.836 66.6211V52.998C146.836 52.4121 147.129 52.1191 147.715 52.1191H150.029C150.615 52.1191 150.908 52.4121 150.908 52.998V54.1992H150.967C151.221 53.5742 151.646 53.0225 152.241 52.5439C152.837 52.0654 153.54 51.8262 154.351 51.8262C154.907 51.8262 155.366 51.8945 155.728 52.0312C156.069 52.1582 156.201 52.3926 156.123 52.7344L155.713 54.4775C155.625 54.8682 155.361 54.9854 154.922 54.8291C154.668 54.7412 154.424 54.6973 154.189 54.6973C153.252 54.6973 152.476 55.2588 151.86 56.3818C151.245 57.5049 150.938 59.1406 150.938 61.2891V66.6211C150.938 67.207 150.645 67.5 150.059 67.5H147.715ZM157.837 55.0488C157.261 55.0488 156.973 54.8047 156.973 54.3164V52.8516C156.973 52.3633 157.261 52.1191 157.837 52.1191H158.833V51.6064C158.833 51.167 158.936 50.7666 159.141 50.4053L160.269 48.4277C160.483 48.0566 160.737 47.8711 161.03 47.8711H162.056C162.642 47.8711 162.935 48.1641 162.935 48.75V52.1191H165.308C165.884 52.1191 166.172 52.3633 166.172 52.8516V54.3164C166.172 54.8047 165.884 55.0488 165.308 55.0488H162.935V62.3145C162.935 63.3105 163.003 64.0283 163.14 64.4678C163.286 64.8975 163.657 65.1123 164.253 65.1123C164.556 65.1123 164.897 65.0635 165.278 64.9658C165.659 64.8584 165.957 64.7559 166.172 64.6582C166.514 64.502 166.738 64.6143 166.846 64.9951L167.285 66.665C167.373 66.9971 167.246 67.2412 166.904 67.3975C166.582 67.5439 166.138 67.6758 165.571 67.793C165.015 67.9199 164.453 67.9834 163.887 67.9834C162.49 67.9834 161.299 67.6953 160.312 67.1191C159.326 66.543 158.833 65.3564 158.833 63.5596V55.0488H157.837ZM170.918 67.5C170.332 67.5 170.039 67.207 170.039 66.6211V52.998C170.039 52.4121 170.332 52.1191 170.918 52.1191H173.262C173.848 52.1191 174.141 52.4121 174.141 52.998V66.6211C174.141 67.207 173.848 67.5 173.262 67.5H170.918ZM170.918 49.8633C170.332 49.8633 170.039 49.5703 170.039 48.9844V47.1094C170.039 46.5234 170.332 46.2305 170.918 46.2305H173.262C173.848 46.2305 174.141 46.5234 174.141 47.1094V48.9844C174.141 49.5703 173.848 49.8633 173.262 49.8633H170.918ZM177.817 66.4746C177.339 66.1328 177.207 65.7666 177.422 65.376L178.169 64.0137C178.433 63.5254 178.843 63.4668 179.399 63.8379C179.956 64.209 180.61 64.4824 181.362 64.6582C182.124 64.834 182.817 64.9219 183.442 64.9219C183.882 64.9219 184.292 64.8779 184.673 64.79C185.054 64.7021 185.376 64.5312 185.64 64.2773C185.903 64.0234 186.035 63.6523 186.035 63.1641C186.035 62.8711 185.957 62.6221 185.801 62.417C185.645 62.2119 185.444 62.0557 185.2 61.9482C184.956 61.8408 184.697 61.7529 184.424 61.6846C184.062 61.5967 183.54 61.4502 182.856 61.2451C182.183 61.04 181.533 60.8008 180.908 60.5273C180.391 60.3027 179.883 59.9902 179.385 59.5898C178.896 59.1797 178.535 58.7256 178.301 58.2275C178.076 57.7295 177.964 57.1143 177.964 56.3818C177.964 55.3955 178.247 54.5312 178.813 53.7891C179.39 53.0469 180.132 52.5342 181.04 52.251C181.948 51.9678 183.081 51.8262 184.438 51.8262C185.356 51.8262 186.25 51.958 187.119 52.2217C187.988 52.4854 188.608 52.7344 188.979 52.9688C189.565 53.3398 189.712 53.7354 189.419 54.1553L188.525 55.459C188.252 55.8496 187.812 55.8789 187.207 55.5469C186.748 55.293 186.294 55.0879 185.845 54.9316C185.405 54.7754 184.912 54.6973 184.365 54.6973C183.994 54.6973 183.638 54.7363 183.296 54.8145C182.954 54.8926 182.661 55.0391 182.417 55.2539C182.183 55.4688 182.065 55.752 182.065 56.1035C182.065 56.4746 182.173 56.7676 182.388 56.9824C182.612 57.1875 182.866 57.3389 183.149 57.4365C183.442 57.5342 183.721 57.627 183.984 57.7148C184.531 57.8906 185.083 58.0615 185.64 58.2275C186.196 58.3838 186.763 58.5742 187.339 58.7988C187.837 58.9941 188.32 59.2725 188.789 59.6338C189.258 59.9951 189.6 60.4541 189.814 61.0107C190.029 61.5674 190.137 62.2021 190.137 62.915C190.137 63.8623 189.854 64.7412 189.287 65.5518C188.721 66.3623 187.974 66.9385 187.046 67.2803C186.118 67.6221 185.039 67.793 183.809 67.793C182.432 67.793 181.26 67.6953 180.293 67.5C179.326 67.3047 178.501 66.9629 177.817 66.4746ZM193.74 67.5C193.154 67.5 192.861 67.207 192.861 66.6211V52.998C192.861 52.4121 193.154 52.1191 193.74 52.1191H196.084C196.67 52.1191 196.963 52.4121 196.963 52.998V66.6211C196.963 67.207 196.67 67.5 196.084 67.5H193.74ZM193.74 49.8633C193.154 49.8633 192.861 49.5703 192.861 48.9844V47.1094C192.861 46.5234 193.154 46.2305 193.74 46.2305H196.084C196.67 46.2305 196.963 46.5234 196.963 47.1094V48.9844C196.963 49.5703 196.67 49.8633 196.084 49.8633H193.74ZM201.826 67.5C201.24 67.5 200.947 67.207 200.947 66.6211V52.998C200.947 52.4121 201.24 52.1191 201.826 52.1191H204.141C204.727 52.1191 205.02 52.4121 205.02 52.998V53.8477H205.078C205.527 53.0762 206.099 52.5488 206.792 52.2656C207.485 51.9727 208.32 51.8262 209.297 51.8262C210.82 51.8262 212.08 52.3047 213.076 53.2617C214.072 54.2188 214.57 55.9668 214.57 58.5059V66.6211C214.57 67.207 214.277 67.5 213.691 67.5H211.348C210.762 67.5 210.469 67.207 210.469 66.6211V59.5605C210.469 57.4316 210.322 56.0889 210.029 55.5322C209.736 54.9756 209.106 54.6973 208.14 54.6973C207.114 54.6973 206.343 55.0977 205.825 55.8984C205.308 56.6895 205.049 58.3398 205.049 60.8496V66.6211C205.049 67.207 204.756 67.5 204.17 67.5H201.826ZM217.705 59.8096C217.705 57.6611 218.169 55.7959 219.097 54.2139C220.034 52.6221 221.65 51.8262 223.945 51.8262C224.824 51.8262 225.576 51.9531 226.201 52.207C226.826 52.4609 227.393 53.0078 227.9 53.8477H227.959L228.018 52.998C228.057 52.4121 228.32 52.1191 228.809 52.1191H231.123C231.709 52.1191 232.002 52.4121 232.002 52.998V67.3389C232.002 69.7314 231.357 71.3818 230.068 72.29C228.779 73.1982 226.914 73.6523 224.473 73.6523C223.438 73.6523 222.48 73.5986 221.602 73.4912C220.723 73.3838 219.834 73.1152 218.936 72.6855C218.467 72.4609 218.389 72.0361 218.701 71.4111L219.229 70.3564C219.443 69.9268 219.8 69.8291 220.298 70.0635C220.698 70.249 221.191 70.415 221.777 70.5615C222.373 70.708 223.125 70.7812 224.033 70.7812C225.283 70.7812 226.24 70.5469 226.904 70.0781C227.568 69.6191 227.9 68.6084 227.9 67.0459V66.7969C227.9 66.4062 227.92 66.0156 227.959 65.625H227.9C227.393 66.4648 226.826 67.0117 226.201 67.2656C225.576 67.5195 224.824 67.6465 223.945 67.6465C221.65 67.6465 220.034 66.8555 219.097 65.2734C218.169 63.6816 217.705 61.8604 217.705 59.8096ZM222.041 59.8096C222.041 61.2744 222.241 62.4707 222.642 63.3984C223.052 64.3164 223.916 64.7754 225.234 64.7754C225.967 64.7754 226.592 64.3652 227.109 63.5449C227.637 62.7148 227.9 61.6406 227.9 60.3223V59.1504C227.9 57.832 227.637 56.7627 227.109 55.9424C226.592 55.1123 225.967 54.6973 225.234 54.6973C223.916 54.6973 223.052 55.1611 222.642 56.0889C222.241 57.0068 222.041 58.2471 222.041 59.8096ZM246.841 65.9326C246.235 65.4736 246.089 65.0098 246.401 64.541L247.529 62.8418C247.9 62.2852 248.442 62.2559 249.155 62.7539C249.702 63.1348 250.415 63.5303 251.294 63.9404C252.183 64.3408 253.115 64.541 254.092 64.541C254.775 64.541 255.435 64.4629 256.069 64.3066C256.704 64.1504 257.188 63.8477 257.52 63.3984C257.852 62.9492 258.018 62.417 258.018 61.8018C258.018 61.3623 257.944 60.9766 257.798 60.6445C257.651 60.3125 257.412 60.0391 257.08 59.8242C256.748 59.6094 256.406 59.4287 256.055 59.2822C255.439 59.0283 254.663 58.7793 253.726 58.5352C252.798 58.2812 251.88 57.9785 250.972 57.627C250.161 57.3145 249.419 56.8848 248.745 56.3379C248.071 55.791 247.549 55.1758 247.178 54.4922C246.807 53.8086 246.621 52.8955 246.621 51.7529C246.621 50.3955 247.061 49.2334 247.939 48.2666C248.818 47.2998 249.829 46.6797 250.972 46.4062C252.114 46.1328 253.267 45.9961 254.429 45.9961C255.581 45.9961 256.768 46.1719 257.988 46.5234C259.219 46.875 260.146 47.3145 260.771 47.8418C261.387 48.3594 261.538 48.8281 261.226 49.248L260.039 50.8447C259.639 51.3916 259.102 51.4355 258.428 50.9766C257.998 50.6836 257.407 50.3564 256.655 49.9951C255.913 49.6338 255.137 49.4531 254.326 49.4531C253.75 49.4531 253.218 49.502 252.729 49.5996C252.251 49.6973 251.826 49.9316 251.455 50.3027C251.084 50.6738 250.898 51.1328 250.898 51.6797C250.898 52.207 251.035 52.6367 251.309 52.9688C251.582 53.291 251.885 53.5352 252.217 53.7012C252.549 53.8574 252.886 53.9893 253.228 54.0967C254.282 54.4385 255.225 54.7412 256.055 55.0049C256.885 55.2588 257.651 55.542 258.354 55.8545C259.331 56.2939 260.078 56.7334 260.596 57.1729C261.113 57.6123 261.538 58.2129 261.87 58.9746C262.212 59.7363 262.383 60.6445 262.383 61.6992C262.383 63.2617 261.885 64.5557 260.889 65.5811C259.893 66.5967 258.784 67.251 257.563 67.5439C256.353 67.8467 255.171 67.998 254.019 67.998C252.319 67.998 250.938 67.832 249.873 67.5C248.809 67.1777 247.798 66.6553 246.841 65.9326ZM266.777 67.5C266.094 67.5 265.752 67.1338 265.752 66.4014V47.5928C265.752 46.8604 266.094 46.4941 266.777 46.4941H271.025C271.592 46.4941 271.997 46.8848 272.241 47.666L276.211 60.5127C276.387 61.0693 276.509 61.5283 276.577 61.8896C276.646 62.2412 276.704 62.6611 276.753 63.1494H276.841C276.89 62.6611 276.948 62.2412 277.017 61.8896C277.085 61.5283 277.207 61.0693 277.383 60.5127L281.353 47.666C281.597 46.8848 282.002 46.4941 282.568 46.4941H286.816C287.5 46.4941 287.842 46.8604 287.842 47.5928V66.4014C287.842 67.1338 287.5 67.5 286.816 67.5H284.59C283.906 67.5 283.564 67.1338 283.564 66.4014V54.3018C283.564 53.7158 283.589 53.1299 283.638 52.5439H283.535L279.302 66.3135C279.058 67.1045 278.638 67.5 278.042 67.5H275.552C274.956 67.5 274.536 67.1045 274.292 66.3135L270.059 52.5439H269.956C270.005 53.1299 270.029 53.7158 270.029 54.3018V66.4014C270.029 67.1338 269.688 67.5 269.004 67.5H266.777ZM292.778 65.9326C292.173 65.4736 292.026 65.0098 292.339 64.541L293.467 62.8418C293.838 62.2852 294.38 62.2559 295.093 62.7539C295.64 63.1348 296.353 63.5303 297.231 63.9404C298.12 64.3408 299.053 64.541 300.029 64.541C300.713 64.541 301.372 64.4629 302.007 64.3066C302.642 64.1504 303.125 63.8477 303.457 63.3984C303.789 62.9492 303.955 62.417 303.955 61.8018C303.955 61.3623 303.882 60.9766 303.735 60.6445C303.589 60.3125 303.35 60.0391 303.018 59.8242C302.686 59.6094 302.344 59.4287 301.992 59.2822C301.377 59.0283 300.601 58.7793 299.663 58.5352C298.735 58.2812 297.817 57.9785 296.909 57.627C296.099 57.3145 295.356 56.8848 294.683 56.3379C294.009 55.791 293.486 55.1758 293.115 54.4922C292.744 53.8086 292.559 52.8955 292.559 51.7529C292.559 50.3955 292.998 49.2334 293.877 48.2666C294.756 47.2998 295.767 46.6797 296.909 46.4062C298.052 46.1328 299.204 45.9961 300.366 45.9961C301.519 45.9961 302.705 46.1719 303.926 46.5234C305.156 46.875 306.084 47.3145 306.709 47.8418C307.324 48.3594 307.476 48.8281 307.163 49.248L305.977 50.8447C305.576 51.3916 305.039 51.4355 304.365 50.9766C303.936 50.6836 303.345 50.3564 302.593 49.9951C301.851 49.6338 301.074 49.4531 300.264 49.4531C299.688 49.4531 299.155 49.502 298.667 49.5996C298.188 49.6973 297.764 49.9316 297.393 50.3027C297.021 50.6738 296.836 51.1328 296.836 51.6797C296.836 52.207 296.973 52.6367 297.246 52.9688C297.52 53.291 297.822 53.5352 298.154 53.7012C298.486 53.8574 298.823 53.9893 299.165 54.0967C300.22 54.4385 301.162 54.7412 301.992 55.0049C302.822 55.2588 303.589 55.542 304.292 55.8545C305.269 56.2939 306.016 56.7334 306.533 57.1729C307.051 57.6123 307.476 58.2129 307.808 58.9746C308.149 59.7363 308.32 60.6445 308.32 61.6992C308.32 63.2617 307.822 64.5557 306.826 65.5811C305.83 66.5967 304.722 67.251 303.501 67.5439C302.29 67.8467 301.108 67.998 299.956 67.998C298.257 67.998 296.875 67.832 295.811 67.5C294.746 67.1777 293.735 66.6553 292.778 65.9326Z" fill="#007373"/>
</svg>
