<svg width="50" height="50" viewBox="0 0 50 50" fill="none" xmlns="http://www.w3.org/2000/svg">
<path opacity="0.4" d="M33.0557 7.87584C34.9857 6.31641 37.1474 6.22175 39.5092 6.25486C40.7308 6.27199 41.3416 6.28055 41.8316 6.47058C42.6091 6.77207 43.2279 7.39092 43.5294 8.16835C43.7194 8.65836 43.728 9.26916 43.7451 10.4908C43.7782 12.8526 43.6836 15.0143 42.1242 16.9443C40.811 18.5695 38.5539 19.4188 37.4679 21.2126C36.6387 22.5823 37.025 24.0006 37.3812 25.4603L40.0475 36.388C40.5789 38.5656 40.1746 39.9615 38.6518 41.4843C37.8417 42.2943 37.1678 42.2532 36.5107 41.2062L28.4639 28.3852L24.6211 31.4398C23.2277 32.5474 22.531 33.1012 22.1649 33.8805C21.3075 35.7058 21.8519 38.4473 21.8797 40.4263C21.895 41.5201 20.9498 43.6757 19.6123 43.7485C18.7866 43.7935 18.5059 42.8059 18.2392 42.1997L15.6715 36.3634C15.0575 34.9677 15.0323 34.9425 13.6366 34.3285L7.80032 31.7608C7.19412 31.4941 6.20655 31.2134 6.25148 30.3877C6.32427 29.0502 8.47992 28.105 9.57367 28.1203C11.5527 28.1481 14.2942 28.6925 16.1195 27.8351C16.8988 27.469 17.4526 26.7723 18.5602 25.3789L21.6148 21.5361L8.7938 13.4893C7.74676 12.8322 7.70567 12.1583 8.51573 11.3482C10.0385 9.82541 11.4344 9.42112 13.612 9.95246L24.5397 12.6188C25.9994 12.975 27.4177 13.3613 28.7874 12.5321C30.5812 11.4461 31.4305 9.18903 33.0557 7.87584Z" fill="#007373"/>
<path fill-rule="evenodd" clip-rule="evenodd" d="M32.0739 6.66042C34.4776 4.71826 37.1622 4.65923 39.5313 4.69245C39.607 4.69351 39.6821 4.69444 39.7566 4.69537C40.7496 4.7077 41.6361 4.71872 42.3968 5.01372C43.5836 5.47398 44.5262 6.41651 44.9864 7.60333C45.2814 8.36402 45.2924 9.25053 45.3048 10.2435C45.3057 10.318 45.3066 10.3931 45.3077 10.4688C45.3409 12.838 45.2819 15.5226 43.3397 17.9262C42.614 18.8244 41.6624 19.5217 40.9045 20.0771C40.8136 20.1437 40.7254 20.2083 40.6407 20.271C39.7673 20.9175 39.1701 21.4182 38.8047 22.0218C38.3684 22.7426 38.5051 23.4739 38.8994 25.0898L41.5657 36.0175C41.8704 37.2664 41.9453 38.4471 41.6259 39.5991C41.3058 40.7534 40.6371 41.7088 39.7568 42.5891C39.2508 43.0951 38.4263 43.7164 37.3481 43.5941C36.2714 43.4721 35.5926 42.6824 35.1874 42.0367L28.0692 30.6951L25.5936 32.6629C24.0796 33.8664 23.7535 34.1741 23.5793 34.5448C23.3147 35.1082 23.2213 35.9373 23.2524 37.0521C23.2672 37.5811 23.3069 38.12 23.3483 38.6811L23.3504 38.7104C23.3913 39.265 23.4345 39.8548 23.4422 40.4044C23.4548 41.3054 23.1079 42.3969 22.6013 43.2607C22.1312 44.0622 21.1852 45.2277 19.6974 45.3086C18.49 45.3743 17.7624 44.6159 17.4075 44.0716C17.1573 43.6879 16.9461 43.1655 16.8512 42.9309C16.8325 42.8846 16.8183 42.8494 16.8092 42.8288L14.2415 36.9926C14.0809 36.6275 13.9888 36.4223 13.9109 36.2754C13.8746 36.207 13.8521 36.1726 13.8419 36.1582C13.8275 36.148 13.7931 36.1256 13.7247 36.0893C13.5778 36.0113 13.3726 35.9192 13.0076 35.7586L7.17131 33.1909C7.15071 33.1819 7.11559 33.1677 7.06923 33.1489C6.83462 33.0541 6.31224 32.8429 5.92853 32.5927C5.38422 32.2378 4.62579 31.5101 4.6915 30.3027C4.77246 28.8149 5.93795 27.8689 6.73947 27.3988C7.60326 26.8923 8.69478 26.5453 9.59578 26.5579C10.1453 26.5656 10.7351 26.6089 11.2897 26.6497L11.3191 26.6519C11.8803 26.6932 12.4191 26.7329 12.948 26.7477C14.0629 26.7788 14.892 26.6854 15.4553 26.4208C15.826 26.2466 16.1338 25.9205 17.3372 24.4066L19.3051 21.931L7.96339 14.8127C7.31774 14.4075 6.52807 13.7287 6.40601 12.6521C6.28377 11.5739 6.90501 10.7494 7.41109 10.2433C8.29137 9.36301 9.24674 8.69432 10.401 8.37427C11.5531 8.05485 12.7338 8.12971 13.9826 8.43442L24.9103 11.1008C26.5262 11.495 27.2576 11.6318 27.9784 11.1954C28.5819 10.83 29.0826 10.2328 29.7291 9.35943C29.7918 9.27477 29.8564 9.18658 29.9231 9.0956C30.4784 8.33774 31.1757 7.38616 32.0739 6.66042ZM13.8505 36.1647L13.8477 36.1625L13.8505 36.1647ZM39.4875 7.81714C37.133 7.78413 35.4942 7.91442 34.0379 9.09112C33.4748 9.54614 33.0241 10.1572 32.4246 10.9699C32.3649 11.0508 32.3037 11.1338 32.2408 11.2187C31.6079 12.0737 30.7871 13.148 29.5968 13.8687C27.7 15.017 25.7267 14.5247 24.414 14.1973C24.3298 14.1762 24.2482 14.1559 24.1695 14.1367L13.2418 11.4704C12.3131 11.2437 11.707 11.2551 11.236 11.3857C10.8123 11.5031 10.3598 11.7554 9.80222 12.2773L22.4456 20.2126C22.8222 20.4489 23.0802 20.8345 23.1552 21.2727C23.2301 21.7109 23.1148 22.1603 22.8382 22.5083L19.7835 26.3511C19.7245 26.4253 19.6663 26.4988 19.6086 26.5716C18.6772 27.7466 17.9027 28.7237 16.784 29.2492C15.5221 29.842 14.0679 29.9052 12.8609 29.8715C12.2592 29.8547 11.6581 29.8104 11.1167 29.7704L11.0601 29.7663C10.487 29.724 9.99197 29.6888 9.55197 29.6826C9.48547 29.6817 9.31053 29.699 9.05352 29.7763C8.80801 29.8501 8.54901 29.9604 8.32037 30.0945C8.25422 30.1333 8.19449 30.1718 8.14098 30.2093L8.15067 30.2133L8.15396 30.2146C8.235 30.2478 8.33394 30.2884 8.42974 30.3305L14.266 32.8982C14.3066 32.916 14.3475 32.9339 14.3888 32.952C14.9518 33.1982 15.5753 33.4709 16.0523 33.9479C16.5293 34.4249 16.8019 35.0483 17.0482 35.6114C17.0662 35.6526 17.0841 35.6936 17.102 35.7341L19.6696 41.5704C19.7117 41.6662 19.7523 41.7651 19.7855 41.8461L19.7869 41.8495L19.7908 41.8592C19.8284 41.8057 19.8669 41.7459 19.9057 41.6798C20.0398 41.4511 20.15 41.1921 20.2238 40.9466C20.3011 40.6896 20.3184 40.5147 20.3175 40.4482C20.3113 40.0082 20.2761 39.5132 20.2339 38.9401L20.2297 38.8834C20.1898 38.342 20.1454 37.7409 20.1287 37.1393C20.095 35.9323 20.1581 34.478 20.7509 33.2161C21.2764 32.0974 22.2535 31.3229 23.4286 30.3915C23.5013 30.3339 23.5748 30.2756 23.649 30.2166L27.4919 27.162C27.8399 26.8853 28.2893 26.77 28.7275 26.845C29.1657 26.9199 29.5512 27.1779 29.7876 27.5545L37.7228 40.1979C38.2448 39.6403 38.497 39.1878 38.6145 38.7641C38.7451 38.2931 38.7564 37.6871 38.5298 36.7583L35.8634 25.8306C35.8442 25.7519 35.8239 25.6704 35.8029 25.5861C35.4754 24.2735 34.9832 22.3001 36.1315 20.4034C36.8521 19.213 37.9264 18.3922 38.7814 17.7593C38.8664 17.6964 38.9493 17.6352 39.0302 17.5755C39.843 16.9761 40.454 16.5254 40.909 15.9622C42.0857 14.5059 42.216 12.8671 42.183 10.5126C42.1639 9.15393 42.1358 8.89549 42.0728 8.73324C41.9301 8.36519 41.6349 8.07003 41.2669 7.9273C41.1046 7.86438 40.8462 7.83619 39.4875 7.81714Z" fill="#007373"/>
</svg>
