<svg width="40" height="40" viewBox="0 0 40 40" fill="none" xmlns="http://www.w3.org/2000/svg">
<rect y="0.00976562" width="40" height="40" rx="10" fill="#A4E1D2"/>
<path fill-rule="evenodd" clip-rule="evenodd" d="M16.1923 16.7115C16.072 16.4228 15.7851 16.2391 15.4726 16.2505C15.16 16.2619 14.8874 16.4661 14.7884 16.7628L12.7884 22.7628C12.6575 23.1558 12.8698 23.5805 13.2628 23.7115C13.6557 23.8425 14.0805 23.6301 14.2115 23.2372L14.5405 22.25H16.875L17.3077 23.2885C17.467 23.6708 17.9061 23.8516 18.2884 23.6923C18.6708 23.533 18.8516 23.0939 18.6923 22.7115L16.1923 16.7115ZM16.25 20.75H15.0405L15.5781 19.1374L16.25 20.75Z" fill="#007373"/>
<path fill-rule="evenodd" clip-rule="evenodd" d="M21.1598 16.2497L21.1999 16.2499H22.4999C23.7426 16.2499 24.7499 17.2573 24.7499 18.4999C24.7499 19.7426 23.7426 20.7499 22.4999 20.7499H21.2499V22.9999C21.2499 23.4141 20.9141 23.7499 20.4999 23.7499C20.0857 23.7499 19.7499 23.4141 19.7499 22.9999V17.6999L19.7497 17.6598C19.7489 17.5256 19.7475 17.3094 19.8111 17.1136C19.9347 16.7331 20.2331 16.4347 20.6136 16.3111C20.8094 16.2475 21.0256 16.2489 21.1598 16.2497ZM21.2499 19.2499H22.4999C22.9141 19.2499 23.2499 18.9141 23.2499 18.4999C23.2499 18.0857 22.9141 17.7499 22.4999 17.7499H21.2499V19.2499Z" fill="#007373"/>
<path d="M27.25 17C27.25 16.5858 26.9142 16.25 26.5 16.25C26.0858 16.25 25.75 16.5858 25.75 17V23C25.75 23.4142 26.0858 23.75 26.5 23.75C26.9142 23.75 27.25 23.4142 27.25 23V17Z" fill="#007373"/>
<path fill-rule="evenodd" clip-rule="evenodd" d="M20.0572 9.75H19.9428C17.7521 9.74999 16.0314 9.74998 14.688 9.93059C13.3114 10.1157 12.2191 10.5027 11.3609 11.3609C10.5027 12.2191 10.1157 13.3114 9.93059 14.688C9.74998 16.0314 9.74999 17.7521 9.75 19.9428V20.0572C9.74999 22.2479 9.74998 23.9686 9.93059 25.312C10.1157 26.6886 10.5027 27.7809 11.3609 28.6391C12.2191 29.4973 13.3114 29.8843 14.688 30.0694C16.0314 30.25 17.7521 30.25 19.9428 30.25H20.0572C22.2479 30.25 23.9686 30.25 25.312 30.0694C26.6886 29.8843 27.7809 29.4973 28.6391 28.6391C29.4973 27.7809 29.8843 26.6886 30.0694 25.312C30.25 23.9686 30.25 22.2479 30.25 20.0572V19.9428C30.25 17.7521 30.25 16.0314 30.0694 14.688C29.8843 13.3114 29.4973 12.2191 28.6391 11.3609C27.7809 10.5027 26.6886 10.1157 25.312 9.93059C23.9686 9.74998 22.2479 9.74999 20.0572 9.75ZM12.4216 12.4216C12.9546 11.8885 13.6776 11.5799 14.8879 11.4172C16.1198 11.2516 17.7396 11.25 20 11.25C22.2604 11.25 23.8802 11.2516 25.1121 11.4172C26.3224 11.5799 27.0454 11.8885 27.5784 12.4216C28.1115 12.9546 28.4201 13.6776 28.5828 14.8879C28.7484 16.1198 28.75 17.7396 28.75 20C28.75 22.2604 28.7484 23.8802 28.5828 25.1121C28.4201 26.3224 28.1115 27.0454 27.5784 27.5784C27.0454 28.1115 26.3224 28.4201 25.1121 28.5828C23.8802 28.7484 22.2604 28.75 20 28.75C17.7396 28.75 16.1198 28.7484 14.8879 28.5828C13.6776 28.4201 12.9546 28.1115 12.4216 27.5784C11.8885 27.0454 11.5799 26.3224 11.4172 25.1121C11.2516 23.8802 11.25 22.2604 11.25 20C11.25 17.7396 11.2516 16.1198 11.4172 14.8879C11.5799 13.6776 11.8885 12.9546 12.4216 12.4216Z" fill="#007373"/>
</svg>
