<svg width="50" height="50" viewBox="0 0 50 50" fill="none" xmlns="http://www.w3.org/2000/svg">
<path opacity="0.4" d="M5.2085 24.9999C5.2085 15.67 5.2085 11.0051 8.10692 8.10667C11.0053 5.20825 15.6703 5.20825 25.0002 5.20825C34.33 5.20825 38.995 5.20825 41.8934 8.10667C44.7918 11.0051 44.7918 15.67 44.7918 24.9999C44.7918 34.3298 44.7918 38.9947 41.8934 41.8932C38.995 44.7916 34.33 44.7916 25.0002 44.7916C15.6703 44.7916 11.0053 44.7916 8.10692 41.8932C5.2085 38.9947 5.2085 34.3298 5.2085 24.9999Z" fill="#007373"/>
<path fill-rule="evenodd" clip-rule="evenodd" d="M17.0674 18.149C16.8168 17.5475 16.2192 17.1647 15.568 17.1885C14.9169 17.2123 14.3488 17.6377 14.1428 18.2558L9.97609 30.7558C9.70321 31.5745 10.1456 32.4594 10.9643 32.7322C11.783 33.0051 12.6678 32.5627 12.9407 31.744L13.6263 29.6874H18.4897L19.3911 31.8509C19.723 32.6475 20.6378 33.0241 21.4344 32.6922C22.2309 32.3603 22.6076 31.4455 22.2757 30.649L17.0674 18.149ZM17.1876 26.5624H14.6679L15.7878 23.2029L17.1876 26.5624Z" fill="#007373"/>
<path fill-rule="evenodd" clip-rule="evenodd" d="M27.4163 17.1869L27.5 17.1872H30.2083C32.7971 17.1872 34.8958 19.2859 34.8958 21.8747C34.8958 24.4636 32.7971 26.5622 30.2083 26.5622H27.6041V31.2497C27.6041 32.1127 26.9046 32.8122 26.0416 32.8122C25.1787 32.8122 24.4791 32.1127 24.4791 31.2497V20.2081L24.4788 20.1244C24.477 19.845 24.4741 19.3946 24.6066 18.9867C24.8642 18.1939 25.4858 17.5723 26.2786 17.3147C26.6865 17.1822 27.1369 17.1851 27.4163 17.1869ZM27.6041 23.4372H30.2083C31.0713 23.4372 31.7708 22.7377 31.7708 21.8747C31.7708 21.0118 31.0713 20.3122 30.2083 20.3122H27.6041V23.4372Z" fill="#007373"/>
<path d="M40.1043 18.7499C40.1043 17.887 39.4048 17.1874 38.5418 17.1874C37.6789 17.1874 36.9793 17.887 36.9793 18.7499V31.2499C36.9793 32.1129 37.6789 32.8124 38.5418 32.8124C39.4048 32.8124 40.1043 32.1129 40.1043 31.2499V18.7499Z" fill="#007373"/>
<path fill-rule="evenodd" clip-rule="evenodd" d="M25.1193 3.64575H24.881C20.3171 3.64572 16.7323 3.6457 13.9335 4.02199C11.0655 4.40759 8.78998 5.21391 7.00207 7.00182C5.21415 8.78973 4.40783 11.0653 4.02223 13.9333C3.64595 16.7321 3.64597 20.3168 3.646 24.8808V25.119C3.64597 29.683 3.64595 33.2677 4.02223 36.0665C4.40783 38.9346 5.21415 41.2101 7.00207 42.998C8.78998 44.7859 11.0655 45.5922 13.9335 45.9778C16.7323 46.3541 20.317 46.3541 24.881 46.3541H25.1193C29.6832 46.3541 33.268 46.3541 36.0668 45.9778C38.9348 45.5922 41.2103 44.7859 42.9983 42.998C44.7862 41.2101 45.5925 38.9346 45.9781 36.0665C46.3544 33.2678 46.3544 29.683 46.3543 25.1191V24.8808C46.3544 20.3169 46.3544 16.7321 45.9781 13.9333C45.5925 11.0653 44.7862 8.78973 42.9983 7.00182C41.2103 5.21391 38.9348 4.40759 36.0668 4.02199C33.268 3.6457 29.6832 3.64572 25.1193 3.64575ZM9.21177 9.21153C10.3223 8.10102 11.8284 7.45813 14.3499 7.11912C16.9164 6.77407 20.291 6.77075 25.0002 6.77075C29.7093 6.77075 33.0839 6.77407 35.6504 7.11912C38.1719 7.45813 39.678 8.10102 40.7886 9.21153C41.8991 10.322 42.542 11.8282 42.881 14.3497C43.226 16.9162 43.2293 20.2908 43.2293 24.9999C43.2293 29.709 43.226 33.0837 42.881 35.6501C42.542 38.1716 41.8991 39.6778 40.7886 40.7883C39.678 41.8988 38.1719 42.5417 35.6504 42.8807C33.0839 43.2258 29.7093 43.2291 25.0002 43.2291C20.291 43.2291 16.9164 43.2258 14.3499 42.8807C11.8284 42.5417 10.3223 41.8988 9.21177 40.7883C8.10126 39.6778 7.45837 38.1716 7.11937 35.6501C6.77432 33.0837 6.771 29.709 6.771 24.9999C6.771 20.2908 6.77432 16.9162 7.11937 14.3497C7.45837 11.8282 8.10126 10.322 9.21177 9.21153Z" fill="#007373"/>
</svg>
