<svg width="35" height="35" viewBox="0 0 35 35" fill="none" xmlns="http://www.w3.org/2000/svg">
<path d="M11.6667 17.4998C10.8613 17.4998 10.2084 18.1528 10.2084 18.9582C10.2084 19.7636 10.8613 20.4165 11.6667 20.4165H11.6798C12.4852 20.4165 13.1381 19.7636 13.1381 18.9582C13.1381 18.1528 12.4852 17.4998 11.6798 17.4998H11.6667Z" fill="#007373"/>
<path d="M17.4935 17.4998C16.6881 17.4998 16.0352 18.1528 16.0352 18.9582C16.0352 19.7636 16.6881 20.4165 17.4935 20.4165H17.5066C18.312 20.4165 18.9649 19.7636 18.9649 18.9582C18.9649 18.1528 18.312 17.4998 17.5066 17.4998H17.4935Z" fill="#007373"/>
<path d="M23.3203 17.4998C22.5149 17.4998 21.862 18.1528 21.862 18.9582C21.862 19.7636 22.5149 20.4165 23.3203 20.4165H23.3334C24.1388 20.4165 24.7917 19.7636 24.7917 18.9582C24.7917 18.1528 24.1388 17.4998 23.3334 17.4998H23.3203Z" fill="#007373"/>
<path d="M11.6667 23.3332C10.8613 23.3332 10.2084 23.9861 10.2084 24.7915C10.2084 25.5969 10.8613 26.2498 11.6667 26.2498H11.6798C12.4852 26.2498 13.1381 25.5969 13.1381 24.7915C13.1381 23.9861 12.4852 23.3332 11.6798 23.3332H11.6667Z" fill="#007373"/>
<path d="M17.4935 23.3332C16.6881 23.3332 16.0352 23.9861 16.0352 24.7915C16.0352 25.5969 16.6881 26.2498 17.4935 26.2498H17.5066C18.312 26.2498 18.9649 25.5969 18.9649 24.7915C18.9649 23.9861 18.312 23.3332 17.5066 23.3332H17.4935Z" fill="#007373"/>
<path fill-rule="evenodd" clip-rule="evenodd" d="M9.84379 2.9165C9.84379 2.31244 9.3541 1.82275 8.75004 1.82275C8.14598 1.82275 7.65629 2.31244 7.65629 2.9165V3.84224C6.48269 4.17487 5.49285 4.7155 4.66896 5.6062C3.53451 6.83263 3.03024 8.38222 2.78874 10.3241C2.5521 12.2269 2.55211 14.6655 2.55212 17.777V18.681C2.55211 21.7925 2.5521 24.2311 2.78874 26.1339C3.03024 28.0758 3.53451 29.6254 4.66896 30.8518C5.81463 32.0904 7.28115 32.652 9.1165 32.9188C10.8928 33.177 13.1623 33.1769 16.026 33.1769H18.9741C21.8378 33.1769 24.1073 33.177 25.8836 32.9188C27.7189 32.652 29.1855 32.0904 30.3311 30.8518C31.4656 29.6254 31.9698 28.0758 32.2113 26.1339C32.448 24.2311 32.448 21.7925 32.448 18.681V17.777C32.448 14.6655 32.448 12.227 32.2113 10.3241C31.9698 8.38222 31.4656 6.83263 30.3311 5.6062C29.5072 4.7155 28.5174 4.17487 27.3438 3.84224V2.9165C27.3438 2.31244 26.8541 1.82275 26.25 1.82275C25.646 1.82275 25.1563 2.31244 25.1563 2.9165V3.4501C23.4995 3.28104 21.4608 3.28106 18.9741 3.28109H16.026C13.5392 3.28106 11.5005 3.28104 9.84379 3.4501V2.9165ZM7.698 6.13336C7.82847 6.59147 8.25008 6.92692 8.75004 6.92692C9.3541 6.92692 9.84379 6.43723 9.84379 5.83317V5.65027C11.3911 5.47086 13.391 5.46859 16.1146 5.46859H18.8855C21.6091 5.46859 23.609 5.47086 25.1563 5.65027V5.83317C25.1563 6.43723 25.646 6.92692 26.25 6.92692C26.75 6.92692 27.1716 6.59147 27.3021 6.13336C27.8961 6.36971 28.3471 6.68273 28.7253 7.0916C29.4152 7.83749 29.8237 8.8605 30.0391 10.582C29.9922 10.5759 29.9444 10.5728 29.8959 10.5728H5.10421C5.05567 10.5728 5.00788 10.5759 4.96102 10.582C5.17642 8.8605 5.58486 7.83749 6.2748 7.0916C6.653 6.68273 7.10401 6.36971 7.698 6.13336ZM4.79815 12.7169C4.74044 14.1211 4.73962 15.8028 4.73962 17.8546V18.6034C4.73962 21.8093 4.74162 24.1118 4.95951 25.8639C5.17452 27.5927 5.58325 28.6188 6.2748 29.3664C6.95514 30.1019 7.87107 30.5273 9.43114 30.754C11.032 30.9867 13.1424 30.9894 16.1146 30.9894H18.8855C21.8577 30.9894 23.9681 30.9867 25.5689 30.754C27.129 30.5273 28.0449 30.1019 28.7253 29.3664C29.4168 28.6188 29.8256 27.5927 30.0406 25.8639C30.2585 24.1118 30.2605 21.8093 30.2605 18.6034V17.8546C30.2605 15.8028 30.2596 14.1211 30.2019 12.7169C30.1048 12.7451 30.0021 12.7603 29.8959 12.7603H5.10421C4.99797 12.7603 4.89527 12.7451 4.79815 12.7169Z" fill="#007373"/>
</svg>
