<svg width="50" height="50" viewBox="0 0 50 50" fill="none" xmlns="http://www.w3.org/2000/svg">
<path opacity="0.4" d="M4.1665 25.8333C4.1665 19.5479 4.1665 16.4052 6.1379 14.4526C8.1093 12.5 11.2822 12.5 17.628 12.5H19.8716C26.2175 12.5 29.3904 12.5 31.3618 14.4526C33.3332 16.4052 33.3332 19.5479 33.3332 25.8333V32.5C33.3332 38.7854 33.3332 41.9281 31.3618 43.8807C29.3904 45.8333 26.2175 45.8333 19.8716 45.8333H17.628C11.2822 45.8333 8.1093 45.8333 6.1379 43.8807C4.1665 41.9281 4.1665 38.7854 4.1665 32.5V25.8333Z" fill="#007373"/>
<path d="M12.4998 23.4376C11.6369 23.4376 10.9373 24.1371 10.9373 25.0001C10.9373 25.863 11.6369 26.5626 12.4998 26.5626H18.7498C19.6128 26.5626 20.3123 25.863 20.3123 25.0001C20.3123 24.1371 19.6128 23.4376 18.7498 23.4376H12.4998Z" fill="#007373"/>
<path d="M12.4998 33.8542C11.6369 33.8542 10.9373 34.5538 10.9373 35.4167C10.9373 36.2797 11.6369 36.9792 12.4998 36.9792H22.9165C23.7794 36.9792 24.479 36.2797 24.479 35.4167C24.479 34.5538 23.7794 33.8542 22.9165 33.8542H12.4998Z" fill="#007373"/>
<path fill-rule="evenodd" clip-rule="evenodd" d="M34.4075 2.60425H32.2555C29.6327 2.6042 27.5047 2.60417 25.8281 2.83206C24.0805 3.0696 22.5919 3.58051 21.4089 4.77649C20.3792 5.81752 19.8634 7.09289 19.5937 8.57714C19.4649 9.28584 19.3875 10.0717 19.3406 10.9376H17.5138C14.4379 10.9375 11.9724 10.9375 10.0363 11.1953C8.03287 11.4621 6.36332 12.0302 5.03835 13.3426C3.71131 14.657 3.13495 16.3167 2.86463 18.3081C2.60393 20.2287 2.60396 22.6732 2.604 25.7173V32.6161C2.60396 35.6602 2.60393 38.1048 2.86463 40.0254C3.13495 42.0168 3.71131 43.6765 5.03835 44.9909C6.36332 46.3033 8.03287 46.8714 10.0363 47.1382C11.9724 47.396 14.4379 47.396 17.5137 47.3959H19.986C23.0618 47.396 25.5273 47.396 27.4634 47.1382C29.4668 46.8714 31.1364 46.3033 32.4613 44.9909C33.7884 43.6765 34.3647 42.0168 34.6351 40.0254C34.8272 38.6101 34.8777 36.9104 34.891 34.8959C37.2931 34.8951 39.2624 34.8818 40.8348 34.6681C42.5825 34.4306 44.071 33.9197 45.254 32.7237C46.4347 31.5301 46.9369 30.0322 47.1708 28.2735C47.3957 26.5818 47.3957 24.4335 47.3956 21.7792V15.721C47.3957 13.0667 47.3957 10.9183 47.1708 9.22669C46.9369 7.46801 46.4347 5.97011 45.254 4.77649C44.071 3.58051 42.5825 3.0696 40.8348 2.83206C39.1582 2.60417 37.0303 2.6042 34.4075 2.60425ZM34.8957 31.7708C37.3398 31.7694 39.0795 31.753 40.414 31.5716C41.8088 31.382 42.5253 31.0386 43.0323 30.5261C43.5416 30.0111 43.8844 29.2798 44.073 27.8615C44.2674 26.4 44.2706 24.4603 44.2706 21.6667V15.8334C44.2706 13.0399 44.2674 11.1002 44.073 9.63864C43.8844 8.22032 43.5416 7.48903 43.0323 6.9741C42.5253 6.46154 41.8088 6.11818 40.414 5.92858C38.9724 5.73264 37.0578 5.72925 34.2931 5.72925H32.3698C29.6052 5.72925 27.6906 5.73264 26.249 5.92858C25.4487 6.03736 24.8718 6.19675 24.4295 6.40967L31.2365 12.3658L31.2246 12.3794C31.6655 12.6453 32.0779 12.9628 32.4613 13.3426C33.7884 14.657 34.3647 16.3167 34.6351 18.3081C34.8958 20.2287 34.8957 22.6732 34.8957 25.7173V31.7708ZM22.6868 9.0372C22.6805 9.06962 22.6744 9.10248 22.6683 9.13578C22.5742 9.65402 22.5116 10.2483 22.4703 10.9435C23.3479 10.9502 24.165 10.9645 24.9242 10.9949L22.6868 9.0372ZM7.23746 15.5628C7.88389 14.9226 8.78649 14.5144 10.4488 14.293C12.1546 14.0658 14.4114 14.0626 17.628 14.0626H19.8716C23.0883 14.0626 25.3451 14.0658 27.0509 14.293C28.7132 14.5144 29.6158 14.9226 30.2622 15.5628C30.9066 16.2011 31.3159 17.089 31.5385 18.7284C31.7673 20.4144 31.7707 22.6461 31.7707 25.8334V32.5001C31.7707 35.6874 31.7673 37.9191 31.5385 39.6051C31.3159 41.2445 30.9066 42.1324 30.2622 42.7707C29.6158 43.4109 28.7132 43.8191 27.0509 44.0405C25.3451 44.2677 23.0883 44.2709 19.8716 44.2709H17.628C14.4114 44.2709 12.1546 44.2677 10.4488 44.0405C8.78649 43.8191 7.88389 43.4109 7.23746 42.7707C6.5931 42.1324 6.18377 41.2445 5.96123 39.6051C5.73239 37.9191 5.72901 35.6874 5.72901 32.5001V25.8334C5.72901 22.6461 5.73239 20.4144 5.96123 18.7284C6.18377 17.089 6.5931 16.2011 7.23746 15.5628Z" fill="#007373"/>
</svg>
