<svg width="40" height="40" viewBox="0 0 40 40" fill="none" xmlns="http://www.w3.org/2000/svg">
<rect y="0.00976562" width="40" height="40" rx="10" fill="#A4E1D2"/>
<path d="M15.25 21.5098C15.25 18.8864 17.3766 16.7598 20 16.7598C20.4142 16.7598 20.75 16.424 20.75 16.0098C20.75 15.5956 20.4142 15.2598 20 15.2598C16.5482 15.2598 13.75 18.058 13.75 21.5098C13.75 24.9615 16.5482 27.7598 20 27.7598C20.4142 27.7598 20.75 27.424 20.75 27.0098C20.75 26.5956 20.4142 26.2598 20 26.2598C17.3766 26.2598 15.25 24.1331 15.25 21.5098Z" fill="#007373"/>
<path d="M23.624 17.4258C23.8538 17.0811 23.7606 16.6155 23.416 16.3857C23.0713 16.156 22.6057 16.2491 22.3759 16.5937L19.3759 21.0937C19.1462 21.4384 19.2393 21.904 19.5839 22.1338C19.9286 22.3636 20.3942 22.2704 20.624 21.9258L23.624 17.4258Z" fill="#007373"/>
<path fill-rule="evenodd" clip-rule="evenodd" d="M22.25 11.5098C22.25 11.8584 22.1707 12.1885 22.0292 12.483C26.1617 13.408 29.25 17.0982 29.25 21.5098C29.25 26.6184 25.1086 30.7598 20 30.7598C14.8914 30.7598 10.75 26.6184 10.75 21.5098C10.75 17.0982 13.8383 13.408 17.9708 12.483C17.8293 12.1885 17.75 11.8584 17.75 11.5098C17.75 10.2671 18.7574 9.25977 20 9.25977C21.2426 9.25977 22.25 10.2671 22.25 11.5098ZM20 12.2598C19.5858 12.2598 19.25 11.924 19.25 11.5098C19.25 11.0956 19.5858 10.7598 20 10.7598C20.4142 10.7598 20.75 11.0956 20.75 11.5098C20.75 11.924 20.4142 12.2598 20 12.2598ZM12.25 21.5098C12.25 17.2296 15.7198 13.7598 20 13.7598C24.2802 13.7598 27.75 17.2296 27.75 21.5098C27.75 25.79 24.2802 29.2598 20 29.2598C15.7198 29.2598 12.25 25.79 12.25 21.5098Z" fill="#007373"/>
</svg>
