<svg width="40" height="40" viewBox="0 0 40 40" fill="none" xmlns="http://www.w3.org/2000/svg">
<rect y="0.00976562" width="40" height="40" rx="10" fill="#A4E1D2"/>
<path fill-rule="evenodd" clip-rule="evenodd" d="M15.5859 12.2403C14.7546 12.6983 13.8653 13.1884 12.9525 13.4793C12.4727 13.6321 12.1484 13.7359 11.918 13.8261C11.7659 13.8856 11.6999 13.9232 11.6788 13.9356C11.6708 13.9515 11.657 13.9844 11.6394 14.0462C11.6005 14.1822 11.5657 14.3701 11.5074 14.6931C11.3642 15.4862 11.2785 16.2699 11.2495 17.0381C11.2338 17.452 10.8856 17.7749 10.4716 17.7592C10.0577 17.7436 9.73488 17.3953 9.75055 16.9814C9.78237 16.1405 9.87599 15.2867 10.0313 14.4267L10.0368 14.396C10.0876 14.1142 10.1351 13.851 10.1971 13.634C10.2655 13.3949 10.3685 13.145 10.569 12.9224C10.7922 12.6747 11.1066 12.5328 11.3713 12.4292C11.6525 12.3192 12.0237 12.2009 12.4716 12.0582L12.497 12.0501C13.2597 11.807 13.9542 11.4244 14.7377 10.9927C15.0578 10.8163 15.3929 10.6317 15.7535 10.4451C16.9471 9.82755 18.3153 9.25977 19.9983 9.25977C21.6812 9.25977 23.05 9.82756 24.2442 10.4451C24.6049 10.6317 24.94 10.8162 25.2604 10.9926C26.0444 11.4243 26.7395 11.8071 27.5026 12.0501L27.528 12.0582C27.9758 12.2008 28.3471 12.3191 28.6283 12.4291C28.893 12.5327 29.2074 12.6745 29.4306 12.9222C29.6312 13.1448 29.7342 13.3947 29.8026 13.6339C29.8646 13.8509 29.9121 14.1141 29.963 14.396L29.9685 14.4266C30.1238 15.2866 30.2175 16.1404 30.2495 16.9813C30.2652 17.3952 29.9424 17.7435 29.5285 17.7592C29.1146 17.7749 28.7663 17.4521 28.7506 17.0382C28.7214 16.27 28.6356 15.4863 28.4924 14.6932C28.4341 14.3701 28.3992 14.1822 28.3603 14.0461C28.3427 13.9843 28.3289 13.9514 28.321 13.9355C28.2998 13.923 28.2338 13.8855 28.0818 13.826C27.8513 13.7359 27.5271 13.6322 27.0474 13.4794C26.1342 13.1885 25.2444 12.6985 24.4125 12.2404C24.1191 12.0788 23.8327 11.921 23.5551 11.7775C22.4414 11.2015 21.3269 10.7598 19.9983 10.7598C18.6697 10.7598 17.5558 11.2015 16.4428 11.7774C16.1654 11.9209 15.8793 12.0786 15.5859 12.2403Z" fill="#007373"/>
<path d="M11.9287 25.4198C11.7022 25.073 11.7998 24.6082 12.1467 24.3818C12.4935 24.1553 12.9582 24.2529 13.1847 24.5997C14.4169 26.487 16.2378 28.0019 18.6562 28.9267C19.3214 29.1811 19.5402 29.2598 20.0015 29.2598C20.4629 29.2598 20.6816 29.1811 21.3468 28.9267C23.765 28.0019 25.5853 26.4871 26.817 24.5999C27.0434 24.253 27.5081 24.1553 27.855 24.3817C28.2018 24.6081 28.2995 25.0728 28.0731 25.4197C26.6648 27.5777 24.5895 29.2926 21.8826 30.3278L21.8497 30.3403C21.1991 30.5892 20.7532 30.7598 20.0015 30.7598C19.2499 30.7598 18.8039 30.5892 18.1533 30.3403L18.1205 30.3278C15.4134 29.2926 13.3376 27.5778 11.9287 25.4198Z" fill="#007373"/>
<path d="M15.9697 19.4794C16.2626 19.1865 16.7374 19.1865 17.0303 19.4794L17.5 19.9491L17.9697 19.4794C18.2626 19.1865 18.7374 19.1865 19.0303 19.4794C19.3232 19.7723 19.3232 20.2472 19.0303 20.5401L18.5607 21.0098L19.0303 21.4794C19.3232 21.7723 19.3232 22.2472 19.0303 22.5401C18.7374 22.833 18.2626 22.833 17.9697 22.5401L17.5 22.0704L17.0303 22.5401C16.7374 22.833 16.2626 22.833 15.9697 22.5401C15.6768 22.2472 15.6768 21.7723 15.9697 21.4794L16.4393 21.0098L15.9697 20.5401C15.6768 20.2472 15.6768 19.7723 15.9697 19.4794Z" fill="#007373"/>
<path d="M12.0303 19.4794C11.7374 19.1865 11.2626 19.1865 10.9697 19.4794C10.6768 19.7723 10.6768 20.2472 10.9697 20.5401L11.4393 21.0098L10.9697 21.4794C10.6768 21.7723 10.6768 22.2472 10.9697 22.5401C11.2626 22.833 11.7374 22.833 12.0303 22.5401L12.5 22.0704L12.9697 22.5401C13.2626 22.833 13.7374 22.833 14.0303 22.5401C14.3232 22.2472 14.3232 21.7723 14.0303 21.4794L13.5607 21.0098L14.0303 20.5401C14.3232 20.2472 14.3232 19.7723 14.0303 19.4794C13.7374 19.1865 13.2626 19.1865 12.9697 19.4794L12.5 19.9491L12.0303 19.4794Z" fill="#007373"/>
<path d="M20.9697 19.4794C21.2626 19.1865 21.7374 19.1865 22.0303 19.4794L22.5 19.9491L22.9697 19.4794C23.2626 19.1865 23.7374 19.1865 24.0303 19.4794C24.3232 19.7723 24.3232 20.2472 24.0303 20.5401L23.5607 21.0098L24.0303 21.4794C24.3232 21.7723 24.3232 22.2472 24.0303 22.5401C23.7374 22.833 23.2626 22.833 22.9697 22.5401L22.5 22.0704L22.0303 22.5401C21.7374 22.833 21.2626 22.833 20.9697 22.5401C20.6768 22.2472 20.6768 21.7723 20.9697 21.4794L21.4393 21.0098L20.9697 20.5401C20.6768 20.2472 20.6768 19.7723 20.9697 19.4794Z" fill="#007373"/>
<path d="M27.0303 19.4794C26.7374 19.1865 26.2626 19.1865 25.9697 19.4794C25.6768 19.7723 25.6768 20.2472 25.9697 20.5401L26.4393 21.0098L25.9697 21.4794C25.6768 21.7723 25.6768 22.2472 25.9697 22.5401C26.2626 22.833 26.7374 22.833 27.0303 22.5401L27.5 22.0704L27.9697 22.5401C28.2626 22.833 28.7374 22.833 29.0303 22.5401C29.3232 22.2472 29.3232 21.7723 29.0303 21.4794L28.5607 21.0098L29.0303 20.5401C29.3232 20.2472 29.3232 19.7723 29.0303 19.4794C28.7374 19.1865 28.2626 19.1865 27.9697 19.4794L27.5 19.9491L27.0303 19.4794Z" fill="#007373"/>
</svg>
