<svg width="60" height="60" viewBox="0 0 60 60" fill="none" xmlns="http://www.w3.org/2000/svg">
<rect width="60" height="60" rx="30" fill="#EFEFFF"/>
<path fill-rule="evenodd" clip-rule="evenodd" d="M32.1013 16.5625C34.3988 16.5625 36.2188 16.5625 37.6425 16.75C39.1075 16.95 40.2937 17.3625 41.23 18.3C42.165 19.2375 42.58 20.425 42.7775 21.8875C42.9688 23.3125 42.9688 25.1375 42.9688 27.425V32.575C42.9688 34.8625 42.9688 36.6875 42.7775 38.1125C42.58 39.575 42.165 40.7625 41.23 41.7C40.2937 42.6375 39.1075 43.05 37.6425 43.25C36.2188 43.4375 34.3988 43.4375 32.1013 43.4375H30.0862C27.7887 43.4375 25.9687 43.4375 24.545 43.25C23.08 43.05 21.8938 42.6375 20.9575 41.7C20.1625 40.9 19.7425 39.925 19.5137 38.75H18.2812C17.5913 38.75 17.0312 38.1875 17.0312 37.5C17.0312 36.8125 17.5913 36.25 18.2812 36.25H19.2612C19.2187 35.1875 19.2188 33.9625 19.2188 32.575V31.25H18.2812C17.5913 31.25 17.0312 30.6875 17.0312 30C17.0312 29.3125 17.5913 28.75 18.2812 28.75H19.2188V27.425C19.2188 26.0375 19.2187 24.8125 19.2612 23.75H18.2812C17.5913 23.75 17.0312 23.1875 17.0312 22.5C17.0312 21.8125 17.5913 21.25 18.2812 21.25H19.5137C19.7425 20.075 20.1625 19.1 20.9575 18.3C21.8938 17.3625 23.08 16.95 24.545 16.75C25.9687 16.5625 27.7887 16.5625 30.0862 16.5625H32.1013ZM31.4062 22.8125C29.5075 22.8125 27.9688 24.35 27.9688 26.25C27.9688 28.15 29.5075 29.6875 31.4062 29.6875C33.305 29.6875 34.8438 28.15 34.8438 26.25C34.8438 24.35 33.305 22.8125 31.4062 22.8125ZM34.94 31.925C32.7813 30.6125 30.0312 30.6125 27.8725 31.925C27.485 32.15 26.6025 32.65 26.1387 33.125C25.845 33.4125 25.535 33.8375 25.4775 34.3625C25.4175 34.925 25.665 35.45 26.1163 35.8875C26.8013 36.5625 27.715 37.1875 28.9562 37.1875H33.8563C35.0975 37.1875 36.0125 36.5625 36.6962 35.8875C37.1487 35.45 37.3963 34.925 37.335 34.3625C37.2788 33.8375 36.9688 33.4125 36.6738 33.125C36.2113 32.65 35.3288 32.15 34.94 31.925Z" fill="#605BFF"/>
</svg>
