<svg width="50" height="50" viewBox="0 0 50 50" fill="none" xmlns="http://www.w3.org/2000/svg">
<g opacity="0.4">
<path d="M13.8244 20.1501C14.5574 20.7876 14.5829 21.6025 14.5829 22.5093L14.5829 31.6574C14.5829 32.5642 14.5574 33.3791 13.8244 34.0166C13.5577 34.2485 13.2042 34.4095 12.4973 34.7315C11.5621 35.1575 11.0945 35.3704 10.6311 35.4079C9.30324 35.5153 8.56473 34.6585 7.79166 33.7196C7.55954 33.4376 7.312 33.1514 7.05965 32.8596C5.97861 31.6097 4.80905 30.2574 4.38385 28.7009C4.09367 27.6387 4.09367 26.5279 4.38385 25.4657C4.74343 24.1495 5.72611 22.9559 7.69147 20.5688C7.70868 20.5479 7.72587 20.527 7.74304 20.5061C8.52554 19.5548 9.27088 18.6487 10.6311 18.7587C11.0945 18.7962 11.5621 19.0092 12.4973 19.4352C13.2042 19.7572 13.5577 19.9182 13.8244 20.1501Z" fill="#007373"/>
<path d="M35.5247 21.1079C35.4162 21.4289 35.4162 21.7889 35.4162 22.5089L35.4162 31.657C35.4162 32.3771 35.4162 32.7371 35.5247 33.0581C35.8334 33.9719 36.6371 34.3376 37.4522 34.7085L37.5018 34.7311C38.437 35.1571 38.9046 35.3701 39.368 35.4076C39.8939 35.4501 40.4209 35.3368 40.8704 35.0845C41.2664 34.8622 41.5801 34.4812 42.2074 33.7192C42.4396 33.4373 42.6871 33.1511 42.9395 32.8593C44.0205 31.6093 45.1901 30.257 45.6153 28.7006C45.9054 27.6384 45.9054 26.5276 45.6153 25.4654C45.2557 24.1492 44.273 22.9556 42.3076 20.5684C42.2233 20.466 42.1394 20.3589 42.0543 20.2505C41.7103 19.8115 41.3483 19.3497 40.8704 19.0815C40.4209 18.8292 39.8939 18.7159 39.368 18.7584C38.9046 18.7959 38.437 19.0089 37.5018 19.4348L37.4522 19.4574C36.6371 19.8284 35.8334 20.1941 35.5247 21.1079Z" fill="#007373"/>
</g>
<path fill-rule="evenodd" clip-rule="evenodd" d="M25.0005 7.81193C18.0956 7.81193 12.7737 12.2337 12.061 17.5359C12.3603 17.6537 12.6618 17.7917 12.9707 17.9331L13.1458 18.0131L13.2821 18.0749C13.8502 18.3325 14.4067 18.5848 14.8506 18.9709C16.1483 20.0994 16.147 21.589 16.1463 22.4503L16.1463 31.716C16.147 32.5774 16.1483 34.0669 14.8506 35.1954C14.4067 35.5815 13.8502 35.8338 13.2821 36.0914L13.1458 36.1533L12.9707 36.2333C12.2147 36.5793 11.5032 36.9049 10.758 36.9652C8.58073 37.1413 7.36118 35.6561 6.64471 34.7836L6.58627 34.7125C6.40467 34.492 6.18108 34.2329 5.93963 33.9531C5.49822 33.4415 4.99713 32.8609 4.58388 32.3201C3.90127 31.4268 3.21725 30.3563 2.87747 29.1125C2.51365 27.7808 2.51365 26.3856 2.87747 25.0538C3.12403 24.1513 3.57012 23.3548 4.15899 22.5189C4.72925 21.7093 5.49749 20.7762 6.44747 19.6224L6.48609 19.5755C6.52504 19.5282 6.56583 19.478 6.60854 19.4254C7.08969 18.8332 7.81557 17.9399 8.91817 17.4813C9.65912 10.1308 16.7839 4.68693 25.0005 4.68693C33.2171 4.68693 40.3419 10.1308 41.0828 17.4814C42.1854 17.9399 42.9113 18.8332 43.3925 19.4254L43.3945 19.4279C43.4365 19.4796 43.4766 19.5289 43.5149 19.5755L43.5534 19.6223C44.5034 20.7761 45.2717 21.7093 45.842 22.5189C46.4309 23.3548 46.877 24.1513 47.1235 25.0538C47.4874 26.3856 47.4874 27.7808 47.1235 29.1125C46.7838 30.3563 46.0997 31.4268 45.4171 32.3201C45.0039 32.8608 44.5029 33.4414 44.0616 33.9528C43.8202 34.2326 43.5963 34.492 43.4147 34.7125L43.3563 34.7836C42.8829 35.3601 42.19 36.2039 41.1463 36.6594L41.1463 37.0828C41.1463 41.9349 36.3724 45.3119 31.2505 45.3119L27.0838 45.3119C26.2209 45.3119 25.5213 44.6124 25.5213 43.7494C25.5213 42.8865 26.2209 42.1869 27.0838 42.1869L31.2505 42.1869C35.3333 42.1869 38.0213 39.5944 38.0213 37.0828L38.0213 36.662C37.6952 36.5376 37.3672 36.3875 37.0303 36.2333L36.8552 36.1533L36.7189 36.0914C36.1508 35.8338 35.5943 35.5815 35.1504 35.1954C33.8527 34.0669 33.854 32.5774 33.8547 31.716L33.8547 22.4503C33.854 21.589 33.8527 20.0994 35.1504 18.9709C35.5943 18.5848 36.1508 18.3325 36.7189 18.0749L36.8552 18.0131L37.0303 17.9331C37.3392 17.7917 37.6407 17.6537 37.94 17.5359C37.2273 12.2337 31.9054 7.81193 25.0005 7.81193ZM39.6211 33.854C39.6087 33.8537 39.5963 33.8536 39.5838 33.8536C39.5744 33.8536 39.565 33.8537 39.5557 33.8538C39.536 33.8532 39.5158 33.852 39.4949 33.8503C39.3708 33.8403 39.1989 33.7869 38.1505 33.3094C37.3513 32.9454 37.255 32.8843 37.2011 32.8374C37.1078 32.7563 37.0697 32.6892 37.0385 32.5631C36.9926 32.3772 36.9797 32.1302 36.9797 31.6572L36.9797 22.5091C36.9797 22.0361 36.9926 21.7891 37.0385 21.6032C37.0697 21.4771 37.1078 21.41 37.2011 21.3289C37.255 21.282 37.3513 21.221 38.1505 20.857C39.1989 20.3794 39.3708 20.326 39.4949 20.316C39.5265 20.3134 39.5566 20.3121 39.5856 20.3119L39.5965 20.3119C39.7992 20.313 39.9462 20.3748 40.1235 20.5074C40.4018 20.7157 40.6631 21.0282 41.1024 21.5618C42.0999 22.7734 42.7926 23.6164 43.2872 24.3185C43.7709 25.0052 43.996 25.4636 44.109 25.8773C44.3255 26.67 44.3255 27.4964 44.109 28.289C43.9243 28.965 43.5177 29.659 42.9341 30.4227C42.5589 30.9136 42.1962 31.3319 41.8126 31.7742C41.5552 32.071 41.2884 32.3787 41.0022 32.7263C40.596 33.2197 40.3427 33.5038 40.0911 33.6827C39.9378 33.7917 39.8042 33.8486 39.6211 33.854ZM10.4154 20.3119L10.4045 20.3119C10.2018 20.313 10.0548 20.3748 9.87753 20.5074C9.59917 20.7157 9.33792 21.0282 8.89863 21.5618C7.90106 22.7734 7.20838 23.6164 6.71376 24.3185C6.23006 25.0052 6.00502 25.4636 5.892 25.8773C5.67547 26.67 5.67547 27.4964 5.892 28.289C6.07668 28.965 6.48334 29.659 7.0669 30.4227C7.44208 30.9136 7.80482 31.3319 8.18844 31.7742C8.44577 32.071 8.71264 32.3787 8.99881 32.7263C9.40503 33.2197 9.65831 33.5038 9.90991 33.6827C10.0962 33.8153 10.2535 33.8708 10.5061 33.8503C10.6302 33.8403 10.8021 33.7869 11.8505 33.3094C12.6497 32.9454 12.746 32.8843 12.7999 32.8374C12.8932 32.7563 12.9313 32.6892 12.9625 32.5631C13.0084 32.3772 13.0213 32.1302 13.0213 31.6572L13.0213 22.5091C13.0213 22.0361 13.0084 21.7891 12.9625 21.6032C12.9313 21.4771 12.8932 21.41 12.7999 21.3289C12.746 21.282 12.6497 21.221 11.8505 20.857C10.8021 20.3794 10.6302 20.326 10.5061 20.316C10.4745 20.3134 10.4444 20.3121 10.4154 20.3119Z" fill="#007373"/>
</svg>
