<svg width="24" height="24" viewBox="0 0 24 24" fill="none" xmlns="http://www.w3.org/2000/svg">
<rect width="24" height="24" rx="4" fill="#D20202" fill-opacity="0.11"/>
<path d="M10.3333 15.4999C10.0572 15.4999 9.83333 15.2761 9.83333 14.9999L9.83333 10.9999C9.83333 10.7238 10.0572 10.4999 10.3333 10.4999C10.6095 10.4999 10.8333 10.7238 10.8333 10.9999L10.8333 14.9999C10.8333 15.2761 10.6095 15.4999 10.3333 15.4999Z" fill="#D20202"/>
<path d="M14.1667 10.9999C14.1667 10.7238 13.9428 10.4999 13.6667 10.4999C13.3905 10.4999 13.1667 10.7238 13.1667 10.9999V14.9999C13.1667 15.2761 13.3905 15.4999 13.6667 15.4999C13.9428 15.4999 14.1667 15.2761 14.1667 14.9999V10.9999Z" fill="#D20202"/>
<path fill-rule="evenodd" clip-rule="evenodd" d="M12.0441 4.83325H12.0014C11.6646 4.83324 11.3788 4.83324 11.1417 4.85482C10.8901 4.87773 10.6557 4.92734 10.429 5.04786C10.3396 5.09543 10.2542 5.15032 10.1739 5.21199C9.97018 5.36824 9.82782 5.56094 9.70261 5.78041C9.58461 5.98722 9.4661 6.24722 9.32639 6.55374L9.04704 7.16659H6C5.72386 7.16659 5.5 7.39044 5.5 7.66659C5.5 7.94273 5.72386 8.16659 6 8.16659H6.52929L6.90556 14.3993C6.95584 15.2324 6.99575 15.8935 7.07877 16.4216C7.16391 16.9632 7.30081 17.4142 7.5754 17.8088C7.82661 18.1697 8.15025 18.4744 8.5257 18.7034C8.93611 18.9537 9.39457 19.0632 9.94027 19.1156C10.4724 19.1666 11.1347 19.1666 11.9692 19.1666H12.021C12.8545 19.1666 13.516 19.1666 14.0475 19.1157C14.5925 19.0634 15.0505 18.9541 15.4606 18.7043C15.8358 18.4757 16.1594 18.1715 16.4107 17.8112C16.6853 17.4172 16.8226 16.9669 16.9084 16.4261C16.9921 15.8987 17.0329 15.2386 17.0843 14.4067L17.4701 8.16659H18C18.2761 8.16659 18.5 7.94273 18.5 7.66659C18.5 7.39044 18.2761 7.16659 18 7.16659H15.0171L14.6894 6.49065C14.5461 6.195 14.4245 5.94404 14.3047 5.74451C14.1776 5.5327 14.0346 5.34708 13.8334 5.19699C13.7539 5.13768 13.6697 5.08492 13.5816 5.03923C13.3588 4.92362 13.1294 4.87597 12.8833 4.85397C12.6516 4.83324 12.3727 4.83324 12.0441 4.83325ZM16.4682 8.16659H14.7148C14.7077 8.16674 14.7006 8.16674 14.6935 8.16659H9.37933C9.372 8.16675 9.36465 8.16675 9.3573 8.16659H7.53111L7.90218 14.3132C7.95438 15.1779 7.99194 15.7911 8.06664 16.2663C8.14008 16.7334 8.24293 17.0173 8.39621 17.2376C8.56808 17.4845 8.78952 17.693 9.04641 17.8497C9.2755 17.9894 9.56505 18.075 10.0358 18.1201C10.5146 18.1661 11.1289 18.1666 11.9952 18.1666C12.8603 18.1666 13.4738 18.1661 13.952 18.1202C14.4221 18.0751 14.7114 17.9898 14.9404 17.8503C15.1971 17.6939 15.4184 17.4858 15.5904 17.2392C15.7437 17.0193 15.8468 16.7358 15.9208 16.2694C15.9961 15.7949 16.0344 15.1826 16.0878 14.3191L16.4682 8.16659ZM13.9058 7.16659H10.146L10.2274 6.98814C10.3784 6.65674 10.4784 6.43857 10.5712 6.27596C10.6592 6.12161 10.7224 6.05151 10.7825 6.00541C10.8191 5.97738 10.8579 5.95242 10.8985 5.9308C10.9654 5.89524 11.0554 5.86682 11.2324 5.8507C11.4188 5.83373 11.6588 5.83325 12.023 5.83325C12.3784 5.83325 12.6123 5.83371 12.7943 5.84999C12.9669 5.86543 13.0552 5.89269 13.1211 5.92688C13.1611 5.94765 13.1994 5.97163 13.2355 5.99859C13.2951 6.04297 13.3581 6.11051 13.4473 6.25914C13.5413 6.4158 13.6438 6.62609 13.7988 6.94584L13.9058 7.16659Z" fill="#D20202"/>
</svg>
