<svg width="24" height="24" viewBox="0 0 24 24" fill="none" xmlns="http://www.w3.org/2000/svg">
<g clip-path="url(#clip0_263_5849)">
<path d="M13.2285 0.922079C13.1435 0.852272 13.0443 0.801873 12.9378 0.774409C12.8313 0.746944 12.7201 0.743078 12.612 0.763079L0.612001 3.01308C0.439951 3.04487 0.284493 3.13597 0.172674 3.27054C0.0608545 3.40511 -0.000246856 3.57462 7.49592e-07 3.74958V20.2496C7.49592e-07 20.6096 0.256501 20.9201 0.612001 20.9861L12.612 23.2361C12.6575 23.245 12.7037 23.2495 12.75 23.2496C12.9225 23.2496 13.0935 23.1896 13.2285 23.0771C13.3134 23.0067 13.3818 22.9185 13.4287 22.8186C13.4756 22.7188 13.5 22.6099 13.5 22.4996V1.49958C13.5 1.27608 13.401 1.06458 13.2285 0.922079ZM12 21.5951L1.5 19.6271V4.37208L12 2.40408V21.5951Z" fill="white"/>
<path d="M23.25 3.74951H12.75C12.336 3.74951 12 4.08551 12 4.49951C12 4.91351 12.336 5.24951 12.75 5.24951H22.5V18.7495H12.75C12.336 18.7495 12 19.0855 12 19.4995C12 19.9135 12.336 20.2495 12.75 20.2495H23.25C23.664 20.2495 24 19.9135 24 19.4995V4.49951C24 4.08551 23.664 3.74951 23.25 3.74951Z" fill="white"/>
<path d="M15.75 6.74951H12.75C12.336 6.74951 12 7.08551 12 7.49951C12 7.91351 12.336 8.24951 12.75 8.24951H15.75C16.164 8.24951 16.5 7.91351 16.5 7.49951C16.5 7.08551 16.164 6.74951 15.75 6.74951ZM15.75 9.74951H12.75C12.336 9.74951 12 10.0855 12 10.4995C12 10.9135 12.336 11.2495 12.75 11.2495H15.75C16.164 11.2495 16.5 10.9135 16.5 10.4995C16.5 10.0855 16.164 9.74951 15.75 9.74951ZM15.75 12.7495H12.75C12.336 12.7495 12 13.0855 12 13.4995C12 13.9135 12.336 14.2495 12.75 14.2495H15.75C16.164 14.2495 16.5 13.9135 16.5 13.4995C16.5 13.0855 16.164 12.7495 15.75 12.7495ZM15.75 15.7495H12.75C12.336 15.7495 12 16.0855 12 16.4995C12 16.9135 12.336 17.2495 12.75 17.2495H15.75C16.164 17.2495 16.5 16.9135 16.5 16.4995C16.5 16.0855 16.164 15.7495 15.75 15.7495ZM20.25 6.74951H18.75C18.336 6.74951 18 7.08551 18 7.49951C18 7.91351 18.336 8.24951 18.75 8.24951H20.25C20.664 8.24951 21 7.91351 21 7.49951C21 7.08551 20.664 6.74951 20.25 6.74951ZM20.25 9.74951H18.75C18.336 9.74951 18 10.0855 18 10.4995C18 10.9135 18.336 11.2495 18.75 11.2495H20.25C20.664 11.2495 21 10.9135 21 10.4995C21 10.0855 20.664 9.74951 20.25 9.74951ZM20.25 12.7495H18.75C18.336 12.7495 18 13.0855 18 13.4995C18 13.9135 18.336 14.2495 18.75 14.2495H20.25C20.664 14.2495 21 13.9135 21 13.4995C21 13.0855 20.664 12.7495 20.25 12.7495ZM20.25 15.7495H18.75C18.336 15.7495 18 16.0855 18 16.4995C18 16.9135 18.336 17.2495 18.75 17.2495H20.25C20.664 17.2495 21 16.9135 21 16.4995C21 16.0855 20.664 15.7495 20.25 15.7495ZM10.3155 14.506L5.06553 8.50601C4.78953 8.19251 4.31703 8.16251 4.00653 8.43551C3.69453 8.70851 3.66303 9.18251 3.93603 9.49301L9.18603 15.493C9.25625 15.5736 9.34292 15.6382 9.44022 15.6824C9.53751 15.7267 9.64315 15.7496 9.75003 15.7495C9.92553 15.7495 10.101 15.688 10.245 15.5635C10.557 15.2905 10.5885 14.818 10.3155 14.506Z" fill="white"/>
<path d="M10.2105 7.65866C9.88352 7.40216 9.41252 7.46366 9.15752 7.78916L3.90752 14.5392C3.65402 14.8662 3.71252 15.3387 4.03952 15.5922C4.17127 15.6943 4.33329 15.7498 4.50002 15.7497C4.72202 15.7497 4.94402 15.6507 5.09102 15.4617L10.341 8.71166C10.596 8.38316 10.5375 7.91216 10.2105 7.65866Z" fill="white"/>
</g>
<defs>
<clipPath id="clip0_263_5849">
<rect width="24" height="24" fill="white"/>
</clipPath>
</defs>
</svg>
