<svg width="60" height="60" viewBox="0 0 60 60" fill="none" xmlns="http://www.w3.org/2000/svg">
<rect width="60" height="60" rx="30" fill="#EFF4FF"/>
<path d="M42.7611 18.8349C43.4118 18.6044 43.7525 17.89 43.522 17.2393C43.2916 16.5885 42.5772 16.2478 41.9264 16.4783C40.8288 16.8671 39.7795 17.6085 38.8587 18.416C37.925 19.2349 37.052 20.1856 36.3104 21.0746C35.7612 21.7328 35.2757 22.3674 34.8817 22.9059C34.5208 22.4735 34.1612 22.1576 33.8184 21.929C33.4754 21.7004 33.1618 21.568 32.902 21.4937C32.7026 21.4264 32.4467 21.4076 32.3438 21.4066C31.6534 21.4066 31.0938 21.9662 31.0938 22.6566C31.0938 23.3075 31.5912 23.8422 32.2267 23.9012C32.255 23.9107 32.3262 23.9389 32.4316 24.0092C32.6807 24.1752 33.1749 24.6139 33.7257 25.7156C33.9272 26.1186 34.3299 26.3819 34.7798 26.405C35.2296 26.428 35.6572 26.207 35.8988 25.8269L36.0616 25.5786C36.1716 25.4135 36.3341 25.1738 36.5405 24.8814C36.9543 24.2951 37.5403 23.503 38.2301 22.6761C38.9223 21.8463 39.7037 21.0002 40.5071 20.2956C41.3234 19.5797 42.094 19.0711 42.7611 18.8349Z" fill="#5B93FF"/>
<path fill-rule="evenodd" clip-rule="evenodd" d="M35.1136 19.5847C35.4482 19.1926 35.6155 18.9965 35.5542 18.7991C35.4928 18.6017 35.2595 18.5391 34.7929 18.4141C34.093 18.2265 33.3662 18.1044 32.6192 18.0548C30.7939 17.9334 28.8899 17.9337 27.0683 18.0548C21.36 18.4342 16.8309 23.0421 16.4585 28.8043C16.3888 29.8823 16.3888 30.9974 16.4585 32.0754C16.5972 34.2209 17.5331 36.1564 18.5735 37.7269C18.8852 38.3288 18.7228 39.2315 18.1399 40.3361L18.113 40.387C17.9172 40.7579 17.7255 41.121 17.6149 41.4306C17.4977 41.7586 17.3765 42.2795 17.6786 42.7945C17.9562 43.2678 18.3997 43.4411 18.7582 43.5105C19.0558 43.5681 19.4207 43.5768 19.763 43.5849L19.8202 43.5863C21.5949 43.6295 22.8455 43.1171 23.836 42.3867L23.9551 42.299C24.1045 42.1891 24.1792 42.1342 24.2763 42.1221C24.3734 42.1101 24.4588 42.1448 24.6295 42.2144C24.7141 42.2489 24.8092 42.288 24.9167 42.3323C25.5935 42.611 26.3621 42.778 27.0683 42.825C28.8899 42.946 30.7939 42.9463 32.6192 42.825C38.3275 42.4455 42.8566 37.8377 43.229 32.0754C43.2987 30.9974 43.2987 29.8823 43.229 28.8043C43.0965 26.7543 42.4379 24.8504 41.3872 23.231C41.173 22.9008 41.0659 22.7356 40.8813 22.7212C40.6968 22.7067 40.5625 22.8562 40.2938 23.1551C40.0816 23.3912 39.873 23.633 39.6699 23.8765C39.0207 24.6546 38.4658 25.4045 38.0723 25.9619C37.8791 26.2356 37.7276 26.459 37.6259 26.6116L37.4726 26.8454C36.8674 27.7871 35.8037 28.3341 34.6839 28.2768C33.5591 28.2192 32.5524 27.5608 32.0487 26.5534C31.8787 26.2135 31.7299 25.9812 31.616 25.8272C31.5645 25.7576 31.5388 25.7228 31.4945 25.6897C31.4502 25.6567 31.3921 25.6355 31.2757 25.5932C30.0753 25.1567 29.2188 24.007 29.2188 22.6559C29.2188 20.93 30.6179 19.5309 32.3438 19.5309L32.362 19.531C32.548 19.5328 33.0021 19.557 33.4541 19.7009C33.6975 19.7727 33.9544 19.8705 34.2198 20.0003C34.3261 20.0523 34.3793 20.0783 34.4194 20.0879C34.5375 20.1163 34.6395 20.0945 34.7358 20.0204C34.7685 19.9952 34.8025 19.9544 34.8705 19.8728C34.9499 19.7777 35.031 19.6815 35.1136 19.5847ZM24.5312 33.9063C24.5312 34.4241 24.951 34.8438 25.4688 34.8438H34.2188C34.7365 34.8438 35.1562 34.4241 35.1562 33.9063C35.1562 33.3885 34.7365 32.9688 34.2188 32.9688H25.4688C24.951 32.9688 24.5312 33.3885 24.5312 33.9063ZM24.5312 27.6563C24.5312 28.1741 24.951 28.5938 25.4688 28.5938H29.8438C30.3615 28.5938 30.7812 28.1741 30.7812 27.6563C30.7812 27.1385 30.3615 26.7188 29.8438 26.7188H25.4688C24.951 26.7188 24.5312 27.1385 24.5312 27.6563Z" fill="#5B93FF"/>
</svg>
