<svg width="60" height="60" viewBox="0 0 60 60" fill="none" xmlns="http://www.w3.org/2000/svg">
<rect width="60" height="60" rx="30" fill="#FFF7E1"/>
<path d="M33.8728 23.4516C33.6661 23.4375 33.4201 23.4375 33.1523 23.4375H26.8478C26.58 23.4375 26.3339 23.4375 26.1272 23.4516C25.9052 23.4667 25.661 23.5012 25.4129 23.604C24.8769 23.826 24.451 24.2519 24.229 24.7879C24.1262 25.036 24.0917 25.2802 24.0766 25.5022C24.0625 25.7089 24.0625 25.9821 24.0625 26.2499C24.0625 26.5177 24.0625 26.7911 24.0766 26.9978C24.0917 27.2198 24.1262 27.464 24.229 27.7121C24.451 28.2481 24.8769 28.674 25.4129 28.896C25.661 28.9988 25.9052 29.0333 26.1272 29.0484C26.3339 29.0625 26.58 29.0625 26.8478 29.0625H33.1522C33.42 29.0625 33.6661 29.0625 33.8728 29.0484C34.0948 29.0333 34.339 28.9988 34.5871 28.896C35.1231 28.674 35.549 28.2481 35.771 27.7121C35.8738 27.464 35.9083 27.2198 35.9234 26.9978C35.9375 26.7911 35.9375 26.5451 35.9375 26.2773C35.9375 26.0094 35.9375 25.7089 35.9234 25.5022C35.9083 25.2802 35.8738 25.036 35.771 24.7879C35.549 24.2519 35.1231 23.826 34.5871 23.604C34.339 23.5012 34.0948 23.4667 33.8728 23.4516Z" fill="#FFC327"/>
<path d="M33.8728 30.9516C33.6661 30.9375 33.42 30.9375 33.1522 30.9375H26.8478C26.58 30.9375 26.3339 30.9375 26.1272 30.9516C25.9052 30.9667 25.661 31.0012 25.4129 31.104C24.8769 31.326 24.451 31.7519 24.229 32.2879C24.1262 32.536 24.0917 32.7802 24.0766 33.0022C24.0625 33.2089 24.0625 33.5094 24.0625 33.7772C24.0625 34.045 24.0625 34.2911 24.0766 34.4978C24.0917 34.7198 24.1262 34.964 24.229 35.2121C24.451 35.7481 24.8769 36.174 25.4129 36.396C25.661 36.4988 25.9052 36.5333 26.1272 36.5484C26.3339 36.5625 26.58 36.5625 26.8478 36.5625H33.1522C33.4201 36.5625 33.6661 36.5625 33.8728 36.5484C34.0948 36.5333 34.339 36.4988 34.5871 36.396C35.1231 36.174 35.549 35.7481 35.771 35.2121C35.8738 34.964 35.9083 34.7198 35.9234 34.4978C35.9375 34.2911 35.9375 34.0451 35.9375 33.7773C35.9375 33.5094 35.9375 33.2089 35.9234 33.0022C35.9083 32.7802 35.8738 32.536 35.771 32.2879C35.549 31.7519 35.1231 31.326 34.5871 31.104C34.339 31.0012 34.0948 30.9667 33.8728 30.9516Z" fill="#FFC327"/>
<path fill-rule="evenodd" clip-rule="evenodd" d="M16.5625 20C16.5625 18.1015 18.1015 16.5625 20 16.5625C21.4575 16.5625 22.7031 17.4696 23.2032 18.75H36.7968C37.2969 17.4696 38.5425 16.5625 40 16.5625C41.8985 16.5625 43.4375 18.1015 43.4375 20C43.4375 21.4575 42.5304 22.7031 41.25 23.2032V36.7968C42.5304 37.2969 43.4375 38.5425 43.4375 40C43.4375 41.8985 41.8985 43.4375 40 43.4375C38.5425 43.4375 37.2969 42.5304 36.7968 41.25H23.2032C22.7031 42.5304 21.4575 43.4375 20 43.4375C18.1015 43.4375 16.5625 41.8985 16.5625 40C16.5625 38.5425 17.4696 37.2969 18.75 36.7968V23.2032C17.4696 22.7031 16.5625 21.4575 16.5625 20ZM21.25 36.7968C22.143 37.1456 22.8544 37.857 23.2032 38.75H36.7968C37.1456 37.857 37.857 37.1456 38.75 36.7968V23.2032C37.857 22.8544 37.1456 22.143 36.7968 21.25H23.2032C22.8544 22.143 22.143 22.8544 21.25 23.2032V36.7968Z" fill="#FFC327"/>
</svg>
