<svg width="40" height="40" viewBox="0 0 40 40" fill="none" xmlns="http://www.w3.org/2000/svg">
<rect y="0.00976562" width="40" height="40" rx="10" fill="#A4E1D2"/>
<path d="M18 18.75C17.5858 18.75 17.25 18.4142 17.25 18C17.25 17.5858 17.5858 17.25 18 17.25H22C22.4143 17.25 22.75 17.5858 22.75 18C22.75 18.4142 22.4143 18.75 22 18.75H18Z" fill="#007373"/>
<path d="M18 14.75C17.5858 14.75 17.25 14.4142 17.25 14C17.25 13.5858 17.5858 13.25 18 13.25H22C22.4143 13.25 22.75 13.5858 22.75 14C22.75 14.4142 22.4143 14.75 22 14.75H18Z" fill="#007373"/>
<path fill-rule="evenodd" clip-rule="evenodd" d="M16.948 9.25H23.052C23.9505 9.24997 24.6997 9.24995 25.2945 9.32991C25.9223 9.41432 26.4891 9.59999 26.9446 10.0555C27.4 10.5109 27.5857 11.0777 27.6701 11.7055C27.7501 12.3003 27.7501 13.0495 27.75 13.9479V14.5984L28.6625 15.2067C29.0761 15.4824 29.4286 15.7174 29.7041 15.9408C29.9978 16.179 30.2466 16.4367 30.4284 16.7776C30.6098 17.1181 30.6852 17.4672 30.7193 17.8428C30.7512 18.1947 30.7498 18.6162 30.7481 19.1102L30.748 19.1431C30.7438 20.4027 30.7321 21.6894 30.6995 22.9929L30.6981 23.0513C30.661 24.5389 30.631 25.739 30.4607 26.7046C30.282 27.718 29.9387 28.5427 29.2346 29.2468C28.529 29.9524 27.6978 30.2951 26.6757 30.4736C25.7003 30.644 24.4852 30.6743 22.9766 30.712L22.9184 30.7135C20.9673 30.7622 19.0335 30.7622 17.0824 30.7135L17.0242 30.712C15.5156 30.6743 14.3005 30.644 13.3251 30.4736C12.3031 30.2951 11.4718 29.9524 10.7662 29.2468C10.0621 28.5427 9.7188 27.718 9.54007 26.7046C9.36977 25.739 9.33983 24.5389 9.30273 23.0513L9.30127 22.9929C9.26873 21.6894 9.25701 20.4027 9.25278 19.1431L9.25267 19.1102C9.251 18.6162 9.24957 18.1947 9.28149 17.8428C9.31557 17.4672 9.39093 17.1181 9.57242 16.7776C9.75416 16.4367 10.0029 16.179 10.2967 15.9408C10.5721 15.7174 10.9247 15.4824 11.3382 15.2067L12.25 14.5989V13.948C12.25 13.0495 12.25 12.3003 12.3299 11.7055C12.4143 11.0777 12.6 10.5109 13.0555 10.0555C13.511 9.59999 14.0778 9.41432 14.7055 9.32991C15.3003 9.24995 16.0496 9.24997 16.948 9.25ZM27.75 18.4754L27.75 16.4012L27.8032 16.4366C28.2515 16.7355 28.5448 16.9319 28.7593 17.1059C28.9616 17.27 29.0497 17.38 29.1047 17.4832C29.1266 17.5244 29.1465 17.5704 29.164 17.627L27.75 18.4754ZM26.25 14V19.3754L22.7012 21.5047C21.9362 21.9637 21.4097 22.2786 20.972 22.4843C20.5498 22.6829 20.2665 22.7515 20 22.7515C19.7336 22.7515 19.4503 22.6829 19.028 22.4843C18.5904 22.2786 18.0638 21.9637 17.2989 21.5047L13.75 19.3754V14C13.75 13.036 13.7516 12.3884 13.8166 11.9054C13.8786 11.4439 13.9858 11.2464 14.1161 11.1161C14.2465 10.9858 14.444 10.8786 14.9054 10.8165C15.3885 10.7516 16.036 10.75 17 10.75H23C23.964 10.75 24.6116 10.7516 25.0946 10.8165C25.5561 10.8786 25.7536 10.9858 25.8839 11.1161C26.0142 11.2464 26.1214 11.4439 26.1835 11.9054C26.2484 12.3884 26.25 13.036 26.25 14ZM12.25 16.4016L12.25 18.4754L10.8367 17.6274C10.8542 17.5706 10.8741 17.5245 10.8961 17.4832C10.9511 17.38 11.0391 17.27 11.2415 17.1059C11.456 16.9319 11.7493 16.7355 12.1976 16.4366L12.25 16.4016ZM10.7535 19.3267C10.7582 20.5201 10.7703 21.7317 10.8008 22.9554C10.8397 24.5154 10.8688 25.6024 11.0173 26.4441C11.1595 27.2506 11.4006 27.7598 11.8269 28.1861C12.2517 28.611 12.7647 28.853 13.5833 28.996C14.436 29.1449 15.5393 29.1744 17.1199 29.2139C19.046 29.262 20.9549 29.262 22.881 29.2139C24.4615 29.1744 25.5648 29.1449 26.4176 28.996C27.2362 28.853 27.7491 28.611 28.1739 28.1861C28.6002 27.7598 28.8413 27.2506 28.9835 26.4441C29.132 25.6024 29.1611 24.5154 29.2 22.9554C29.2305 21.7315 29.2426 20.5198 29.2473 19.3263L23.4401 22.8107C22.7159 23.2452 22.1246 23.6 21.6102 23.8418C21.0727 24.0945 20.5645 24.2515 20 24.2515C19.4356 24.2515 18.9274 24.0945 18.3899 23.8418C17.8755 23.6 17.2841 23.2452 16.56 22.8107L10.7535 19.3267Z" fill="#007373"/>
</svg>
