<svg width="40" height="40" viewBox="0 0 40 40" fill="none" xmlns="http://www.w3.org/2000/svg">
<rect y="0.00976562" width="40" height="40" rx="10" fill="#A4E1D2"/>
<path d="M20.25 15C20.25 14.5858 19.9142 14.25 19.5 14.25C19.0858 14.25 18.75 14.5858 18.75 15V15.6293H15C14.5858 15.6293 14.25 15.9651 14.25 16.3793C14.25 16.7935 14.5858 17.1293 15 17.1293H21.4571C21.0108 18.2655 20.3554 19.3675 19.5931 20.4048C19.4498 20.2188 19.3064 20.0269 19.1708 19.8389C18.8328 19.3701 18.5823 18.9786 18.4869 18.7741C18.312 18.3986 17.8657 18.2361 17.4903 18.4111C17.1149 18.5861 16.9524 19.0323 17.1274 19.4077C17.2891 19.7549 17.6172 20.249 17.9542 20.7163C18.1708 21.0167 18.4069 21.3276 18.6354 21.6145C17.7295 22.6835 16.7618 23.6418 15.8852 24.4479C15.5803 24.7283 15.5604 25.2028 15.8408 25.5077C16.1212 25.8126 16.5956 25.8324 16.9005 25.5521C17.7637 24.7583 18.7274 23.8081 19.6473 22.7394L20.9952 24.1406C21.2823 24.4391 21.7571 24.4484 22.0557 24.1612C22.3542 23.8741 22.3634 23.3993 22.0762 23.1008L20.5989 21.5649C21.6127 20.229 22.5141 18.7301 23.0533 17.1293H25C25.4142 17.1293 25.75 16.7935 25.75 16.3793C25.75 15.9651 25.4142 15.6293 25 15.6293L20.25 15.6293V15Z" fill="#007373"/>
<path fill-rule="evenodd" clip-rule="evenodd" d="M20.0572 9.75H19.9428C17.7521 9.74999 16.0314 9.74998 14.688 9.93059C13.3114 10.1157 12.2191 10.5027 11.3609 11.3609C10.5027 12.2191 10.1157 13.3114 9.93059 14.688C9.74998 16.0314 9.74999 17.7521 9.75 19.9428V20.0572C9.74999 22.2479 9.74998 23.9686 9.93059 25.312C10.1157 26.6886 10.5027 27.7809 11.3609 28.6391C12.2191 29.4973 13.3114 29.8843 14.688 30.0694C16.0314 30.25 17.7521 30.25 19.9428 30.25H20.0572C22.2479 30.25 23.9686 30.25 25.312 30.0694C26.6886 29.8843 27.7809 29.4973 28.6391 28.6391C29.4973 27.7809 29.8843 26.6886 30.0694 25.312C30.25 23.9686 30.25 22.2479 30.25 20.0572V19.9428C30.25 17.7521 30.25 16.0314 30.0694 14.688C29.8843 13.3114 29.4973 12.2191 28.6391 11.3609C27.7809 10.5027 26.6886 10.1157 25.312 9.93059C23.9686 9.74998 22.2479 9.74999 20.0572 9.75ZM12.4216 12.4216C12.9546 11.8885 13.6776 11.5799 14.8879 11.4172C16.1198 11.2516 17.7396 11.25 20 11.25C22.2604 11.25 23.8802 11.2516 25.1121 11.4172C26.3224 11.5799 27.0454 11.8885 27.5784 12.4216C28.1115 12.9546 28.4201 13.6776 28.5828 14.8879C28.7484 16.1198 28.75 17.7396 28.75 20C28.75 22.2604 28.7484 23.8802 28.5828 25.1121C28.4201 26.3224 28.1115 27.0454 27.5784 27.5784C27.0454 28.1115 26.3224 28.4201 25.1121 28.5828C23.8802 28.7484 22.2604 28.75 20 28.75C17.7396 28.75 16.1198 28.7484 14.8879 28.5828C13.6776 28.4201 12.9546 28.1115 12.4216 27.5784C11.8885 27.0454 11.5799 26.3224 11.4172 25.1121C11.2516 23.8802 11.25 22.2604 11.25 20C11.25 17.7396 11.2516 16.1198 11.4172 14.8879C11.5799 13.6776 11.8885 12.9546 12.4216 12.4216Z" fill="#007373"/>
</svg>
