<svg width="40" height="40" viewBox="0 0 40 40" fill="none" xmlns="http://www.w3.org/2000/svg">
<path fill-rule="evenodd" clip-rule="evenodd" d="M20.0003 20.4168C17.0137 20.4168 14.5837 17.9868 14.5837 15.0002C14.5837 12.0135 17.0137 9.5835 20.0003 9.5835C22.987 9.5835 25.417 12.0135 25.417 15.0002C25.417 17.9868 22.987 20.4168 20.0003 20.4168ZM20.0003 12.0835C18.392 12.0835 17.0837 13.3918 17.0837 15.0002C17.0837 16.6085 18.392 17.9168 20.0003 17.9168C21.6087 17.9168 22.917 16.6085 22.917 15.0002C22.917 13.3918 21.6087 12.0835 20.0003 12.0835Z" fill="white"/>
<path fill-rule="evenodd" clip-rule="evenodd" d="M17.0386 30.0585C17.8386 30.8268 18.8903 31.2502 20.0003 31.2502C21.1103 31.2502 22.1619 30.8268 22.9619 30.0568C23.3519 29.6818 23.7519 29.3018 24.1569 28.9185C29.1502 24.1819 35.3668 18.2848 31.9319 10.0268C29.9569 5.27515 25.1603 2.0835 20.0003 2.0835C14.8403 2.0835 10.0452 5.27515 8.07025 10.0268C4.64691 18.2552 10.8119 24.1235 15.7652 28.8385L15.8132 28.8842C16.2268 29.2786 16.6358 29.6686 17.0386 30.0585ZM10.3786 10.9868C11.9703 7.15682 15.8369 4.5835 20.0003 4.5835C24.1636 4.5835 28.0319 7.15682 29.6253 10.9868C32.3986 17.6568 27.3353 22.4601 22.4369 27.1051C22.344 27.1935 22.2513 27.2816 22.1589 27.3694C21.8449 27.6677 21.5337 27.9633 21.2286 28.2568C20.8969 28.5752 20.4603 28.7502 20.0003 28.7502C19.5403 28.7502 19.1036 28.5735 18.7752 28.2585C18.3552 27.8518 17.9253 27.4418 17.4886 27.0268C12.6355 22.407 7.61536 17.6282 10.3786 10.9868Z" fill="white"/>
<path d="M24.5302 37.9168H15.4702C10.0852 37.9168 7.38186 37.9168 6.05186 35.9435C5.92353 35.7518 5.81183 35.5535 5.72016 35.3535C4.70401 33.178 6.34021 30.8459 8.60342 27.6201L8.60688 27.6152C9.00354 27.0502 9.7835 26.9135 10.3485 27.3102C10.9135 27.7069 11.0502 28.4868 10.6535 29.0518C8.85517 31.6152 7.61018 33.4935 7.99018 34.3052C8.03018 34.3918 8.07515 34.4702 8.12682 34.5485C8.71181 35.4168 11.4001 35.4168 15.4701 35.4168H24.5302C28.6002 35.4168 31.2885 35.4168 31.8752 34.5468C31.9269 34.4702 31.9719 34.3918 32.0069 34.3135C32.3902 33.4935 31.1452 31.6152 29.3469 29.0518C28.9502 28.4868 29.0869 27.7069 29.6519 27.3102C30.2169 26.9135 30.9968 27.0502 31.3935 27.6152C33.6585 30.8435 35.2952 33.1768 34.2769 35.3618C34.1885 35.5535 34.0786 35.7518 33.9502 35.9418C32.6186 37.9168 29.9152 37.9168 24.5302 37.9168Z" fill="white"/>
</svg>
