<svg width="33" height="33" viewBox="0 0 33 33" fill="none" xmlns="http://www.w3.org/2000/svg">
<path d="M24.8945 10.682C24.8952 10.078 24.4061 9.58771 23.8021 9.587C23.198 9.58628 22.7077 10.0754 22.707 10.6794L22.6931 22.3346C22.6924 22.9386 23.1815 23.4289 23.7856 23.4296C24.3896 23.4304 24.8799 22.9412 24.8806 22.3372L24.8945 10.682Z" fill="#007373"/>
<path d="M16.5386 12.0674C16.1111 11.6406 15.4186 11.6412 14.9918 12.0687C14.565 12.4962 14.5656 13.1887 14.9931 13.6155C15.2398 13.8617 15.6213 14.1671 15.9825 14.4551L16.0919 14.5423C16.428 14.8101 16.7812 15.0914 17.1176 15.3791L9.20675 15.3696C8.60269 15.3689 8.11241 15.858 8.11169 16.4621C8.11098 17.0662 8.60008 17.5564 9.20414 17.5571L17.2068 17.5667L17.1249 17.6339C16.8264 17.8775 16.5201 18.1131 16.2214 18.3428C16.1311 18.4121 16.0416 18.481 15.9531 18.5494C15.6013 18.8215 15.221 19.1203 14.972 19.377C14.5515 19.8106 14.562 20.503 14.9956 20.9236C15.4292 21.3442 16.1217 21.3336 16.5422 20.9C16.6613 20.7773 16.9072 20.5769 17.2913 20.2799C17.3698 20.2191 17.4527 20.1554 17.5387 20.0893C17.8413 19.8567 18.1825 19.5944 18.5083 19.3284C18.9251 18.9882 19.3615 18.6064 19.7094 18.2182C20.0171 17.8748 20.4298 17.3419 20.499 16.7037C20.5027 16.6694 20.5048 16.6349 20.5052 16.6004C20.5064 16.5128 20.5008 16.4268 20.4895 16.3428C20.4866 16.3191 20.483 16.2955 20.4786 16.2723C20.3828 15.7213 20.0497 15.2581 19.8022 14.9567C19.4616 14.5422 19.0219 14.1323 18.5987 13.7675C18.2125 13.4347 17.8064 13.1113 17.4569 12.8329L17.3462 12.7447C16.949 12.428 16.6793 12.2078 16.5386 12.0674Z" fill="#007373"/>
<path fill-rule="evenodd" clip-rule="evenodd" d="M16.5 0.822754C7.84174 0.822754 0.822876 7.84162 0.822876 16.4998C0.822876 25.1581 7.84174 32.1769 16.5 32.1769C25.1582 32.1769 32.177 25.1581 32.177 16.4998C32.177 7.84162 25.1582 0.822754 16.5 0.822754ZM3.01038 16.4998C3.01038 9.04975 9.04987 3.01025 16.5 3.01025C23.95 3.01025 29.9895 9.04975 29.9895 16.4998C29.9895 23.9499 23.95 29.9894 16.5 29.9894C9.04987 29.9894 3.01038 23.9499 3.01038 16.4998Z" fill="#007373"/>
</svg>
