<svg width="50" height="50" viewBox="0 0 50 50" fill="none" xmlns="http://www.w3.org/2000/svg">
<path opacity="0.4" d="M4.19984 28.0742C4.33604 34.4607 4.40413 37.654 6.76065 40.0194C9.11717 42.3849 12.3969 42.4673 18.9562 42.6321C22.9989 42.7337 27.0018 42.7337 31.0444 42.6321C37.6038 42.4673 40.8835 42.3849 43.24 40.0194C45.5965 37.654 45.6646 34.4607 45.8008 28.0742C45.8446 26.0207 45.8446 23.9793 45.8008 21.9258C45.6646 15.5393 45.5965 12.346 43.24 9.98051C40.8835 7.61502 37.6038 7.53262 31.0444 7.36781C27.0018 7.26624 22.9989 7.26623 18.9562 7.3678C12.3968 7.53259 9.11716 7.61499 6.76064 9.98047C4.40412 12.346 4.33603 15.5392 4.19983 21.9257C4.15604 23.9793 4.15604 26.0207 4.19984 28.0742Z" fill="#007373"/>
<path d="M31.0052 8.9297C26.9887 8.82878 23.012 8.82877 18.9954 8.92968C15.6691 9.01325 13.3447 9.07561 11.5504 9.38809C9.82642 9.68833 8.75148 10.1959 7.86759 11.0831C6.97754 11.9765 6.47788 13.0378 6.18708 14.7124C5.88334 16.4615 5.83109 18.7183 5.76198 21.9589C5.71866 23.9902 5.71866 26.0094 5.76198 28.0407C5.83109 31.2814 5.88335 33.5382 6.18709 35.2872C6.47789 36.9619 6.97755 38.0231 7.8676 38.9166C8.75149 39.8038 9.82642 40.3113 11.5504 40.6116C13.3447 40.9241 15.6691 40.9864 18.9955 41.07C20.6571 41.1118 22.3119 41.1362 23.9655 41.1434C24.8284 41.1472 25.5249 41.8498 25.5211 42.7127C25.5174 43.5757 24.8148 44.2722 23.9518 44.2684C22.2765 44.2611 20.6001 44.2363 18.917 44.194L18.7957 44.191C15.619 44.1112 13.0628 44.047 11.0143 43.6903C8.8695 43.3167 7.12634 42.6003 5.6537 41.1221C4.18724 39.65 3.47458 37.9319 3.10817 35.8219C2.75927 33.8128 2.70613 31.319 2.6403 28.2297L2.63769 28.1074C2.59343 26.0316 2.59343 23.968 2.63769 21.8923L2.6403 21.7699C2.70612 18.6807 2.75926 16.1869 3.10816 14.1778C3.47457 12.0677 4.18723 10.3496 5.65369 8.8776C7.12633 7.39936 8.86949 6.68295 11.0143 6.30942C13.0629 5.95265 15.6191 5.88847 18.7958 5.80871L18.917 5.80567C22.9858 5.70344 27.0149 5.70345 31.0837 5.80568L31.2049 5.80872C34.3816 5.88849 36.9378 5.95268 38.9864 6.30945C41.1312 6.68298 42.8743 7.39939 44.347 8.87763C45.8134 10.3497 46.5261 12.0678 46.8925 14.1778C47.2414 16.1869 47.2945 18.6807 47.3604 21.77L47.363 21.8923C47.3852 22.9364 47.3962 25.0155 47.3962 26.0416C47.3962 26.9046 46.6966 27.6041 45.8337 27.6041C44.9707 27.6041 44.2712 26.9046 44.2712 26.0416C44.2712 25.0203 44.2602 22.9684 44.2387 21.959C44.1696 18.7183 44.1173 16.4615 43.8136 14.7125C43.5228 13.0378 43.0231 11.9766 42.1331 11.0831C41.2492 10.1959 40.1742 9.68836 38.4502 9.38811C36.656 9.07564 34.3316 9.01327 31.0052 8.9297Z" fill="#007373"/>
<path d="M13.2389 16.9131C13.6781 16.1702 14.6363 15.9241 15.3791 16.3633L21.5083 19.9871C23.2674 21.0271 24.2027 21.3541 25.0006 21.3541C25.7985 21.3541 26.7338 21.0271 28.4928 19.9871L34.622 16.3633C35.3648 15.9241 36.3231 16.1702 36.7622 16.9131C37.2014 17.6559 36.9553 18.6141 36.2125 19.0533L30.0833 22.6771C28.269 23.7498 26.7035 24.4791 25.0006 24.4791C23.2977 24.4791 21.7322 23.7498 19.9179 22.6771L13.7887 19.0533C13.0459 18.6141 12.7997 17.6559 13.2389 16.9131Z" fill="#007373"/>
<path d="M35.4644 32.3703C36.0832 31.7688 36.0972 30.7796 35.4958 30.1608C34.8943 29.542 33.9051 29.5279 33.2863 30.1294C33.0962 30.3142 32.7174 30.6176 32.1519 31.0617L32.0271 31.1597C31.5226 31.5557 30.9308 32.0203 30.366 32.4989C29.7606 33.0118 29.1319 33.5859 28.6431 34.1598C28.3982 34.4474 28.1566 34.7716 27.9699 35.1203C27.7899 35.4566 27.6045 35.9201 27.6045 36.4582C27.6045 36.9963 27.7899 37.4597 27.9699 37.796C28.1566 38.1448 28.3982 38.4689 28.6431 38.7565C29.1319 39.3304 29.7606 39.9045 30.366 40.4175C30.9307 40.896 31.5224 41.3605 32.0268 41.7564L32.1519 41.8546C32.7174 42.2988 33.0962 42.6021 33.2863 42.7869C33.9051 43.3884 34.8943 43.3744 35.4958 42.7556C36.0972 42.1367 36.0832 41.1475 35.4644 40.5461C35.1277 40.2188 34.5921 39.7975 34.0822 39.3971L33.9636 39.3039C33.4516 38.902 32.9042 38.4722 32.3862 38.0333L32.3713 38.0207H45.8337C46.6966 38.0207 47.3962 37.3211 47.3962 36.4582C47.3962 35.5952 46.6966 34.8957 45.8337 34.8957H32.3713L32.3862 34.883C32.9042 34.4442 33.4515 34.0144 33.9634 33.6125L34.0822 33.5193C34.5921 33.1188 35.1277 32.6975 35.4644 32.3703Z" fill="#007373"/>
</svg>
