<svg width="40" height="40" viewBox="0 0 40 40" fill="none" xmlns="http://www.w3.org/2000/svg">
<rect y="0.00976562" width="40" height="40" rx="10" fill="#A4E1D2"/>
<path d="M16 17.2598C15.5858 17.2598 15.25 17.5956 15.25 18.0098C15.25 18.424 15.5858 18.7598 16 18.7598H24C24.4142 18.7598 24.75 18.424 24.75 18.0098C24.75 17.5956 24.4142 17.2598 24 17.2598H16Z" fill="#007373"/>
<path d="M16 22.2598C15.5858 22.2598 15.25 22.5956 15.25 23.0098C15.25 23.424 15.5858 23.7598 16 23.7598H20C20.4142 23.7598 20.75 23.424 20.75 23.0098C20.75 22.5956 20.4142 22.2598 20 22.2598H16Z" fill="#007373"/>
<path fill-rule="evenodd" clip-rule="evenodd" d="M15 9.25977C15.4142 9.25977 15.75 9.59555 15.75 10.0098V10.2952C16.5236 10.2597 17.4175 10.2598 18.4443 10.2598H19.25V10.0098C19.25 9.59555 19.5858 9.25977 20 9.25977C20.4142 9.25977 20.75 9.59555 20.75 10.0098V10.2598H21.5557C22.5825 10.2598 23.4764 10.2597 24.25 10.2952V10.0098C24.25 9.59555 24.5858 9.25977 25 9.25977C25.4142 9.25977 25.75 9.59555 25.75 10.0098V10.442C26.6479 10.5978 27.3985 10.8979 28.0052 11.5046C28.6803 12.1797 28.9758 13.0331 29.1152 14.0694C29.25 15.0725 29.25 16.3514 29.25 17.954V23.0655C29.25 24.6681 29.25 25.9471 29.1152 26.9502C28.9758 27.9864 28.6803 28.8398 28.0052 29.515C27.3301 30.1901 26.4767 30.4856 25.4404 30.6249C24.4373 30.7598 23.1583 30.7598 21.5557 30.7598H18.4443C16.8417 30.7598 15.5627 30.7598 14.5596 30.6249C13.5233 30.4856 12.6699 30.1901 11.9948 29.515C11.3197 28.8398 11.0242 27.9864 10.8848 26.9502C10.75 25.9471 10.75 24.6681 10.75 23.0655V17.954C10.75 16.3514 10.75 15.0725 10.8848 14.0694C11.0242 13.0331 11.3197 12.1797 11.9948 11.5046C12.6015 10.8979 13.3521 10.5978 14.25 10.442V10.0098C14.25 9.59555 14.5858 9.25977 15 9.25977ZM14.25 12.0098V11.9707C13.6878 12.0975 13.3303 12.2904 13.0555 12.5652C12.7055 12.9152 12.4884 13.3993 12.3715 14.2693C12.2516 15.1608 12.25 16.3386 12.25 18.0098V23.0098C12.25 24.6809 12.2516 25.8588 12.3715 26.7503C12.4884 27.6202 12.7055 28.1043 13.0555 28.4543C13.4054 28.8043 13.8896 29.0214 14.7595 29.1383C15.651 29.2582 16.8289 29.2598 18.5 29.2598H21.5C23.1711 29.2598 24.349 29.2582 25.2405 29.1383C26.1104 29.0214 26.5946 28.8043 26.9445 28.4543C27.2945 28.1043 27.5116 27.6202 27.6285 26.7503C27.7484 25.8588 27.75 24.6809 27.75 23.0098V18.0098C27.75 16.3386 27.7484 15.1608 27.6285 14.2693C27.5116 13.3993 27.2945 12.9152 26.9445 12.5652C26.6697 12.2904 26.3122 12.0975 25.75 11.9707V12.0098C25.75 12.424 25.4142 12.7598 25 12.7598C24.5858 12.7598 24.25 12.424 24.25 12.0098V11.7967C23.5123 11.7605 22.6162 11.7598 21.5 11.7598H20.75V12.0098C20.75 12.424 20.4142 12.7598 20 12.7598C19.5858 12.7598 19.25 12.424 19.25 12.0098V11.7598H18.5C17.3838 11.7598 16.4877 11.7605 15.75 11.7967V12.0098C15.75 12.424 15.4142 12.7598 15 12.7598C14.5858 12.7598 14.25 12.424 14.25 12.0098Z" fill="#007373"/>
</svg>
