<svg width="50" height="50" viewBox="0 0 50 50" fill="none" xmlns="http://www.w3.org/2000/svg">
<path opacity="0.4" d="M10.7466 23.9397C10.5935 26.848 10.7695 29.9438 8.17111 31.8926C6.96174 32.7996 6.25 34.2231 6.25 35.7348C6.25 37.8143 7.87875 39.5834 10 39.5834H40C42.1212 39.5834 43.75 37.8143 43.75 35.7348C43.75 34.2231 43.0383 32.7996 41.8289 31.8926C39.2305 29.9438 39.4065 26.848 39.2534 23.9397C38.8544 16.3589 32.5913 10.4167 25 10.4167C17.4087 10.4167 11.1456 16.3589 10.7466 23.9397Z" fill="#007373"/>
<path fill-rule="evenodd" clip-rule="evenodd" d="M21.9345 3.38412C22.8618 2.77707 23.9937 2.60425 25 2.60425C26.0063 2.60425 27.1382 2.77707 28.0655 3.38412C29.0942 4.05756 29.6875 5.14764 29.6875 6.5105C29.6875 7.47753 29.3932 8.47795 28.9144 9.3424C35.4821 11.0137 40.442 16.7946 40.8137 23.8576C40.8327 24.217 40.8467 24.5612 40.8603 24.8928C40.9065 26.021 40.9467 27.0032 41.1511 27.9444C41.3953 29.0691 41.8473 29.9533 42.7664 30.6426C44.3692 31.8447 45.3125 33.7313 45.3125 35.7348C45.3125 38.6125 43.0475 41.1459 40 41.1459H32.6562C31.9324 44.7119 28.7796 47.3959 25 47.3959C21.2204 47.3959 18.0676 44.7119 17.3438 41.1459H10C6.95248 41.1459 4.6875 38.6125 4.6875 35.7348C4.6875 33.7313 5.6308 31.8447 7.23361 30.6426C8.1527 29.9533 8.60468 29.0691 8.84894 27.9444C9.05335 27.0032 9.09353 26.021 9.13969 24.8928C9.15326 24.5612 9.16734 24.217 9.18626 23.8576C9.558 16.7946 14.5179 11.0136 21.0856 9.3424C20.6068 8.47795 20.3125 7.47753 20.3125 6.5105C20.3125 5.14764 20.9058 4.05756 21.9345 3.38412ZM20.5792 41.1459C21.2227 42.9665 22.959 44.2709 25 44.2709C27.041 44.2709 28.7773 42.9665 29.4208 41.1459H20.5792ZM40 38.0209C41.195 38.0209 42.1875 37.016 42.1875 35.7348C42.1875 34.7149 41.7073 33.7545 40.8914 33.1426C39.2121 31.8831 38.4529 30.245 38.0972 28.6076C37.8292 27.3733 37.776 26.0296 37.7298 24.8629C37.7182 24.5701 37.7071 24.2878 37.6931 24.0218C37.3377 17.2709 31.7603 11.9792 25 11.9792C18.2397 11.9792 12.6623 17.2709 12.3069 24.0218C12.2929 24.288 12.2818 24.5699 12.2702 24.863C12.224 26.0296 12.1708 27.3733 11.9028 28.6076C11.5471 30.245 10.7879 31.8831 9.10861 33.1426C8.29269 33.7545 7.8125 34.7149 7.8125 35.7348C7.8125 37.016 8.80502 38.0209 10 38.0209H40ZM25.9557 8.17873C25.5514 8.72264 25.1811 8.85425 25 8.85425C24.8189 8.85425 24.4486 8.72264 24.0443 8.17873C23.6517 7.65044 23.4375 6.99438 23.4375 6.5105C23.4375 6.29395 23.48 6.18811 23.5034 6.14358C23.5256 6.10141 23.5621 6.05371 23.6461 5.99871C23.8498 5.86535 24.2804 5.72925 25 5.72925C25.7196 5.72925 26.1502 5.86535 26.3539 5.99871C26.4379 6.05371 26.4744 6.10141 26.4966 6.14358C26.52 6.18811 26.5625 6.29395 26.5625 6.5105C26.5625 6.99438 26.3483 7.65044 25.9557 8.17873Z" fill="#007373"/>
</svg>
