<svg width="40" height="40" viewBox="0 0 40 40" fill="none" xmlns="http://www.w3.org/2000/svg">
<rect y="0.00976562" width="40" height="40" rx="10" fill="#A4E1D2"/>
<path d="M14.9998 13C14.4475 13 13.9998 13.4477 13.9998 14C13.9998 14.5523 14.4475 15 14.9998 15H15.0087C15.561 15 16.0087 14.5523 16.0087 14C16.0087 13.4477 15.561 13 15.0087 13H14.9998Z" fill="#007373"/>
<path d="M17.9998 14C17.9998 13.4477 18.4475 13 18.9998 13H19.0087C19.561 13 20.0087 13.4477 20.0087 14C20.0087 14.5523 19.561 15 19.0087 15H18.9998C18.4475 15 17.9998 14.5523 17.9998 14Z" fill="#007373"/>
<path d="M23.5103 21.5681C23.1966 21.2977 23.1615 20.8241 23.4319 20.5104C23.7023 20.1966 24.1759 20.1615 24.4897 20.4319L25.7476 21.5161C25.978 21.7147 26.2051 21.9103 26.3682 22.0946C26.5487 22.2985 26.75 22.5954 26.75 23C26.75 23.4046 26.5487 23.7015 26.3682 23.9054C26.2051 24.0897 25.978 24.2853 25.7476 24.4839L24.4897 25.5681C24.1759 25.8385 23.7023 25.8034 23.4319 25.4897C23.1615 25.1759 23.1966 24.7023 23.5103 24.4319L24.7369 23.3747C24.9366 23.2026 25.0685 23.0878 25.1591 23C25.0685 22.9123 24.9366 22.7974 24.7369 22.6253L23.5103 21.5681Z" fill="#007373"/>
<path d="M16.5681 20.5104C16.8385 20.8241 16.8034 21.2977 16.4897 21.5681L15.2631 22.6253C15.0634 22.7974 14.9315 22.9123 14.8409 23C14.9315 23.0878 15.0634 23.2026 15.2631 23.3747L16.4897 24.4319C16.8034 24.7023 16.8385 25.1759 16.5681 25.4897C16.2977 25.8034 15.8241 25.8385 15.5103 25.5681L14.2524 24.4839C14.022 24.2853 13.795 24.0898 13.6318 23.9054C13.4513 23.7015 13.25 23.4046 13.25 23C13.25 22.5954 13.4513 22.2985 13.6318 22.0946C13.7949 21.9103 14.022 21.7147 14.2524 21.5162L15.5103 20.4319C15.8241 20.1615 16.2977 20.1966 16.5681 20.5104Z" fill="#007373"/>
<path d="M21.7115 20.2374C21.8425 19.8444 21.6301 19.4197 21.2371 19.2887C20.8442 19.1577 20.4194 19.3701 20.2884 19.763L18.2884 25.763C18.1575 26.156 18.3698 26.5807 18.7628 26.7117C19.1557 26.8427 19.5805 26.6303 19.7115 26.2374L21.7115 20.2374Z" fill="#007373"/>
<path fill-rule="evenodd" clip-rule="evenodd" d="M19.9428 9.75H20.0572C22.2479 9.74999 23.9686 9.74998 25.312 9.93059C26.6886 10.1157 27.7809 10.5027 28.6391 11.3609C29.4973 12.2191 29.8843 13.3114 30.0694 14.688C30.25 16.0314 30.25 17.7521 30.25 19.9428V20.0572C30.25 22.2479 30.25 23.9686 30.0694 25.312C29.8843 26.6886 29.4973 27.7809 28.6391 28.6391C27.7809 29.4973 26.6886 29.8843 25.312 30.0694C23.9686 30.25 22.2479 30.25 20.0572 30.25H19.9428C17.7521 30.25 16.0314 30.25 14.688 30.0694C13.3114 29.8843 12.2191 29.4973 11.3609 28.6391C10.5027 27.7809 10.1157 26.6886 9.93059 25.312C9.74998 23.9686 9.74999 22.2479 9.75 20.0572V19.9428C9.74999 17.7521 9.74998 16.0314 9.93059 14.688C10.1157 13.3114 10.5027 12.2191 11.3609 11.3609C12.2191 10.5027 13.3114 10.1157 14.688 9.93059C16.0314 9.74998 17.7521 9.74999 19.9428 9.75ZM14.8879 11.4172C13.6776 11.5799 12.9546 11.8885 12.4216 12.4216C11.8885 12.9546 11.5799 13.6776 11.4172 14.8879C11.3623 15.2962 11.3254 15.7472 11.3007 16.25H28.6993C28.6746 15.7472 28.6377 15.2962 28.5828 14.8879C28.4201 13.6776 28.1115 12.9546 27.5784 12.4216C27.0454 11.8885 26.3224 11.5799 25.1121 11.4172C23.8802 11.2516 22.2604 11.25 20 11.25C17.7396 11.25 16.1198 11.2516 14.8879 11.4172ZM11.25 20C11.25 19.1673 11.2502 18.4215 11.2588 17.75H28.7412C28.7498 18.4215 28.75 19.1673 28.75 20C28.75 22.2604 28.7484 23.8802 28.5828 25.1121C28.4201 26.3224 28.1115 27.0454 27.5784 27.5784C27.0454 28.1115 26.3224 28.4201 25.1121 28.5828C23.8802 28.7484 22.2604 28.75 20 28.75C17.7396 28.75 16.1198 28.7484 14.8879 28.5828C13.6776 28.4201 12.9546 28.1115 12.4216 27.5784C11.8885 27.0454 11.5799 26.3224 11.4172 25.1121C11.2516 23.8802 11.25 22.2604 11.25 20Z" fill="#007373"/>
</svg>
