<svg width="40" height="40" viewBox="0 0 40 40" fill="none" xmlns="http://www.w3.org/2000/svg">
<rect y="0.00976562" width="40" height="40" rx="10" fill="#A4E1D2"/>
<path fill-rule="evenodd" clip-rule="evenodd" d="M29.3987 9.90803C28.52 9.02936 27.0954 9.02935 26.2167 9.90803L22.5431 13.5816C22.1533 13.9714 21.8897 14.4694 21.7864 15.0108L21.3098 17.2373C21.1197 18.1252 21.9099 18.9131 22.7972 18.7205L25.0356 18.2346C25.5765 18.1311 26.0741 17.8676 26.4637 17.4781L30.0937 13.7797C30.9697 12.9008 30.9688 11.4782 30.0911 10.6004L29.3987 9.90803ZM27.2774 10.9687C27.5703 10.6758 28.0451 10.6758 28.338 10.9687L29.0304 11.6611C29.3233 11.954 29.3233 12.4288 29.0304 12.7217L25.4008 16.4196C25.2228 16.5967 24.9955 16.7161 24.7486 16.7623C24.7414 16.7636 24.7343 16.765 24.7272 16.7666L22.8576 17.1724L23.2551 15.3159L23.2589 15.2966C23.3052 15.0487 23.4254 14.8206 23.6038 14.6422L27.2774 10.9687Z" fill="#007373"/>
<path fill-rule="evenodd" clip-rule="evenodd" d="M14.25 9.24902C11.4886 9.24902 9.25 11.4876 9.25 14.249C9.25 17.0104 11.4886 19.249 14.25 19.249C17.0114 19.249 19.25 17.0104 19.25 14.249C19.25 11.4876 17.0114 9.24902 14.25 9.24902ZM10.75 14.249C10.75 12.316 12.317 10.749 14.25 10.749C16.183 10.749 17.75 12.316 17.75 14.249C17.75 16.182 16.183 17.749 14.25 17.749C12.317 17.749 10.75 16.182 10.75 14.249Z" fill="#007373"/>
<path fill-rule="evenodd" clip-rule="evenodd" d="M25.75 20.749C22.9886 20.749 20.75 22.9876 20.75 25.749C20.75 28.5104 22.9886 30.749 25.75 30.749C28.5114 30.749 30.75 28.5104 30.75 25.749C30.75 22.9876 28.5114 20.749 25.75 20.749ZM22.25 25.749C22.25 23.816 23.817 22.249 25.75 22.249C27.683 22.249 29.25 23.816 29.25 25.749C29.25 27.682 27.683 29.249 25.75 29.249C23.817 29.249 22.25 27.682 22.25 25.749Z" fill="#007373"/>
<path fill-rule="evenodd" clip-rule="evenodd" d="M9.25 25.749C9.25 22.9876 11.4886 20.749 14.25 20.749C17.0114 20.749 19.25 22.9876 19.25 25.749C19.25 28.5104 17.0114 30.749 14.25 30.749C11.4886 30.749 9.25 28.5104 9.25 25.749ZM14.25 22.249C12.317 22.249 10.75 23.816 10.75 25.749C10.75 27.682 12.317 29.249 14.25 29.249C16.183 29.249 17.75 27.682 17.75 25.749C17.75 23.816 16.183 22.249 14.25 22.249Z" fill="#007373"/>
</svg>
