<svg width="50" height="50" viewBox="0 0 50 50" fill="none" xmlns="http://www.w3.org/2000/svg">
<path opacity="0.4" fill-rule="evenodd" clip-rule="evenodd" d="M5.20801 25.0002C5.20801 15.6703 5.20801 11.0053 8.10643 8.10692C11.0049 5.2085 15.6698 5.2085 24.9997 5.2085C34.3296 5.2085 38.9945 5.2085 41.8929 8.10692C44.7913 11.0053 44.7913 15.6703 44.7913 25.0001C44.7913 34.33 44.7913 38.995 41.8929 41.8934C38.9945 44.7918 34.3296 44.7918 24.9997 44.7918C15.6699 44.7918 11.0048 44.7918 8.10643 41.8934C5.20801 38.995 5.20801 34.33 5.20801 25.0002ZM35.4163 31.2502C36.3984 31.2502 36.8895 31.2502 37.1946 31.5553C37.4997 31.8604 37.4997 32.3514 37.4997 33.3335V35.4168C37.4997 36.3989 37.4997 36.89 37.1946 37.1951C36.8895 37.5002 36.3984 37.5002 35.4163 37.5002H31.2497C30.2676 37.5002 29.7765 37.5002 29.4714 37.1951C29.1663 36.89 29.1663 36.3989 29.1663 35.4168V33.3335C29.1663 32.3514 29.1663 31.8604 29.4714 31.5553C29.7765 31.2502 30.2676 31.2502 31.2497 31.2502H35.4163ZM20.2228 13.1104C19.6126 12.5002 18.6305 12.5002 16.6663 12.5002C14.7022 12.5002 13.7201 12.5002 13.1099 13.1104C12.4997 13.7206 12.4997 14.7026 12.4997 16.6668C12.4997 18.631 12.4997 19.6131 13.1099 20.2233C13.7201 20.8335 14.7022 20.8335 16.6663 20.8335C18.6305 20.8335 19.6126 20.8335 20.2228 20.2233C20.833 19.6131 20.833 18.631 20.833 16.6668C20.833 14.7026 20.833 13.7206 20.2228 13.1104Z" fill="#007373"/>
<path d="M18.773 5.72885C19.6357 5.70912 20.3191 4.99376 20.2994 4.13104C20.2796 3.26832 19.5643 2.58494 18.7015 2.60466C12.9323 2.73657 8.89771 3.25623 6.07684 6.07709C3.25598 8.89795 2.73633 12.9326 2.60442 18.7018C2.58469 19.5645 3.26808 20.2799 4.1308 20.2996C4.99352 20.3193 5.70888 19.6359 5.7286 18.7732C5.86315 12.8888 6.45668 10.1167 8.28655 8.2868C10.1164 6.45693 12.8886 5.86339 18.773 5.72885Z" fill="#007373"/>
<path d="M31.2981 2.60466C30.4354 2.58494 29.7201 3.26832 29.7003 4.13104C29.6806 4.99376 30.364 5.70912 31.2267 5.72885C37.1111 5.86339 39.8833 6.45693 41.7131 8.2868C43.543 10.1167 44.1365 12.8888 44.2711 18.7732C44.2908 19.6359 45.0062 20.3193 45.8689 20.2996C46.7316 20.2799 47.415 19.5645 47.3953 18.7018C47.2634 12.9326 46.7437 8.89795 43.9228 6.07709C41.102 3.25623 37.0674 2.73657 31.2981 2.60466Z" fill="#007373"/>
<path d="M47.3953 31.2984C47.415 30.4356 46.7316 29.7203 45.8689 29.7005C45.0062 29.6808 44.2908 30.3642 44.2711 31.2269C44.1365 37.1113 43.543 39.8835 41.7131 41.7134C39.8833 43.5432 37.1111 44.1368 31.2267 44.2713C30.364 44.291 29.6806 45.0064 29.7003 45.8691C29.7201 46.7319 30.4354 47.4152 31.2981 47.3955C37.0674 47.2636 41.102 46.7439 43.9228 43.9231C46.7437 41.1022 47.2634 37.0676 47.3953 31.2984Z" fill="#007373"/>
<path d="M5.7286 31.2269C5.70888 30.3642 4.99352 29.6808 4.1308 29.7006C3.26808 29.7203 2.58469 30.4357 2.60442 31.2984C2.73633 37.0676 3.25598 41.1022 6.07684 43.9231C8.89771 46.7439 12.9323 47.2636 18.7015 47.3955C19.5643 47.4152 20.2796 46.7319 20.2994 45.8691C20.3191 45.0064 19.6357 44.291 18.773 44.2713C12.8886 44.1368 10.1164 43.5432 8.28655 41.7134C6.45668 39.8835 5.86315 37.1113 5.7286 31.2269Z" fill="#007373"/>
<path d="M27.0832 10.9376C27.9461 10.9376 28.6457 11.6371 28.6457 12.5001L28.6457 18.8584C28.6457 20.7302 28.6458 22.2911 28.4792 23.5302C28.3033 24.8382 27.9165 26.019 26.9676 26.9679C26.0187 27.9168 24.8379 28.3036 23.53 28.4794C22.2909 28.646 20.73 28.646 18.8582 28.6459L12.4998 28.6459C11.6369 28.6459 10.9373 27.9464 10.9373 27.0834C10.9373 26.2205 11.6369 25.5209 12.4998 25.5209H18.7498C20.7582 25.5209 22.1073 25.5176 23.1136 25.3823C24.075 25.253 24.4864 25.0297 24.7579 24.7582C25.0294 24.4867 25.2528 24.0752 25.3821 23.1138C25.5174 22.1075 25.5207 20.7584 25.5207 18.7501V12.5001C25.5207 11.6371 26.2202 10.9376 27.0832 10.9376Z" fill="#007373"/>
<path d="M33.3332 14.5834C33.3332 13.4328 34.2659 12.5001 35.4165 12.5001H35.4352C36.5858 12.5001 37.5185 13.4328 37.5185 14.5834C37.5185 15.734 36.5858 16.6667 35.4352 16.6667H35.4165C34.2659 16.6667 33.3332 15.734 33.3332 14.5834Z" fill="#007373"/>
<path d="M36.979 20.8334C36.979 19.9705 36.2794 19.2709 35.4165 19.2709C34.5536 19.2709 33.854 19.9705 33.854 20.8334V25.0001C33.854 25.863 34.5536 26.5626 35.4165 26.5626C36.2794 26.5626 36.979 25.863 36.979 25.0001V20.8334Z" fill="#007373"/>
<path fill-rule="evenodd" clip-rule="evenodd" d="M31.1781 29.6876H35.4883C35.9156 29.6874 36.3777 29.6873 36.7677 29.7397C37.2247 29.8011 37.8084 29.9591 38.2996 30.4504C38.7909 30.9416 38.9489 31.5253 39.0103 31.9823C39.0627 32.3723 39.0626 32.8343 39.0624 33.2617V35.4886C39.0626 35.9158 39.0627 36.378 39.0103 36.768C38.9489 37.2249 38.7909 37.8086 38.2996 38.2999C37.8084 38.7911 37.2247 38.9491 36.7677 39.0105C36.3777 39.063 35.9156 39.0628 35.4883 39.0626H31.1781C30.7508 39.0628 30.2887 39.063 29.8987 39.0105C29.4418 38.9491 28.858 38.7911 28.3668 38.2999C27.8755 37.8086 27.7175 37.2249 27.6561 36.768C27.6037 36.3779 27.6039 35.9159 27.604 35.4885V33.2617C27.6039 32.8344 27.6037 32.3723 27.6561 31.9823C27.7175 31.5253 27.8755 30.9416 28.3668 30.4504C28.858 29.9591 29.4418 29.8011 29.8987 29.7397C30.2887 29.6873 30.7508 29.6874 31.1781 29.6876ZM30.7314 32.815C30.7291 32.9597 30.729 33.127 30.729 33.3335V35.4168C30.729 35.6232 30.7291 35.7905 30.7314 35.9352C30.8761 35.9375 31.0435 35.9376 31.2499 35.9376H35.4165C35.623 35.9376 35.7903 35.9375 35.935 35.9352C35.9373 35.7905 35.9374 35.6232 35.9374 35.4168V33.3335C35.9374 33.127 35.9373 32.9597 35.935 32.815C35.7903 32.8127 35.623 32.8126 35.4165 32.8126H31.2499C31.0435 32.8126 30.8761 32.8127 30.7314 32.815Z" fill="#007373"/>
<path d="M10.9373 37.5001C10.9373 36.6371 11.6369 35.9376 12.4998 35.9376H22.9165C23.7794 35.9376 24.479 36.6371 24.479 37.5001C24.479 38.363 23.7794 39.0626 22.9165 39.0626H12.4998C11.6369 39.0626 10.9373 38.363 10.9373 37.5001Z" fill="#007373"/>
<path fill-rule="evenodd" clip-rule="evenodd" d="M16.6665 10.9374L16.3356 10.937C15.5433 10.9355 14.804 10.9341 14.1997 11.0106C13.4381 11.107 12.6618 11.3486 12.0051 12.0053C11.3611 12.6492 11.1269 13.4319 11.0273 14.1726C10.9371 14.8442 10.9372 15.6697 10.9373 16.5698L10.9373 16.7597C10.9372 17.6614 10.9371 18.4882 11.0276 19.1607C11.1271 19.9013 11.3614 20.6841 12.0052 21.3279C12.649 21.9717 13.4318 22.2059 14.1723 22.3055C14.8449 22.3959 15.6716 22.3958 16.5733 22.3957H16.7597C17.6614 22.3958 18.4882 22.3959 19.1607 22.3055C19.9013 22.2059 20.684 21.9717 21.3278 21.3279C21.9716 20.6841 22.2059 19.9013 22.3055 19.1607C22.3959 18.4882 22.3958 17.6615 22.3957 16.7598L22.3958 16.4443C22.3964 15.6018 22.397 14.8223 22.314 14.186C22.2159 13.4348 21.9782 12.6556 21.3278 12.0052C20.6775 11.3548 19.8982 11.1171 19.147 11.0191C18.5107 10.936 17.7313 10.9366 16.8888 10.9372L16.6665 10.9374ZM14.215 14.2148C14.2296 14.2002 14.2381 14.1936 14.2653 14.1822C14.3055 14.1655 14.3982 14.1354 14.592 14.1109C14.9841 14.0613 15.4999 14.0616 16.3596 14.0622L16.7525 14.0624C17.7368 14.0623 18.3172 14.0623 18.7426 14.1178C18.9401 14.1436 19.0368 14.1745 19.0796 14.1922C19.1072 14.2037 19.1123 14.209 19.1169 14.2137L19.1194 14.2161C19.1241 14.2207 19.1294 14.2259 19.1408 14.2534C19.1585 14.2962 19.1895 14.3929 19.2152 14.5905C19.2708 15.0158 19.2707 15.5962 19.2707 16.5805L19.2707 16.6665C19.2707 17.6928 19.2674 18.3053 19.2083 18.7443C19.1813 18.9455 19.1494 19.0462 19.1308 19.0916C19.129 19.096 19.1273 19.0997 19.1259 19.1029C19.1239 19.1074 19.1222 19.1107 19.121 19.113L19.1181 19.1181L19.113 19.121C19.109 19.1231 19.1021 19.1265 19.0916 19.1308C19.0462 19.1494 18.9455 19.1813 18.7443 19.2084C18.3053 19.2674 17.6928 19.2707 16.6665 19.2707C15.6403 19.2707 15.0277 19.2674 14.5887 19.2084C14.3876 19.1813 14.2868 19.1494 14.2414 19.1308C14.2347 19.128 14.2294 19.1256 14.2254 19.1237C14.2232 19.1226 14.2214 19.1217 14.22 19.121L14.2149 19.1181L14.2121 19.113C14.21 19.109 14.2066 19.1021 14.2023 19.0916C14.1836 19.0462 14.1517 18.9455 14.1247 18.7443C14.0657 18.3053 14.0624 17.6928 14.0624 16.6665C14.0624 15.64 14.0655 15.0277 14.1245 14.5887C14.1515 14.3876 14.1834 14.287 14.202 14.2417C14.2063 14.2312 14.2097 14.2243 14.2118 14.2203L14.215 14.2148Z" fill="#007373"/>
</svg>
