<svg width="40" height="40" viewBox="0 0 40 40" fill="none" xmlns="http://www.w3.org/2000/svg">
<rect y="0.00976562" width="40" height="40" rx="10" fill="#A4E1D2"/>
<path d="M11.75 11C11.75 10.5858 11.4142 10.25 11 10.25C10.5858 10.25 10.25 10.5858 10.25 11V22.0557C10.25 23.6583 10.25 24.9373 10.3848 25.9404C10.5242 26.9767 10.8197 27.8301 11.4948 28.5052C12.1699 29.1803 13.0233 29.4758 14.0596 29.6152C15.0627 29.75 16.3417 29.75 17.9443 29.75H29C29.4142 29.75 29.75 29.4142 29.75 29C29.75 28.5858 29.4142 28.25 29 28.25H18C16.3289 28.25 15.151 28.2484 14.2595 28.1285C14.0999 28.1071 13.9533 28.0823 13.8181 28.0539C14.0193 27.6522 14.2296 27.175 14.446 26.6843C14.4889 26.5871 14.532 26.4893 14.5753 26.3915C14.905 25.6467 15.2614 24.8639 15.6646 24.147C16.0705 23.4254 16.5011 22.8126 16.9622 22.387C17.4167 21.9675 17.8562 21.7689 18.3063 21.7689C18.9095 21.7689 19.3056 22.1239 19.9387 22.7701L20.0008 22.8337C20.5593 23.4058 21.356 24.2217 22.6136 24.2217C23.6782 24.2217 24.4468 23.7563 25.0256 23.1225C25.534 22.5659 25.9202 21.8493 26.2569 21.2244L26.3281 21.0925C27.0995 19.6656 27.6938 18.75 29 18.75C29.4142 18.75 29.75 18.4142 29.75 18C29.75 17.5858 29.4142 17.25 29 17.25C26.7002 17.25 25.7221 19.0593 25.015 20.3673L24.9691 20.4521C24.6011 21.1332 24.297 21.696 23.918 22.111C23.5599 22.5031 23.1709 22.7217 22.6136 22.7217C22.0334 22.7217 21.6503 22.3739 21.0102 21.7204L20.963 21.6722C20.3969 21.0933 19.5908 20.2689 18.3063 20.2689C17.3646 20.2689 16.5788 20.6995 15.9448 21.2848C15.3173 21.8639 14.7962 22.6313 14.3573 23.4116C13.9157 24.1967 13.5343 25.0375 13.2037 25.7842L13.071 26.0846C12.8514 26.5823 12.6598 27.0164 12.4837 27.3688C12.1755 27.0247 11.9802 26.5494 11.8715 25.7405C11.7516 24.849 11.75 23.6711 11.75 22V11Z" fill="#007373"/>
<path d="M16 12.75C16.4142 12.75 16.75 12.4142 16.75 12C16.75 11.5858 16.4142 11.25 16 11.25H15C14.5858 11.25 14.25 11.5858 14.25 12C14.25 12.4142 14.5858 12.75 15 12.75H16Z" fill="#007373"/>
<path d="M19.75 15C19.75 15.4142 19.4142 15.75 19 15.75H15C14.5858 15.75 14.25 15.4142 14.25 15C14.25 14.5858 14.5858 14.25 15 14.25H19C19.4142 14.25 19.75 14.5858 19.75 15Z" fill="#007373"/>
</svg>
