<svg width="60" height="60" viewBox="0 0 60 60" fill="none" xmlns="http://www.w3.org/2000/svg">
<rect width="60" height="60" rx="30" fill="#FFF4F0"/>
<path fill-rule="evenodd" clip-rule="evenodd" d="M32.5365 20.5916C32.7134 20.2234 32.8125 19.8108 32.8125 19.375C32.8125 17.8217 31.5533 16.5625 30 16.5625C28.4467 16.5625 27.1875 17.8217 27.1875 19.375C27.1875 19.8108 27.2866 20.2234 27.4635 20.5916C22.2978 21.7478 18.4375 26.3606 18.4375 31.875C18.4375 38.2608 23.6142 43.4375 30 43.4375C36.3858 43.4375 41.5625 38.2608 41.5625 31.875C41.5625 26.3606 37.7022 21.7478 32.5365 20.5916ZM29.0625 19.375C29.0625 19.8928 29.4822 20.3125 30 20.3125C30.5178 20.3125 30.9375 19.8928 30.9375 19.375C30.9375 18.8572 30.5178 18.4375 30 18.4375C29.4822 18.4375 29.0625 18.8572 29.0625 19.375ZM34.5301 26.7701C34.8174 26.3393 34.7009 25.7573 34.2701 25.4701C33.8393 25.1828 33.2573 25.2993 32.9701 25.7301L29.2201 31.3551C28.9328 31.7859 29.0493 32.3679 29.4801 32.6551C29.9109 32.9424 30.4929 32.8259 30.7801 32.3951L34.5301 26.7701ZM32.1205 24.3537C31.9517 24.4989 31.7997 24.6692 31.6701 24.8635L27.9201 30.4885C27.1543 31.6373 27.4647 33.1895 28.6135 33.9554C29.0403 34.2399 29.5228 34.3759 30 34.3755V39.6875C25.6853 39.6875 22.1875 36.1897 22.1875 31.875C22.1875 27.5603 25.6853 24.0625 30 24.0625C30.7349 24.0625 31.4462 24.164 32.1205 24.3537Z" fill="#FF8F6B"/>
</svg>
