<svg width="50" height="50" viewBox="0 0 50 50" fill="none" xmlns="http://www.w3.org/2000/svg">
<path opacity="0.4" d="M43.8496 6.36018C39.312 1.47359 5.18033 13.4441 5.20851 17.8145C5.24047 22.7705 18.5378 24.2952 22.2235 25.3292C24.4399 25.951 25.0335 26.5884 25.5446 28.9126C27.8592 39.4384 29.0212 44.6738 31.6697 44.7908C35.8914 44.9774 48.278 11.1291 43.8496 6.36018Z" fill="#007373"/>
<path fill-rule="evenodd" clip-rule="evenodd" d="M23.2725 27.446C23.3138 27.48 23.3481 27.513 23.378 27.5451C23.5642 27.746 23.7719 28.1266 24.0186 29.2482C25.1664 34.4682 26.057 38.5184 27.0049 41.2649C27.4777 42.6345 28.0095 43.8201 28.6831 44.6944C29.3861 45.6068 30.3422 46.2963 31.6007 46.3519C32.3842 46.3865 33.0357 46.0287 33.4825 45.6968C33.9533 45.3471 34.3961 44.878 34.8066 44.3652C35.6317 43.3345 36.4986 41.9081 37.361 40.2599C39.0943 36.9473 40.9298 32.5059 42.4828 27.9367C44.0352 23.3694 45.3288 18.6055 45.9519 14.6461C46.2626 12.6715 46.4164 10.8377 46.3309 9.30164C46.2499 7.84495 45.9396 6.31474 44.9946 5.29706C44.0207 4.24833 42.4939 3.85551 41.0352 3.71492C39.5025 3.56719 37.6667 3.66544 35.6904 3.92466C31.7267 4.44456 26.9382 5.648 22.3381 7.12871C17.7352 8.61035 13.2484 10.3931 9.88819 12.101C8.21589 12.951 6.76546 13.8111 5.71103 14.6372C5.18598 15.0486 4.70688 15.4917 4.34648 15.9633C4.00273 16.4131 3.64107 17.0531 3.64605 17.8247C3.6591 19.8498 5.03826 21.2811 6.50698 22.2418C8.00608 23.2223 9.95846 23.9612 11.8994 24.54C13.8611 25.125 15.924 25.5784 17.6975 25.9458C18.127 26.0348 18.5343 26.1178 18.9172 26.1959C20.1624 26.4496 21.1497 26.6509 21.8015 26.8337C22.3736 26.9942 22.7357 27.1328 22.9759 27.2567C23.0688 27.3321 23.1684 27.3952 23.2725 27.446ZM6.74204 17.994C6.74172 17.9948 6.742 17.994 6.74204 17.994L6.74394 17.9899C6.74302 17.9918 6.7424 17.9932 6.74204 17.994ZM6.82948 17.8608C6.80834 17.8884 6.7919 17.9117 6.77926 17.9307C6.83386 18.3696 7.1722 18.9427 8.2176 19.6265C9.33593 20.358 10.9442 20.9942 12.7924 21.5453C14.6197 22.0902 16.5742 22.5217 18.3315 22.8858C18.7082 22.9639 19.0807 23.0397 19.4431 23.1135C20.7208 23.3736 21.8739 23.6084 22.6456 23.8249C22.9886 23.9211 23.3234 24.0246 23.6455 24.145L30.1453 17.6452C30.7555 17.035 31.7448 17.035 32.355 17.6452C32.9652 18.2554 32.9652 19.2447 32.355 19.8549L26.1547 26.0552C26.6178 26.7925 26.8678 27.6546 27.0707 28.5771C28.2374 33.8829 29.0851 37.7134 29.959 40.2453C30.3971 41.5149 30.7971 42.3179 31.1586 42.7871C31.3601 43.0487 31.5065 43.1548 31.6051 43.1984L31.6192 43.1881C31.7915 43.0601 32.0434 42.8165 32.367 42.4123C33.01 41.609 33.7689 40.3844 34.5921 38.811C36.2303 35.6805 38.0062 31.3967 39.524 26.9311C41.0425 22.4635 42.279 17.8829 42.8649 14.1603C43.1586 12.2939 43.279 10.7023 43.2107 9.47524C43.1381 8.16878 42.8667 7.59803 42.7046 7.42349C42.544 7.25057 42.0117 6.94852 40.7354 6.8255C39.5331 6.70962 37.9581 6.779 36.0968 7.02312C32.3855 7.50991 27.7922 8.65601 23.2956 10.1034C18.802 11.5499 14.4776 13.2738 11.3042 14.8868C9.70971 15.6973 8.46278 16.4512 7.63831 17.0972C7.22391 17.4218 6.96817 17.6793 6.82948 17.8608Z" fill="#007373"/>
</svg>
