<svg width="300" height="300" viewBox="0 0 300 300" fill="none" xmlns="http://www.w3.org/2000/svg">
<path d="M300 229.439H0V229.589H300V229.439Z" fill="#EBEBEB"/>
<path d="M269.941 239.096H250.067V239.246H269.941V239.096Z" fill="#EBEBEB"/>
<path d="M198.732 240.725H193.516V240.875H198.732V240.725Z" fill="#EBEBEB"/>
<path d="M249.467 233.525H237.952V233.675H249.467V233.525Z" fill="#EBEBEB"/>
<path d="M57.3914 234.533H31.4756V234.683H57.3914V234.533Z" fill="#EBEBEB"/>
<path d="M66.5332 234.533H62.7334V234.683H66.5332V234.533Z" fill="#EBEBEB"/>
<path d="M135.088 237.067H78.8828V237.217H135.088V237.067Z" fill="#EBEBEB"/>
<path d="M142.209 202.68H26.3491C24.4609 202.68 22.9243 201.143 22.9243 199.255V36.396C22.9243 34.5078 24.4609 32.9712 26.3491 32.9712H142.209C144.096 32.9712 145.633 34.5078 145.633 36.396V199.255C145.633 201.143 144.096 202.68 142.209 202.68ZM26.3491 33.1218C24.5431 33.1218 23.0743 34.5906 23.0743 36.3966V199.256C23.0743 201.062 24.5431 202.531 26.3491 202.531H142.209C144.014 202.531 145.483 201.062 145.483 199.256V36.396C145.483 34.5906 144.014 33.1212 142.209 33.1212L26.3491 33.1218Z" fill="#EBEBEB"/>
<path d="M271.986 202.68H156.127C154.239 202.68 152.703 201.143 152.703 199.255V36.396C152.703 34.5078 154.24 32.9712 156.127 32.9712H271.986C273.875 32.9712 275.411 34.5078 275.411 36.396V199.255C275.412 201.143 273.875 202.68 271.986 202.68ZM156.127 33.1218C154.322 33.1218 152.853 34.5906 152.853 36.3966V199.256C152.853 201.062 154.322 202.531 156.127 202.531H271.986C273.792 202.531 275.261 201.062 275.261 199.256V36.396C275.261 34.5906 273.792 33.1212 271.986 33.1212L156.127 33.1218Z" fill="#EBEBEB"/>
<path d="M215.594 114.152C232.966 114.152 247.048 100.069 247.048 82.6973C247.048 65.3255 232.966 51.2429 215.594 51.2429C198.222 51.2429 184.14 65.3255 184.14 82.6973C184.14 100.069 198.222 114.152 215.594 114.152Z" fill="#E0E0E0"/>
<path d="M213.206 114.152C230.578 114.152 244.661 100.069 244.661 82.6973C244.661 65.3255 230.578 51.2429 213.206 51.2429C195.835 51.2429 181.752 65.3255 181.752 82.6973C181.752 100.069 195.835 114.152 213.206 114.152Z" fill="#F5F5F5"/>
<path d="M233.758 103.252C245.11 91.9004 245.11 73.496 233.758 62.1445C222.407 50.793 204.002 50.7931 192.651 62.1445C181.299 73.496 181.299 91.9004 192.651 103.252C204.002 114.603 222.407 114.603 233.758 103.252Z" fill="white"/>
<path d="M218.158 103.856C217.84 103.856 217.551 103.639 217.473 103.316L212.521 82.8629C212.43 82.4849 212.662 82.1039 213.04 82.0121C213.417 81.9191 213.799 82.1525 213.891 82.5311L218.843 102.985C218.934 103.363 218.702 103.744 218.324 103.835C218.269 103.85 218.213 103.856 218.158 103.856Z" fill="#F5F5F5"/>
<path d="M213.206 84.1068C212.845 84.1068 212.485 83.9694 212.21 83.694L195.2 66.684C194.65 66.1338 194.65 65.2416 195.2 64.6914C195.751 64.1406 196.642 64.1406 197.193 64.6914L213.206 80.7042L222.545 71.3664C223.096 70.8156 223.987 70.8156 224.538 71.3664C225.088 71.9166 225.088 72.8088 224.538 73.359L214.203 83.694C213.928 83.9694 213.568 84.1068 213.206 84.1068Z" fill="#EBEBEB"/>
<path d="M132.901 225.058H137.639V192.6H132.901V225.058Z" fill="#F0F0F0"/>
<path d="M37.0204 229.439H134.511V225.058H37.0204V229.439Z" fill="#F0F0F0"/>
<path d="M132.902 192.6H33.8926V225.059H132.902V192.6Z" fill="#F5F5F5"/>
<path d="M126.496 198.249H40.2983V216.787H126.496V198.249Z" fill="#F0F0F0"/>
<path d="M62.4257 200.734H104.368C105.15 200.734 105.789 200.095 105.789 199.313V199.046C105.789 198.265 105.149 197.625 104.368 197.625H62.4257C61.6445 197.625 61.0049 198.265 61.0049 199.046V199.313C61.0049 200.095 61.6445 200.734 62.4257 200.734Z" fill="#F5F5F5"/>
<path d="M31.7216 192.6H132.901V189.7H31.7216V192.6Z" fill="#F0F0F0"/>
<path d="M139.917 189.7H132.901V192.6H139.917V189.7Z" fill="#E6E6E6"/>
<path d="M257.811 158.328H248.572V229.44H257.811V158.328Z" fill="#F0F0F0"/>
<path d="M167.7 229.439H248.572V158.328H167.7V229.439Z" fill="#F5F5F5"/>
<path d="M166.962 223.197H237.966V185.164H166.962V223.197Z" fill="#FAFAFA"/>
<path d="M166.962 181.128H237.966V168.606H166.962V181.128Z" fill="#FAFAFA"/>
<path opacity="0.7" d="M238.6 185.162H237.967V223.196H238.6V185.162Z" fill="#E6E6E6"/>
<path opacity="0.7" d="M238.6 168.605H237.967V181.127H238.6V168.605Z" fill="#E6E6E6"/>
<path opacity="0.7" d="M257.811 161.329H167.496V162.937H257.811V161.329Z" fill="#E6E6E6"/>
<path d="M258.89 157.355H248.572V162.005H258.89V157.355Z" fill="#F0F0F0"/>
<path d="M166.621 162.005H248.572V157.355H166.621V162.005Z" fill="#F5F5F5"/>
<path d="M197.365 143.664C196.766 142.821 196.486 141.788 196.287 140.773C196.134 139.748 196.057 138.698 196.129 137.663C196.257 135.592 196.708 133.546 197.436 131.63C197.757 130.652 198.225 129.742 198.637 128.807C199.114 127.907 199.599 127.011 200.135 126.149C200.697 125.303 201.273 124.467 201.885 123.662C202.538 122.883 203.184 122.104 203.9 121.382C203.554 122.349 203.136 123.259 202.725 124.168C202.314 125.075 201.946 125.999 201.52 126.886L200.361 129.59L199.828 130.951L199.55 131.626L199.312 132.312C198.619 134.126 198.082 135.976 197.682 137.857C197.479 138.798 197.338 139.75 197.262 140.718C197.187 141.686 197.181 142.666 197.365 143.664Z" fill="#E6E6E6"/>
<path d="M185.718 145.253C185.771 143.717 185.677 142.271 185.341 140.939C185.011 139.608 184.421 138.43 183.582 137.435C182.731 136.447 181.642 135.634 180.412 134.938C179.188 134.228 177.831 133.666 176.429 133.01C177.967 132.846 179.532 133.002 181.04 133.499C181.794 133.746 182.53 134.087 183.224 134.521C183.911 134.967 184.553 135.506 185.104 136.143C186.198 137.428 186.826 139.099 186.891 140.725C186.957 142.351 186.565 143.95 185.718 145.253Z" fill="#E6E6E6"/>
<path d="M186.239 145.044C186.177 143.296 186.035 141.626 185.763 140.005C185.489 138.388 185.087 136.825 184.451 135.378C183.828 133.925 182.981 132.593 181.91 131.395C180.837 130.196 179.539 129.161 178.115 128.131C179.85 128.389 181.539 129.122 182.978 130.244C184.41 131.373 185.566 132.896 186.282 134.587C187.02 136.274 187.33 138.103 187.323 139.886C187.299 141.669 186.99 143.446 186.239 145.044Z" fill="#E6E6E6"/>
<path d="M196.566 141.979C195.229 140.301 194.187 138.43 193.266 136.511C192.361 134.584 191.621 132.577 191.04 130.522C190.444 128.471 190.078 126.349 189.882 124.219C189.698 122.087 189.777 119.921 190.176 117.823C190.614 119.926 190.948 121.963 191.433 123.982C191.908 125.996 192.388 127.999 192.962 129.985C193.521 131.972 194.11 133.956 194.725 135.945C195.332 137.938 195.971 139.925 196.566 141.979Z" fill="#E6E6E6"/>
<path d="M196.028 141.828C194.506 140.395 193.24 138.74 192.078 137.026C190.93 135.3 189.924 133.478 189.06 131.588C188.186 129.703 187.511 127.72 186.997 125.702C186.502 123.677 186.233 121.585 186.305 119.503C187.06 121.454 187.717 123.355 188.491 125.222C189.263 127.085 190.033 128.936 190.877 130.764C191.712 132.595 192.566 134.42 193.438 136.252C194.303 138.09 195.19 139.921 196.028 141.828Z" fill="#E6E6E6"/>
<path d="M198.257 143.746C196.55 142.883 195.033 141.725 193.611 140.475C192.198 139.21 190.907 137.808 189.747 136.299C188.575 134.8 187.594 133.145 186.771 131.425C185.961 129.697 185.39 127.845 185.151 125.958C186.182 127.572 187.093 129.149 188.139 130.655C189.177 132.16 190.212 133.649 191.334 135.088C192.443 136.534 193.578 137.965 194.741 139.393C195.899 140.827 197.084 142.246 198.257 143.746Z" fill="#E6E6E6"/>
<path d="M194.994 141.838C193.34 141.197 191.859 140.202 190.505 139.08C189.15 137.951 187.935 136.651 186.883 135.229C186.339 134.53 185.883 133.766 185.418 133.015C185.01 132.227 184.569 131.459 184.26 130.625C183.561 129.002 183.153 127.254 183.008 125.503C183.949 127.009 184.723 128.501 185.656 129.908C186.08 130.63 186.58 131.306 187.023 132.01C187.519 132.682 187.966 133.383 188.483 134.038C189.472 135.378 190.511 136.687 191.604 137.969C192.693 139.26 193.82 140.524 194.994 141.838Z" fill="#E6E6E6"/>
<path d="M197.555 142.867C196.768 142.363 196.205 141.553 195.767 140.717C195.367 139.861 195.042 138.945 194.9 138.007C194.59 136.134 194.668 134.211 195.055 132.393C195.227 131.475 195.511 130.593 195.777 129.708C196.115 128.851 196.423 127.981 196.832 127.161C197.252 126.346 197.674 125.535 198.158 124.762C198.676 124.004 199.184 123.248 199.77 122.542C199.579 123.451 199.311 124.309 199.051 125.167C198.778 126.018 198.575 126.888 198.297 127.723C198.043 128.568 197.844 129.421 197.59 130.255L197.294 131.521C197.194 131.942 197.069 132.359 197.012 132.784C196.65 134.469 196.46 136.162 196.457 137.855C196.449 138.705 196.53 139.548 196.687 140.392C196.843 141.238 197.102 142.071 197.555 142.867Z" fill="#E6E6E6"/>
<path d="M196.442 140.952C195.1 139.597 194.213 137.829 193.661 135.981C193.125 134.125 192.919 132.142 193.138 130.201C193.171 129.714 193.291 129.238 193.367 128.758L193.508 128.041L193.719 127.344C193.871 126.883 194.005 126.417 194.179 125.967C194.377 125.526 194.584 125.089 194.793 124.657L195.112 124.012L195.502 123.407L196.298 122.22C196.888 121.473 197.537 120.775 198.212 120.123C197.899 121.032 197.485 121.851 197.151 122.703L196.677 123.982L196.432 124.609L196.244 125.256C196.116 125.684 195.986 126.108 195.847 126.528L195.552 127.818L195.398 128.458L195.307 129.109C195.25 129.542 195.143 129.97 195.122 130.406C194.924 132.143 194.977 133.896 195.19 135.654C195.404 137.418 195.818 139.173 196.442 140.952Z" fill="#E6E6E6"/>
<path d="M193.909 140.221L185.31 132.569L186.584 142.955L193.909 140.221Z" fill="#E6E6E6"/>
<path d="M177.339 138.824H202.283L199.017 157.355H180.606L177.339 138.824Z" fill="#F5F5F5"/>
<path d="M192.922 138.824H202.282L199.017 157.355H194.1L192.922 138.824Z" fill="#EBEBEB"/>
<path d="M224.319 143.702C224.438 142.844 224.394 142.028 224.216 141.242C224.044 140.461 223.812 139.712 223.474 139C222.818 137.575 221.957 136.247 220.936 135.007C220.712 134.677 220.418 134.392 220.156 134.086C219.89 133.782 219.637 133.467 219.359 133.169C218.778 132.596 218.245 131.972 217.653 131.393C217.052 130.825 216.489 130.205 215.885 129.619C215.285 129.027 214.676 128.438 214.109 127.767C214.921 128.068 215.691 128.451 216.469 128.831C217.237 129.227 217.943 129.722 218.668 130.197C219.035 130.429 219.364 130.714 219.7 130.989C220.039 131.263 220.366 131.549 220.699 131.832C221.32 132.447 221.945 133.067 222.494 133.761C223.614 135.124 224.5 136.745 224.957 138.502C225.19 139.377 225.266 140.304 225.191 141.203C225.104 142.096 224.854 143.002 224.319 143.702Z" fill="#E6E6E6"/>
<path d="M238.343 141.188C237.714 140.674 237.272 139.937 236.992 139.135C236.833 138.732 236.789 138.302 236.725 137.866C236.708 137.649 236.725 137.431 236.729 137.21C236.738 136.99 236.731 136.763 236.791 136.552C237.093 134.795 238.126 133.278 239.334 132.136C239.637 131.846 239.974 131.609 240.294 131.345C240.624 131.098 240.94 130.826 241.3 130.637C241.652 130.433 242 130.225 242.356 130.031C242.535 129.935 242.708 129.83 242.889 129.743L243.445 129.511C243.816 129.357 244.189 129.21 244.563 129.069C244.934 128.923 245.311 128.793 245.701 128.704C246.481 128.518 247.252 128.329 248.047 128.228C247.414 128.741 246.759 129.166 246.111 129.595C245.779 129.793 245.463 130.016 245.152 130.241C244.838 130.462 244.522 130.676 244.206 130.883C243.552 131.275 242.995 131.774 242.38 132.191C242.067 132.395 241.803 132.646 241.527 132.883C241.255 133.121 240.955 133.337 240.702 133.589C239.664 134.576 238.794 135.662 238.308 136.928C238.171 137.242 238.126 137.576 238.029 137.913C238 138.253 237.925 138.605 237.949 138.963C237.942 139.684 238.081 140.429 238.343 141.188Z" fill="#E6E6E6"/>
<path d="M237.701 141.188C236.608 139.84 236.069 138.057 236.026 136.264C235.978 134.459 236.486 132.637 237.366 131.063L238.087 129.921C238.364 129.571 238.658 129.235 238.949 128.899L239.392 128.401L239.889 127.966C240.221 127.677 240.558 127.396 240.895 127.12C241.609 126.619 242.356 126.172 243.106 125.757C243.902 125.416 244.689 125.074 245.506 124.821C244.91 125.459 244.283 126.01 243.667 126.561C243.092 127.162 242.501 127.723 241.936 128.295C241.675 128.602 241.414 128.904 241.147 129.198L240.746 129.638L240.401 130.115C240.173 130.433 239.923 130.735 239.701 131.053L239.104 132.044C238.36 133.384 237.821 134.818 237.587 136.354C237.344 137.89 237.37 139.507 237.701 141.188Z" fill="#E6E6E6"/>
<path d="M225.085 142.074C225.58 140.218 226.125 138.432 226.644 136.645C227.17 134.863 227.676 133.09 228.146 131.314C228.596 129.533 229.001 127.753 229.347 125.948C229.661 124.138 229.871 122.323 230.037 120.401C230.702 122.208 230.92 124.166 230.909 126.101C230.844 128.034 230.552 129.953 230.078 131.816C229.583 133.673 228.922 135.479 228.105 137.206C227.271 138.924 226.322 140.594 225.085 142.074Z" fill="#E6E6E6"/>
<path d="M225.708 141.776C226.487 139.946 227.327 138.198 228.154 136.45C228.985 134.705 229.817 132.976 230.619 131.238C231.406 129.495 232.18 127.754 232.895 125.98C233.596 124.199 234.22 122.401 234.823 120.499C235.054 122.48 234.818 124.497 234.393 126.446C233.932 128.388 233.251 130.267 232.431 132.072C231.599 133.872 230.615 135.594 229.509 137.23C228.388 138.854 227.171 140.42 225.708 141.776Z" fill="#E6E6E6"/>
<path d="M223.268 144.06C224.436 142.45 225.645 140.934 226.842 139.414C228.041 137.899 229.239 136.399 230.408 134.884C231.565 133.361 232.708 131.836 233.801 130.267C234.882 128.688 235.892 127.075 236.904 125.356C236.688 127.339 236.007 129.252 235.158 131.056C234.275 132.847 233.192 134.526 231.989 136.102C230.776 137.671 229.433 139.13 227.989 140.477C226.532 141.81 224.997 143.064 223.268 144.06Z" fill="#E6E6E6"/>
<path d="M226.938 141.446C228.082 140.009 229.233 138.653 230.356 137.281C231.483 135.916 232.58 134.546 233.645 133.16C234.713 131.773 235.703 130.344 236.675 128.887C237.645 127.421 238.482 125.891 239.401 124.288C239.289 126.121 238.795 127.935 238.058 129.629C237.299 131.31 236.356 132.916 235.232 134.37C234.11 135.827 232.853 137.171 231.475 138.374C230.087 139.562 228.606 140.655 226.938 141.446Z" fill="#E6E6E6"/>
<path d="M224.006 143.118C224.714 141.709 224.957 140.271 224.916 138.898C224.862 137.518 224.463 136.185 223.871 134.907L223.669 134.419L223.409 133.951L222.906 133C222.506 132.395 222.142 131.76 221.73 131.144C221.289 130.548 220.894 129.906 220.451 129.288C220.005 128.67 219.551 128.052 219.147 127.358C219.847 127.722 220.495 128.161 221.152 128.602C221.791 129.061 222.356 129.613 222.943 130.148C223.242 130.41 223.478 130.737 223.74 131.037C223.999 131.342 224.251 131.653 224.496 131.972L225.139 133.006L225.446 133.534L225.696 134.1C226.383 135.583 226.741 137.316 226.478 138.998C226.208 140.659 225.356 142.252 224.006 143.118Z" fill="#E6E6E6"/>
<path d="M225.12 141.201C225.623 139.639 225.975 138.121 226.128 136.623C226.28 135.128 226.189 133.667 225.81 132.291C225.628 131.6 225.368 130.93 225.034 130.286C224.711 129.637 224.319 129.011 223.87 128.407C222.982 127.189 221.892 126.064 220.735 124.888C222.319 125.352 223.789 126.199 225.039 127.36C225.669 127.935 226.221 128.611 226.681 129.354C227.15 130.092 227.503 130.913 227.735 131.765C228.206 133.472 228.145 135.295 227.661 136.929C227.17 138.56 226.331 140.067 225.12 141.201Z" fill="#E6E6E6"/>
<path d="M228.052 139.782L237.439 130.77L237.062 139.607L228.052 139.782Z" fill="#E6E6E6"/>
<path d="M217.791 138.824H242.734L239.468 157.355H221.057L217.791 138.824Z" fill="#F5F5F5"/>
<path d="M233.374 138.824H242.734L239.468 157.355H234.551L233.374 138.824Z" fill="#EBEBEB"/>
<path d="M62.3237 54.4326V151.6C62.3237 160.019 55.4987 166.844 47.0801 166.844H117.901C126.32 166.844 133.145 160.019 133.145 151.6V54.4326H62.3237Z" fill="#F5F5F5"/>
<path d="M122.016 79.0349H76.269V124.782H122.016V79.0349Z" fill="#F0F0F0"/>
<path d="M120.608 77.6267H74.8608V123.374H120.608V77.6267Z" fill="white"/>
<path d="M86.0982 130.15H74.4624V141.785H86.0982V130.15Z" fill="white"/>
<path d="M120.608 130.15H108.972V141.785H120.608V130.15Z" fill="white"/>
<path d="M103.353 130.15H91.7173V141.785H103.353V130.15Z" fill="white"/>
<path d="M62.3237 54.4326V66H133.145V54.4326H62.3237Z" fill="#F0F0F0"/>
<path d="M66.5762 50.718V58.1478C66.5762 59.2902 67.5026 60.2166 68.645 60.2166C69.7874 60.2166 70.7138 59.2902 70.7138 58.1478V50.718C70.7138 49.5756 69.7874 48.6492 68.645 48.6492C67.502 48.6492 66.5762 49.575 66.5762 50.718Z" fill="#E6E6E6"/>
<path d="M124.755 50.718V58.1478C124.755 59.2902 125.681 60.2166 126.824 60.2166C127.966 60.2166 128.892 59.2902 128.892 58.1478V50.718C128.892 49.5756 127.966 48.6492 126.824 48.6492C125.681 48.6492 124.755 49.575 124.755 50.718Z" fill="#E6E6E6"/>
<path d="M113.119 50.718V58.1478C113.119 59.2902 114.046 60.2166 115.188 60.2166C116.33 60.2166 117.257 59.2902 117.257 58.1478V50.718C117.257 49.5756 116.33 48.6492 115.188 48.6492C114.046 48.6492 113.119 49.575 113.119 50.718Z" fill="#E6E6E6"/>
<path d="M101.483 50.718V58.1478C101.483 59.2902 102.41 60.2166 103.552 60.2166C104.695 60.2166 105.621 59.2902 105.621 58.1478V50.718C105.621 49.5756 104.695 48.6492 103.552 48.6492C102.409 48.6492 101.483 49.575 101.483 50.718Z" fill="#E6E6E6"/>
<path d="M89.8477 50.718V58.1478C89.8477 59.2902 90.7741 60.2166 91.9165 60.2166C93.0589 60.2166 93.9853 59.2902 93.9853 58.1478V50.718C93.9853 49.5756 93.0589 48.6492 91.9165 48.6492C90.7735 48.6492 89.8477 49.575 89.8477 50.718Z" fill="#E6E6E6"/>
<path d="M78.2119 50.718V58.1478C78.2119 59.2902 79.1383 60.2166 80.2807 60.2166C81.4231 60.2166 82.3495 59.2902 82.3495 58.1478V50.718C82.3495 49.5756 81.4231 48.6492 80.2807 48.6492C79.1377 48.6492 78.2119 49.575 78.2119 50.718Z" fill="#E6E6E6"/>
<path d="M111.524 160.466C111.524 163.988 114.379 166.844 117.901 166.844H111.524H38.2133C34.6913 166.844 31.8359 163.988 31.8359 160.466H111.524Z" fill="#E6E6E6"/>
<path d="M150 256.537C214.249 256.537 266.333 253.495 266.333 249.743C266.333 245.991 214.249 242.949 150 242.949C85.7507 242.949 33.6665 245.991 33.6665 249.743C33.6665 253.495 85.7507 256.537 150 256.537Z" fill="#F5F5F5"/>
<path opacity="0.2" d="M161.755 192.438C161.755 192.438 117.659 218.471 117.659 243.137H205.851C205.851 218.471 161.755 192.438 161.755 192.438Z" fill="#007373"/>
<path opacity="0.2" d="M161.755 223.5C161.755 223.5 121.041 233.583 121.041 243.137H202.47C202.47 233.583 161.755 223.5 161.755 223.5Z" fill="#007373"/>
<path opacity="0.3" d="M167.108 199.628C175.384 207.767 191.479 225.811 191.479 243.137H180.447C180.447 225.81 171.635 207.766 167.108 199.628Z" fill="white"/>
<path opacity="0.2" d="M161.755 192.438C161.755 192.438 117.659 166.405 117.659 141.739H205.851C205.851 166.405 161.755 192.438 161.755 192.438Z" fill="#007373"/>
<path opacity="0.2" d="M161.755 190.059C161.755 190.059 139.241 179.246 139.241 169H184.27C184.27 179.246 161.755 190.059 161.755 190.059Z" fill="#007373"/>
<path opacity="0.3" d="M156.948 185.248C148.672 177.109 132.577 159.065 132.577 141.739H143.609C143.609 159.065 152.421 177.109 156.948 185.248Z" fill="white"/>
<path opacity="0.3" d="M167.108 185.248C175.384 177.109 191.076 156.979 191.479 141.739H188.536C187.157 160.318 173.658 177.373 167.108 185.248Z" fill="white"/>
<path d="M199.87 133.033H194.87V133.633H199.87V133.033Z" fill="#007373"/>
<path d="M216.837 141.277H216.237C216.237 137.062 212.808 133.633 208.594 133.633H203.32V133.033H208.594C213.139 133.033 216.837 136.731 216.837 141.277Z" fill="#007373"/>
<path d="M208.593 148.344H114.917C111.539 148.344 108.774 145.58 108.774 142.201V141.276C108.774 137.897 111.538 135.133 114.917 135.133H208.594C211.972 135.133 214.737 137.897 214.737 141.276V142.201C214.736 145.58 211.972 148.344 208.593 148.344Z" fill="#007373"/>
<path d="M208.593 236.532H114.917C111.539 236.532 108.774 239.296 108.774 242.675V243.6C108.774 246.979 111.538 249.743 114.917 249.743H208.594C211.972 249.743 214.737 246.979 214.737 243.6V242.675C214.736 239.296 211.972 236.532 208.593 236.532Z" fill="#007373"/>
<path d="M84.4326 182.712L80.3652 179.101L87.2982 168.448L91.365 172.058L84.4326 182.712Z" fill="#FF8B7B"/>
<path d="M81.2042 176.81L86.378 180.399C86.5664 180.53 86.6174 180.759 86.5016 180.95L83.9126 185.218C83.6438 185.661 82.967 185.786 82.5386 185.478C80.759 184.198 80.0732 183.577 77.9168 181.839C76.5902 180.77 73.4306 178.198 71.7986 176.504C70.202 174.847 71.8886 173.243 72.7316 173.816C74.7272 175.172 78.206 176.662 80.2148 176.543C80.5772 176.521 80.9288 176.619 81.2042 176.81Z" fill="#263238"/>
<path opacity="0.2" d="M91.3647 172.062L87.2955 168.45L83.9595 173.581L88.1283 177.04L91.3647 172.062Z" fill="black"/>
<path d="M132.748 118.86C132.748 118.86 105.45 116.997 102.064 126.248C94.3681 147.279 84.3511 169.597 84.3511 169.597L92.4211 175.42C92.4211 175.42 109.435 149.415 114.605 132.715C125.105 135.263 144.088 137.445 150.205 130.425C155.423 124.438 151.517 118.86 151.517 118.86L132.748 118.86Z" fill="#263238"/>
<path opacity="0.3" d="M109.365 135.213C108.731 137.776 107.766 145.136 107.167 150.015C108.489 147.446 109.754 144.842 110.888 142.296L109.365 135.213Z" fill="black"/>
<path d="M91.8856 178.056L82.7554 170.903L84.622 166.896L94.8274 174.691L91.8856 178.056Z" fill="#007373"/>
<path d="M79.0152 176.48C79.4406 176.775 79.9722 177.014 80.3568 177.166C80.4048 177.185 80.4594 177.174 80.496 177.138C80.5332 177.102 80.5446 177.048 80.5272 177C80.451 176.796 79.7652 175 79.05 174.831C78.8844 174.791 78.7248 174.836 78.5892 174.962C78.3654 175.167 78.2748 175.395 78.3198 175.637C78.3768 175.945 78.6582 176.232 79.0152 176.48ZM80.1696 176.806C79.2318 176.399 78.6432 175.952 78.576 175.589C78.5484 175.439 78.6102 175.296 78.7656 175.153C78.8376 175.087 78.9084 175.065 78.9888 175.085C79.374 175.176 79.8714 176.096 80.1696 176.806Z" fill="#007373"/>
<path d="M80.3307 177.152C80.3475 177.164 80.3673 177.172 80.3883 177.175C80.4327 177.181 80.4771 177.163 80.5059 177.128C80.5491 177.076 81.5715 175.823 81.4173 175.052C81.3759 174.845 81.2571 174.688 81.0663 174.587C80.8365 174.465 80.6181 174.485 80.4519 174.641C79.9971 175.07 80.0169 176.507 80.2863 177.099C80.2965 177.121 80.3115 177.139 80.3307 177.152ZM80.9961 174.849C81.0855 174.911 81.1395 174.994 81.1611 175.103C81.2535 175.563 80.7651 176.348 80.4489 176.776C80.2833 176.16 80.3325 175.113 80.6307 174.832C80.6871 174.778 80.7747 174.728 80.9439 174.817C80.9631 174.827 80.9805 174.838 80.9961 174.849Z" fill="#007373"/>
<path d="M120.301 189.008L115.05 190.059L114.079 175.997L119.414 176.167L120.301 189.008Z" fill="#FF8B7B"/>
<path d="M114.336 188.136L120.321 185.608C120.539 185.516 120.767 185.598 120.87 185.805L123.16 190.418C123.398 190.896 123.133 191.556 122.628 191.759C120.529 192.603 119.482 192.902 116.85 194.013C115.23 194.697 110.867 196.68 108.51 197.264C106.206 197.834 105.644 195.5 106.59 195.042C108.833 193.959 112.551 190.668 113.556 188.852C113.738 188.524 114.017 188.271 114.336 188.136Z" fill="#263238"/>
<path d="M112.84 189.863C113.332 189.655 113.834 189.323 114.179 189.072C114.222 189.041 114.243 188.988 114.232 188.936C114.221 188.883 114.18 188.843 114.128 188.832C113.908 188.786 111.965 188.391 111.422 188.922C111.296 189.044 111.247 189.208 111.281 189.395C111.337 189.704 111.485 189.909 111.721 190.003C112.021 190.124 112.427 190.037 112.84 189.863ZM113.762 189.036C112.889 189.629 112.175 189.896 111.821 189.753C111.675 189.695 111.585 189.562 111.546 189.347C111.528 189.248 111.548 189.174 111.609 189.115C111.902 188.829 112.977 188.904 113.762 189.036Z" fill="#007373"/>
<path d="M114.152 189.088C114.172 189.079 114.19 189.067 114.203 189.05C114.233 189.014 114.242 188.966 114.228 188.921C114.206 188.854 113.678 187.271 112.922 186.98C112.718 186.902 112.516 186.919 112.322 187.03C112.09 187.163 111.986 187.364 112.031 187.595C112.153 188.228 113.417 189.005 114.082 189.097C114.106 189.1 114.13 189.097 114.152 189.088ZM112.512 187.235C112.615 187.192 112.718 187.19 112.825 187.232C113.276 187.405 113.69 188.264 113.889 188.776C113.261 188.581 112.375 187.959 112.295 187.544C112.279 187.465 112.284 187.361 112.455 187.263C112.475 187.253 112.493 187.243 112.512 187.235Z" fill="#007373"/>
<path opacity="0.2" d="M119.415 176.17L114.077 176.001L114.588 183.344L119.907 183.247L119.415 176.17Z" fill="black"/>
<path d="M146.013 118.86C146.013 118.86 106.996 122.549 108.417 134.293C110.466 151.232 111.967 180.887 111.967 180.887L121.911 181.278C121.911 181.278 125.638 155.201 123.458 137.856C133.555 137.856 155.488 138.387 159.348 133.172C163.929 126.98 161.808 118.86 161.808 118.86H146.013Z" fill="#263238"/>
<path d="M123.01 181.89L111.075 181.298L110.646 176.104L123.734 177.008L123.01 181.89Z" fill="#007373"/>
<path d="M137.351 84.4745C137.265 85.5479 137.173 86.5037 137.042 87.5063C136.917 88.4969 136.779 89.4845 136.628 90.4715C136.336 92.4473 135.944 94.4123 135.5 96.3851C135.031 98.3531 134.509 100.328 133.823 102.31C133.123 104.289 132.338 106.285 131.105 108.314C130.475 109.325 129.743 110.359 128.687 111.364C128.404 111.634 128.161 111.823 127.916 112.016C127.669 112.22 127.421 112.39 127.172 112.565C126.677 112.914 126.178 113.222 125.677 113.497C123.677 114.601 121.693 115.353 119.705 115.941C118.715 116.242 117.722 116.492 116.731 116.711C115.741 116.935 114.749 117.125 113.756 117.28C111.762 117.601 109.814 117.812 107.752 117.881C106.618 117.919 105.668 117.03 105.63 115.896C105.599 114.965 106.193 114.157 107.034 113.878L107.114 113.851C110.621 112.688 114.215 111.427 117.448 109.915C119.06 109.154 120.605 108.328 121.878 107.407C122.195 107.177 122.492 106.943 122.763 106.712C122.896 106.595 123.037 106.481 123.148 106.364C123.27 106.246 123.395 106.126 123.452 106.055C123.763 105.704 124.133 105.14 124.468 104.49C125.146 103.175 125.737 101.554 126.215 99.8765C126.7 98.1929 127.121 96.4337 127.47 94.6439C127.841 92.8577 128.131 91.0355 128.425 89.2097C128.708 87.3995 128.939 85.4999 129.146 83.7587L129.157 83.6609C129.425 81.4025 131.473 79.7897 133.731 80.0573C135.935 80.3183 137.524 82.2827 137.351 84.4745Z" fill="#007373"/>
<path d="M107.889 112.81L104.883 113L107.285 118.521C107.285 118.521 112.476 118.403 112.368 115.847L111.431 114.625C110.627 113.577 109.319 112.907 107.889 112.81Z" fill="#FF8B7B"/>
<path d="M101.604 113.443L104.198 118.52H107.285L104.883 113L101.604 113.443Z" fill="#FF8B7B"/>
<path d="M136.92 75.9666L142.724 74.778L147.34 74.1096C148.001 74.0136 148.672 73.9614 149.337 74.022C152.925 74.3472 156.007 76.854 156.985 80.406C158.14 84.603 159.185 89.757 159.988 94.3248C161.104 100.666 161.685 110.197 161.808 118.859H134.298C133.722 103.172 130.363 93.0528 129.229 86.7912C128.524 82.8996 130.513 79.0188 134.083 77.3178L136.92 75.9666Z" fill="#007373"/>
<path d="M134.298 79.416C134.364 81.996 134.886 91.197 137.662 96.4224C138.152 91.5234 143.965 76.6074 143.965 76.6074L134.298 79.416Z" fill="#F5F5F5"/>
<path opacity="0.3" d="M160.611 98.6284C160.612 98.629 160.613 98.6296 160.614 98.6308C160.602 98.533 160.59 98.4395 160.578 98.3428C160.56 98.1953 160.541 98.0519 160.522 97.9061C160.492 97.6739 160.462 97.4434 160.432 97.216C160.402 97 160.374 96.7853 160.343 96.5741C160.313 96.3641 160.282 96.1594 160.252 95.9542C160.226 95.7844 160.201 95.6123 160.175 95.4467C160.115 95.0645 160.054 94.6901 159.991 94.3283C159.793 93.2039 159.579 92.0428 159.354 90.871C159.348 90.838 159.342 90.8051 159.336 90.7721C159.109 89.5997 158.872 88.4171 158.623 87.2435C158.617 87.2177 158.611 87.1919 158.606 87.1655C158.5 86.6657 158.391 86.1695 158.281 85.6763C158.239 85.4903 158.197 85.3066 158.155 85.1218C158.083 84.802 158.01 84.4852 157.935 84.1702C157.876 83.92 157.818 83.671 157.758 83.4238C157.746 83.3734 157.734 83.3213 157.722 83.2709H157.72C157.481 82.2833 157.236 81.3197 156.984 80.4065L152.814 78.2104C153.293 80.0548 153.751 82.0775 154.184 84.1553C153.665 84.4265 153.221 84.7523 152.815 85.1315C151.821 86.0225 151.853 87.9137 152.85 90.1487C155.686 96.5105 157.085 103.427 157.388 110.386C157.511 113.213 157.59 116.075 157.626 118.854L161.808 118.86C161.708 111.983 161.323 104.568 160.611 98.6284Z" fill="black"/>
<path d="M140.56 64.4041L138.207 67.9957L135.005 72.8911C135.225 73.0057 135.714 73.7737 135.995 74.3401C136.58 75.5191 137.064 76.4011 134.589 78.0883C134.059 78.4495 134.04 79.0219 134.16 79.6519C134.306 80.4163 134.754 81.2197 137.426 80.7475C140.52 80.2015 142.591 78.5659 144.131 77.0257C145.021 76.1359 144.817 75.4657 143.959 74.5441C141.53 71.9341 140.803 67.7659 140.56 64.4041Z" fill="#FF8B7B"/>
<path d="M134.897 80.8375L136.599 81.9043L139.358 80.7336C138.686 80.1288 137.943 79.62 136.928 79.4814C136.122 79.7142 135.486 80.2369 134.897 80.8375Z" fill="#263238"/>
<path d="M136.927 79.4814C138.193 80.004 138.83 81.1794 139.403 82.539C139.403 82.539 145.471 77.9382 145.598 74.9094C145.272 73.8804 143.753 74.0604 143.753 74.0604C143.753 74.0604 141.907 77.2602 136.927 79.4814Z" fill="white"/>
<path d="M136.927 79.4812C135.662 80.0038 135.004 81.1288 135.004 82.4896C135.004 82.4896 132.306 79.3204 134.503 76.9282C135.004 76.5688 136.384 76.2214 136.384 76.2214C136.384 76.2214 135.727 77.5378 136.927 79.4812Z" fill="white"/>
<path d="M137.129 81.4067C137.129 81.4067 136.665 81.4067 136.354 81.4067C136.107 81.8417 135.754 87.4673 135.619 90.4595C136.024 92.2703 136.553 94.0397 137.241 95.5559C137.252 95.5733 137.258 95.5973 137.27 95.6147C137.311 95.7089 137.353 95.8031 137.399 95.8907C137.482 96.0731 137.57 96.2495 137.664 96.4199C137.793 95.1383 138.287 93.1571 138.952 90.9413C138.14 87.4733 137.129 81.4067 137.129 81.4067Z" fill="#263238"/>
<path opacity="0.2" d="M135.793 71.6879L137.758 68.1995C137.798 68.2865 137.845 68.3867 137.892 68.4869C138.045 68.8613 138.199 69.3287 138.313 69.8237C138.674 71.3741 137.47 73.5863 136.147 74.6423C136.094 74.5421 136.047 74.4419 135.994 74.3417C135.747 73.8335 135.325 73.1657 135.085 72.9515C135.058 72.9245 135.031 72.9047 135.004 72.8915L135.793 71.6879Z" fill="black"/>
<path d="M126.205 64.1908C125.73 62.056 129.119 59.1142 129.119 59.1142L125.105 57.7114C123.295 59.0248 124.47 62.7412 126.205 64.1908Z" fill="#263238"/>
<path d="M139.731 58.0458C140.677 63.3696 141.497 66.4284 139.527 69.8448C136.564 74.9832 129.585 74.3676 127.086 69.4866C124.837 65.0928 123.669 57.1248 128.242 53.6286C132.746 50.184 138.786 52.722 139.731 58.0458Z" fill="#FF8B7B"/>
<path d="M139.803 63.4332L137.285 62.7432V59.5002C137.285 59.5002 134.098 57.675 134.595 55.4502C134.814 53.9502 135.619 51.7332 135.619 51.7332C135.619 51.7332 140.67 51.4086 142.204 52.0542C141.937 52.4334 140.904 53.2668 140.904 53.2668C140.904 53.2668 142.894 54.6 143.965 56.4C143.203 56.4666 142.236 57.2334 142.236 57.2334C142.236 57.2334 142.903 61.6668 139.803 63.4332Z" fill="#263238"/>
<path d="M134.004 48.2771C135.858 49.4375 134.783 51.5753 134.783 51.5753L139.747 51.6815C139.483 50.1125 135.182 48.1961 134.004 48.2771Z" fill="#263238"/>
<path d="M135.94 56.5416C135.587 57.5424 131.569 58.7634 127.903 58.8834C125.437 58.9644 122.552 57.8783 122.552 57.8783C122.552 57.8783 123.2 57.15 124.371 56.5998C122.154 56.0496 119.35 54.105 118.581 52.5264C120.583 51.8154 122.095 51.927 123.571 52.1748C121.696 50.5746 121.671 48.45 121.671 48.45C121.671 48.45 131.051 52.1717 134.663 50.6285C138.591 48.9503 141.571 52.098 138.991 54.5004C136.411 56.9028 135.94 56.5416 135.94 56.5416Z" fill="#263238"/>
<path d="M142.598 61.9027C142.656 63.1807 142.174 64.3711 141.525 65.1421C140.548 66.3019 139.041 65.3767 138.692 63.9295C138.378 62.6269 138.785 60.6157 140.064 59.9923C141.325 59.3797 142.532 60.4417 142.598 61.9027Z" fill="#FF8B7B"/>
<path d="M131.614 62.9724C131.751 63.3888 131.643 63.807 131.374 63.9054C131.106 64.0038 130.777 63.7464 130.64 63.3294C130.503 62.913 130.611 62.4948 130.879 62.3964C131.148 62.298 131.477 62.556 131.614 62.9724Z" fill="#263238"/>
<path d="M126.963 64.6787C127.1 65.0951 126.993 65.5133 126.724 65.6117C126.455 65.7101 126.126 65.4527 125.99 65.0357C125.853 64.6193 125.96 64.2011 126.229 64.1027C126.498 64.0043 126.827 64.2623 126.963 64.6787Z" fill="#263238"/>
<path d="M128.553 64.4585C128.553 64.4585 128.585 66.8003 128.121 68.1437C128.955 68.4467 129.875 67.7291 129.875 67.7291L128.553 64.4585Z" fill="#A02724"/>
<path d="M131.401 69.3306C133.032 68.766 133.593 67.4334 133.618 67.3716C133.645 67.3062 133.613 67.2312 133.548 67.2042C133.482 67.1772 133.407 67.209 133.38 67.275C133.374 67.29 132.738 68.8086 130.855 69.2172C130.785 69.2322 130.741 69.3006 130.757 69.3702C130.772 69.4398 130.84 69.4836 130.91 69.468C131.083 69.4302 131.246 69.384 131.401 69.3306Z" fill="#263238"/>
<path d="M132.646 60.5381C132.683 60.5183 132.716 60.4889 132.74 60.4505C132.817 60.3311 132.782 60.1715 132.663 60.0947C131.479 59.3345 130.396 59.8355 130.351 59.8577C130.224 59.9033 130.168 60.0719 130.229 60.2003C130.29 60.3287 130.443 60.3827 130.571 60.3221C130.616 60.3017 131.455 59.9303 132.385 60.5273C132.467 60.5807 132.567 60.5813 132.646 60.5381Z" fill="#263238"/>
<path d="M126.042 62.1538C126.047 62.1118 126.041 62.068 126.024 62.0266C125.969 61.8952 125.819 61.8328 125.687 61.8874C124.388 62.4268 124.182 63.6028 124.175 63.6526C124.14 63.7828 124.246 63.925 124.387 63.9478C124.527 63.9706 124.659 63.8758 124.682 63.736C124.691 63.6874 124.864 62.7862 125.885 62.3632C125.974 62.3254 126.031 62.2438 126.042 62.1538Z" fill="#263238"/>
<path d="M155.703 77.8217C156.365 78.6359 156.943 79.3715 157.53 80.1617C158.114 80.9387 158.68 81.7277 159.236 82.5263C160.354 84.1169 161.403 85.7627 162.422 87.4457C163.416 89.1479 164.387 90.8783 165.243 92.7287C166.094 94.5791 166.889 96.5093 167.431 98.7185C167.693 99.8297 167.894 101.027 167.9 102.394C167.89 103.742 167.675 104.929 167.369 106.049C166.745 108.272 165.827 110.188 164.779 111.953C164.262 112.84 163.705 113.684 163.123 114.5C162.546 115.318 161.942 116.107 161.311 116.867C160.048 118.402 158.744 119.806 157.238 121.177C156.4 121.94 155.1 121.879 154.337 121.04C153.714 120.355 153.64 119.365 154.089 118.609L154.142 118.52C155.96 115.464 157.758 112.232 159.022 109.074C159.649 107.495 160.153 105.914 160.361 104.483C160.459 103.777 160.502 103.094 160.443 102.57C160.396 102.065 160.257 101.407 160.031 100.711C159.577 99.3071 158.893 97.7771 158.084 96.2741C157.285 94.7645 156.383 93.2471 155.425 91.7537C154.476 90.2501 153.46 88.7705 152.429 87.2945L150.854 85.0991C150.328 84.3845 149.776 83.6255 149.276 82.9715L149.239 82.9235C147.857 81.1169 148.202 78.5327 150.008 77.1509C151.779 75.7943 154.303 76.1045 155.703 77.8217Z" fill="#007373"/>
<path d="M98.5407 122.082L149.588 119.772C150.258 119.741 150.831 120.264 150.861 120.935L97.3767 123.356C97.3467 122.685 97.8705 122.113 98.5407 122.082Z" fill="#007373"/>
<g opacity="0.6">
<path d="M98.5407 122.082L149.588 119.772C150.258 119.741 150.831 120.264 150.861 120.935L97.3767 123.356C97.3467 122.685 97.8705 122.113 98.5407 122.082Z" fill="white"/>
</g>
<path d="M90.4135 98.3968L126.731 96.7528C127.175 96.733 127.648 97.072 127.786 97.5112L134.758 119.637C134.896 120.075 134.648 120.448 134.204 120.468L97.8865 122.112C97.4419 122.132 96.9697 121.793 96.8317 121.353L89.8597 99.2278C89.7211 98.7892 89.9689 98.4172 90.4135 98.3968Z" fill="#007373"/>
<path opacity="0.6" d="M90.4135 98.3968L126.731 96.7528C127.175 96.733 127.648 97.072 127.786 97.5112L134.758 119.637C134.896 120.075 134.648 120.448 134.204 120.468L97.8865 122.112C97.4419 122.132 96.9697 121.793 96.8317 121.353L89.8597 99.2278C89.7211 98.7892 89.9689 98.4172 90.4135 98.3968Z" fill="white"/>
<path opacity="0.5" d="M127.786 97.5112L134.758 119.637C134.896 120.076 134.648 120.448 134.204 120.468L126.731 96.7528C127.175 96.7324 127.648 97.072 127.786 97.5112Z" fill="#007373"/>
<path opacity="0.5" d="M136.164 120.38L149.587 119.772C150.258 119.741 150.831 120.264 150.861 120.935L135 121.653C134.97 120.983 135.493 120.41 136.164 120.38Z" fill="#007373"/>
<path d="M153.121 118.366L149.688 118.869L153.204 123.755C153.204 123.755 158.788 122.86 158.142 120.385L156.967 119.39C155.959 118.537 154.539 118.159 153.121 118.366Z" fill="#FF8B7B"/>
<path d="M145.489 120.329L149.792 124.082L153.204 123.755L149.688 118.868L145.489 120.329Z" fill="#FF8B7B"/>
</svg>
