<svg width="50" height="50" viewBox="0 0 50 50" fill="none" xmlns="http://www.w3.org/2000/svg">
<g opacity="0.4">
<path d="M33.6503 6.73878C33.3332 7.50449 33.3332 8.4752 33.3332 10.4166V18.75C33.3332 20.6914 33.3332 21.6621 33.6503 22.4278C34.0732 23.4488 34.8844 24.2599 35.9053 24.6828C36.671 25 37.6418 25 39.5832 25C41.5246 25 42.4953 25 43.261 24.6828C44.282 24.2599 45.0931 23.4488 45.516 22.4278C45.8332 21.6621 45.8332 20.6914 45.8332 18.75V10.4166C45.8332 8.4752 45.8332 7.50449 45.516 6.73878C45.0931 5.71783 44.282 4.90669 43.261 4.48379C42.4953 4.16663 41.5246 4.16663 39.5832 4.16663C37.6418 4.16663 36.671 4.16663 35.9053 4.48379C34.8844 4.90669 34.0732 5.71783 33.6503 6.73878Z" fill="#007373"/>
<path d="M5.38689 26.2204C4.1665 27.4407 4.1665 29.4049 4.1665 33.3333V37.5C4.1665 41.4283 4.1665 43.3925 5.38689 44.6129C6.60728 45.8333 8.57147 45.8333 12.4998 45.8333H16.6665C20.5949 45.8333 22.5591 45.8333 23.7794 44.6129C24.9998 43.3925 24.9998 41.4283 24.9998 37.5V33.3333C24.9998 29.4049 24.9998 27.4407 23.7794 26.2204C22.5591 25 20.5949 25 16.6665 25H12.4998C8.57147 25 6.60728 25 5.38689 26.2204Z" fill="#007373"/>
</g>
<path fill-rule="evenodd" clip-rule="evenodd" d="M39.6358 2.60413H39.5306C38.6046 2.60411 37.8316 2.6041 37.197 2.6474C36.5364 2.69247 35.9124 2.78964 35.3074 3.04023C33.9036 3.62171 32.7883 4.73703 32.2068 6.14084C31.9562 6.74581 31.859 7.36983 31.8139 8.03045C31.7706 8.66502 31.7707 9.43795 31.7707 10.3638V18.8026C31.7707 19.7284 31.7706 20.5016 31.8139 21.1361C31.859 21.7968 31.9562 22.4208 32.2068 23.0258C32.7883 24.4296 33.9036 25.5449 35.3074 26.1264C35.9124 26.3769 36.5364 26.4741 37.197 26.5192C37.8316 26.5625 38.6046 26.5625 39.5306 26.5625H39.6358C40.5618 26.5625 41.3347 26.5625 41.9694 26.5192C42.63 26.4741 43.254 26.3769 43.859 26.1264C45.2628 25.5449 46.3781 24.4296 46.9596 23.0258C47.2102 22.4208 47.3073 21.7968 47.3524 21.1361C47.3957 20.5016 47.3957 19.7286 47.3957 18.8027V10.364C47.3957 9.43813 47.3957 8.66502 47.3524 8.03045C47.3073 7.36983 47.2102 6.74581 46.9596 6.14084C46.3781 4.73703 45.2628 3.62171 43.859 3.04023C43.254 2.78964 42.63 2.69247 41.9694 2.6474C41.3347 2.6041 40.5617 2.60411 39.6358 2.60413ZM36.5033 5.92736C36.664 5.86078 36.9082 5.79937 37.4097 5.76515C37.9253 5.72997 38.5911 5.72913 39.5832 5.72913C40.5753 5.72913 41.2411 5.72997 41.7566 5.76515C42.2581 5.79937 42.5023 5.86078 42.6631 5.92736C43.3012 6.19166 43.8081 6.69863 44.0724 7.33672C44.139 7.49746 44.2004 7.74166 44.2347 8.24317C44.2698 8.75872 44.2707 9.42454 44.2707 10.4166V18.75C44.2707 19.7421 44.2698 20.4079 44.2347 20.9234C44.2004 21.4249 44.139 21.6691 44.0724 21.8299C43.8081 22.468 43.3012 22.9749 42.6631 23.2392C42.5023 23.3058 42.2581 23.3672 41.7566 23.4014C41.2411 23.4366 40.5753 23.4375 39.5832 23.4375C38.5911 23.4375 37.9253 23.4366 37.4097 23.4014C36.9082 23.3672 36.664 23.3058 36.5033 23.2392C35.8652 22.9749 35.3582 22.468 35.0939 21.8299C35.0273 21.6691 34.9659 21.4249 34.9317 20.9234C34.8965 20.4079 34.8957 19.7421 34.8957 18.75V10.4166C34.8957 9.42454 34.8965 8.75872 34.9317 8.24317C34.9659 7.74166 35.0273 7.49746 35.0939 7.33672C35.3582 6.69863 35.8652 6.19166 36.5033 5.92736Z" fill="#007373"/>
<path fill-rule="evenodd" clip-rule="evenodd" d="M39.6359 31.7708H39.5306C38.6047 31.7708 37.8316 31.7708 37.197 31.8141C36.5364 31.8591 35.9124 31.9563 35.3074 32.2069C33.9036 32.7884 32.7883 33.9037 32.2068 35.3075C31.9562 35.9125 31.859 36.5365 31.8139 37.1971C31.7706 37.8317 31.7707 38.6046 31.7707 39.5305V39.6359C31.7707 40.5618 31.7706 41.3349 31.8139 41.9695C31.859 42.6301 31.9562 43.2541 32.2068 43.8591C32.7883 45.2629 33.9036 46.3782 35.3074 46.9597C35.9124 47.2103 36.5364 47.3074 37.197 47.3525C37.8316 47.3958 38.6045 47.3958 39.5304 47.3958H39.6358C40.5617 47.3958 41.3348 47.3958 41.9694 47.3525C42.63 47.3074 43.254 47.2103 43.859 46.9597C45.2628 46.3782 46.3781 45.2629 46.9596 43.8591C47.2102 43.2541 47.3073 42.6301 47.3524 41.9695C47.3957 41.3349 47.3957 40.562 47.3957 39.6361V39.5307C47.3957 38.6048 47.3957 37.8317 47.3524 37.1971C47.3073 36.5365 47.2102 35.9125 46.9596 35.3075C46.3781 33.9037 45.2628 32.7884 43.859 32.2069C43.254 31.9563 42.63 31.8591 41.9694 31.8141C41.3348 31.7708 40.5618 31.7708 39.6359 31.7708ZM36.5033 35.094C36.664 35.0274 36.9082 34.966 37.4097 34.9318C37.9253 34.8966 38.5911 34.8958 39.5832 34.8958C40.5753 34.8958 41.2411 34.8966 41.7566 34.9318C42.2581 34.966 42.5023 35.0274 42.6631 35.094C43.3012 35.3583 43.8081 35.8653 44.0724 36.5034C44.139 36.6641 44.2004 36.9083 44.2347 37.4098C44.2698 37.9254 44.2707 38.5912 44.2707 39.5833C44.2707 40.5754 44.2698 41.2412 44.2347 41.7567C44.2004 42.2583 44.139 42.5025 44.0724 42.6632C43.8081 43.3013 43.3012 43.8083 42.6631 44.0726C42.5023 44.1391 42.2581 44.2006 41.7566 44.2348C41.2411 44.2699 40.5753 44.2708 39.5832 44.2708C38.5911 44.2708 37.9253 44.2699 37.4097 44.2348C36.9082 44.2006 36.664 44.1391 36.5033 44.0726C35.8652 43.8083 35.3582 43.3013 35.0939 42.6632C35.0273 42.5025 34.9659 42.2583 34.9317 41.7567C34.8965 41.2412 34.8957 40.5754 34.8957 39.5833C34.8957 38.5912 34.8965 37.9254 34.9317 37.4098C34.9659 36.9083 35.0273 36.6641 35.0939 36.5034C35.3582 35.8653 35.8652 35.3583 36.5033 35.094Z" fill="#007373"/>
<path fill-rule="evenodd" clip-rule="evenodd" d="M12.3915 23.4375H16.7748C18.6467 23.4374 20.2075 23.4373 21.4467 23.6039C22.7546 23.7798 23.9354 24.1666 24.8843 25.1155C25.8332 26.0644 26.22 27.2452 26.3959 28.5531C26.5625 29.7922 26.5624 31.3531 26.5623 33.2249V37.6083C26.5624 39.4801 26.5625 41.041 26.3959 42.2801C26.22 43.588 25.8332 44.7689 24.8843 45.7178C23.9354 46.6667 22.7546 47.0535 21.4467 47.2293C20.2076 47.3959 18.6467 47.3959 16.775 47.3958H12.3915C10.5197 47.3959 8.95878 47.3959 7.71968 47.2293C6.41177 47.0535 5.23094 46.6667 4.28205 45.7178C3.33315 44.7689 2.94634 43.588 2.77049 42.2801C2.6039 41.041 2.60395 39.4802 2.60401 37.6084V33.225C2.60395 31.3532 2.6039 29.7922 2.77049 28.5531C2.94634 27.2452 3.33315 26.0644 4.28205 25.1155C5.23094 24.1666 6.41177 23.7798 7.71968 23.6039C8.95881 23.4373 10.5197 23.4374 12.3915 23.4375ZM8.13608 26.7011C7.1747 26.8303 6.76325 27.0537 6.49175 27.3252C6.22026 27.5967 5.99688 28.0082 5.86763 28.9695C5.73233 29.9759 5.72901 31.3249 5.72901 33.3333V37.5C5.72901 39.5083 5.73233 40.8574 5.86763 41.8637C5.99688 42.8251 6.22026 43.2366 6.49175 43.508C6.76325 43.7795 7.1747 44.0029 8.13608 44.1322C9.1424 44.2675 10.4915 44.2708 12.4998 44.2708H16.6665C18.6749 44.2708 20.024 44.2675 21.0303 44.1322C21.9917 44.0029 22.4031 43.7795 22.6746 43.508C22.9461 43.2366 23.1695 42.8251 23.2987 41.8637C23.434 40.8574 23.4373 39.5083 23.4373 37.5V33.3333C23.4373 31.3249 23.434 29.9759 23.2987 28.9695C23.1695 28.0082 22.9461 27.5967 22.6746 27.3252C22.4031 27.0537 21.9917 26.8303 21.0303 26.7011C20.024 26.5658 18.6749 26.5625 16.6665 26.5625H12.4998C10.4915 26.5625 9.1424 26.5658 8.13608 26.7011Z" fill="#007373"/>
<path fill-rule="evenodd" clip-rule="evenodd" d="M18.8024 2.60413H10.3639C9.43795 2.60411 8.66494 2.6041 8.03033 2.6474C7.36971 2.69247 6.74569 2.78964 6.14072 3.04023C4.73691 3.62171 3.62159 4.73703 3.04011 6.14084C2.78952 6.74581 2.69235 7.36983 2.64728 8.03045C2.60398 8.66506 2.60399 9.43804 2.60401 10.364V10.4692C2.60399 11.3952 2.60398 12.1682 2.64728 12.8028C2.69235 13.4634 2.78952 14.0874 3.04011 14.6924C3.62159 16.0962 4.73691 17.2115 6.14072 17.793C6.74569 18.0436 7.36971 18.1408 8.03033 18.1859C8.66494 18.2292 9.43793 18.2291 10.3639 18.2291H18.8025C19.7284 18.2291 20.5014 18.2292 21.136 18.1859C21.7966 18.1408 22.4207 18.0436 23.0256 17.793C24.4294 17.2115 25.5448 16.0962 26.1262 14.6924C26.3768 14.0874 26.474 13.4634 26.5191 12.8028C26.5624 12.1682 26.5624 11.3952 26.5623 10.4692V10.364C26.5624 9.43805 26.5624 8.66506 26.5191 8.03045C26.474 7.36983 26.3768 6.74581 26.1262 6.14084C25.5448 4.73703 24.4294 3.62171 23.0256 3.04023C22.4207 2.78964 21.7966 2.69247 21.136 2.6474C20.5014 2.6041 19.7284 2.60411 18.8024 2.60413ZM7.3366 5.92736C7.49734 5.86078 7.74154 5.79937 8.24305 5.76515C8.7586 5.72997 9.42442 5.72913 10.4165 5.72913H18.7498C19.7419 5.72913 20.4077 5.72997 20.9233 5.76515C21.4248 5.79937 21.669 5.86078 21.8297 5.92736C22.4678 6.19167 22.9748 6.69863 23.2391 7.33672C23.3057 7.49746 23.3671 7.74166 23.4013 8.24317C23.4365 8.75872 23.4373 9.42454 23.4373 10.4166C23.4373 11.4087 23.4365 12.0745 23.4013 12.5901C23.3671 13.0916 23.3057 13.3358 23.2391 13.4965C22.9748 14.1346 22.4678 14.6416 21.8297 14.9059C21.669 14.9725 21.4248 15.0339 20.9233 15.0681C20.4077 15.1033 19.7419 15.1041 18.7498 15.1041H10.4165C9.42442 15.1041 8.7586 15.1033 8.24305 15.0681C7.74154 15.0339 7.49734 14.9725 7.3366 14.9059C6.69851 14.6416 6.19155 14.1346 5.92724 13.4965C5.86066 13.3358 5.79925 13.0916 5.76503 12.5901C5.72985 12.0745 5.72901 11.4087 5.72901 10.4166C5.72901 9.42454 5.72985 8.75872 5.76503 8.24317C5.79925 7.74166 5.86066 7.49746 5.92724 7.33672C6.19155 6.69863 6.69851 6.19166 7.3366 5.92736Z" fill="#007373"/>
</svg>
