<svg width="40" height="40" viewBox="0 0 40 40" fill="none" xmlns="http://www.w3.org/2000/svg">
<rect y="0.00976562" width="40" height="40" rx="10" fill="#A4E1D2"/>
<path fill-rule="evenodd" clip-rule="evenodd" d="M16.1391 9.25977H21.9692L22.0077 9.26375C22.8375 9.34965 23.6965 9.92699 24.0665 10.7857C24.0773 10.7862 24.0882 10.787 24.0992 10.788C24.1465 10.7925 24.2076 10.7964 24.28 10.801C24.6801 10.8266 25.4257 10.8742 26.1109 11.1572C27.0002 11.5245 27.8124 12.2798 28.0653 13.7036C28.2663 14.8348 28.2606 16.3536 28.2541 18.0515V18.0529C28.253 18.3581 28.2518 18.6692 28.2518 18.9848C28.2518 19.399 27.916 19.7348 27.5018 19.7348C27.0876 19.7348 26.7518 19.399 26.7518 18.9848C26.7518 18.6496 26.7528 18.3264 26.7538 18.0151C26.7593 16.3031 26.7636 14.9518 26.5885 13.966C26.4328 13.0897 25.9958 12.7326 25.5383 12.5436C25.1067 12.3653 24.6664 12.334 24.2558 12.3048L24.1845 12.2997C23.9516 13.3012 23.1386 14.2598 21.7556 14.2598C21.4377 14.2598 20.9408 14.2617 20.3672 14.264C18.8995 14.2699 16.9292 14.2777 16.1665 14.2596L16.1571 14.2593L16.1478 14.2589C14.9718 14.2015 14.0495 13.3735 13.8115 12.2958C12.943 12.3417 12.4353 12.5178 12.1268 12.7223C11.8023 12.9375 11.6142 13.2401 11.4835 13.6928L11.4699 13.7401L11.4518 13.7815L11.4509 13.7849C11.4479 13.7955 11.4379 13.8314 11.4247 13.9048C11.4072 14.0021 11.39 14.1329 11.3741 14.2988C11.3423 14.6304 11.3191 15.0652 11.3025 15.5831C11.2694 16.6174 11.2642 17.9373 11.2631 19.3353C11.2626 20.0441 11.2594 20.7555 11.2563 21.4486C11.2515 22.527 11.2469 23.5612 11.2528 24.4732C11.2576 25.2202 11.2695 25.8725 11.2936 26.387C11.3189 26.9275 11.3554 27.2444 11.3881 27.368L11.3965 27.3996L11.4021 27.4319C11.4975 27.9837 11.6707 28.3286 11.8746 28.5564C12.074 28.7793 12.3532 28.9464 12.7646 29.056C13.5257 29.226 14.1274 29.2359 15.0109 29.2505C15.1723 29.2531 15.3432 29.256 15.5261 29.2599C15.9402 29.269 16.2686 29.612 16.2596 30.0261C16.2506 30.4402 15.9076 30.7686 15.4935 30.7596C15.3279 30.756 15.1676 30.7535 15.0111 30.7511C14.1199 30.7374 13.3508 30.7256 12.422 30.5164L12.4093 30.5136L12.3966 30.5103C11.7655 30.3449 11.1988 30.0506 10.7569 29.5568C10.3232 29.0723 10.0603 28.4522 9.92913 27.7167C9.85533 27.4143 9.81858 26.9567 9.7952 26.4572C9.76968 25.9122 9.75765 25.2361 9.75278 24.4829C9.74685 23.5651 9.75154 22.5139 9.75638 21.4273C9.75947 20.7355 9.76262 20.0294 9.76313 19.3342C9.76416 17.9394 9.76926 16.5965 9.80324 15.5351C9.82021 15.0051 9.84469 14.5338 9.88093 14.1557C9.91119 13.84 9.95647 13.493 10.0535 13.2389C10.2497 12.5798 10.599 11.9356 11.2979 11.4722C11.9492 11.0403 12.8201 10.8221 13.9568 10.7887C14.3042 9.99404 15.0669 9.31776 16.1189 9.26086L16.1391 9.25977ZM15.2557 11.6459C15.2047 12.2405 15.6298 12.7274 16.2127 12.7602C16.9605 12.7775 18.8664 12.77 20.3211 12.7642C20.9079 12.7618 21.4213 12.7598 21.7556 12.7598C22.3839 12.7598 22.7595 12.2661 22.7545 11.6913C22.7506 11.2474 22.3306 10.8235 21.8856 10.7598L16.1825 10.7598C15.6885 10.7954 15.3206 11.2039 15.2557 11.6459Z" fill="#007373"/>
<path d="M14.5132 18.2598C14.099 18.2598 13.7632 18.5956 13.7632 19.0098C13.7632 19.424 14.099 19.7598 14.5132 19.7598H22.5132C22.9274 19.7598 23.2632 19.424 23.2632 19.0098C23.2632 18.5956 22.9274 18.2598 22.5132 18.2598H14.5132Z" fill="#007373"/>
<path d="M14.5132 23.2598C14.099 23.2598 13.7632 23.5956 13.7632 24.0098C13.7632 24.424 14.099 24.7598 14.5132 24.7598H18.5132C18.9274 24.7598 19.2632 24.424 19.2632 24.0098C19.2632 23.5956 18.9274 23.2598 18.5132 23.2598H14.5132Z" fill="#007373"/>
<path d="M18.0132 29.2598C17.599 29.2598 17.2632 29.5956 17.2632 30.0098C17.2632 30.424 17.599 30.7598 18.0132 30.7598H19.0132C19.4274 30.7598 19.7632 30.424 19.7632 30.0098C19.7632 29.5956 19.4274 29.2598 19.0132 29.2598H18.0132Z" fill="#007373"/>
<path fill-rule="evenodd" clip-rule="evenodd" d="M25.7971 21.8088C26.6759 21.0759 27.7291 21.1516 28.4623 21.5918C28.6258 21.7257 29.0155 22.0636 29.2907 22.3409C29.4297 22.481 29.5714 22.6309 29.6911 22.7713C29.7868 22.8835 29.9187 23.0464 30.0026 23.2165C30.1963 23.5735 30.2621 23.9898 30.2479 24.3575C30.2335 24.7303 30.1325 25.1592 29.8804 25.5031L25.6606 29.7541C25.203 30.1064 24.4268 30.3865 23.6471 30.4763C23.2287 30.5629 22.7814 30.6546 22.4077 30.6978C22.2163 30.72 22.01 30.7339 21.8177 30.719C21.6568 30.7065 21.3486 30.6649 21.1009 30.4396C20.8458 30.2076 20.7828 29.906 20.7643 29.7267C20.7444 29.5349 20.761 29.3375 20.7832 29.1693C20.8149 28.9304 20.9334 28.3589 20.9913 28.0814C21.0571 27.6389 21.1407 27.2444 21.2416 26.9105C21.33 26.6179 21.4421 26.3358 21.5904 26.1042C21.6005 26.0898 21.6158 26.0673 21.6339 26.0408C21.6888 25.9602 21.7689 25.8427 21.8015 25.8045C21.891 25.6998 22.0119 25.5698 22.1495 25.4266C22.427 25.1376 25.3801 22.2198 25.7971 21.8088ZM26.7829 22.9403C26.2936 23.4379 25.6504 24.0684 25.0278 24.6789C24.77 24.9315 24.5158 25.1808 24.2775 25.4157C23.9885 25.7005 23.5466 26.1717 23.2155 26.5248C23.069 26.681 22.9442 26.8141 22.8639 26.8977C22.8269 26.9491 22.7561 27.084 22.6775 27.3441C22.6021 27.5936 22.5312 27.919 22.4725 28.3187L22.2959 29.2002L23.4493 28.9889C24.037 28.9259 24.5295 28.7208 24.7275 28.5788C25.2353 28.1183 28.208 25.1171 28.6815 24.5985C28.7062 24.5531 28.7431 24.4515 28.749 24.2995C28.7557 24.1259 28.7175 23.9908 28.6822 23.9283C28.6605 23.9028 28.6287 23.8645 28.5913 23.8193C28.48 23.6852 28.3191 23.4912 28.2259 23.3973C28.0035 23.1732 27.7738 22.9621 27.6464 22.853C27.3939 22.7199 27.0788 22.7085 26.7829 22.9403Z" fill="#007373"/>
</svg>
