<svg width="40" height="40" viewBox="0 0 40 40" fill="none" xmlns="http://www.w3.org/2000/svg">
<rect y="0.00976562" width="40" height="40" rx="10" fill="#A4E1D2"/>
<path d="M14.5099 14.5C13.9579 14.5 13.5049 14.052 13.5049 13.5C13.5049 12.948 13.9479 12.5 14.4999 12.5H14.5099C15.0619 12.5 15.5099 12.948 15.5099 13.5C15.5099 14.052 15.0619 14.5 14.5099 14.5Z" fill="#007373"/>
<path d="M17.5049 13.5C17.5049 14.052 17.9579 14.5 18.5099 14.5C19.0619 14.5 19.5099 14.052 19.5099 13.5C19.5099 12.948 19.0619 12.5 18.5099 12.5H18.4999C17.9479 12.5 17.5049 12.948 17.5049 13.5Z" fill="#007373"/>
<path fill-rule="evenodd" clip-rule="evenodd" d="M17.996 28.748H18C18.413 28.748 18.748 28.415 18.75 28.002C18.752 27.587 18.418 27.25 18.004 27.248C14.514 27.231 12.896 27.073 11.906 26.138C10.794 25.084 10.75 23.298 10.75 19C10.75 18.3635 10.751 17.7821 10.7562 17.25H28.2458C28.248 17.4907 28.2493 17.7412 28.25 18.002C28.251 18.416 28.587 18.75 29 18.75H29.002C29.416 18.749 29.751 18.412 29.75 17.998C29.74 14.355 29.659 12.223 28.126 10.774C26.519 9.25002 24.173 9.25 19.5 9.25H19.48C14.82 9.25 12.479 9.25302 10.874 10.774C9.25002 12.313 9.25 14.548 9.25 19C9.25 23.452 9.25 25.686 10.875 27.227C12.35 28.621 14.549 28.731 17.996 28.748ZM28.2128 15.75H10.79C10.8735 13.692 11.1291 12.5984 11.906 11.862C13.079 10.75 15.225 10.75 19.5 10.75C23.7749 10.75 25.921 10.75 27.095 11.863C27.8767 12.6023 28.131 13.7236 28.2128 15.75Z" fill="#007373"/>
<path d="M23.961 27.25H24V27.252C24.255 27.252 24.494 27.1219 24.632 26.9049C25.195 26.0219 26.403 24.5089 27.25 24.2089C27.64 24.0699 27.844 23.6409 27.706 23.2509C27.567 22.8609 27.139 22.657 26.748 22.795C25.691 23.17 24.637 24.362 23.99 25.212C23.547 24.797 23.149 24.752 22.999 24.752C22.585 24.752 22.249 25.088 22.249 25.502C22.249 25.877 22.524 26.187 22.883 26.243C22.934 26.273 23.112 26.403 23.329 26.837C23.45 27.078 23.691 27.236 23.961 27.25Z" fill="#007373"/>
<path fill-rule="evenodd" clip-rule="evenodd" d="M25 30.75C21.829 30.75 19.25 28.171 19.25 25C19.25 21.829 21.829 19.25 25 19.25C28.171 19.25 30.75 21.829 30.75 25C30.75 28.171 28.171 30.75 25 30.75ZM25 20.75C22.657 20.75 20.75 22.657 20.75 25C20.75 27.343 22.657 29.25 25 29.25C27.343 29.25 29.25 27.343 29.25 25C29.25 22.657 27.343 20.75 25 20.75Z" fill="#007373"/>
</svg>
