<svg width="24" height="24" viewBox="0 0 24 24" fill="none" xmlns="http://www.w3.org/2000/svg">
<rect width="24" height="24" rx="4" fill="#A4E1D2"/>
<path d="M18.2943 9.66706L18.2936 9.66626L18.2888 9.66095C18.2841 9.65587 18.2767 9.64777 18.2665 9.63685C18.2461 9.61499 18.2148 9.58185 18.1731 9.53903C18.0896 9.45336 17.9648 9.32918 17.803 9.17931C17.4789 8.8791 17.0093 8.47832 16.4299 8.07806C15.2614 7.27098 13.6954 6.5 12 6.5C10.3046 6.5 8.73854 7.27098 7.57011 8.07806C6.99065 8.47832 6.52108 8.8791 6.197 9.17931C6.03521 9.32918 5.91035 9.45336 5.82688 9.53903C5.78516 9.58185 5.75384 9.61499 5.73346 9.63685C5.72328 9.64777 5.71583 9.65587 5.7112 9.66095L5.70637 9.66626L5.70581 9.66687C5.52156 9.8723 5.20539 9.88994 4.99978 9.70583C4.79406 9.52162 4.77662 9.20551 4.96082 8.99979C4.96077 8.99986 4.96135 9.00039 5.00722 9.04143C5.05371 9.08303 5.14674 9.16626 5.33281 9.33288L4.96082 8.99979L4.96218 8.99829L4.96462 8.99558L4.97279 8.9866C4.97967 8.97906 4.98944 8.96844 5.00201 8.95495C5.02715 8.92798 5.06355 8.88951 5.11064 8.84118C5.20478 8.74455 5.34187 8.60832 5.51743 8.44569C5.86806 8.1209 6.37479 7.68835 7.00177 7.25527C8.2462 6.39569 10.0135 5.5 12 5.5C13.9864 5.5 15.7538 6.39569 16.9982 7.25527C17.6252 7.68835 18.1319 8.1209 18.4825 8.44569C18.6581 8.60832 18.7952 8.74455 18.8893 8.84118C18.9364 8.88951 18.9728 8.92798 18.998 8.95495C19.0105 8.96844 19.0203 8.97906 19.0272 8.9866L19.0353 8.99558L19.0378 8.99829L19.0386 8.99919C19.0387 8.99933 19.0391 8.99979 18.6667 9.33333L19.0391 8.99979C19.2234 9.20551 19.2059 9.52162 19.0002 9.70583C18.7945 9.88998 18.4786 9.87261 18.2943 9.66706Z" fill="#007373"/>
<path fill-rule="evenodd" clip-rule="evenodd" d="M12 15.8333C10.6193 15.8333 9.49999 14.714 9.49999 13.3333C9.49999 11.9526 10.6193 10.8333 12 10.8333C13.3807 10.8333 14.5 11.9526 14.5 13.3333C14.5 14.714 13.3807 15.8333 12 15.8333ZM10.5 13.3333C10.5 14.1618 11.1716 14.8333 12 14.8333C12.8284 14.8333 13.5 14.1618 13.5 13.3333C13.5 12.5049 12.8284 11.8333 12 11.8333C11.1716 11.8333 10.5 12.5049 10.5 13.3333Z" fill="#007373"/>
<path fill-rule="evenodd" clip-rule="evenodd" d="M7.68019 9.80866C8.81729 8.92094 10.2863 8.16667 12 8.16667C13.7137 8.16667 15.1827 8.92094 16.3198 9.80866C17.4579 10.6972 18.2991 11.7465 18.7697 12.4063L18.8052 12.4558C18.974 12.6905 19.1667 12.9585 19.1667 13.3333C19.1667 13.7081 18.974 13.9761 18.8052 14.2108L18.7697 14.2603C18.2991 14.9202 17.4579 15.9695 16.3198 16.858C15.1827 17.7457 13.7137 18.5 12 18.5C10.2863 18.5 8.81729 17.7457 7.68019 16.858C6.54208 15.9695 5.70083 14.9202 5.23026 14.2603L5.19478 14.2108C5.02601 13.9761 4.83332 13.7081 4.83332 13.3333C4.83332 12.9585 5.02601 12.6905 5.19478 12.4558L5.23026 12.4063C5.70083 11.7465 6.54208 10.6972 7.68019 9.80866ZM8.29556 10.5969C7.26157 11.4041 6.48457 12.3698 6.04444 12.987C5.93555 13.1396 5.88374 13.2142 5.85284 13.2735C5.83321 13.3113 5.83326 13.3216 5.83332 13.3317L5.83332 13.3333L5.83332 13.3349C5.83326 13.3451 5.83321 13.3554 5.85284 13.3931C5.88374 13.4525 5.93555 13.527 6.04444 13.6797C6.48457 14.2969 7.26157 15.2625 8.29556 16.0698C9.33057 16.8778 10.5875 17.5 12 17.5C13.4124 17.5 14.6694 16.8778 15.7044 16.0698C16.7384 15.2625 17.5154 14.2969 17.9555 13.6797C18.0644 13.527 18.1162 13.4525 18.1471 13.3931C18.1668 13.3554 18.1667 13.3451 18.1667 13.3349L18.1667 13.3333L18.1667 13.3317C18.1667 13.3216 18.1668 13.3113 18.1471 13.2735C18.1162 13.2142 18.0644 13.1396 17.9555 12.987C17.5154 12.3698 16.7384 11.4041 15.7044 10.5969C14.6694 9.78888 13.4124 9.16667 12 9.16667C10.5875 9.16667 9.33057 9.78888 8.29556 10.5969Z" fill="#007373"/>
</svg>
