<svg width="100" height="48" viewBox="0 0 100 48" fill="none" xmlns="http://www.w3.org/2000/svg">
<rect width="100" height="47.9769" rx="10" fill="white"/>
<g clip-path="url(#clip0_332_429)">
<path d="M29.0191 23.0328V10.0104C29.0193 9.21236 29.3363 8.44709 29.9004 7.88264C30.4645 7.31819 31.2296 7.00074 32.0276 7C32.8261 7 33.5919 7.31713 34.1566 7.88166C34.7213 8.44619 35.0386 9.21188 35.0389 10.0104V23.0328C35.0389 25.8886 34.0324 28.3227 32.0193 30.3352C30.0062 32.3477 27.5721 33.3542 24.7168 33.3548C21.8616 33.3548 19.4275 32.3483 17.4144 30.3352C16.5168 29.4521 15.7885 28.4121 15.2656 27.2665C14.3726 25.2797 15.8421 23.0328 18.0196 23.0328H18.0409C18.6163 23.0292 19.1805 23.1925 19.665 23.5029C20.1495 23.8133 20.5336 24.2575 20.7709 24.7818C20.9889 25.2658 21.2948 25.7051 21.6732 26.0774C22.0678 26.4835 22.5415 26.8045 23.065 27.0204C23.5884 27.2364 24.1506 27.3429 24.7168 27.3332C25.2821 27.335 25.8422 27.225 26.3648 27.0096C26.8875 26.7941 27.3623 26.4774 27.7621 26.0777C28.1619 25.6781 28.4786 25.2033 28.6942 24.6807C28.9098 24.1581 29.0199 23.5981 29.0182 23.0328H29.0191Z" fill="#156BAF"/>
<path d="M47.7828 26.3005C45.1182 26.3005 42.8463 25.3602 40.9671 23.4798C39.0879 21.5994 38.1477 19.3275 38.1465 16.6641C38.1465 13.9996 39.0867 11.7277 40.9671 9.84849C42.8476 7.96928 45.1195 7.02907 47.7828 7.02783C50.4461 7.02783 52.718 7.96805 54.5985 9.84849C56.4789 11.7289 57.4191 14.0008 57.4191 16.6641C57.4191 19.3287 56.4789 21.6006 54.5985 23.4798C52.718 25.359 50.4461 26.2992 47.7828 26.3005ZM47.7828 21.8039C48.4594 21.8149 49.1311 21.6871 49.7565 21.4285C50.3818 21.1698 50.9475 20.7858 51.4187 20.3001C51.9044 19.8289 52.2883 19.2631 52.5468 18.6378C52.8053 18.0124 52.9328 17.3407 52.9216 16.6641C52.9328 15.9876 52.8052 15.3159 52.5467 14.6905C52.2882 14.0652 51.9043 13.4994 51.4187 13.0282C50.4538 12.0651 49.1461 11.5243 47.7828 11.5243C46.4195 11.5243 45.1118 12.0651 44.1469 13.0282C43.6611 13.4994 43.2771 14.0651 43.0185 14.6905C42.7598 15.3158 42.6321 15.9875 42.6431 16.6641C42.6325 17.3411 42.7608 18.0129 43.0201 18.6383C43.2794 19.2637 43.6641 19.8292 44.1506 20.3001C44.6211 20.7859 45.1861 21.1702 45.8108 21.4293C46.4354 21.6884 47.1066 21.8168 47.7828 21.8067V21.8039Z" fill="#156BAF"/>
<path d="M37.5044 28.602C37.5041 28.3067 37.5784 28.0162 37.7205 27.7573C37.8627 27.4985 38.0679 27.2798 38.3173 27.1216C38.5666 26.9634 38.852 26.8708 39.1467 26.8525C39.4414 26.8342 39.736 26.8907 40.003 27.0168C45.1909 29.471 50.3784 29.471 55.5657 27.0168C55.8327 26.8907 56.1273 26.8342 56.422 26.8525C56.7167 26.8708 57.002 26.9634 57.2514 27.1216C57.5007 27.2798 57.706 27.4985 57.8481 27.7573C57.9903 28.0162 58.0646 28.3067 58.0643 28.602C58.0636 28.8854 57.9943 29.1645 57.8625 29.4153C57.7307 29.6662 57.5402 29.8815 57.3073 30.0429C50.9577 34.4559 44.6079 34.4559 38.2577 30.0429C38.0254 29.8811 37.8356 29.6656 37.7045 29.4148C37.5733 29.1639 37.5047 28.8851 37.5044 28.602Z" fill="#156BAF"/>
<path d="M63.9885 7.0415H71.5981C75.1202 7.0415 78.5526 8.34911 81.0614 10.8209C83.3897 13.1147 84.6853 15.836 84.9481 18.9849C85.128 21.1928 84.7623 23.4111 83.8832 25.4445C83.004 27.4778 81.6383 29.2637 79.9065 30.6451C77.5936 32.4872 74.8981 33.408 71.8202 33.4074H63.9265C63.0232 33.4074 62.1569 33.0486 61.5181 32.41C60.8793 31.7714 60.5203 30.9052 60.52 30.0019V10.5081C60.5201 10.0527 60.61 9.60186 60.7843 9.18121C60.9587 8.76055 61.2142 8.37837 61.5363 8.05646C61.8584 7.73456 62.2407 7.47925 62.6614 7.3051C63.0822 7.13095 63.5331 7.04138 63.9885 7.0415ZM67.1127 12.9521V27.4968C67.1127 27.566 67.1401 27.6324 67.1891 27.6813C67.238 27.7303 67.3044 27.7578 67.3736 27.7578H71.8202C73.6402 27.7578 75.194 27.0233 76.4815 25.5544C77.7691 24.0854 78.4125 22.309 78.4119 20.2249C78.4119 18.1403 77.7685 16.3635 76.4815 14.8945C75.1946 13.4256 73.6408 12.6911 71.8202 12.6911H67.3782C67.3436 12.6905 67.3092 12.6968 67.277 12.7097C67.2448 12.7225 67.2154 12.7416 67.1907 12.7659C67.166 12.7902 67.1464 12.8192 67.133 12.8512C67.1195 12.8831 67.1126 12.9174 67.1127 12.9521Z" fill="#156BAF"/>
<path d="M65.4895 35.2706C65.7485 35.1433 66.0338 35.0783 66.3224 35.0809C66.6054 35.0752 66.8851 35.1431 67.134 35.278C67.3686 35.4082 67.5588 35.6058 67.68 35.8453C67.8135 36.1148 67.8796 36.4127 67.8724 36.7133C67.8719 36.8726 67.857 37.0315 67.828 37.1881C67.7623 37.5879 67.6104 37.9687 67.3829 38.3041C67.1756 38.6147 66.8987 38.8727 66.5741 39.0574C66.2719 39.232 65.9292 39.3242 65.5802 39.3248C65.3122 39.3334 65.0468 39.2694 64.8121 39.1398C64.6145 39.0285 64.4495 38.8674 64.3337 38.6724L63.8885 41.2173H62.8438L63.9117 35.1485H64.9583L64.8537 35.7426C65.0333 35.5457 65.2491 35.3855 65.4895 35.2706ZM66.7916 36.9206C66.7989 36.7956 66.7802 36.6705 66.7368 36.5531C66.6933 36.4357 66.6259 36.3286 66.5389 36.2386C66.453 36.1563 66.3513 36.0921 66.24 36.05C66.1287 36.0079 66.01 35.9886 65.8911 35.9934C65.697 35.9954 65.5064 36.0449 65.3359 36.1377C65.148 36.2398 64.9857 36.3831 64.8611 36.5569C64.724 36.7496 64.6328 36.9713 64.5946 37.2047C64.578 37.298 64.5681 37.3923 64.565 37.487C64.5557 37.6085 64.5723 37.7306 64.6138 37.8452C64.6552 37.9599 64.7205 38.0644 64.8054 38.1519C64.8902 38.2394 64.9927 38.3078 65.106 38.3527C65.2193 38.3976 65.3409 38.418 65.4627 38.4124C65.6601 38.411 65.8539 38.3597 66.0262 38.2634C66.2146 38.1604 66.377 38.0158 66.501 37.8405C66.6396 37.6467 66.7311 37.4233 66.7684 37.1881C66.7827 37.0996 66.7904 37.0102 66.7916 36.9206Z" fill="#156BAF"/>
<path d="M68.3898 36.0818C68.5955 35.7745 68.8715 35.5207 69.1949 35.3415C69.5011 35.171 69.8457 35.0815 70.1962 35.0815C70.4667 35.0721 70.7346 35.1361 70.9717 35.2665C71.1672 35.3752 71.3277 35.5373 71.4344 35.7339L71.538 35.1472H72.5838L71.8573 39.2569H70.8116L70.9226 38.6563C70.7376 38.8666 70.5098 39.035 70.2544 39.1502C69.9991 39.2654 69.7221 39.3248 69.442 39.3245C69.1616 39.3298 68.885 39.2591 68.6415 39.12C68.4084 38.984 68.2199 38.783 68.0992 38.5416C67.9659 38.2707 67.8999 37.9717 67.9067 37.6698C67.9118 37.1047 68.0806 36.5531 68.3926 36.0818H68.3898ZM71.2049 36.9203C71.2142 36.7988 71.1976 36.6768 71.1562 36.5622C71.1148 36.4476 71.0496 36.3432 70.9648 36.2557C70.8801 36.1682 70.7777 36.0997 70.6645 36.0548C70.5513 36.0098 70.4298 35.9894 70.3082 35.9948C70.1126 35.9954 69.9201 36.0437 69.7474 36.1355C69.5609 36.2348 69.3997 36.3757 69.2763 36.5473C69.1388 36.7377 69.0475 36.9577 69.0098 37.1895C68.9952 37.278 68.9874 37.3674 68.9867 37.457C68.9796 37.5847 68.9983 37.7126 69.0418 37.833C69.0852 37.9533 69.1523 38.0637 69.2393 38.1575C69.3222 38.2419 69.4217 38.3081 69.5314 38.3523C69.6411 38.3964 69.7587 38.4173 69.8769 38.4139C70.0742 38.4124 70.268 38.3626 70.4414 38.2686C70.6291 38.1677 70.7905 38.0241 70.9125 37.8494C71.0475 37.6559 71.1374 37.4345 71.1753 37.2016C71.1918 37.1086 71.2017 37.0146 71.2049 36.9203Z" fill="#156BAF"/>
<path d="M73.9203 35.1475L74.47 38.0162L76.0645 35.1475H77.1703L73.5612 41.2015H72.4517L73.6982 39.1536L72.7561 35.1475H73.9203Z" fill="#156BAF"/>
</g>
<defs>
<clipPath id="clip0_332_429">
<rect width="70" height="34.2162" fill="white" transform="translate(15 7)"/>
</clipPath>
</defs>
</svg>
