<svg width="100" height="48" viewBox="0 0 100 48" fill="none" xmlns="http://www.w3.org/2000/svg">
<rect width="100" height="47.9769" rx="10" fill="white"/>
<g clip-path="url(#clip0_332_422)">
<path d="M20.8381 13H16.4067C16.4067 16.6366 14.7374 19.9552 11.8361 22.1411L10.0874 23.4526L16.8836 32.713H22.4676L16.208 24.1879C19.1689 21.2469 20.8381 17.2725 20.8381 13Z" fill="black"/>
<path d="M9.5308 13H5V32.713H9.5308V13Z" fill="black"/>
<path d="M28.0513 13H23.7788V32.713H28.0513V13Z" fill="black"/>
<path d="M65.5299 18.7031C63.9004 18.7031 62.3504 19.1999 61.3171 20.6108V19.0807H57.2632V32.7128H61.3767V25.5589C61.3767 23.4923 62.7677 22.4788 64.437 22.4788C66.2254 22.4788 67.2588 23.5519 67.2588 25.5391V32.7327H71.3325V24.0487C71.3325 20.8692 68.8088 18.7031 65.5299 18.7031Z" fill="black"/>
<path d="M40.9682 19.0807V19.9551C39.8156 19.1602 38.4246 18.7031 36.9143 18.7031C32.94 18.7031 29.7207 21.9224 29.7207 25.8968C29.7207 29.8712 32.94 33.0904 36.9143 33.0904C38.4246 33.0904 39.8156 32.6334 40.9682 31.8385V32.7128H45.042V19.0807H40.9682ZM37.2522 29.3942C35.2054 29.3942 33.556 27.8243 33.556 25.8968C33.556 23.9692 35.2054 22.3993 37.2522 22.3993C39.299 22.3993 40.9483 23.9692 40.9483 25.8968C40.9483 27.8243 39.299 29.3942 37.2522 29.3942Z" fill="black"/>
<path d="M51.3611 20.8497V19.0811H47.188V32.7132H51.381V26.3542C51.381 24.208 53.706 23.0554 55.3156 23.0554C55.3355 23.0554 55.3554 23.0554 55.3554 23.0554V19.0811C53.706 19.0811 52.1758 19.7964 51.3611 20.8497Z" fill="black"/>
<path d="M84.0107 19.0807V19.9551C82.8581 19.1602 81.4671 18.7031 79.9568 18.7031C75.9824 18.7031 72.7632 21.9224 72.7632 25.8968C72.7632 29.8712 75.9824 33.0904 79.9568 33.0904C81.4671 33.0904 82.8581 32.6334 84.0107 31.8385V32.7128H88.0844V19.0807H84.0107ZM80.2946 29.3942C78.2478 29.3942 76.5985 27.8243 76.5985 25.8968C76.5985 23.9692 78.2478 22.3993 80.2946 22.3993C82.3415 22.3993 83.9908 23.9692 83.9908 25.8968C84.0107 27.8243 82.3415 29.3942 80.2946 29.3942Z" fill="black"/>
<path d="M91.2441 19.4781C91.2441 19.2794 91.105 19.1602 90.8864 19.1602H90.5088V20.1935H90.6876V19.8159H90.8864L91.0453 20.1935H91.2441L91.0652 19.7762C91.1844 19.7166 91.2441 19.6172 91.2441 19.4781ZM90.8864 19.6371H90.6876V19.3191H90.8864C91.0056 19.3191 91.0652 19.3787 91.0652 19.4781C91.0652 19.5775 91.0255 19.6371 90.8864 19.6371Z" fill="black"/>
<path d="M90.8268 18.7231C90.2902 18.7231 89.853 19.1603 89.853 19.6969C89.8729 20.2334 90.2902 20.6706 90.8268 20.6706C91.3633 20.6706 91.8005 20.2334 91.8005 19.6969C91.8005 19.1603 91.3633 18.7231 90.8268 18.7231ZM90.8268 20.4917C90.3896 20.4917 90.0517 20.1341 90.0517 19.6969C90.0517 19.2597 90.4094 18.902 90.8268 18.902C91.2639 18.902 91.6018 19.2597 91.6018 19.6969C91.6018 20.1341 91.2441 20.4917 90.8268 20.4917Z" fill="black"/>
<path d="M92.4365 27.8843C91.0256 27.8843 89.873 29.0368 89.873 30.4478C89.873 31.8587 91.0256 33.0112 92.4365 33.0112C93.8474 33.0112 95 31.8587 95 30.4478C95 29.017 93.8474 27.8843 92.4365 27.8843Z" fill="black"/>
</g>
<defs>
<clipPath id="clip0_332_422">
<rect width="90" height="20.0905" fill="white" transform="translate(5 13)"/>
</clipPath>
</defs>
</svg>
