<svg width="400" height="123" viewBox="0 0 400 123" fill="none" xmlns="http://www.w3.org/2000/svg">
<path d="M19.9854 21.9074C20.5619 21.9074 21.1384 21.7152 21.6188 21.2348C22.5797 20.3701 22.6758 18.8327 21.811 17.8719C20.9462 16.911 19.4089 16.8149 18.448 17.6797C17.4872 18.5445 17.3911 20.0818 18.2559 21.0427C18.6402 21.6192 19.3128 21.9074 19.9854 21.9074Z" fill="white"/>
<path d="M104.444 17.8717C92.9137 6.34158 77.6362 0 61.3018 0C48.5226 0 36.3199 3.93947 25.9427 11.338C24.8858 12.1067 24.5976 13.644 25.3662 14.7009C26.1349 15.7579 27.6723 16.0461 28.7292 15.2774C38.2416 8.45544 49.5795 4.80423 61.3018 4.80423C92.2411 4.80423 117.415 29.9784 117.415 60.9176C117.415 91.8568 92.2411 117.031 61.3018 117.031C51.8856 117.031 42.5654 114.629 34.3021 110.113C33.7256 109.825 33.1491 109.729 32.4765 109.921L5.76498 117.127L13.0674 91.0882C13.2596 90.4156 13.1635 89.743 12.7792 89.2626C7.78275 80.711 5.09239 70.9104 5.09239 60.9176C5.09239 49.0992 8.7436 37.8573 15.5656 28.2489C16.3343 27.1919 16.046 25.6546 14.9891 24.8859C13.9322 24.1172 12.3948 24.4055 11.6261 25.4624C4.32371 35.8395 0.384243 48.1384 0.384243 60.9176C0.384243 71.3908 3.07461 81.768 8.26318 90.7999L0.0959892 119.914C-0.0961799 120.778 0.0959892 121.643 0.672497 122.22C1.15292 122.7 1.72943 122.892 2.40202 122.892C2.59419 122.892 2.78636 122.892 3.07461 122.796L32.9569 114.725C41.7006 119.337 51.5012 121.739 61.3979 121.739C77.6362 121.739 93.0098 115.398 104.444 103.867C115.974 92.3373 122.316 77.0598 122.316 60.8215C122.219 44.6793 115.878 29.3058 104.444 17.8717Z" fill="white"/>
<path d="M14.5087 108.575C15.0852 109.152 16.046 109.44 16.8147 109.248L34.1099 104.54L36.6081 105.981C44.1027 110.113 52.6542 112.323 61.2057 112.323C61.3979 112.323 61.5901 112.323 61.7822 112.323C61.9744 112.323 62.2627 112.323 62.4548 112.323C80.4227 112.323 96.1805 102.618 104.828 88.0134C109.825 79.9423 112.515 70.6221 112.515 61.0136C112.515 47.2735 107.134 34.3982 97.5257 24.6937C87.9172 14.9891 75.0419 9.6084 61.3018 9.6084C47.5617 9.6084 34.6864 14.9891 24.9819 24.5976C15.3734 34.3021 9.99268 47.1775 9.99268 60.9176C9.99268 70.0456 12.3948 78.9814 17.0068 86.8604L18.5442 89.4547L13.8361 106.173C13.6439 107.038 13.9321 107.999 14.5087 108.575Z" fill="white"/>
<path d="M35.5511 89.1661C29.69 89.1661 24.8857 83.7854 24.8857 77.1556V43.3338C24.8857 36.704 29.69 31.3232 35.5511 31.3232H88.3976C94.2588 31.3232 99.063 36.704 99.063 43.3338V77.0595C99.063 83.6893 94.2588 89.0701 88.3976 89.0701H35.5511V89.1661ZM32.7647 83.5932C33.6294 84.0737 34.5903 84.3619 35.5511 84.3619H88.3976C89.3585 84.3619 90.3193 84.0737 91.1841 83.5932L72.8319 62.839L68.412 67.5471C66.6825 69.3727 64.3765 70.4297 61.9744 70.4297C59.5723 70.4297 57.2662 69.3727 55.5367 67.5471L51.1168 62.839L32.7647 83.5932ZM94.1627 80.2303C94.547 79.2694 94.8353 78.2125 94.8353 77.0595V43.3338C94.8353 42.1808 94.6431 41.1239 94.1627 40.163L75.9066 59.5721L94.1627 80.2303ZM29.7861 40.163C29.3056 41.1239 29.1135 42.2769 29.1135 43.3338V77.0595C29.1135 78.1164 29.3056 79.1733 29.7861 80.2303L48.0421 59.5721L29.7861 40.163ZM58.5153 64.0881C59.4762 65.0489 60.6292 65.6254 61.9744 65.6254C63.3196 65.6254 64.5687 65.0489 65.4334 64.0881L91.088 36.704C90.2232 36.2236 89.3585 36.0314 88.3976 36.0314H35.5511C34.5903 36.0314 33.7255 36.2236 32.8608 36.704L58.5153 64.0881Z" fill="#007373"/>
<path d="M88.3978 31.5156C94.1629 31.5156 98.871 36.8002 98.871 43.334V77.0597C98.871 83.5934 94.1629 88.8781 88.3978 88.8781H35.5513C29.7862 88.8781 25.0781 83.5934 25.0781 77.0597V43.334C25.0781 36.8002 29.7862 31.5156 35.5513 31.5156H88.3978ZM35.5513 35.8394C34.4944 35.8394 33.4374 36.1276 32.4766 36.7041L58.3233 64.2804C59.2842 65.3373 60.6294 65.9138 61.9746 65.9138C63.3197 65.9138 64.6649 65.3373 65.6258 64.2804L91.4725 36.7041C90.5117 36.1276 89.4547 35.8394 88.3978 35.8394H35.5513ZM94.259 80.6148C94.7394 79.5578 95.0276 78.3087 95.0276 77.0597V43.334C95.0276 42.0849 94.7394 40.8358 94.1629 39.6828L75.6186 59.5723L94.259 80.6148ZM29.6901 80.6148L48.3305 59.4762L29.6901 39.6828C29.1136 40.8358 28.8254 42.0849 28.8254 43.334V77.0597C28.9215 78.3087 29.2097 79.5578 29.6901 80.6148ZM61.9746 70.2376C59.6685 70.2376 57.4586 69.2768 55.7291 67.4512L51.117 62.5509L32.3805 83.6895C33.3414 84.266 34.3983 84.5542 35.5513 84.5542H88.3978C89.4547 84.5542 90.6077 84.266 91.5686 83.6895L72.8321 62.5509L68.22 67.4512C66.4905 69.2768 64.2806 70.2376 61.9746 70.2376ZM88.3978 31.0352H35.5513C29.498 31.0352 24.5977 36.512 24.5977 43.334V77.0597C24.5977 83.8817 29.498 89.3585 35.5513 89.3585H88.3978C94.4511 89.3585 99.3514 83.8817 99.3514 77.0597V43.334C99.3514 36.6081 94.4511 31.0352 88.3978 31.0352ZM33.2453 36.8002C34.0139 36.4159 34.7826 36.3198 35.5513 36.3198H88.3978C89.1665 36.3198 89.9352 36.512 90.7038 36.8002L65.2414 63.9922C64.3767 64.953 63.2237 65.4334 61.9746 65.4334C60.7255 65.4334 59.5724 64.953 58.7077 63.9922L33.2453 36.8002ZM29.8823 79.75C29.5941 78.8853 29.4019 78.0205 29.4019 77.0597V43.334C29.4019 42.3731 29.5941 41.4123 29.8823 40.5475L47.6579 59.5723L29.8823 79.75ZM76.2912 59.5723L94.0668 40.5475C94.355 41.4123 94.5472 42.3731 94.5472 43.334V77.0597C94.5472 78.0205 94.355 78.8853 94.0668 79.75L76.2912 59.5723ZM33.1492 83.5934L51.117 63.2235L55.3447 67.7395C57.0742 69.6611 59.4764 70.622 61.9746 70.622C64.4727 70.622 66.7788 69.5651 68.6044 67.7395L72.8321 63.2235L90.7999 83.5934C90.0312 83.9777 89.2626 84.1699 88.3978 84.1699H35.5513C34.6865 84.0738 33.9179 83.8817 33.1492 83.5934Z" fill="#007373"/>
<path d="M158.924 85.8033C155.945 84.5542 153.543 82.6325 151.813 80.2304C150.084 77.8283 149.219 74.9458 149.123 71.6789H160.653C160.845 73.8888 161.614 75.6184 162.959 76.8675C164.4 78.1166 166.322 78.7892 168.724 78.7892C171.223 78.7892 173.24 78.2126 174.682 76.9635C176.123 75.7144 176.795 74.1771 176.795 72.2554C176.795 70.622 176.315 69.3729 175.354 68.3159C174.393 67.259 173.144 66.4903 171.703 65.9138C170.262 65.3373 168.244 64.6647 165.65 63.9921C162.191 62.9352 159.308 61.9744 157.194 60.9174C154.984 59.9566 153.159 58.4192 151.621 56.4015C150.084 54.3837 149.315 51.6933 149.315 48.3303C149.315 45.1596 150.084 42.3731 151.717 40.0671C153.351 37.665 155.561 35.9354 158.443 34.6863C161.326 33.4372 164.593 32.7646 168.244 32.7646C173.817 32.7646 178.237 34.1098 181.696 36.8002C185.155 39.4906 187.076 43.2379 187.461 48.0421H175.642C175.546 46.2165 174.778 44.6791 173.336 43.43C171.895 42.1809 169.973 41.6044 167.571 41.6044C165.457 41.6044 163.824 42.1809 162.575 43.2379C161.326 44.2948 160.653 45.8322 160.653 47.946C160.653 49.3873 161.134 50.5403 162.094 51.5011C163.055 52.462 164.208 53.2307 165.65 53.8072C167.091 54.3837 169.013 55.0563 171.607 55.8249C175.066 56.8819 177.948 57.8427 180.158 58.8996C182.368 59.9566 184.29 61.4939 185.827 63.5117C187.461 65.5295 188.229 68.2198 188.229 71.5828C188.229 74.4653 187.461 77.1557 186.02 79.5578C184.578 82.056 182.368 83.9777 179.486 85.419C176.603 86.8603 173.24 87.6289 169.301 87.6289C165.361 87.725 161.998 87.0524 158.924 85.8033Z" fill="white"/>
<path d="M255.873 33.5332V87.1484H245.111V52.2697L230.699 87.1484H222.532L208.119 52.2697V87.1484H197.357V33.5332H209.56L226.663 73.4083L243.766 33.5332H255.873Z" fill="white"/>
<path d="M274.898 85.8033C271.919 84.5542 269.517 82.6325 267.788 80.2304C266.058 77.8283 265.193 74.9458 265.097 71.6789H276.627C276.819 73.8888 277.588 75.6184 278.933 76.8675C280.375 78.1166 282.296 78.7892 284.698 78.7892C287.197 78.7892 289.214 78.2126 290.656 76.9635C292.097 75.7144 292.77 74.1771 292.77 72.2554C292.77 70.622 292.289 69.3729 291.328 68.3159C290.367 67.259 289.118 66.4903 287.677 65.9138C286.236 65.3373 284.218 64.6647 281.624 63.9921C278.165 62.9352 275.282 61.9744 273.168 60.9174C270.958 59.9566 269.133 58.4192 267.595 56.4015C266.058 54.3837 265.289 51.6933 265.289 48.3303C265.289 45.1596 266.058 42.3731 267.691 40.0671C269.325 37.665 271.535 35.9354 274.417 34.6863C277.3 33.4372 280.567 32.7646 284.218 32.7646C289.791 32.7646 294.211 34.1098 297.67 36.8002C301.129 39.4906 303.051 43.2379 303.435 48.0421H291.617C291.52 46.2165 290.752 44.6791 289.31 43.43C287.869 42.1809 285.948 41.6044 283.545 41.6044C281.432 41.6044 279.798 42.1809 278.549 43.2379C277.3 44.2948 276.627 45.8322 276.627 47.946C276.627 49.3873 277.108 50.5403 278.069 51.5011C279.029 52.462 280.182 53.2307 281.624 53.8072C283.065 54.3837 284.987 55.0563 287.581 55.8249C291.04 56.8819 293.923 57.8427 296.132 58.8996C298.342 59.9566 300.264 61.4939 301.801 63.5117C303.435 65.5295 304.204 68.2198 304.204 71.5828C304.204 74.4653 303.435 77.1557 301.994 79.5578C300.552 82.056 298.342 83.9777 295.46 85.419C292.577 86.8603 289.214 87.6289 285.275 87.6289C281.239 87.725 277.876 87.0524 274.898 85.8033Z" fill="white"/>
<path d="M342.349 33.5332V87.1484H331.588V33.5332H342.349Z" fill="white"/>
<path d="M386.548 36.8001C390.872 39.01 394.139 42.1808 396.445 46.2164C398.751 50.2519 399.904 55.0561 399.904 60.4369C399.904 65.8176 398.751 70.5258 396.445 74.5613C394.139 78.5969 390.776 81.6716 386.548 83.8815C382.224 86.0915 377.324 87.1484 371.655 87.1484H352.918V33.5332H371.655C377.324 33.5332 382.32 34.5901 386.548 36.8001ZM384.338 73.4083C387.413 70.3336 388.95 66.0098 388.95 60.4369C388.95 54.864 387.413 50.4441 384.338 47.3694C381.263 44.2947 376.94 42.6612 371.271 42.6612H363.68V78.1164H371.271C376.94 78.0204 381.263 76.483 384.338 73.4083Z" fill="white"/>
</svg>
