<svg width="100" height="48" viewBox="0 0 100 48" fill="none" xmlns="http://www.w3.org/2000/svg">
<rect width="100" height="47.9769" rx="10" fill="white"/>
<g clip-path="url(#clip0_332_420)">
<path d="M34.0898 43.6741V41.1015C34.0898 40.1154 33.4895 39.4722 32.4605 39.4722C31.946 39.4722 31.3886 39.6437 31.0027 40.2011C30.7026 39.7295 30.2738 39.4722 29.6307 39.4722C29.2019 39.4722 28.7732 39.6009 28.4302 40.0725V39.558H27.5298V43.6741H28.4302V41.4017C28.4302 40.6728 28.8161 40.3298 29.4163 40.3298C30.0166 40.3298 30.3167 40.7156 30.3167 41.4017V43.6741H31.2171V41.4017C31.2171 40.6728 31.6459 40.3298 32.2033 40.3298C32.8035 40.3298 33.1037 40.7156 33.1037 41.4017V43.6741H34.0898ZM47.4242 39.558H45.9664V38.3146H45.066V39.558H44.2514V40.3726H45.066V42.2592C45.066 43.2024 45.4519 43.7598 46.4809 43.7598C46.8668 43.7598 47.2956 43.6312 47.5957 43.4597L47.3385 42.6879C47.0812 42.8594 46.7811 42.9023 46.5667 42.9023C46.1379 42.9023 45.9664 42.6451 45.9664 42.2163V40.3726H47.4242V39.558ZM55.0561 39.4722C54.5416 39.4722 54.1986 39.7295 53.9842 40.0725V39.558H53.0838V43.6741H53.9842V41.3588C53.9842 40.6728 54.2844 40.2869 54.8418 40.2869C55.0133 40.2869 55.2276 40.3298 55.3991 40.3726L55.6564 39.5151C55.4849 39.4722 55.2276 39.4722 55.0561 39.4722ZM43.5225 39.901C43.0937 39.6009 42.4935 39.4722 41.8503 39.4722C40.8213 39.4722 40.1353 39.9868 40.1353 40.8014C40.1353 41.4874 40.6498 41.8733 41.5502 42.0019L41.979 42.0448C42.4506 42.1306 42.7079 42.2592 42.7079 42.4736C42.7079 42.7737 42.3649 42.9881 41.7646 42.9881C41.1643 42.9881 40.6927 42.7737 40.3926 42.5593L39.9638 43.2453C40.4354 43.5883 41.0786 43.7598 41.7217 43.7598C42.9222 43.7598 43.6083 43.2024 43.6083 42.4307C43.6083 41.7018 43.0509 41.3159 42.1934 41.1873L41.7646 41.1444C41.3787 41.1015 41.0786 41.0158 41.0786 40.7585C41.0786 40.4584 41.3787 40.2869 41.8503 40.2869C42.3649 40.2869 42.8794 40.5013 43.1366 40.6299L43.5225 39.901ZM67.4473 39.4722C66.9328 39.4722 66.5898 39.7295 66.3754 40.0725V39.558H65.475V43.6741H66.3754V41.3588C66.3754 40.6728 66.6755 40.2869 67.2329 40.2869C67.4044 40.2869 67.6188 40.3298 67.7903 40.3726L68.0475 39.5151C67.876 39.4722 67.6188 39.4722 67.4473 39.4722ZM55.9565 41.616C55.9565 42.8594 56.814 43.7598 58.1432 43.7598C58.7435 43.7598 59.1722 43.6312 59.601 43.2882L59.1722 42.5593C58.8292 42.8166 58.4862 42.9452 58.1003 42.9452C57.3714 42.9452 56.8569 42.4307 56.8569 41.616C56.8569 40.8443 57.3714 40.3298 58.1003 40.2869C58.4862 40.2869 58.8292 40.4155 59.1722 40.6728L59.601 39.9439C59.1722 39.6009 58.7435 39.4722 58.1432 39.4722C56.814 39.4722 55.9565 40.3726 55.9565 41.616ZM64.2745 41.616V39.558H63.3741V40.0725C63.0739 39.6866 62.6452 39.4722 62.0878 39.4722C60.9301 39.4722 60.0297 40.3726 60.0297 41.616C60.0297 42.8594 60.9301 43.7598 62.0878 43.7598C62.688 43.7598 63.1168 43.5455 63.3741 43.1596V43.6741H64.2745V41.616ZM60.973 41.616C60.973 40.8871 61.4446 40.2869 62.2164 40.2869C62.9453 40.2869 63.4598 40.8443 63.4598 41.616C63.4598 42.3449 62.9453 42.9452 62.2164 42.9452C61.4446 42.9023 60.973 42.3449 60.973 41.616ZM50.2112 39.4722C49.0106 39.4722 48.1531 40.3298 48.1531 41.616C48.1531 42.9023 49.0106 43.7598 50.254 43.7598C50.8543 43.7598 51.4546 43.5883 51.9262 43.2024L51.4974 42.5593C51.1544 42.8166 50.7257 42.9881 50.2969 42.9881C49.7395 42.9881 49.1821 42.7308 49.0535 42.0019H52.0977V41.6589C52.1406 40.3298 51.3688 39.4722 50.2112 39.4722ZM50.2112 40.244C50.7685 40.244 51.1544 40.587 51.2402 41.2302H49.0964C49.1821 40.6728 49.568 40.244 50.2112 40.244ZM72.5495 41.616V37.9287H71.6491V40.0725C71.349 39.6866 70.9202 39.4722 70.3628 39.4722C69.2052 39.4722 68.3048 40.3726 68.3048 41.616C68.3048 42.8594 69.2052 43.7598 70.3628 43.7598C70.9631 43.7598 71.3919 43.5455 71.6491 43.1596V43.6741H72.5495V41.616ZM69.2481 41.616C69.2481 40.8871 69.7197 40.2869 70.4915 40.2869C71.2204 40.2869 71.7349 40.8443 71.7349 41.616C71.7349 42.3449 71.2204 42.9452 70.4915 42.9452C69.7197 42.9023 69.2481 42.3449 69.2481 41.616ZM39.1492 41.616V39.558H38.2488V40.0725C37.9486 39.6866 37.5199 39.4722 36.9625 39.4722C35.8048 39.4722 34.9044 40.3726 34.9044 41.616C34.9044 42.8594 35.8048 43.7598 36.9625 43.7598C37.5628 43.7598 37.9915 43.5455 38.2488 43.1596V43.6741H39.1492V41.616ZM35.8048 41.616C35.8048 40.8871 36.2765 40.2869 37.0482 40.2869C37.7771 40.2869 38.2916 40.8443 38.2916 41.616C38.2916 42.3449 37.7771 42.9452 37.0482 42.9452C36.2765 42.9023 35.8048 42.3449 35.8048 41.616Z" fill="black"/>
<path d="M56.7281 8.30127H43.2222V32.569H56.7281V8.30127Z" fill="#FF5F00"/>
<path d="M44.0798 20.4353C44.0798 15.5046 46.3951 11.1313 49.9538 8.30145C47.3384 6.2434 44.0369 5 40.4353 5C31.903 5 25 11.903 25 20.4353C25 28.9676 31.903 35.8707 40.4353 35.8707C44.0369 35.8707 47.3384 34.6273 49.9538 32.5692C46.3951 29.7823 44.0798 25.3661 44.0798 20.4353Z" fill="#EB001B"/>
<path d="M74.9504 20.4353C74.9504 28.9676 68.0473 35.8707 59.515 35.8707C55.9135 35.8707 52.612 34.6273 49.9966 32.5692C53.5982 29.7394 55.8706 25.3661 55.8706 20.4353C55.8706 15.5046 53.5553 11.1313 49.9966 8.30145C52.612 6.2434 55.9135 5 59.515 5C68.0473 5 74.9504 11.9459 74.9504 20.4353Z" fill="#F79E1B"/>
</g>
<defs>
<clipPath id="clip0_332_420">
<rect width="50" height="38.8672" fill="white" transform="translate(25 5)"/>
</clipPath>
</defs>
</svg>
