<svg width="414" height="395" viewBox="0 0 414 395" fill="none" xmlns="http://www.w3.org/2000/svg">
<g clip-path="url(#clip0_308_8408)">
<rect width="414" height="395" rx="30" fill="white"/>
<path d="M146.223 57V36.06H155.643C156.603 36.06 157.463 36.22 158.223 36.54C159.003 36.84 159.663 37.28 160.203 37.86C160.743 38.42 161.153 39.1 161.433 39.9C161.713 40.7 161.853 41.58 161.853 42.54C161.853 43.52 161.713 44.41 161.433 45.21C161.153 45.99 160.743 46.67 160.203 47.25C159.663 47.81 159.003 48.25 158.223 48.57C157.463 48.87 156.603 49.02 155.643 49.02H150.183V57H146.223ZM150.183 45.6H155.283C156.043 45.6 156.643 45.4 157.083 45C157.523 44.58 157.743 43.99 157.743 43.23V41.85C157.743 41.09 157.523 40.51 157.083 40.11C156.643 39.71 156.043 39.51 155.283 39.51H150.183V45.6ZM164.908 57V41.34H168.748V44.58H168.898C168.998 44.16 169.148 43.76 169.348 43.38C169.568 42.98 169.848 42.63 170.188 42.33C170.528 42.03 170.928 41.79 171.388 41.61C171.868 41.43 172.418 41.34 173.038 41.34H173.878V44.97H172.678C171.378 44.97 170.398 45.16 169.738 45.54C169.078 45.92 168.748 46.54 168.748 47.4V57H164.908ZM182.869 57.36C181.709 57.36 180.669 57.17 179.749 56.79C178.849 56.39 178.079 55.84 177.439 55.14C176.819 54.42 176.339 53.56 175.999 52.56C175.659 51.54 175.489 50.4 175.489 49.14C175.489 47.9 175.649 46.78 175.969 45.78C176.309 44.78 176.789 43.93 177.409 43.23C178.029 42.51 178.789 41.96 179.689 41.58C180.589 41.18 181.609 40.98 182.749 40.98C183.969 40.98 185.029 41.19 185.929 41.61C186.829 42.03 187.569 42.6 188.149 43.32C188.729 44.04 189.159 44.88 189.439 45.84C189.739 46.78 189.889 47.79 189.889 48.87V50.13H179.479V50.52C179.479 51.66 179.799 52.58 180.439 53.28C181.079 53.96 182.029 54.3 183.289 54.3C184.249 54.3 185.029 54.1 185.629 53.7C186.249 53.3 186.799 52.79 187.279 52.17L189.349 54.48C188.709 55.38 187.829 56.09 186.709 56.61C185.609 57.11 184.329 57.36 182.869 57.36ZM182.809 43.86C181.789 43.86 180.979 44.2 180.379 44.88C179.779 45.56 179.479 46.44 179.479 47.52V47.76H185.899V47.49C185.899 46.41 185.629 45.54 185.089 44.88C184.569 44.2 183.809 43.86 182.809 43.86ZM193.268 57V41.34H197.108V43.95H197.258C197.558 43.13 198.038 42.43 198.698 41.85C199.358 41.27 200.278 40.98 201.458 40.98C202.538 40.98 203.468 41.24 204.248 41.76C205.028 42.28 205.608 43.07 205.988 44.13H206.048C206.328 43.25 206.878 42.51 207.698 41.91C208.538 41.29 209.588 40.98 210.848 40.98C212.388 40.98 213.568 41.51 214.388 42.57C215.228 43.63 215.648 45.14 215.648 47.1V57H211.808V47.49C211.808 45.25 210.968 44.13 209.288 44.13C208.908 44.13 208.538 44.19 208.178 44.31C207.838 44.41 207.528 44.57 207.248 44.79C206.988 44.99 206.778 45.25 206.618 45.57C206.458 45.87 206.378 46.23 206.378 46.65V57H202.538V47.49C202.538 45.25 201.698 44.13 200.018 44.13C199.658 44.13 199.298 44.19 198.938 44.31C198.598 44.41 198.288 44.57 198.008 44.79C197.748 44.99 197.528 45.25 197.348 45.57C197.188 45.87 197.108 46.23 197.108 46.65V57H193.268ZM221.819 39.06C221.019 39.06 220.439 38.88 220.079 38.52C219.739 38.16 219.569 37.7 219.569 37.14V36.54C219.569 35.98 219.739 35.52 220.079 35.16C220.439 34.8 221.019 34.62 221.819 34.62C222.599 34.62 223.169 34.8 223.529 35.16C223.889 35.52 224.069 35.98 224.069 36.54V37.14C224.069 37.7 223.889 38.16 223.529 38.52C223.169 38.88 222.599 39.06 221.819 39.06ZM219.899 41.34H223.739V57H219.899V41.34ZM237.55 54.39H237.4C237.26 54.79 237.07 55.17 236.83 55.53C236.61 55.87 236.32 56.18 235.96 56.46C235.62 56.74 235.2 56.96 234.7 57.12C234.22 57.28 233.66 57.36 233.02 57.36C231.4 57.36 230.16 56.83 229.3 55.77C228.44 54.71 228.01 53.2 228.01 51.24V41.34H231.85V50.85C231.85 51.93 232.06 52.76 232.48 53.34C232.9 53.9 233.57 54.18 234.49 54.18C234.87 54.18 235.24 54.13 235.6 54.03C235.98 53.93 236.31 53.78 236.59 53.58C236.87 53.36 237.1 53.1 237.28 52.8C237.46 52.48 237.55 52.11 237.55 51.69V41.34H241.39V57H237.55V54.39ZM245.826 57V41.34H249.666V43.95H249.816C250.116 43.13 250.596 42.43 251.256 41.85C251.916 41.27 252.836 40.98 254.016 40.98C255.096 40.98 256.026 41.24 256.806 41.76C257.586 42.28 258.166 43.07 258.546 44.13H258.606C258.886 43.25 259.436 42.51 260.256 41.91C261.096 41.29 262.146 40.98 263.406 40.98C264.946 40.98 266.126 41.51 266.946 42.57C267.786 43.63 268.206 45.14 268.206 47.1V57H264.366V47.49C264.366 45.25 263.526 44.13 261.846 44.13C261.466 44.13 261.096 44.19 260.736 44.31C260.396 44.41 260.086 44.57 259.806 44.79C259.546 44.99 259.336 45.25 259.176 45.57C259.016 45.87 258.936 46.23 258.936 46.65V57H255.096V47.49C255.096 45.25 254.256 44.13 252.576 44.13C252.216 44.13 251.856 44.19 251.496 44.31C251.156 44.41 250.846 44.57 250.566 44.79C250.306 44.99 250.086 45.25 249.906 45.57C249.746 45.87 249.666 46.23 249.666 46.65V57H245.826Z" fill="#5B93FF"/>
<rect x="132" y="109" width="150" height="72" rx="36" fill="#EFF4FF"/>
<path d="M174.8 166.1V161.65C172.267 161.45 170.133 160.867 168.4 159.9C166.667 158.9 165.167 157.667 163.9 156.2L167.95 152.5C168.917 153.633 170 154.567 171.2 155.3C172.4 156 173.75 156.45 175.25 156.65V146.5C171.583 145.733 168.933 144.567 167.3 143C165.7 141.4 164.9 139.367 164.9 136.9C164.9 134.233 165.767 132.1 167.5 130.5C169.233 128.867 171.667 127.867 174.8 127.5V123H179.75V127.5C181.85 127.733 183.65 128.25 185.15 129.05C186.683 129.85 188.017 130.95 189.15 132.35L185.05 135.9C184.383 135.1 183.583 134.4 182.65 133.8C181.75 133.2 180.633 132.767 179.3 132.5V141.8C182.867 142.633 185.483 143.8 187.15 145.3C188.817 146.767 189.65 148.8 189.65 151.4C189.65 153.967 188.817 156.183 187.15 158.05C185.483 159.883 183.017 161.033 179.75 161.5V166.1H174.8ZM170.95 136.65C170.95 137.817 171.283 138.717 171.95 139.35C172.65 139.983 173.75 140.5 175.25 140.9V132.45C172.383 132.95 170.95 134.35 170.95 136.65ZM183.65 151.85C183.65 150.85 183.333 149.983 182.7 149.25C182.1 148.483 180.967 147.867 179.3 147.4V156.6C180.7 156.3 181.767 155.733 182.5 154.9C183.267 154.033 183.65 153.017 183.65 151.85ZM217.73 132.8H202.03L201.23 144.5H201.58C201.947 143.767 202.347 143.083 202.78 142.45C203.214 141.817 203.714 141.283 204.28 140.85C204.847 140.417 205.497 140.083 206.23 139.85C206.997 139.583 207.914 139.45 208.98 139.45C210.48 139.45 211.88 139.7 213.18 140.2C214.48 140.7 215.597 141.433 216.53 142.4C217.497 143.333 218.247 144.483 218.78 145.85C219.347 147.217 219.63 148.767 219.63 150.5C219.63 152.267 219.347 153.883 218.78 155.35C218.214 156.817 217.38 158.1 216.28 159.2C215.18 160.267 213.83 161.1 212.23 161.7C210.63 162.3 208.797 162.6 206.73 162.6C205.13 162.6 203.697 162.417 202.43 162.05C201.164 161.717 200.047 161.25 199.08 160.65C198.114 160.05 197.28 159.367 196.58 158.6C195.88 157.8 195.264 156.967 194.73 156.1L199.53 152.4C199.93 153.067 200.347 153.7 200.78 154.3C201.214 154.867 201.714 155.367 202.28 155.8C202.88 156.233 203.53 156.583 204.23 156.85C204.964 157.083 205.814 157.2 206.78 157.2C208.747 157.2 210.23 156.65 211.23 155.55C212.264 154.45 212.78 152.95 212.78 151.05V150.65C212.78 148.85 212.264 147.433 211.23 146.4C210.197 145.367 208.764 144.85 206.93 144.85C205.497 144.85 204.33 145.133 203.43 145.7C202.53 146.233 201.814 146.817 201.28 147.45L195.88 146.7L197.18 127.1H217.73V132.8ZM236.961 162.6C234.728 162.6 232.794 162.2 231.161 161.4C229.528 160.567 228.178 159.383 227.111 157.85C226.044 156.317 225.244 154.433 224.711 152.2C224.211 149.967 223.961 147.417 223.961 144.55C223.961 141.717 224.211 139.183 224.711 136.95C225.244 134.683 226.044 132.783 227.111 131.25C228.178 129.717 229.528 128.55 231.161 127.75C232.794 126.917 234.728 126.5 236.961 126.5C241.394 126.5 244.661 128.083 246.761 131.25C248.894 134.417 249.961 138.85 249.961 144.55C249.961 150.25 248.894 154.683 246.761 157.85C244.661 161.017 241.394 162.6 236.961 162.6ZM236.961 157.05C239.194 157.05 240.744 156.217 241.611 154.55C242.511 152.85 242.961 150.567 242.961 147.7V141.4C242.961 138.533 242.511 136.267 241.611 134.6C240.744 132.9 239.194 132.05 236.961 132.05C234.728 132.05 233.161 132.9 232.261 134.6C231.394 136.267 230.961 138.533 230.961 141.4V147.7C230.961 150.567 231.394 152.85 232.261 154.55C233.161 156.217 234.728 157.05 236.961 157.05Z" fill="#5B93FF"/>
<path d="M96.64 253V250.18H102.52V234.52H102.28L97.42 239.71L95.35 237.85L100.69 232.06H105.85V250.18H110.95V253H96.64ZM120.988 253.36C119.688 253.36 118.558 253.12 117.598 252.64C116.638 252.14 115.848 251.43 115.228 250.51C114.608 249.59 114.148 248.46 113.848 247.12C113.548 245.78 113.398 244.25 113.398 242.53C113.398 240.83 113.548 239.31 113.848 237.97C114.148 236.61 114.608 235.47 115.228 234.55C115.848 233.63 116.638 232.93 117.598 232.45C118.558 231.95 119.688 231.7 120.988 231.7C123.588 231.7 125.498 232.65 126.718 234.55C127.958 236.45 128.578 239.11 128.578 242.53C128.578 245.95 127.958 248.61 126.718 250.51C125.498 252.41 123.588 253.36 120.988 253.36ZM120.988 250.48C121.708 250.48 122.318 250.34 122.818 250.06C123.338 249.76 123.758 249.34 124.078 248.8C124.398 248.26 124.628 247.62 124.768 246.88C124.908 246.12 124.978 245.28 124.978 244.36V240.7C124.978 239.78 124.908 238.95 124.768 238.21C124.628 237.45 124.398 236.8 124.078 236.26C123.758 235.72 123.338 235.31 122.818 235.03C122.318 234.73 121.708 234.58 120.988 234.58C120.268 234.58 119.648 234.73 119.128 235.03C118.628 235.31 118.218 235.72 117.898 236.26C117.578 236.8 117.348 237.45 117.208 238.21C117.068 238.95 116.998 239.78 116.998 240.7V244.36C116.998 245.28 117.068 246.12 117.208 246.88C117.348 247.62 117.578 248.26 117.898 248.8C118.218 249.34 118.628 249.76 119.128 250.06C119.648 250.34 120.268 250.48 120.988 250.48ZM134.327 248.83C135.067 248.83 135.617 249.02 135.977 249.4C136.337 249.78 136.517 250.27 136.517 250.87V251.35C136.517 252.33 136.247 253.35 135.707 254.41C135.187 255.49 134.477 256.4 133.577 257.14H131.147C131.787 256.5 132.317 255.88 132.737 255.28C133.157 254.68 133.477 254.01 133.697 253.27C133.177 253.17 132.787 252.95 132.527 252.61C132.267 252.25 132.137 251.83 132.137 251.35V250.87C132.137 250.27 132.317 249.78 132.677 249.4C133.037 249.02 133.587 248.83 134.327 248.83ZM147.678 253.36C146.378 253.36 145.248 253.12 144.288 252.64C143.328 252.14 142.538 251.43 141.918 250.51C141.298 249.59 140.838 248.46 140.538 247.12C140.238 245.78 140.088 244.25 140.088 242.53C140.088 240.83 140.238 239.31 140.538 237.97C140.838 236.61 141.298 235.47 141.918 234.55C142.538 233.63 143.328 232.93 144.288 232.45C145.248 231.95 146.378 231.7 147.678 231.7C150.278 231.7 152.188 232.65 153.408 234.55C154.648 236.45 155.268 239.11 155.268 242.53C155.268 245.95 154.648 248.61 153.408 250.51C152.188 252.41 150.278 253.36 147.678 253.36ZM147.678 250.48C148.398 250.48 149.008 250.34 149.508 250.06C150.028 249.76 150.448 249.34 150.768 248.8C151.088 248.26 151.318 247.62 151.458 246.88C151.598 246.12 151.668 245.28 151.668 244.36V240.7C151.668 239.78 151.598 238.95 151.458 238.21C151.318 237.45 151.088 236.8 150.768 236.26C150.448 235.72 150.028 235.31 149.508 235.03C149.008 234.73 148.398 234.58 147.678 234.58C146.958 234.58 146.338 234.73 145.818 235.03C145.318 235.31 144.908 235.72 144.588 236.26C144.268 236.8 144.038 237.45 143.898 238.21C143.758 238.95 143.688 239.78 143.688 240.7V244.36C143.688 245.28 143.758 246.12 143.898 246.88C144.038 247.62 144.268 248.26 144.588 248.8C144.908 249.34 145.318 249.76 145.818 250.06C146.338 250.34 146.958 250.48 147.678 250.48ZM165.666 253.36C164.366 253.36 163.236 253.12 162.276 252.64C161.316 252.14 160.526 251.43 159.906 250.51C159.286 249.59 158.826 248.46 158.526 247.12C158.226 245.78 158.076 244.25 158.076 242.53C158.076 240.83 158.226 239.31 158.526 237.97C158.826 236.61 159.286 235.47 159.906 234.55C160.526 233.63 161.316 232.93 162.276 232.45C163.236 231.95 164.366 231.7 165.666 231.7C168.266 231.7 170.176 232.65 171.396 234.55C172.636 236.45 173.256 239.11 173.256 242.53C173.256 245.95 172.636 248.61 171.396 250.51C170.176 252.41 168.266 253.36 165.666 253.36ZM165.666 250.48C166.386 250.48 166.996 250.34 167.496 250.06C168.016 249.76 168.436 249.34 168.756 248.8C169.076 248.26 169.306 247.62 169.446 246.88C169.586 246.12 169.656 245.28 169.656 244.36V240.7C169.656 239.78 169.586 238.95 169.446 238.21C169.306 237.45 169.076 236.8 168.756 236.26C168.436 235.72 168.016 235.31 167.496 235.03C166.996 234.73 166.386 234.58 165.666 234.58C164.946 234.58 164.326 234.73 163.806 235.03C163.306 235.31 162.896 235.72 162.576 236.26C162.256 236.8 162.026 237.45 161.886 238.21C161.746 238.95 161.676 239.78 161.676 240.7V244.36C161.676 245.28 161.746 246.12 161.886 246.88C162.026 247.62 162.256 248.26 162.576 248.8C162.896 249.34 163.306 249.76 163.806 250.06C164.326 250.34 164.946 250.48 165.666 250.48ZM183.654 253.36C182.354 253.36 181.224 253.12 180.264 252.64C179.304 252.14 178.514 251.43 177.894 250.51C177.274 249.59 176.814 248.46 176.514 247.12C176.214 245.78 176.064 244.25 176.064 242.53C176.064 240.83 176.214 239.31 176.514 237.97C176.814 236.61 177.274 235.47 177.894 234.55C178.514 233.63 179.304 232.93 180.264 232.45C181.224 231.95 182.354 231.7 183.654 231.7C186.254 231.7 188.164 232.65 189.384 234.55C190.624 236.45 191.244 239.11 191.244 242.53C191.244 245.95 190.624 248.61 189.384 250.51C188.164 252.41 186.254 253.36 183.654 253.36ZM183.654 250.48C184.374 250.48 184.984 250.34 185.484 250.06C186.004 249.76 186.424 249.34 186.744 248.8C187.064 248.26 187.294 247.62 187.434 246.88C187.574 246.12 187.644 245.28 187.644 244.36V240.7C187.644 239.78 187.574 238.95 187.434 238.21C187.294 237.45 187.064 236.8 186.744 236.26C186.424 235.72 186.004 235.31 185.484 235.03C184.984 234.73 184.374 234.58 183.654 234.58C182.934 234.58 182.314 234.73 181.794 235.03C181.294 235.31 180.884 235.72 180.564 236.26C180.244 236.8 180.014 237.45 179.874 238.21C179.734 238.95 179.664 239.78 179.664 240.7V244.36C179.664 245.28 179.734 246.12 179.874 246.88C180.014 247.62 180.244 248.26 180.564 248.8C180.884 249.34 181.294 249.76 181.794 250.06C182.314 250.34 182.934 250.48 183.654 250.48ZM218.332 236.98H218.182L216.532 240.37L211.942 248.74L207.352 240.37L205.702 236.98H205.552V253H202.312V232.06H206.332L211.942 242.71H212.122L217.732 232.06H221.572V253H218.332V236.98ZM232.626 253.36C231.506 253.36 230.506 253.17 229.626 252.79C228.746 252.41 227.996 251.87 227.376 251.17C226.756 250.45 226.276 249.59 225.936 248.59C225.616 247.57 225.456 246.44 225.456 245.2C225.456 243.96 225.616 242.84 225.936 241.84C226.276 240.82 226.756 239.96 227.376 239.26C227.996 238.54 228.746 237.99 229.626 237.61C230.506 237.23 231.506 237.04 232.626 237.04C233.766 237.04 234.766 237.24 235.626 237.64C236.506 238.04 237.236 238.6 237.816 239.32C238.396 240.02 238.826 240.84 239.106 241.78C239.406 242.72 239.556 243.73 239.556 244.81V246.04H228.846V246.55C228.846 247.75 229.196 248.74 229.896 249.52C230.616 250.28 231.636 250.66 232.956 250.66C233.916 250.66 234.726 250.45 235.386 250.03C236.046 249.61 236.606 249.04 237.066 248.32L238.986 250.21C238.406 251.17 237.566 251.94 236.466 252.52C235.366 253.08 234.086 253.36 232.626 253.36ZM232.626 239.59C232.066 239.59 231.546 239.69 231.066 239.89C230.606 240.09 230.206 240.37 229.866 240.73C229.546 241.09 229.296 241.52 229.116 242.02C228.936 242.52 228.846 243.07 228.846 243.67V243.88H236.106V243.58C236.106 242.38 235.796 241.42 235.176 240.7C234.556 239.96 233.706 239.59 232.626 239.59ZM248.126 253.36C246.646 253.36 245.406 253.1 244.406 252.58C243.406 252.06 242.536 251.34 241.796 250.42L243.896 248.5C244.476 249.2 245.116 249.75 245.816 250.15C246.536 250.53 247.366 250.72 248.306 250.72C249.266 250.72 249.976 250.54 250.436 250.18C250.916 249.8 251.156 249.28 251.156 248.62C251.156 248.12 250.986 247.7 250.646 247.36C250.326 247 249.756 246.77 248.936 246.67L247.496 246.49C245.896 246.29 244.636 245.83 243.716 245.11C242.816 244.37 242.366 243.28 242.366 241.84C242.366 241.08 242.506 240.41 242.786 239.83C243.066 239.23 243.456 238.73 243.956 238.33C244.476 237.91 245.086 237.59 245.786 237.37C246.506 237.15 247.296 237.04 248.156 237.04C249.556 237.04 250.696 237.26 251.576 237.7C252.476 238.14 253.276 238.75 253.976 239.53L251.966 241.45C251.566 240.97 251.036 240.56 250.376 240.22C249.736 239.86 248.996 239.68 248.156 239.68C247.256 239.68 246.586 239.86 246.146 240.22C245.726 240.58 245.516 241.05 245.516 241.63C245.516 242.23 245.706 242.68 246.086 242.98C246.466 243.28 247.076 243.5 247.916 243.64L249.356 243.82C251.076 244.08 252.326 244.59 253.106 245.35C253.906 246.09 254.306 247.09 254.306 248.35C254.306 249.11 254.156 249.8 253.856 250.42C253.576 251.02 253.166 251.54 252.626 251.98C252.086 252.42 251.436 252.76 250.676 253C249.916 253.24 249.066 253.36 248.126 253.36ZM262.774 253.36C261.294 253.36 260.054 253.1 259.054 252.58C258.054 252.06 257.184 251.34 256.444 250.42L258.544 248.5C259.124 249.2 259.764 249.75 260.464 250.15C261.184 250.53 262.014 250.72 262.954 250.72C263.914 250.72 264.624 250.54 265.084 250.18C265.564 249.8 265.804 249.28 265.804 248.62C265.804 248.12 265.634 247.7 265.294 247.36C264.974 247 264.404 246.77 263.584 246.67L262.144 246.49C260.544 246.29 259.284 245.83 258.364 245.11C257.464 244.37 257.014 243.28 257.014 241.84C257.014 241.08 257.154 240.41 257.434 239.83C257.714 239.23 258.104 238.73 258.604 238.33C259.124 237.91 259.734 237.59 260.434 237.37C261.154 237.15 261.944 237.04 262.804 237.04C264.204 237.04 265.344 237.26 266.224 237.7C267.124 238.14 267.924 238.75 268.624 239.53L266.614 241.45C266.214 240.97 265.684 240.56 265.024 240.22C264.384 239.86 263.644 239.68 262.804 239.68C261.904 239.68 261.234 239.86 260.794 240.22C260.374 240.58 260.164 241.05 260.164 241.63C260.164 242.23 260.354 242.68 260.734 242.98C261.114 243.28 261.724 243.5 262.564 243.64L264.004 243.82C265.724 244.08 266.974 244.59 267.754 245.35C268.554 246.09 268.954 247.09 268.954 248.35C268.954 249.11 268.804 249.8 268.504 250.42C268.224 251.02 267.814 251.54 267.274 251.98C266.734 252.42 266.084 252.76 265.324 253C264.564 253.24 263.714 253.36 262.774 253.36ZM284.079 253C283.219 253 282.559 252.76 282.099 252.28C281.639 251.78 281.359 251.15 281.259 250.39H281.109C280.809 251.37 280.259 252.11 279.459 252.61C278.659 253.11 277.689 253.36 276.549 253.36C274.929 253.36 273.679 252.94 272.799 252.1C271.939 251.26 271.509 250.13 271.509 248.71C271.509 247.15 272.069 245.98 273.189 245.2C274.329 244.42 275.989 244.03 278.169 244.03H280.989V242.71C280.989 241.75 280.729 241.01 280.209 240.49C279.689 239.97 278.879 239.71 277.779 239.71C276.859 239.71 276.109 239.91 275.529 240.31C274.949 240.71 274.459 241.22 274.059 241.84L272.109 240.07C272.629 239.19 273.359 238.47 274.299 237.91C275.239 237.33 276.469 237.04 277.989 237.04C280.009 237.04 281.559 237.51 282.639 238.45C283.719 239.39 284.259 240.74 284.259 242.5V250.33H285.909V253H284.079ZM277.479 250.87C278.499 250.87 279.339 250.65 279.999 250.21C280.659 249.75 280.989 249.14 280.989 248.38V246.13H278.229C275.969 246.13 274.839 246.83 274.839 248.23V248.77C274.839 249.47 275.069 250 275.529 250.36C276.009 250.7 276.659 250.87 277.479 250.87ZM302.793 254.47C302.793 256.09 302.173 257.31 300.933 258.13C299.693 258.95 297.673 259.36 294.873 259.36C293.593 259.36 292.503 259.27 291.603 259.09C290.723 258.93 289.993 258.69 289.413 258.37C288.853 258.05 288.443 257.66 288.183 257.2C287.923 256.74 287.793 256.21 287.793 255.61C287.793 254.75 288.023 254.08 288.483 253.6C288.963 253.12 289.623 252.79 290.463 252.61V252.28C289.283 251.9 288.693 251.1 288.693 249.88C288.693 249.08 288.963 248.47 289.503 248.05C290.043 247.61 290.693 247.3 291.453 247.12V247C290.533 246.56 289.823 245.95 289.323 245.17C288.843 244.37 288.603 243.44 288.603 242.38C288.603 240.78 289.133 239.49 290.193 238.51C291.273 237.53 292.813 237.04 294.813 237.04C295.913 237.04 296.853 237.2 297.633 237.52V237.1C297.633 236.4 297.793 235.86 298.113 235.48C298.453 235.08 298.973 234.88 299.673 234.88H302.073V237.52H298.893V238.15C299.593 238.61 300.133 239.21 300.513 239.95C300.893 240.67 301.083 241.48 301.083 242.38C301.083 243.96 300.543 245.24 299.463 246.22C298.383 247.18 296.843 247.66 294.843 247.66C294.083 247.66 293.403 247.58 292.803 247.42C292.403 247.56 292.053 247.76 291.753 248.02C291.453 248.26 291.303 248.58 291.303 248.98C291.303 249.4 291.493 249.7 291.873 249.88C292.253 250.06 292.793 250.15 293.493 250.15H297.333C299.253 250.15 300.643 250.54 301.503 251.32C302.363 252.08 302.793 253.13 302.793 254.47ZM299.733 254.83C299.733 254.29 299.523 253.86 299.103 253.54C298.703 253.22 297.963 253.06 296.883 253.06H291.603C290.883 253.48 290.523 254.08 290.523 254.86C290.523 255.5 290.773 256.01 291.273 256.39C291.793 256.79 292.663 256.99 293.883 256.99H295.923C298.463 256.99 299.733 256.27 299.733 254.83ZM294.843 245.29C295.803 245.29 296.543 245.08 297.063 244.66C297.603 244.22 297.873 243.55 297.873 242.65V242.05C297.873 241.15 297.603 240.49 297.063 240.07C296.543 239.63 295.803 239.41 294.843 239.41C293.883 239.41 293.133 239.63 292.593 240.07C292.073 240.49 291.813 241.15 291.813 242.05V242.65C291.813 243.55 292.073 244.22 292.593 244.66C293.133 245.08 293.883 245.29 294.843 245.29ZM311.171 253.36C310.051 253.36 309.051 253.17 308.171 252.79C307.291 252.41 306.541 251.87 305.921 251.17C305.301 250.45 304.821 249.59 304.481 248.59C304.161 247.57 304.001 246.44 304.001 245.2C304.001 243.96 304.161 242.84 304.481 241.84C304.821 240.82 305.301 239.96 305.921 239.26C306.541 238.54 307.291 237.99 308.171 237.61C309.051 237.23 310.051 237.04 311.171 237.04C312.311 237.04 313.311 237.24 314.171 237.64C315.051 238.04 315.781 238.6 316.361 239.32C316.941 240.02 317.371 240.84 317.651 241.78C317.951 242.72 318.101 243.73 318.101 244.81V246.04H307.391V246.55C307.391 247.75 307.741 248.74 308.441 249.52C309.161 250.28 310.181 250.66 311.501 250.66C312.461 250.66 313.271 250.45 313.931 250.03C314.591 249.61 315.151 249.04 315.611 248.32L317.531 250.21C316.951 251.17 316.111 251.94 315.011 252.52C313.911 253.08 312.631 253.36 311.171 253.36ZM311.171 239.59C310.611 239.59 310.091 239.69 309.611 239.89C309.151 240.09 308.751 240.37 308.411 240.73C308.091 241.09 307.841 241.52 307.661 242.02C307.481 242.52 307.391 243.07 307.391 243.67V243.88H314.651V243.58C314.651 242.38 314.341 241.42 313.721 240.7C313.101 239.96 312.251 239.59 311.171 239.59Z" fill="black"/>
<rect x="21" y="306" width="373" height="52" rx="4" fill="#5B93FF"/>
<path d="M166.648 338.192C165.912 338.192 165.245 338.075 164.648 337.84C164.061 337.595 163.555 337.232 163.128 336.752C162.712 336.272 162.392 335.68 162.168 334.976C161.944 334.261 161.832 333.435 161.832 332.496C161.832 331.557 161.944 330.725 162.168 330C162.392 329.264 162.712 328.651 163.128 328.16C163.555 327.659 164.061 327.28 164.648 327.024C165.245 326.768 165.912 326.64 166.648 326.64C167.651 326.64 168.483 326.853 169.144 327.28C169.805 327.707 170.333 328.352 170.728 329.216L168.92 330.176C168.76 329.675 168.499 329.275 168.136 328.976C167.773 328.667 167.277 328.512 166.648 328.512C165.859 328.512 165.229 328.779 164.76 329.312C164.301 329.845 164.072 330.592 164.072 331.552V333.312C164.072 334.283 164.301 335.029 164.76 335.552C165.229 336.064 165.859 336.32 166.648 336.32C167.277 336.32 167.789 336.149 168.184 335.808C168.589 335.467 168.883 335.045 169.064 334.544L170.776 335.552C170.371 336.384 169.832 337.035 169.16 337.504C168.488 337.963 167.651 338.192 166.648 338.192ZM172.55 326.16H174.598V331.04H174.678C174.848 330.592 175.115 330.219 175.478 329.92C175.851 329.611 176.363 329.456 177.014 329.456C177.878 329.456 178.539 329.739 178.998 330.304C179.456 330.869 179.686 331.675 179.686 332.72V338H177.638V332.928C177.638 332.331 177.531 331.883 177.318 331.584C177.104 331.285 176.752 331.136 176.262 331.136C176.048 331.136 175.84 331.168 175.638 331.232C175.446 331.285 175.27 331.371 175.11 331.488C174.96 331.595 174.838 331.733 174.742 331.904C174.646 332.064 174.598 332.256 174.598 332.48V338H172.55V326.16ZM185.368 338.192C184.771 338.192 184.232 338.091 183.752 337.888C183.283 337.685 182.877 337.392 182.536 337.008C182.205 336.624 181.949 336.165 181.768 335.632C181.587 335.088 181.496 334.48 181.496 333.808C181.496 333.136 181.587 332.533 181.768 332C181.949 331.467 182.205 331.013 182.536 330.64C182.877 330.256 183.283 329.963 183.752 329.76C184.232 329.557 184.771 329.456 185.368 329.456C185.965 329.456 186.504 329.557 186.984 329.76C187.464 329.963 187.869 330.256 188.2 330.64C188.541 331.013 188.803 331.467 188.984 332C189.165 332.533 189.256 333.136 189.256 333.808C189.256 334.48 189.165 335.088 188.984 335.632C188.803 336.165 188.541 336.624 188.2 337.008C187.869 337.392 187.464 337.685 186.984 337.888C186.504 338.091 185.965 338.192 185.368 338.192ZM185.368 336.544C185.912 336.544 186.339 336.379 186.648 336.048C186.957 335.717 187.112 335.232 187.112 334.592V333.04C187.112 332.411 186.957 331.931 186.648 331.6C186.339 331.269 185.912 331.104 185.368 331.104C184.835 331.104 184.413 331.269 184.104 331.6C183.795 331.931 183.64 332.411 183.64 333.04V334.592C183.64 335.232 183.795 335.717 184.104 336.048C184.413 336.379 184.835 336.544 185.368 336.544ZM194.483 338.192C193.886 338.192 193.347 338.091 192.867 337.888C192.398 337.685 191.993 337.392 191.651 337.008C191.321 336.624 191.065 336.165 190.883 335.632C190.702 335.088 190.611 334.48 190.611 333.808C190.611 333.136 190.702 332.533 190.883 332C191.065 331.467 191.321 331.013 191.651 330.64C191.993 330.256 192.398 329.963 192.867 329.76C193.347 329.557 193.886 329.456 194.483 329.456C195.081 329.456 195.619 329.557 196.099 329.76C196.579 329.963 196.985 330.256 197.315 330.64C197.657 331.013 197.918 331.467 198.099 332C198.281 332.533 198.372 333.136 198.372 333.808C198.372 334.48 198.281 335.088 198.099 335.632C197.918 336.165 197.657 336.624 197.315 337.008C196.985 337.392 196.579 337.685 196.099 337.888C195.619 338.091 195.081 338.192 194.483 338.192ZM194.483 336.544C195.027 336.544 195.454 336.379 195.763 336.048C196.073 335.717 196.227 335.232 196.227 334.592V333.04C196.227 332.411 196.073 331.931 195.763 331.6C195.454 331.269 195.027 331.104 194.483 331.104C193.95 331.104 193.529 331.269 193.219 331.6C192.91 331.931 192.755 332.411 192.755 333.04V334.592C192.755 335.232 192.91 335.717 193.219 336.048C193.529 336.379 193.95 336.544 194.483 336.544ZM203.023 338.192C202.223 338.192 201.551 338.059 201.007 337.792C200.463 337.515 199.983 337.136 199.567 336.656L200.815 335.44C201.124 335.792 201.46 336.069 201.823 336.272C202.196 336.475 202.623 336.576 203.103 336.576C203.594 336.576 203.946 336.491 204.159 336.32C204.383 336.149 204.495 335.915 204.495 335.616C204.495 335.371 204.415 335.179 204.255 335.04C204.106 334.891 203.844 334.789 203.471 334.736L202.639 334.624C201.732 334.507 201.039 334.251 200.559 333.856C200.09 333.451 199.855 332.864 199.855 332.096C199.855 331.691 199.93 331.328 200.079 331.008C200.228 330.677 200.442 330.4 200.719 330.176C200.996 329.941 201.327 329.765 201.711 329.648C202.106 329.52 202.543 329.456 203.023 329.456C203.428 329.456 203.786 329.488 204.095 329.552C204.415 329.605 204.703 329.691 204.959 329.808C205.215 329.915 205.45 330.053 205.663 330.224C205.876 330.384 206.084 330.565 206.287 330.768L205.087 331.968C204.842 331.712 204.548 331.499 204.207 331.328C203.866 331.157 203.492 331.072 203.087 331.072C202.639 331.072 202.314 331.152 202.111 331.312C201.919 331.472 201.823 331.68 201.823 331.936C201.823 332.213 201.903 332.427 202.063 332.576C202.234 332.715 202.516 332.816 202.911 332.88L203.759 332.992C205.562 333.248 206.463 334.069 206.463 335.456C206.463 335.861 206.378 336.235 206.207 336.576C206.047 336.907 205.818 337.195 205.519 337.44C205.22 337.675 204.858 337.861 204.431 338C204.015 338.128 203.546 338.192 203.023 338.192ZM211.748 338.192C211.129 338.192 210.574 338.091 210.084 337.888C209.604 337.675 209.193 337.381 208.852 337.008C208.521 336.624 208.265 336.165 208.084 335.632C207.902 335.088 207.812 334.48 207.812 333.808C207.812 333.147 207.897 332.549 208.068 332.016C208.249 331.483 208.505 331.029 208.836 330.656C209.166 330.272 209.572 329.979 210.052 329.776C210.532 329.563 211.076 329.456 211.684 329.456C212.334 329.456 212.9 329.568 213.38 329.792C213.86 330.016 214.254 330.32 214.564 330.704C214.873 331.088 215.102 331.536 215.252 332.048C215.412 332.549 215.492 333.088 215.492 333.664V334.336H209.94V334.544C209.94 335.152 210.11 335.643 210.452 336.016C210.793 336.379 211.3 336.56 211.972 336.56C212.484 336.56 212.9 336.453 213.22 336.24C213.55 336.027 213.844 335.755 214.1 335.424L215.204 336.656C214.862 337.136 214.393 337.515 213.796 337.792C213.209 338.059 212.526 338.192 211.748 338.192ZM211.716 330.992C211.172 330.992 210.74 331.173 210.42 331.536C210.1 331.899 209.94 332.368 209.94 332.944V333.072H213.364V332.928C213.364 332.352 213.22 331.888 212.932 331.536C212.654 331.173 212.249 330.992 211.716 330.992ZM221.403 338V326.832H226.427C226.939 326.832 227.397 326.917 227.803 327.088C228.219 327.248 228.571 327.483 228.859 327.792C229.147 328.091 229.365 328.453 229.515 328.88C229.664 329.307 229.739 329.776 229.739 330.288C229.739 330.811 229.664 331.285 229.515 331.712C229.365 332.128 229.147 332.491 228.859 332.8C228.571 333.099 228.219 333.333 227.803 333.504C227.397 333.664 226.939 333.744 226.427 333.744H223.515V338H221.403ZM223.515 331.92H226.235C226.64 331.92 226.96 331.813 227.195 331.6C227.429 331.376 227.547 331.061 227.547 330.656V329.92C227.547 329.515 227.429 329.205 227.195 328.992C226.96 328.779 226.64 328.672 226.235 328.672H223.515V331.92ZM233.673 338C232.969 338 232.451 337.824 232.121 337.472C231.79 337.12 231.625 336.624 231.625 335.984V326.16H233.673V336.368H234.777V338H233.673ZM242.572 338C242.124 338 241.766 337.872 241.5 337.616C241.244 337.349 241.084 336.997 241.02 336.56H240.924C240.785 337.104 240.502 337.515 240.076 337.792C239.649 338.059 239.121 338.192 238.492 338.192C237.638 338.192 236.982 337.968 236.524 337.52C236.065 337.072 235.836 336.475 235.836 335.728C235.836 334.864 236.145 334.224 236.764 333.808C237.382 333.381 238.262 333.168 239.404 333.168H240.828V332.56C240.828 332.091 240.705 331.728 240.46 331.472C240.214 331.216 239.82 331.088 239.276 331.088C238.796 331.088 238.406 331.195 238.108 331.408C237.82 331.611 237.574 331.856 237.372 332.144L236.156 331.056C236.465 330.576 236.876 330.192 237.388 329.904C237.9 329.605 238.577 329.456 239.42 329.456C240.55 329.456 241.409 329.712 241.996 330.224C242.582 330.736 242.876 331.472 242.876 332.432V336.368H243.708V338H242.572ZM239.18 336.704C239.638 336.704 240.028 336.603 240.348 336.4C240.668 336.197 240.828 335.899 240.828 335.504V334.4H239.516C238.449 334.4 237.916 334.741 237.916 335.424V335.696C237.916 336.037 238.022 336.293 238.236 336.464C238.46 336.624 238.774 336.704 239.18 336.704ZM245.465 338V329.648H247.513V331.04H247.593C247.764 330.592 248.031 330.219 248.393 329.92C248.767 329.611 249.279 329.456 249.929 329.456C250.793 329.456 251.455 329.739 251.913 330.304C252.372 330.869 252.601 331.675 252.601 332.72V338H250.553V332.928C250.553 332.331 250.447 331.883 250.233 331.584C250.02 331.285 249.668 331.136 249.177 331.136C248.964 331.136 248.756 331.168 248.553 331.232C248.361 331.285 248.185 331.371 248.025 331.488C247.876 331.595 247.753 331.733 247.657 331.904C247.561 332.064 247.513 332.256 247.513 332.48V338H245.465Z" fill="white"/>
<ellipse cx="116" cy="114.5" rx="116" ry="114.5" transform="matrix(-4.37114e-08 -1 -1 4.37114e-08 124.488 175.988)" fill="url(#paint0_linear_308_8408)"/>
</g>
<rect x="0.5" y="0.5" width="413" height="394" rx="29.5" stroke="#007373" stroke-opacity="0.1"/>
<defs>
<linearGradient id="paint0_linear_308_8408" x1="-36.8" y1="-41.2595" x2="114.285" y2="91.7706" gradientUnits="userSpaceOnUse">
<stop stop-color="#5B93FF"/>
<stop offset="1" stop-color="white" stop-opacity="0"/>
</linearGradient>
<clipPath id="clip0_308_8408">
<rect width="414" height="395" rx="30" fill="white"/>
</clipPath>
</defs>
</svg>
