<svg width="270" height="69" viewBox="0 0 270 69" fill="none" xmlns="http://www.w3.org/2000/svg">
<path d="M267.562 62.2384C182.853 71.1904 94.2246 71.3433 2.52147 62.2384C-0.580797 42.3555 -1.09053 23.5427 2.52147 6.38615C96.0059 -2.03076 185.04 -2.22611 267.562 6.38615C270.769 25.2414 270.856 43.8588 267.562 62.2384Z" fill="#be27ce" fill-opacity="1"/>
<path d="M44.2 48.999C42.68 48.999 41.6 48.7057 40.96 48.119C40.3467 47.5057 40.04 46.6124 40.04 45.439C40.04 45.119 40.0533 44.5857 40.08 43.839C40.1333 43.0657 40.2 42.159 40.28 41.119C40.36 40.079 40.44 38.9457 40.52 37.719C40.6267 36.4657 40.7333 35.199 40.84 33.919C41.0533 31.2257 41.2 29.039 41.28 27.359C41.3867 25.679 41.4667 24.359 41.52 23.399C41.6 22.199 41.68 21.439 41.76 21.119C41.84 20.7724 42.0133 20.599 42.28 20.599C43.1067 20.599 43.9467 20.5857 44.8 20.559C45.68 20.5057 46.52 20.4524 47.32 20.399C48.12 20.3457 48.8667 20.3057 49.56 20.279C50.28 20.2257 50.92 20.199 51.48 20.199C53.1867 20.199 54.6533 20.4124 55.88 20.839C57.1067 21.2657 58.0933 21.8657 58.84 22.639C59.6133 23.4124 60.1733 24.3457 60.52 25.439C60.8933 26.5324 61.08 27.759 61.08 29.119C61.08 31.199 60.6667 33.0524 59.84 34.679C59.0133 36.3057 57.6933 37.5457 55.88 38.399L59.24 43.199C59.8533 44.1057 60.32 44.8124 60.64 45.319C60.96 45.799 61.12 46.159 61.12 46.399C61.12 46.5857 61 46.8524 60.76 47.199C60.5467 47.519 60.2133 47.8524 59.76 48.199C59.3333 48.519 58.8 48.799 58.16 49.039C57.5467 49.279 56.8533 49.399 56.08 49.399C55.2267 49.399 54.48 49.119 53.84 48.559C53.2267 47.999 52.6667 47.2657 52.16 46.359C51.68 45.4257 51.2533 44.359 50.88 43.159C50.5333 41.959 50.2 40.7057 49.88 39.399C48.92 39.3457 48.1333 39.2524 47.52 39.119C47.44 40.2924 47.36 41.4124 47.28 42.479C47.2 43.5457 47.1333 44.5057 47.08 45.359C47.0267 46.1857 46.9733 46.879 46.92 47.439C46.8667 47.9724 46.84 48.2924 46.84 48.399C46.8133 48.6124 46.76 48.7724 46.68 48.879C46.6 48.959 46.44 48.999 46.2 48.999H44.2ZM50.68 26.199C50.36 26.199 50 26.2257 49.6 26.279C49.2 26.3057 48.7733 26.3457 48.32 26.399C48.2667 27.3324 48.2 28.4524 48.12 29.759C48.0667 31.039 47.9867 32.4124 47.88 33.879C48.8133 34.0924 49.6267 34.199 50.32 34.199C51.1467 34.199 51.8133 34.039 52.32 33.719C52.8533 33.399 53.2667 33.0124 53.56 32.559C53.8533 32.079 54.04 31.5724 54.12 31.039C54.2267 30.5057 54.28 30.0257 54.28 29.599C54.28 28.5057 54.0133 27.6657 53.48 27.079C52.9467 26.4924 52.0133 26.199 50.68 26.199ZM68.8875 48.999C67.3942 48.999 66.3275 48.7057 65.6875 48.119C65.0475 47.5324 64.7275 46.6924 64.7275 45.599C64.7275 45.0657 64.7675 44.159 64.8475 42.879C64.9275 41.5724 65.0342 40.0924 65.1675 38.439C65.3008 36.7857 65.4342 35.039 65.5675 33.199C65.7008 31.359 65.8342 29.6257 65.9675 27.999C66.1008 26.3724 66.2075 24.9457 66.2875 23.719C66.3675 22.4924 66.4075 21.6524 66.4075 21.199C66.4075 20.799 66.6208 20.599 67.0475 20.599H81.1275C81.2875 20.599 81.4342 20.639 81.5675 20.719C81.7008 20.799 81.7675 20.9457 81.7675 21.159L81.6075 23.519C81.5542 24.319 81.3275 24.9724 80.9275 25.479C80.5542 25.959 79.7675 26.199 78.5675 26.199H73.0475L72.6475 31.839H78.3275C78.4875 31.839 78.6342 31.879 78.7675 31.959C78.9008 32.039 78.9675 32.1857 78.9675 32.399L78.8075 34.759C78.7542 35.559 78.5275 36.2124 78.1275 36.719C77.7542 37.199 76.9675 37.439 75.7675 37.439H72.2875L71.8475 43.399H80.6475C80.8075 43.399 80.9542 43.4524 81.0875 43.559C81.2208 43.639 81.2875 43.7724 81.2875 43.959L81.1275 46.319C81.0742 47.119 80.8475 47.7724 80.4475 48.279C80.0742 48.759 79.2875 48.999 78.0875 48.999H68.8875ZM95.7666 20.199C98.2732 20.199 100.127 20.7457 101.327 21.839C102.553 22.9324 103.167 24.359 103.167 26.119C103.167 27.6124 102.753 28.759 101.927 29.559C101.1 30.3324 99.9132 30.719 98.3666 30.719C97.8866 30.719 97.5799 30.679 97.4466 30.599C97.3132 30.4924 97.2466 30.2924 97.2466 29.999C97.2466 29.7324 97.2199 29.3857 97.1666 28.959C97.1399 28.5324 97.0466 28.119 96.8866 27.719C96.7266 27.319 96.4732 26.9857 96.1266 26.719C95.7799 26.4257 95.2999 26.279 94.6866 26.279C93.8332 26.279 93.0732 26.5457 92.4066 27.079C91.7399 27.5857 91.4066 28.2524 91.4066 29.079C91.4066 29.799 91.6732 30.3857 92.2066 30.839C92.7666 31.2924 93.4599 31.719 94.2866 32.119C95.1132 32.4924 96.0066 32.879 96.9666 33.279C97.9532 33.679 98.8599 34.2124 99.6866 34.879C100.513 35.519 101.193 36.3324 101.727 37.319C102.287 38.279 102.567 39.5057 102.567 40.999C102.567 42.1724 102.367 43.279 101.967 44.319C101.593 45.3324 101.02 46.2257 100.247 46.999C99.4999 47.7457 98.5399 48.3324 97.3666 48.759C96.2199 49.1857 94.8732 49.399 93.3266 49.399C91.9932 49.399 90.7532 49.2524 89.6066 48.959C88.4866 48.6657 87.4999 48.3057 86.6466 47.879C85.8199 47.4257 85.1666 46.9457 84.6866 46.439C84.2066 45.9057 83.9666 45.4257 83.9666 44.999C83.9666 43.239 84.0599 41.9724 84.2466 41.199C84.4599 40.4257 84.8332 40.039 85.3666 40.039C85.7399 40.039 86.1266 40.199 86.5266 40.519C86.9532 40.839 87.4332 41.199 87.9666 41.599C88.4999 41.999 89.1132 42.359 89.8066 42.679C90.5266 42.999 91.3532 43.159 92.2866 43.159C92.6599 43.159 93.0199 43.1324 93.3666 43.079C93.7399 42.999 94.0599 42.879 94.3266 42.719C94.6199 42.559 94.8466 42.3457 95.0066 42.079C95.1932 41.8124 95.2866 41.4924 95.2866 41.119C95.2866 40.4524 95.0332 39.919 94.5266 39.519C94.0199 39.119 93.3799 38.759 92.6066 38.439C91.8332 38.0924 90.9932 37.7457 90.0866 37.399C89.2066 37.0257 88.3799 36.5324 87.6066 35.919C86.8332 35.279 86.1932 34.4657 85.6866 33.479C85.1799 32.4924 84.9266 31.2257 84.9266 29.679C84.9266 27.9457 85.2466 26.479 85.8866 25.279C86.5532 24.079 87.3932 23.1057 88.4066 22.359C89.4466 21.5857 90.6066 21.039 91.8866 20.719C93.1932 20.3724 94.4866 20.199 95.7666 20.199ZM110.567 48.999C109.074 48.999 108.007 48.7057 107.367 48.119C106.727 47.5324 106.407 46.6924 106.407 45.599C106.407 45.0657 106.447 44.159 106.527 42.879C106.607 41.5724 106.714 40.0924 106.847 38.439C106.981 36.7857 107.114 35.039 107.247 33.199C107.381 31.359 107.514 29.6257 107.647 27.999C107.781 26.3724 107.887 24.9457 107.967 23.719C108.047 22.4924 108.087 21.6524 108.087 21.199C108.087 20.799 108.301 20.599 108.727 20.599H122.807C122.967 20.599 123.114 20.639 123.247 20.719C123.381 20.799 123.447 20.9457 123.447 21.159L123.287 23.519C123.234 24.319 123.007 24.9724 122.607 25.479C122.234 25.959 121.447 26.199 120.247 26.199H114.727L114.327 31.839H120.007C120.167 31.839 120.314 31.879 120.447 31.959C120.581 32.039 120.647 32.1857 120.647 32.399L120.487 34.759C120.434 35.559 120.207 36.2124 119.807 36.719C119.434 37.199 118.647 37.439 117.447 37.439H113.967L113.527 43.399H122.327C122.487 43.399 122.634 43.4524 122.767 43.559C122.901 43.639 122.967 43.7724 122.967 43.959L122.807 46.319C122.754 47.119 122.527 47.7724 122.127 48.279C121.754 48.759 120.967 48.999 119.767 48.999H110.567ZM130.606 48.999C129.113 48.999 128.046 48.7057 127.406 48.119C126.766 47.5324 126.446 46.6924 126.446 45.599C126.446 45.0657 126.486 44.159 126.566 42.879C126.646 41.5724 126.753 40.0924 126.886 38.439C127.02 36.7857 127.153 35.039 127.286 33.199C127.42 31.359 127.553 29.6257 127.686 27.999C127.82 26.3724 127.926 24.9457 128.006 23.719C128.086 22.4924 128.126 21.6524 128.126 21.199C128.126 20.799 128.34 20.599 128.766 20.599H130.966C132.46 20.599 133.486 20.8924 134.046 21.479C134.633 22.039 134.926 22.879 134.926 23.999C134.926 24.1324 134.913 24.2524 134.886 24.359C134.886 24.4657 134.886 24.5857 134.886 24.719L133.566 43.399H140.766C140.926 43.399 141.073 43.4524 141.206 43.559C141.34 43.639 141.406 43.7724 141.406 43.959L141.246 46.319C141.193 47.119 140.966 47.7724 140.566 48.279C140.193 48.759 139.406 48.999 138.206 48.999H130.606ZM148.536 48.999C147.043 48.999 145.976 48.7057 145.336 48.119C144.696 47.5324 144.376 46.6924 144.376 45.599C144.376 45.0657 144.416 44.159 144.496 42.879C144.576 41.5724 144.683 40.0924 144.816 38.439C144.949 36.7857 145.083 35.039 145.216 33.199C145.349 31.359 145.483 29.6257 145.616 27.999C145.749 26.3724 145.856 24.9457 145.936 23.719C146.016 22.4924 146.056 21.6524 146.056 21.199C146.056 20.799 146.269 20.599 146.696 20.599H148.896C150.389 20.599 151.416 20.8924 151.976 21.479C152.563 22.039 152.856 22.879 152.856 23.999C152.856 24.1324 152.843 24.2524 152.816 24.359C152.816 24.4657 152.816 24.5857 152.816 24.719L151.496 43.399H158.696C158.856 43.399 159.003 43.4524 159.136 43.559C159.269 43.639 159.336 43.7724 159.336 43.959L159.176 46.319C159.123 47.119 158.896 47.7724 158.496 48.279C158.123 48.759 157.336 48.999 156.136 48.999H148.536ZM166.466 48.999C164.972 48.999 163.906 48.7057 163.266 48.119C162.626 47.5324 162.306 46.6924 162.306 45.599C162.306 45.0657 162.346 44.159 162.426 42.879C162.506 41.5724 162.612 40.0924 162.746 38.439C162.879 36.7857 163.012 35.039 163.146 33.199C163.279 31.359 163.412 29.6257 163.546 27.999C163.679 26.3724 163.786 24.9457 163.866 23.719C163.946 22.4924 163.986 21.6524 163.986 21.199C163.986 20.799 164.199 20.599 164.626 20.599H178.706C178.866 20.599 179.012 20.639 179.146 20.719C179.279 20.799 179.346 20.9457 179.346 21.159L179.186 23.519C179.132 24.319 178.906 24.9724 178.506 25.479C178.132 25.959 177.346 26.199 176.146 26.199H170.626L170.226 31.839H175.906C176.066 31.839 176.212 31.879 176.346 31.959C176.479 32.039 176.546 32.1857 176.546 32.399L176.386 34.759C176.332 35.559 176.106 36.2124 175.706 36.719C175.332 37.199 174.546 37.439 173.346 37.439H169.866L169.426 43.399H178.226C178.386 43.399 178.532 43.4524 178.666 43.559C178.799 43.639 178.866 43.7724 178.866 43.959L178.706 46.319C178.652 47.119 178.426 47.7724 178.026 48.279C177.652 48.759 176.866 48.999 175.666 48.999H166.466ZM186.505 48.999C184.985 48.999 183.905 48.7057 183.265 48.119C182.651 47.5057 182.345 46.6124 182.345 45.439C182.345 45.119 182.358 44.5857 182.385 43.839C182.438 43.0657 182.505 42.159 182.585 41.119C182.665 40.079 182.745 38.9457 182.825 37.719C182.931 36.4657 183.038 35.199 183.145 33.919C183.358 31.2257 183.505 29.039 183.585 27.359C183.691 25.679 183.771 24.359 183.825 23.399C183.905 22.199 183.985 21.439 184.065 21.119C184.145 20.7724 184.318 20.599 184.585 20.599C185.411 20.599 186.251 20.5857 187.105 20.559C187.985 20.5057 188.825 20.4524 189.625 20.399C190.425 20.3457 191.171 20.3057 191.865 20.279C192.585 20.2257 193.225 20.199 193.785 20.199C195.491 20.199 196.958 20.4124 198.185 20.839C199.411 21.2657 200.398 21.8657 201.145 22.639C201.918 23.4124 202.478 24.3457 202.825 25.439C203.198 26.5324 203.385 27.759 203.385 29.119C203.385 31.199 202.971 33.0524 202.145 34.679C201.318 36.3057 199.998 37.5457 198.185 38.399L201.545 43.199C202.158 44.1057 202.625 44.8124 202.945 45.319C203.265 45.799 203.425 46.159 203.425 46.399C203.425 46.5857 203.305 46.8524 203.065 47.199C202.851 47.519 202.518 47.8524 202.065 48.199C201.638 48.519 201.105 48.799 200.465 49.039C199.851 49.279 199.158 49.399 198.385 49.399C197.531 49.399 196.785 49.119 196.145 48.559C195.531 47.999 194.971 47.2657 194.465 46.359C193.985 45.4257 193.558 44.359 193.185 43.159C192.838 41.959 192.505 40.7057 192.185 39.399C191.225 39.3457 190.438 39.2524 189.825 39.119C189.745 40.2924 189.665 41.4124 189.585 42.479C189.505 43.5457 189.438 44.5057 189.385 45.359C189.331 46.1857 189.278 46.879 189.225 47.439C189.171 47.9724 189.145 48.2924 189.145 48.399C189.118 48.6124 189.065 48.7724 188.985 48.879C188.905 48.959 188.745 48.999 188.505 48.999H186.505ZM192.985 26.199C192.665 26.199 192.305 26.2257 191.905 26.279C191.505 26.3057 191.078 26.3457 190.625 26.399C190.571 27.3324 190.505 28.4524 190.425 29.759C190.371 31.039 190.291 32.4124 190.185 33.879C191.118 34.0924 191.931 34.199 192.625 34.199C193.451 34.199 194.118 34.039 194.625 33.719C195.158 33.399 195.571 33.0124 195.865 32.559C196.158 32.079 196.345 31.5724 196.425 31.039C196.531 30.5057 196.585 30.0257 196.585 29.599C196.585 28.5057 196.318 27.6657 195.785 27.079C195.251 26.4924 194.318 26.199 192.985 26.199ZM218.032 20.199C220.539 20.199 222.392 20.7457 223.592 21.839C224.819 22.9324 225.432 24.359 225.432 26.119C225.432 27.6124 225.019 28.759 224.192 29.559C223.366 30.3324 222.179 30.719 220.632 30.719C220.152 30.719 219.846 30.679 219.712 30.599C219.579 30.4924 219.512 30.2924 219.512 29.999C219.512 29.7324 219.486 29.3857 219.432 28.959C219.406 28.5324 219.312 28.119 219.152 27.719C218.992 27.319 218.739 26.9857 218.392 26.719C218.046 26.4257 217.566 26.279 216.952 26.279C216.099 26.279 215.339 26.5457 214.672 27.079C214.006 27.5857 213.672 28.2524 213.672 29.079C213.672 29.799 213.939 30.3857 214.472 30.839C215.032 31.2924 215.726 31.719 216.552 32.119C217.379 32.4924 218.272 32.879 219.232 33.279C220.219 33.679 221.126 34.2124 221.952 34.879C222.779 35.519 223.459 36.3324 223.992 37.319C224.552 38.279 224.832 39.5057 224.832 40.999C224.832 42.1724 224.632 43.279 224.232 44.319C223.859 45.3324 223.286 46.2257 222.512 46.999C221.766 47.7457 220.806 48.3324 219.632 48.759C218.486 49.1857 217.139 49.399 215.592 49.399C214.259 49.399 213.019 49.2524 211.872 48.959C210.752 48.6657 209.766 48.3057 208.912 47.879C208.086 47.4257 207.432 46.9457 206.952 46.439C206.472 45.9057 206.232 45.4257 206.232 44.999C206.232 43.239 206.326 41.9724 206.512 41.199C206.726 40.4257 207.099 40.039 207.632 40.039C208.006 40.039 208.392 40.199 208.792 40.519C209.219 40.839 209.699 41.199 210.232 41.599C210.766 41.999 211.379 42.359 212.072 42.679C212.792 42.999 213.619 43.159 214.552 43.159C214.926 43.159 215.286 43.1324 215.632 43.079C216.006 42.999 216.326 42.879 216.592 42.719C216.886 42.559 217.112 42.3457 217.272 42.079C217.459 41.8124 217.552 41.4924 217.552 41.119C217.552 40.4524 217.299 39.919 216.792 39.519C216.286 39.119 215.646 38.759 214.872 38.439C214.099 38.0924 213.259 37.7457 212.352 37.399C211.472 37.0257 210.646 36.5324 209.872 35.919C209.099 35.279 208.459 34.4657 207.952 33.479C207.446 32.4924 207.192 31.2257 207.192 29.679C207.192 27.9457 207.512 26.479 208.152 25.279C208.819 24.079 209.659 23.1057 210.672 22.359C211.712 21.5857 212.872 21.039 214.152 20.719C215.459 20.3724 216.752 20.199 218.032 20.199Z" fill="#ffffff"/>
</svg>
