<svg width="335" height="69" viewBox="0 0 335 69" fill="none" xmlns="http://www.w3.org/2000/svg">
<g clip-path="url(#clip0_308_8458)">
<path d="M331.973 62.2394C226.869 71.1914 116.902 71.3443 3.12072 62.2394C-0.728443 42.3565 -1.3609 23.5437 3.12072 6.38713C119.113 -2.02979 229.582 -2.22513 331.973 6.38713C335.951 25.2424 336.06 43.8598 331.973 62.2394Z" fill="#be27ce"/>
<path d="M71.04 43.16C72.1333 43.16 73.0533 43 73.8 42.68C74.5733 42.36 75.2267 42 75.76 41.6C76.2933 41.2 76.76 40.84 77.16 40.52C77.5867 40.2 78.0133 40.04 78.44 40.04C78.9733 40.04 79.24 40.44 79.24 41.24C79.24 41.6667 79.1867 42.1867 79.08 42.8C78.9733 43.3867 78.8267 44.0533 78.64 44.8C78.5333 45.2533 78.2667 45.7467 77.84 46.28C77.44 46.8133 76.88 47.32 76.16 47.8C75.44 48.2533 74.5467 48.64 73.48 48.96C72.44 49.2533 71.24 49.4 69.88 49.4C68.52 49.4 67.16 49.2 65.8 48.8C64.44 48.4 63.2267 47.72 62.16 46.76C61.0933 45.8 60.2267 44.5067 59.56 42.88C58.8933 41.2533 58.56 39.2133 58.56 36.76C58.56 35.88 58.6133 34.8667 58.72 33.72C58.8533 32.5467 59.0933 31.3467 59.44 30.12C59.7867 28.8933 60.2667 27.6933 60.88 26.52C61.52 25.32 62.3333 24.2533 63.32 23.32C64.3067 22.3867 65.5067 21.64 66.92 21.08C68.36 20.4933 70.0667 20.2 72.04 20.2C73.6133 20.2 74.9733 20.3867 76.12 20.76C77.2933 21.1333 78.2533 21.6533 79 22.32C79.7733 22.96 80.3333 23.72 80.68 24.6C81.0533 25.48 81.24 26.4133 81.24 27.4C81.24 29.1067 80.7333 30.36 79.72 31.16C78.7333 31.9333 77.32 32.32 75.48 32.32C74.8933 32.32 74.52 32.28 74.36 32.2C74.2267 32.0933 74.16 31.8933 74.16 31.6C74.1333 30.6933 74.1067 29.9067 74.08 29.24C74.0533 28.5733 73.96 28.0267 73.8 27.6C73.64 27.1467 73.3867 26.8267 73.04 26.64C72.72 26.4267 72.2667 26.32 71.68 26.32C70.8267 26.32 70.0933 26.5067 69.48 26.88C68.8933 27.2267 68.3867 27.6933 67.96 28.28C67.56 28.84 67.2267 29.48 66.96 30.2C66.72 30.92 66.52 31.6533 66.36 32.4C66.2267 33.1467 66.1333 33.8667 66.08 34.56C66.0533 35.2533 66.04 35.8533 66.04 36.36C66.04 38.8133 66.44 40.56 67.24 41.6C68.0667 42.64 69.3333 43.16 71.04 43.16ZM97.6922 20.16C99.6389 20.16 101.306 20.44 102.692 21C104.079 21.5333 105.212 22.3333 106.092 23.4C106.972 24.44 107.612 25.72 108.012 27.24C108.412 28.7333 108.612 30.44 108.612 32.36C108.612 33.4267 108.532 34.5867 108.372 35.84C108.239 37.0933 107.972 38.36 107.572 39.64C107.199 40.8933 106.679 42.1067 106.012 43.28C105.346 44.4533 104.479 45.4933 103.412 46.4C102.372 47.3067 101.119 48.04 99.6522 48.6C98.1855 49.1333 96.4522 49.4 94.4522 49.4C92.2389 49.4 90.3989 49.0667 88.9322 48.4C87.4922 47.7333 86.3322 46.84 85.4522 45.72C84.5989 44.5733 83.9855 43.2267 83.6122 41.68C83.2655 40.1333 83.0922 38.48 83.0922 36.72C83.0922 34.64 83.3322 32.6133 83.8122 30.64C84.2922 28.64 85.0922 26.8667 86.2122 25.32C87.3589 23.7733 88.8655 22.5333 90.7322 21.6C92.5989 20.64 94.9189 20.16 97.6922 20.16ZM96.8522 26.36C95.9189 26.36 95.1055 26.5333 94.4122 26.88C93.7455 27.2 93.1722 27.64 92.6922 28.2C92.2389 28.76 91.8655 29.3867 91.5722 30.08C91.3055 30.7733 91.0922 31.4933 90.9322 32.24C90.7722 32.96 90.6655 33.6667 90.6122 34.36C90.5589 35.0267 90.5322 35.6267 90.5322 36.16C90.5322 38.5867 90.9322 40.36 91.7322 41.48C92.5589 42.6 93.7189 43.16 95.2122 43.16C96.4389 43.16 97.4389 42.7733 98.2122 42C98.9855 41.2 99.5855 40.2533 100.012 39.16C100.466 38.04 100.772 36.8933 100.932 35.72C101.092 34.52 101.172 33.5067 101.172 32.68C101.172 30.7333 100.839 29.2 100.172 28.08C99.5055 26.9333 98.3989 26.36 96.8522 26.36ZM129.89 49C128.796 49 127.983 48.84 127.45 48.52C126.916 48.2 126.53 47.8 126.29 47.32C124.903 44.4667 123.596 41.7333 122.37 39.12C121.17 36.5067 119.943 33.8667 118.69 31.2C118.716 34.08 118.756 36.9467 118.81 39.8C118.863 42.6533 118.916 45.52 118.97 48.4C118.97 48.8 118.756 49 118.33 49H116.13C114.61 49 113.53 48.7067 112.89 48.12C112.276 47.5067 111.97 46.6133 111.97 45.44C111.97 45.12 111.983 44.5867 112.01 43.84C112.063 43.0667 112.13 42.16 112.21 41.12C112.29 40.08 112.37 38.9467 112.45 37.72C112.556 36.4667 112.663 35.2 112.77 33.92C112.93 31.8933 113.063 30.2133 113.17 28.88C113.276 27.5467 113.356 26.4267 113.41 25.52C113.49 24.5867 113.543 23.8 113.57 23.16C113.596 22.4933 113.623 21.84 113.65 21.2C113.65 20.8 113.863 20.6 114.29 20.6H117.49C118.37 20.6 119.09 20.7067 119.65 20.92C120.21 21.1067 120.663 21.3733 121.01 21.72C121.383 22.0667 121.676 22.4667 121.89 22.92C122.103 23.3467 122.303 23.8 122.49 24.28C123.13 25.9333 123.69 27.36 124.17 28.56C124.676 29.76 125.116 30.8133 125.49 31.72C125.863 32.6267 126.183 33.4133 126.45 34.08C126.743 34.7467 127.01 35.36 127.25 35.92C127.49 36.48 127.73 37.0267 127.97 37.56C128.21 38.0667 128.463 38.6267 128.73 39.24C128.73 37.6667 128.716 36.0533 128.69 34.4C128.69 32.72 128.676 31.0933 128.65 29.52C128.65 27.92 128.636 26.3867 128.61 24.92C128.61 23.4533 128.61 22.1333 128.61 20.96C128.61 20.72 128.836 20.6 129.29 20.6H131.49C132.37 20.6 133.063 20.6933 133.57 20.88C134.103 21.04 134.516 21.2933 134.81 21.64C135.103 21.96 135.29 22.36 135.37 22.84C135.476 23.32 135.53 23.8667 135.53 24.48C135.53 25.1467 135.49 26.1733 135.41 27.56C135.33 28.92 135.236 30.4533 135.13 32.16C135.023 33.8667 134.903 35.64 134.77 37.48C134.636 39.2933 134.503 40.9733 134.37 42.52C134.263 44.0667 134.156 45.3867 134.05 46.48C133.97 47.5467 133.916 48.1733 133.89 48.36C133.89 48.5733 133.81 48.7333 133.65 48.84C133.516 48.9467 133.356 49 133.17 49H129.89ZM152.469 26.2L150.949 48.4C150.922 48.8 150.775 49 150.509 49H148.309C146.815 49 145.749 48.7067 145.109 48.12C144.469 47.5333 144.149 46.6933 144.149 45.6C144.149 45.2 144.162 44.6 144.189 43.8C144.242 43 144.309 42.0667 144.389 41C144.469 39.9067 144.549 38.7333 144.629 37.48C144.735 36.2 144.842 34.92 144.949 33.64C145.055 32.3333 145.149 31.04 145.229 29.76C145.335 28.48 145.429 27.2933 145.509 26.2H139.109C138.815 26.2 138.669 26.0133 138.669 25.64L138.789 23.4C138.815 23.0533 138.869 22.72 138.949 22.4C139.055 22.0533 139.215 21.7467 139.429 21.48C139.642 21.2133 139.909 21 140.229 20.84C140.575 20.68 140.989 20.6 141.469 20.6H159.349C159.509 20.6 159.655 20.64 159.789 20.72C159.922 20.8 159.989 20.9467 159.989 21.16L159.829 23.52C159.775 24.32 159.549 24.9733 159.149 25.48C158.775 25.96 157.989 26.2 156.789 26.2H152.469ZM172.07 20.6C172.736 20.6 173.283 20.7333 173.71 21C174.163 21.24 174.536 21.5733 174.83 22C175.123 22.4 175.363 22.8667 175.55 23.4C175.736 23.9333 175.896 24.48 176.03 25.04C177.096 29.36 177.976 32.92 178.67 35.72C179.363 38.52 179.91 40.7867 180.31 42.52C180.71 44.2267 180.99 45.4933 181.15 46.32C181.31 47.1467 181.39 47.72 181.39 48.04C181.39 48.4133 181.296 48.6667 181.11 48.8C180.95 48.9333 180.683 49 180.31 49H178.27C177.123 49 176.203 48.8667 175.51 48.6C174.843 48.3067 174.323 47.8933 173.95 47.36C173.603 46.8267 173.35 46.1867 173.19 45.44C173.03 44.6667 172.896 43.8 172.79 42.84H165.83L164.51 48.36C164.376 48.7867 164.07 49 163.59 49H161.47C161.043 49 160.603 48.96 160.15 48.88C159.696 48.7733 159.283 48.6133 158.91 48.4C158.563 48.1867 158.27 47.92 158.03 47.6C157.79 47.2533 157.67 46.84 157.67 46.36C157.67 45.7733 157.856 44.8133 158.23 43.48C158.603 42.1467 159.07 40.64 159.63 38.96C160.216 37.2533 160.856 35.48 161.55 33.64C162.27 31.7733 162.963 30.0133 163.63 28.36C164.296 26.7067 164.896 25.2533 165.43 24C165.99 22.7467 166.416 21.8667 166.71 21.36C166.923 20.9867 167.11 20.7733 167.27 20.72C167.456 20.64 167.79 20.6 168.27 20.6H172.07ZM167.27 37.04H171.87L170.19 26.48L167.27 37.04ZM195.845 43.16C196.938 43.16 197.858 43 198.605 42.68C199.378 42.36 200.031 42 200.565 41.6C201.098 41.2 201.565 40.84 201.965 40.52C202.391 40.2 202.818 40.04 203.245 40.04C203.778 40.04 204.045 40.44 204.045 41.24C204.045 41.6667 203.991 42.1867 203.885 42.8C203.778 43.3867 203.631 44.0533 203.445 44.8C203.338 45.2533 203.071 45.7467 202.645 46.28C202.245 46.8133 201.685 47.32 200.965 47.8C200.245 48.2533 199.351 48.64 198.285 48.96C197.245 49.2533 196.045 49.4 194.685 49.4C193.325 49.4 191.965 49.2 190.605 48.8C189.245 48.4 188.031 47.72 186.965 46.76C185.898 45.8 185.031 44.5067 184.365 42.88C183.698 41.2533 183.365 39.2133 183.365 36.76C183.365 35.88 183.418 34.8667 183.525 33.72C183.658 32.5467 183.898 31.3467 184.245 30.12C184.591 28.8933 185.071 27.6933 185.685 26.52C186.325 25.32 187.138 24.2533 188.125 23.32C189.111 22.3867 190.311 21.64 191.725 21.08C193.165 20.4933 194.871 20.2 196.845 20.2C198.418 20.2 199.778 20.3867 200.925 20.76C202.098 21.1333 203.058 21.6533 203.805 22.32C204.578 22.96 205.138 23.72 205.485 24.6C205.858 25.48 206.045 26.4133 206.045 27.4C206.045 29.1067 205.538 30.36 204.525 31.16C203.538 31.9333 202.125 32.32 200.285 32.32C199.698 32.32 199.325 32.28 199.165 32.2C199.031 32.0933 198.965 31.8933 198.965 31.6C198.938 30.6933 198.911 29.9067 198.885 29.24C198.858 28.5733 198.765 28.0267 198.605 27.6C198.445 27.1467 198.191 26.8267 197.845 26.64C197.525 26.4267 197.071 26.32 196.485 26.32C195.631 26.32 194.898 26.5067 194.285 26.88C193.698 27.2267 193.191 27.6933 192.765 28.28C192.365 28.84 192.031 29.48 191.765 30.2C191.525 30.92 191.325 31.6533 191.165 32.4C191.031 33.1467 190.938 33.8667 190.885 34.56C190.858 35.2533 190.845 35.8533 190.845 36.36C190.845 38.8133 191.245 40.56 192.045 41.6C192.871 42.64 194.138 43.16 195.845 43.16ZM221.492 26.2L219.972 48.4C219.946 48.8 219.799 49 219.532 49H217.332C215.839 49 214.772 48.7067 214.132 48.12C213.492 47.5333 213.172 46.6933 213.172 45.6C213.172 45.2 213.186 44.6 213.212 43.8C213.266 43 213.332 42.0667 213.412 41C213.492 39.9067 213.572 38.7333 213.652 37.48C213.759 36.2 213.866 34.92 213.972 33.64C214.079 32.3333 214.172 31.04 214.252 29.76C214.359 28.48 214.452 27.2933 214.532 26.2H208.132C207.839 26.2 207.692 26.0133 207.692 25.64L207.812 23.4C207.839 23.0533 207.892 22.72 207.972 22.4C208.079 22.0533 208.239 21.7467 208.452 21.48C208.666 21.2133 208.932 21 209.252 20.84C209.599 20.68 210.012 20.6 210.492 20.6H228.372C228.532 20.6 228.679 20.64 228.812 20.72C228.946 20.8 229.012 20.9467 229.012 21.16L228.852 23.52C228.799 24.32 228.572 24.9733 228.172 25.48C227.799 25.96 227.012 26.2 225.812 26.2H221.492ZM259.87 35.96C259.79 36.76 259.67 37.6533 259.51 38.64C259.35 39.6 259.097 40.5867 258.75 41.6C258.43 42.5867 257.99 43.5467 257.43 44.48C256.87 45.4133 256.15 46.2533 255.27 47C254.39 47.72 253.323 48.3067 252.07 48.76C250.843 49.1867 249.377 49.4 247.67 49.4C245.937 49.4 244.457 49.16 243.23 48.68C242.003 48.1733 241.003 47.4933 240.23 46.64C239.457 45.76 238.897 44.7467 238.55 43.6C238.203 42.4533 238.03 41.2267 238.03 39.92C238.03 39.3333 238.057 38.5467 238.11 37.56C238.163 36.5467 238.23 35.4533 238.31 34.28C238.417 33.1067 238.523 31.8933 238.63 30.64C238.737 29.36 238.83 28.1467 238.91 27C239.017 25.8533 239.11 24.8267 239.19 23.92C239.27 22.9867 239.323 22.28 239.35 21.8C239.377 21.2933 239.443 20.9733 239.55 20.84C239.657 20.68 239.817 20.6 240.03 20.6H242.23C243.857 20.6 244.95 20.9467 245.51 21.64C246.07 22.3333 246.35 23.36 246.35 24.72C246.35 24.8 246.323 25.16 246.27 25.8C246.243 26.4133 246.19 27.1733 246.11 28.08C246.057 28.9867 245.99 29.9733 245.91 31.04C245.857 32.1067 245.79 33.12 245.71 34.08C245.657 35.04 245.603 35.88 245.55 36.6C245.523 37.32 245.51 37.8 245.51 38.04C245.51 38.4933 245.523 39.0133 245.55 39.6C245.603 40.1867 245.71 40.7467 245.87 41.28C246.057 41.8133 246.337 42.2667 246.71 42.64C247.11 42.9867 247.67 43.16 248.39 43.16C249.297 43.16 250.03 42.8533 250.59 42.24C251.177 41.6267 251.617 40.8933 251.91 40.04C252.23 39.1867 252.443 38.32 252.55 37.44C252.683 36.56 252.777 35.84 252.83 35.28C252.937 33.92 253.043 32.52 253.15 31.08C253.283 29.64 253.39 28.2933 253.47 27.04C253.577 25.7867 253.657 24.6933 253.71 23.76C253.763 22.8267 253.79 22.1867 253.79 21.84C253.79 21.3067 253.83 20.9733 253.91 20.84C253.99 20.68 254.163 20.6 254.43 20.6H256.63C257.537 20.6 258.243 20.68 258.75 20.84C259.283 21 259.683 21.2133 259.95 21.48C260.217 21.7467 260.377 22.0533 260.43 22.4C260.51 22.7467 260.55 23.1067 260.55 23.48C260.55 23.8267 260.523 24.48 260.47 25.44C260.443 26.4 260.403 27.4933 260.35 28.72C260.297 29.9467 260.23 31.2133 260.15 32.52C260.07 33.8267 259.977 34.9733 259.87 35.96ZM275.157 20.2C277.664 20.2 279.517 20.7467 280.717 21.84C281.944 22.9333 282.557 24.36 282.557 26.12C282.557 27.6133 282.144 28.76 281.317 29.56C280.491 30.3333 279.304 30.72 277.757 30.72C277.277 30.72 276.971 30.68 276.837 30.6C276.704 30.4933 276.637 30.2933 276.637 30C276.637 29.7333 276.611 29.3867 276.557 28.96C276.531 28.5333 276.437 28.12 276.277 27.72C276.117 27.32 275.864 26.9867 275.517 26.72C275.171 26.4267 274.691 26.28 274.077 26.28C273.224 26.28 272.464 26.5467 271.797 27.08C271.131 27.5867 270.797 28.2533 270.797 29.08C270.797 29.8 271.064 30.3867 271.597 30.84C272.157 31.2933 272.851 31.72 273.677 32.12C274.504 32.4933 275.397 32.88 276.357 33.28C277.344 33.68 278.251 34.2133 279.077 34.88C279.904 35.52 280.584 36.3333 281.117 37.32C281.677 38.28 281.957 39.5067 281.957 41C281.957 42.1733 281.757 43.28 281.357 44.32C280.984 45.3333 280.411 46.2267 279.637 47C278.891 47.7467 277.931 48.3333 276.757 48.76C275.611 49.1867 274.264 49.4 272.717 49.4C271.384 49.4 270.144 49.2533 268.997 48.96C267.877 48.6667 266.891 48.3067 266.037 47.88C265.211 47.4267 264.557 46.9467 264.077 46.44C263.597 45.9067 263.357 45.4267 263.357 45C263.357 43.24 263.451 41.9733 263.637 41.2C263.851 40.4267 264.224 40.04 264.757 40.04C265.131 40.04 265.517 40.2 265.917 40.52C266.344 40.84 266.824 41.2 267.357 41.6C267.891 42 268.504 42.36 269.197 42.68C269.917 43 270.744 43.16 271.677 43.16C272.051 43.16 272.411 43.1333 272.757 43.08C273.131 43 273.451 42.88 273.717 42.72C274.011 42.56 274.237 42.3467 274.397 42.08C274.584 41.8133 274.677 41.4933 274.677 41.12C274.677 40.4533 274.424 39.92 273.917 39.52C273.411 39.12 272.771 38.76 271.997 38.44C271.224 38.0933 270.384 37.7467 269.477 37.4C268.597 37.0267 267.771 36.5333 266.997 35.92C266.224 35.28 265.584 34.4667 265.077 33.48C264.571 32.4933 264.317 31.2267 264.317 29.68C264.317 27.9467 264.637 26.48 265.277 25.28C265.944 24.08 266.784 23.1067 267.797 22.36C268.837 21.5867 269.997 21.04 271.277 20.72C272.584 20.3733 273.877 20.2 275.157 20.2Z" fill="#ffffff"/>
</g>
<defs>
<clipPath id="clip0_308_8458">
<rect width="335" height="69" fill="white"/>
</clipPath>
</defs>
</svg>
