<svg width="335" height="69" viewBox="0 0 335 69" fill="none" xmlns="http://www.w3.org/2000/svg">
<g clip-path="url(#clip0_308_7969)">
<path d="M331.974 62.2393C226.87 71.1913 116.903 71.3442 3.1217 62.2393C-0.727466 42.3564 -1.35993 23.5436 3.1217 6.387C119.114 -2.02991 229.583 -2.22526 331.974 6.387C335.952 25.2422 336.061 43.8597 331.974 62.2393Z" fill="#be27ce" fill-opacity="1"/>
<path d="M54.2 20.16C56.1467 20.16 57.8133 20.44 59.2 21C60.5867 21.5333 61.72 22.3333 62.6 23.4C63.48 24.44 64.12 25.72 64.52 27.24C64.92 28.7333 65.12 30.44 65.12 32.36C65.12 33.4267 65.04 34.5867 64.88 35.84C64.7467 37.0933 64.48 38.36 64.08 39.64C63.7067 40.8933 63.1867 42.1067 62.52 43.28C61.8533 44.4533 60.9867 45.4933 59.92 46.4C58.88 47.3067 57.6267 48.04 56.16 48.6C54.6933 49.1333 52.96 49.4 50.96 49.4C48.7467 49.4 46.9067 49.0667 45.44 48.4C44 47.7333 42.84 46.84 41.96 45.72C41.1067 44.5733 40.4933 43.2267 40.12 41.68C39.7733 40.1333 39.6 38.48 39.6 36.72C39.6 34.64 39.84 32.6133 40.32 30.64C40.8 28.64 41.6 26.8667 42.72 25.32C43.8667 23.7733 45.3733 22.5333 47.24 21.6C49.1067 20.64 51.4267 20.16 54.2 20.16ZM53.36 26.36C52.4267 26.36 51.6133 26.5333 50.92 26.88C50.2533 27.2 49.68 27.64 49.2 28.2C48.7467 28.76 48.3733 29.3867 48.08 30.08C47.8133 30.7733 47.6 31.4933 47.44 32.24C47.28 32.96 47.1733 33.6667 47.12 34.36C47.0667 35.0267 47.04 35.6267 47.04 36.16C47.04 38.5867 47.44 40.36 48.24 41.48C49.0667 42.6 50.2267 43.16 51.72 43.16C52.9467 43.16 53.9467 42.7733 54.72 42C55.4933 41.2 56.0933 40.2533 56.52 39.16C56.9733 38.04 57.28 36.8933 57.44 35.72C57.6 34.52 57.68 33.5067 57.68 32.68C57.68 30.7333 57.3467 29.2 56.68 28.08C56.0133 26.9333 54.9067 26.36 53.36 26.36ZM90.5575 35.96C90.4775 36.76 90.3575 37.6533 90.1975 38.64C90.0375 39.6 89.7842 40.5867 89.4375 41.6C89.1175 42.5867 88.6775 43.5467 88.1175 44.48C87.5575 45.4133 86.8375 46.2533 85.9575 47C85.0775 47.72 84.0108 48.3067 82.7575 48.76C81.5308 49.1867 80.0642 49.4 78.3575 49.4C76.6242 49.4 75.1442 49.16 73.9175 48.68C72.6908 48.1733 71.6908 47.4933 70.9175 46.64C70.1442 45.76 69.5842 44.7467 69.2375 43.6C68.8908 42.4533 68.7175 41.2267 68.7175 39.92C68.7175 39.3333 68.7442 38.5467 68.7975 37.56C68.8508 36.5467 68.9175 35.4533 68.9975 34.28C69.1042 33.1067 69.2108 31.8933 69.3175 30.64C69.4242 29.36 69.5175 28.1467 69.5975 27C69.7042 25.8533 69.7975 24.8267 69.8775 23.92C69.9575 22.9867 70.0108 22.28 70.0375 21.8C70.0642 21.2933 70.1308 20.9733 70.2375 20.84C70.3442 20.68 70.5042 20.6 70.7175 20.6H72.9175C74.5442 20.6 75.6375 20.9467 76.1975 21.64C76.7575 22.3333 77.0375 23.36 77.0375 24.72C77.0375 24.8 77.0108 25.16 76.9575 25.8C76.9308 26.4133 76.8775 27.1733 76.7975 28.08C76.7442 28.9867 76.6775 29.9733 76.5975 31.04C76.5442 32.1067 76.4775 33.12 76.3975 34.08C76.3442 35.04 76.2908 35.88 76.2375 36.6C76.2108 37.32 76.1975 37.8 76.1975 38.04C76.1975 38.4933 76.2108 39.0133 76.2375 39.6C76.2908 40.1867 76.3975 40.7467 76.5575 41.28C76.7442 41.8133 77.0242 42.2667 77.3975 42.64C77.7975 42.9867 78.3575 43.16 79.0775 43.16C79.9842 43.16 80.7175 42.8533 81.2775 42.24C81.8642 41.6267 82.3042 40.8933 82.5975 40.04C82.9175 39.1867 83.1308 38.32 83.2375 37.44C83.3708 36.56 83.4642 35.84 83.5175 35.28C83.6242 33.92 83.7308 32.52 83.8375 31.08C83.9708 29.64 84.0775 28.2933 84.1575 27.04C84.2642 25.7867 84.3442 24.6933 84.3975 23.76C84.4508 22.8267 84.4775 22.1867 84.4775 21.84C84.4775 21.3067 84.5175 20.9733 84.5975 20.84C84.6775 20.68 84.8508 20.6 85.1175 20.6H87.3175C88.2242 20.6 88.9308 20.68 89.4375 20.84C89.9708 21 90.3708 21.2133 90.6375 21.48C90.9042 21.7467 91.0642 22.0533 91.1175 22.4C91.1975 22.7467 91.2375 23.1067 91.2375 23.48C91.2375 23.8267 91.2108 24.48 91.1575 25.44C91.1308 26.4 91.0908 27.4933 91.0375 28.72C90.9842 29.9467 90.9175 31.2133 90.8375 32.52C90.7575 33.8267 90.6642 34.9733 90.5575 35.96ZM99.0047 49C97.4847 49 96.4047 48.7067 95.7647 48.12C95.1514 47.5067 94.8447 46.6133 94.8447 45.44C94.8447 45.12 94.858 44.5867 94.8847 43.84C94.938 43.0667 95.0047 42.16 95.0847 41.12C95.1647 40.08 95.2447 38.9467 95.3247 37.72C95.4314 36.4667 95.538 35.2 95.6447 33.92C95.858 31.2267 96.0047 29.04 96.0847 27.36C96.1914 25.68 96.2714 24.36 96.3247 23.4C96.4047 22.2 96.4847 21.44 96.5647 21.12C96.6447 20.7733 96.818 20.6 97.0847 20.6C97.9114 20.6 98.7514 20.5867 99.6047 20.56C100.485 20.5067 101.325 20.4533 102.125 20.4C102.925 20.3467 103.671 20.3067 104.365 20.28C105.085 20.2267 105.725 20.2 106.285 20.2C107.991 20.2 109.458 20.4133 110.685 20.84C111.911 21.2667 112.898 21.8667 113.645 22.64C114.418 23.4133 114.978 24.3467 115.325 25.44C115.698 26.5333 115.885 27.76 115.885 29.12C115.885 31.2 115.471 33.0533 114.645 34.68C113.818 36.3067 112.498 37.5467 110.685 38.4L114.045 43.2C114.658 44.1067 115.125 44.8133 115.445 45.32C115.765 45.8 115.925 46.16 115.925 46.4C115.925 46.5867 115.805 46.8533 115.565 47.2C115.351 47.52 115.018 47.8533 114.565 48.2C114.138 48.52 113.605 48.8 112.965 49.04C112.351 49.28 111.658 49.4 110.885 49.4C110.031 49.4 109.285 49.12 108.645 48.56C108.031 48 107.471 47.2667 106.965 46.36C106.485 45.4267 106.058 44.36 105.685 43.16C105.338 41.96 105.005 40.7067 104.685 39.4C103.725 39.3467 102.938 39.2533 102.325 39.12C102.245 40.2933 102.165 41.4133 102.085 42.48C102.005 43.5467 101.938 44.5067 101.885 45.36C101.831 46.1867 101.778 46.88 101.725 47.44C101.671 47.9733 101.645 48.2933 101.645 48.4C101.618 48.6133 101.565 48.7733 101.485 48.88C101.405 48.96 101.245 49 101.005 49H99.0047ZM105.485 26.2C105.165 26.2 104.805 26.2267 104.405 26.28C104.005 26.3067 103.578 26.3467 103.125 26.4C103.071 27.3333 103.005 28.4533 102.925 29.76C102.871 31.04 102.791 32.4133 102.685 33.88C103.618 34.0933 104.431 34.2 105.125 34.2C105.951 34.2 106.618 34.04 107.125 33.72C107.658 33.4 108.071 33.0133 108.365 32.56C108.658 32.08 108.845 31.5733 108.925 31.04C109.031 30.5067 109.085 30.0267 109.085 29.6C109.085 28.5067 108.818 27.6667 108.285 27.08C107.751 26.4933 106.818 26.2 105.485 26.2ZM139.126 20.2C141.633 20.2 143.486 20.7467 144.686 21.84C145.913 22.9333 146.526 24.36 146.526 26.12C146.526 27.6133 146.113 28.76 145.286 29.56C144.459 30.3333 143.273 30.72 141.726 30.72C141.246 30.72 140.939 30.68 140.806 30.6C140.673 30.4933 140.606 30.2933 140.606 30C140.606 29.7333 140.579 29.3867 140.526 28.96C140.499 28.5333 140.406 28.12 140.246 27.72C140.086 27.32 139.833 26.9867 139.486 26.72C139.139 26.4267 138.659 26.28 138.046 26.28C137.193 26.28 136.433 26.5467 135.766 27.08C135.099 27.5867 134.766 28.2533 134.766 29.08C134.766 29.8 135.033 30.3867 135.566 30.84C136.126 31.2933 136.819 31.72 137.646 32.12C138.473 32.4933 139.366 32.88 140.326 33.28C141.313 33.68 142.219 34.2133 143.046 34.88C143.873 35.52 144.553 36.3333 145.086 37.32C145.646 38.28 145.926 39.5067 145.926 41C145.926 42.1733 145.726 43.28 145.326 44.32C144.953 45.3333 144.379 46.2267 143.606 47C142.859 47.7467 141.899 48.3333 140.726 48.76C139.579 49.1867 138.233 49.4 136.686 49.4C135.353 49.4 134.113 49.2533 132.966 48.96C131.846 48.6667 130.859 48.3067 130.006 47.88C129.179 47.4267 128.526 46.9467 128.046 46.44C127.566 45.9067 127.326 45.4267 127.326 45C127.326 43.24 127.419 41.9733 127.606 41.2C127.819 40.4267 128.193 40.04 128.726 40.04C129.099 40.04 129.486 40.2 129.886 40.52C130.313 40.84 130.793 41.2 131.326 41.6C131.859 42 132.473 42.36 133.166 42.68C133.886 43 134.713 43.16 135.646 43.16C136.019 43.16 136.379 43.1333 136.726 43.08C137.099 43 137.419 42.88 137.686 42.72C137.979 42.56 138.206 42.3467 138.366 42.08C138.553 41.8133 138.646 41.4933 138.646 41.12C138.646 40.4533 138.393 39.92 137.886 39.52C137.379 39.12 136.739 38.76 135.966 38.44C135.193 38.0933 134.353 37.7467 133.446 37.4C132.566 37.0267 131.739 36.5333 130.966 35.92C130.193 35.28 129.553 34.4667 129.046 33.48C128.539 32.4933 128.286 31.2267 128.286 29.68C128.286 27.9467 128.606 26.48 129.246 25.28C129.913 24.08 130.753 23.1067 131.766 22.36C132.806 21.5867 133.966 21.04 135.246 20.72C136.553 20.3733 137.846 20.2 139.126 20.2ZM153.927 49C152.433 49 151.367 48.7067 150.727 48.12C150.087 47.5333 149.767 46.6933 149.767 45.6C149.767 45.0667 149.807 44.16 149.887 42.88C149.967 41.5733 150.073 40.0933 150.207 38.44C150.34 36.7867 150.473 35.04 150.607 33.2C150.74 31.36 150.873 29.6267 151.007 28C151.14 26.3733 151.247 24.9467 151.327 23.72C151.407 22.4933 151.447 21.6533 151.447 21.2C151.447 20.8 151.66 20.6 152.087 20.6H166.167C166.327 20.6 166.473 20.64 166.607 20.72C166.74 20.8 166.807 20.9467 166.807 21.16L166.647 23.52C166.593 24.32 166.367 24.9733 165.967 25.48C165.593 25.96 164.807 26.2 163.607 26.2H158.087L157.687 31.84H163.367C163.527 31.84 163.673 31.88 163.807 31.96C163.94 32.04 164.007 32.1867 164.007 32.4L163.847 34.76C163.793 35.56 163.567 36.2133 163.167 36.72C162.793 37.2 162.007 37.44 160.807 37.44H157.327L156.887 43.4H165.687C165.847 43.4 165.993 43.4533 166.127 43.56C166.26 43.64 166.327 43.7733 166.327 43.96L166.167 46.32C166.113 47.12 165.887 47.7733 165.487 48.28C165.113 48.76 164.327 49 163.127 49H153.927ZM173.966 49C172.446 49 171.366 48.7067 170.726 48.12C170.112 47.5067 169.806 46.6133 169.806 45.44C169.806 45.12 169.819 44.5867 169.846 43.84C169.899 43.0667 169.966 42.16 170.046 41.12C170.126 40.08 170.206 38.9467 170.286 37.72C170.392 36.4667 170.499 35.2 170.606 33.92C170.819 31.2267 170.966 29.04 171.046 27.36C171.152 25.68 171.232 24.36 171.286 23.4C171.366 22.2 171.446 21.44 171.526 21.12C171.606 20.7733 171.779 20.6 172.046 20.6C172.872 20.6 173.712 20.5867 174.566 20.56C175.446 20.5067 176.286 20.4533 177.086 20.4C177.886 20.3467 178.632 20.3067 179.326 20.28C180.046 20.2267 180.686 20.2 181.246 20.2C182.952 20.2 184.419 20.4133 185.646 20.84C186.872 21.2667 187.859 21.8667 188.606 22.64C189.379 23.4133 189.939 24.3467 190.286 25.44C190.659 26.5333 190.846 27.76 190.846 29.12C190.846 31.2 190.432 33.0533 189.606 34.68C188.779 36.3067 187.459 37.5467 185.646 38.4L189.006 43.2C189.619 44.1067 190.086 44.8133 190.406 45.32C190.726 45.8 190.886 46.16 190.886 46.4C190.886 46.5867 190.766 46.8533 190.526 47.2C190.312 47.52 189.979 47.8533 189.526 48.2C189.099 48.52 188.566 48.8 187.926 49.04C187.312 49.28 186.619 49.4 185.846 49.4C184.992 49.4 184.246 49.12 183.606 48.56C182.992 48 182.432 47.2667 181.926 46.36C181.446 45.4267 181.019 44.36 180.646 43.16C180.299 41.96 179.966 40.7067 179.646 39.4C178.686 39.3467 177.899 39.2533 177.286 39.12C177.206 40.2933 177.126 41.4133 177.046 42.48C176.966 43.5467 176.899 44.5067 176.846 45.36C176.792 46.1867 176.739 46.88 176.686 47.44C176.632 47.9733 176.606 48.2933 176.606 48.4C176.579 48.6133 176.526 48.7733 176.446 48.88C176.366 48.96 176.206 49 175.966 49H173.966ZM180.446 26.2C180.126 26.2 179.766 26.2267 179.366 26.28C178.966 26.3067 178.539 26.3467 178.086 26.4C178.032 27.3333 177.966 28.4533 177.886 29.76C177.832 31.04 177.752 32.4133 177.646 33.88C178.579 34.0933 179.392 34.2 180.086 34.2C180.912 34.2 181.579 34.04 182.086 33.72C182.619 33.4 183.032 33.0133 183.326 32.56C183.619 32.08 183.806 31.5733 183.886 31.04C183.992 30.5067 184.046 30.0267 184.046 29.6C184.046 28.5067 183.779 27.6667 183.246 27.08C182.712 26.4933 181.779 26.2 180.446 26.2ZM204.421 43.04C204.981 41.1733 205.461 39.5333 205.861 38.12C206.261 36.7067 206.661 35.2533 207.061 33.76C207.461 32.2667 207.887 30.5867 208.341 28.72C208.794 26.8533 209.367 24.5333 210.061 21.76C210.194 21.2533 210.341 20.9333 210.501 20.8C210.687 20.64 211.087 20.56 211.701 20.56C211.967 20.56 212.381 20.5867 212.941 20.64C213.527 20.6667 214.114 20.7867 214.701 21C215.287 21.1867 215.807 21.48 216.261 21.88C216.714 22.2533 216.941 22.8 216.941 23.52C216.941 24.16 216.754 25.1467 216.381 26.48C216.034 27.7867 215.581 29.28 215.021 30.96C214.461 32.64 213.834 34.4 213.141 36.24C212.474 38.0533 211.807 39.7733 211.141 41.4C210.474 43.0267 209.861 44.4533 209.301 45.68C208.767 46.9067 208.367 47.76 208.101 48.24C207.807 48.7467 207.287 49 206.541 49H202.341C201.674 49 201.114 48.88 200.661 48.64C200.234 48.3733 199.874 48.0267 199.581 47.6C199.287 47.1733 199.047 46.6933 198.861 46.16C198.674 45.6 198.514 45.04 198.381 44.48C197.474 40.6933 196.687 37.4133 196.021 34.64C195.381 31.84 194.847 29.5067 194.421 27.64C193.994 25.7467 193.674 24.2933 193.461 23.28C193.247 22.2667 193.141 21.64 193.141 21.4C193.141 21.1067 193.354 20.8933 193.781 20.76C194.207 20.6 194.927 20.52 195.941 20.52C197.007 20.52 197.874 20.6267 198.541 20.84C199.234 21.0533 199.781 21.36 200.181 21.76C200.607 22.1333 200.914 22.5867 201.101 23.12C201.314 23.6267 201.461 24.1867 201.541 24.8C201.621 25.2533 201.701 25.8 201.781 26.44C201.861 27.0533 201.994 28 202.181 29.28C202.394 30.56 202.674 32.2933 203.021 34.48C203.367 36.64 203.834 39.4933 204.421 43.04ZM223.263 49C221.769 49 220.703 48.7067 220.063 48.12C219.423 47.5333 219.103 46.6933 219.103 45.6C219.103 45.0667 219.143 44.16 219.223 42.88C219.303 41.5733 219.409 40.0933 219.543 38.44C219.676 36.7867 219.809 35.04 219.943 33.2C220.076 31.36 220.209 29.6267 220.343 28C220.476 26.3733 220.583 24.9467 220.663 23.72C220.743 22.4933 220.783 21.6533 220.783 21.2C220.783 20.8 220.996 20.6 221.423 20.6H223.623C225.249 20.6 226.343 20.9467 226.903 21.64C227.463 22.3333 227.743 23.36 227.743 24.72C227.743 24.8533 227.716 25.28 227.663 26C227.636 26.72 227.583 27.6267 227.503 28.72C227.423 29.8133 227.329 31.04 227.223 32.4C227.143 33.7333 227.049 35.1067 226.943 36.52C226.863 37.9333 226.769 39.32 226.663 40.68C226.583 42.0133 226.503 43.2267 226.423 44.32C226.343 45.4133 226.276 46.3333 226.223 47.08C226.169 47.8 226.129 48.24 226.103 48.4C226.076 48.6133 226.023 48.7733 225.943 48.88C225.863 48.96 225.703 49 225.463 49H223.263ZM243.681 43.16C244.774 43.16 245.694 43 246.441 42.68C247.214 42.36 247.867 42 248.401 41.6C248.934 41.2 249.401 40.84 249.801 40.52C250.227 40.2 250.654 40.04 251.081 40.04C251.614 40.04 251.881 40.44 251.881 41.24C251.881 41.6667 251.827 42.1867 251.721 42.8C251.614 43.3867 251.467 44.0533 251.281 44.8C251.174 45.2533 250.907 45.7467 250.481 46.28C250.081 46.8133 249.521 47.32 248.801 47.8C248.081 48.2533 247.187 48.64 246.121 48.96C245.081 49.2533 243.881 49.4 242.521 49.4C241.161 49.4 239.801 49.2 238.441 48.8C237.081 48.4 235.867 47.72 234.801 46.76C233.734 45.8 232.867 44.5067 232.201 42.88C231.534 41.2533 231.201 39.2133 231.201 36.76C231.201 35.88 231.254 34.8667 231.361 33.72C231.494 32.5467 231.734 31.3467 232.081 30.12C232.427 28.8933 232.907 27.6933 233.521 26.52C234.161 25.32 234.974 24.2533 235.961 23.32C236.947 22.3867 238.147 21.64 239.561 21.08C241.001 20.4933 242.707 20.2 244.681 20.2C246.254 20.2 247.614 20.3867 248.761 20.76C249.934 21.1333 250.894 21.6533 251.641 22.32C252.414 22.96 252.974 23.72 253.321 24.6C253.694 25.48 253.881 26.4133 253.881 27.4C253.881 29.1067 253.374 30.36 252.361 31.16C251.374 31.9333 249.961 32.32 248.121 32.32C247.534 32.32 247.161 32.28 247.001 32.2C246.867 32.0933 246.801 31.8933 246.801 31.6C246.774 30.6933 246.747 29.9067 246.721 29.24C246.694 28.5733 246.601 28.0267 246.441 27.6C246.281 27.1467 246.027 26.8267 245.681 26.64C245.361 26.4267 244.907 26.32 244.321 26.32C243.467 26.32 242.734 26.5067 242.121 26.88C241.534 27.2267 241.027 27.6933 240.601 28.28C240.201 28.84 239.867 29.48 239.601 30.2C239.361 30.92 239.161 31.6533 239.001 32.4C238.867 33.1467 238.774 33.8667 238.721 34.56C238.694 35.2533 238.681 35.8533 238.681 36.36C238.681 38.8133 239.081 40.56 239.881 41.6C240.707 42.64 241.974 43.16 243.681 43.16ZM260.528 49C259.035 49 257.968 48.7067 257.328 48.12C256.688 47.5333 256.368 46.6933 256.368 45.6C256.368 45.0667 256.408 44.16 256.488 42.88C256.568 41.5733 256.675 40.0933 256.808 38.44C256.941 36.7867 257.075 35.04 257.208 33.2C257.341 31.36 257.475 29.6267 257.608 28C257.741 26.3733 257.848 24.9467 257.928 23.72C258.008 22.4933 258.048 21.6533 258.048 21.2C258.048 20.8 258.261 20.6 258.688 20.6H272.768C272.928 20.6 273.075 20.64 273.208 20.72C273.341 20.8 273.408 20.9467 273.408 21.16L273.248 23.52C273.195 24.32 272.968 24.9733 272.568 25.48C272.195 25.96 271.408 26.2 270.208 26.2H264.688L264.288 31.84H269.968C270.128 31.84 270.275 31.88 270.408 31.96C270.541 32.04 270.608 32.1867 270.608 32.4L270.448 34.76C270.395 35.56 270.168 36.2133 269.768 36.72C269.395 37.2 268.608 37.44 267.408 37.44H263.928L263.488 43.4H272.288C272.448 43.4 272.595 43.4533 272.728 43.56C272.861 43.64 272.928 43.7733 272.928 43.96L272.768 46.32C272.715 47.12 272.488 47.7733 272.088 48.28C271.715 48.76 270.928 49 269.728 49H260.528ZM287.407 20.2C289.914 20.2 291.767 20.7467 292.967 21.84C294.194 22.9333 294.807 24.36 294.807 26.12C294.807 27.6133 294.394 28.76 293.567 29.56C292.741 30.3333 291.554 30.72 290.007 30.72C289.527 30.72 289.221 30.68 289.087 30.6C288.954 30.4933 288.887 30.2933 288.887 30C288.887 29.7333 288.861 29.3867 288.807 28.96C288.781 28.5333 288.687 28.12 288.527 27.72C288.367 27.32 288.114 26.9867 287.767 26.72C287.421 26.4267 286.941 26.28 286.327 26.28C285.474 26.28 284.714 26.5467 284.047 27.08C283.381 27.5867 283.047 28.2533 283.047 29.08C283.047 29.8 283.314 30.3867 283.847 30.84C284.407 31.2933 285.101 31.72 285.927 32.12C286.754 32.4933 287.647 32.88 288.607 33.28C289.594 33.68 290.501 34.2133 291.327 34.88C292.154 35.52 292.834 36.3333 293.367 37.32C293.927 38.28 294.207 39.5067 294.207 41C294.207 42.1733 294.007 43.28 293.607 44.32C293.234 45.3333 292.661 46.2267 291.887 47C291.141 47.7467 290.181 48.3333 289.007 48.76C287.861 49.1867 286.514 49.4 284.967 49.4C283.634 49.4 282.394 49.2533 281.247 48.96C280.127 48.6667 279.141 48.3067 278.287 47.88C277.461 47.4267 276.807 46.9467 276.327 46.44C275.847 45.9067 275.607 45.4267 275.607 45C275.607 43.24 275.701 41.9733 275.887 41.2C276.101 40.4267 276.474 40.04 277.007 40.04C277.381 40.04 277.767 40.2 278.167 40.52C278.594 40.84 279.074 41.2 279.607 41.6C280.141 42 280.754 42.36 281.447 42.68C282.167 43 282.994 43.16 283.927 43.16C284.301 43.16 284.661 43.1333 285.007 43.08C285.381 43 285.701 42.88 285.967 42.72C286.261 42.56 286.487 42.3467 286.647 42.08C286.834 41.8133 286.927 41.4933 286.927 41.12C286.927 40.4533 286.674 39.92 286.167 39.52C285.661 39.12 285.021 38.76 284.247 38.44C283.474 38.0933 282.634 37.7467 281.727 37.4C280.847 37.0267 280.021 36.5333 279.247 35.92C278.474 35.28 277.834 34.4667 277.327 33.48C276.821 32.4933 276.567 31.2267 276.567 29.68C276.567 27.9467 276.887 26.48 277.527 25.28C278.194 24.08 279.034 23.1067 280.047 22.36C281.087 21.5867 282.247 21.04 283.527 20.72C284.834 20.3733 286.127 20.2 287.407 20.2Z" fill="#ffffff"/>
</g>
<defs>
<clipPath id="clip0_308_7969">
<rect width="335" height="69" fill="white"/>
</clipPath>
</defs>
</svg>
