<svg width="335" height="69" viewBox="0 0 335 69" fill="none" xmlns="http://www.w3.org/2000/svg">
<g clip-path="url(#clip0_308_7963)">
<path d="M331.974 62.2393C226.87 71.1913 116.903 71.3442 3.1217 62.2393C-0.727466 42.3564 -1.35993 23.5436 3.1217 6.387C119.114 -2.02991 229.583 -2.22526 331.974 6.387C335.952 25.2422 336.061 43.8597 331.974 62.2393Z" fill="#be27ce" fill-opacity="1"/>
<path d="M83.64 20.6C84.3067 20.6 84.8533 20.7333 85.28 21C85.7333 21.24 86.1067 21.5733 86.4 22C86.6933 22.4 86.9333 22.8667 87.12 23.4C87.3067 23.9333 87.4667 24.48 87.6 25.04C88.6667 29.36 89.5467 32.92 90.24 35.72C90.9333 38.52 91.48 40.7867 91.88 42.52C92.28 44.2267 92.56 45.4933 92.72 46.32C92.88 47.1467 92.96 47.72 92.96 48.04C92.96 48.4133 92.8667 48.6667 92.68 48.8C92.52 48.9333 92.2533 49 91.88 49H89.84C88.6933 49 87.7733 48.8667 87.08 48.6C86.4133 48.3067 85.8933 47.8933 85.52 47.36C85.1733 46.8267 84.92 46.1867 84.76 45.44C84.6 44.6667 84.4667 43.8 84.36 42.84H77.4L76.08 48.36C75.9467 48.7867 75.64 49 75.16 49H73.04C72.6133 49 72.1733 48.96 71.72 48.88C71.2667 48.7733 70.8533 48.6133 70.48 48.4C70.1333 48.1867 69.84 47.92 69.6 47.6C69.36 47.2533 69.24 46.84 69.24 46.36C69.24 45.7733 69.4267 44.8133 69.8 43.48C70.1733 42.1467 70.64 40.64 71.2 38.96C71.7867 37.2533 72.4267 35.48 73.12 33.64C73.84 31.7733 74.5333 30.0133 75.2 28.36C75.8667 26.7067 76.4667 25.2533 77 24C77.56 22.7467 77.9867 21.8667 78.28 21.36C78.4933 20.9867 78.68 20.7733 78.84 20.72C79.0267 20.64 79.36 20.6 79.84 20.6H83.64ZM78.84 37.04H83.44L81.76 26.48L78.84 37.04ZM103.686 49.4C102.112 49.4 100.819 49.2933 99.8056 49.08C98.7923 48.8933 97.979 48.6133 97.3656 48.24C96.779 47.84 96.3656 47.3467 96.1256 46.76C95.9123 46.1733 95.8056 45.48 95.8056 44.68C95.8056 44.44 95.819 44.1067 95.8456 43.68C95.8723 43.2267 95.9123 42.6 95.9656 41.8C96.019 41 96.0856 39.9733 96.1656 38.72C96.2723 37.44 96.4056 35.84 96.5656 33.92C96.7523 31.5467 96.899 29.6667 97.0056 28.28C97.1123 26.8933 97.1923 25.8267 97.2456 25.08C97.299 24.3067 97.3256 23.7733 97.3256 23.48C97.3523 23.16 97.3656 22.8933 97.3656 22.68C97.3656 22.2533 97.3656 21.9067 97.3656 21.64C97.3923 21.3733 97.419 21.1733 97.4456 21.04C97.499 20.88 97.5656 20.7733 97.6456 20.72C97.7523 20.64 97.899 20.6 98.0856 20.6C99.659 20.4933 100.992 20.4133 102.086 20.36C103.206 20.3067 104.179 20.28 105.006 20.28C107.032 20.28 108.766 20.4533 110.206 20.8C111.672 21.12 112.859 21.5867 113.766 22.2C114.672 22.8133 115.339 23.5733 115.766 24.48C116.192 25.3867 116.406 26.4133 116.406 27.56C116.406 28.2 116.339 28.8667 116.206 29.56C116.072 30.2267 115.846 30.8667 115.526 31.48C115.206 32.0933 114.766 32.64 114.206 33.12C113.672 33.5733 112.992 33.9067 112.166 34.12C113.712 34.6 114.806 35.4 115.446 36.52C116.086 37.6133 116.406 38.92 116.406 40.44C116.406 41.6667 116.206 42.8267 115.806 43.92C115.406 44.9867 114.712 45.9333 113.726 46.76C112.739 47.56 111.432 48.2 109.806 48.68C108.179 49.16 106.139 49.4 103.686 49.4ZM105.966 37C105.672 37 105.312 37.0267 104.886 37.08C104.459 37.1067 104.019 37.16 103.566 37.24L103.126 43.76C104.086 44.0533 104.952 44.2 105.726 44.2C106.552 44.2 107.219 44.08 107.726 43.84C108.232 43.6 108.619 43.3067 108.886 42.96C109.179 42.5867 109.366 42.1867 109.446 41.76C109.552 41.3067 109.606 40.8933 109.606 40.52C109.606 39.5333 109.326 38.7067 108.766 38.04C108.232 37.3467 107.299 37 105.966 37ZM104.286 26C104.232 26.6933 104.179 27.5067 104.126 28.44C104.099 29.3733 104.046 30.3867 103.966 31.48C104.819 31.6933 105.579 31.8 106.246 31.8C107.046 31.8 107.686 31.7067 108.166 31.52C108.646 31.3333 109.019 31.0933 109.286 30.8C109.579 30.5067 109.766 30.1867 109.846 29.84C109.952 29.4933 110.006 29.16 110.006 28.84C110.006 28.0133 109.726 27.3067 109.166 26.72C108.632 26.1067 107.699 25.8 106.366 25.8C106.072 25.8 105.739 25.8267 105.366 25.88C105.019 25.9067 104.659 25.9467 104.286 26ZM134.184 20.16C136.131 20.16 137.798 20.44 139.184 21C140.571 21.5333 141.704 22.3333 142.584 23.4C143.464 24.44 144.104 25.72 144.504 27.24C144.904 28.7333 145.104 30.44 145.104 32.36C145.104 33.4267 145.024 34.5867 144.864 35.84C144.731 37.0933 144.464 38.36 144.064 39.64C143.691 40.8933 143.171 42.1067 142.504 43.28C141.838 44.4533 140.971 45.4933 139.904 46.4C138.864 47.3067 137.611 48.04 136.144 48.6C134.678 49.1333 132.944 49.4 130.944 49.4C128.731 49.4 126.891 49.0667 125.424 48.4C123.984 47.7333 122.824 46.84 121.944 45.72C121.091 44.5733 120.478 43.2267 120.104 41.68C119.758 40.1333 119.584 38.48 119.584 36.72C119.584 34.64 119.824 32.6133 120.304 30.64C120.784 28.64 121.584 26.8667 122.704 25.32C123.851 23.7733 125.358 22.5333 127.224 21.6C129.091 20.64 131.411 20.16 134.184 20.16ZM133.344 26.36C132.411 26.36 131.598 26.5333 130.904 26.88C130.238 27.2 129.664 27.64 129.184 28.2C128.731 28.76 128.358 29.3867 128.064 30.08C127.798 30.7733 127.584 31.4933 127.424 32.24C127.264 32.96 127.158 33.6667 127.104 34.36C127.051 35.0267 127.024 35.6267 127.024 36.16C127.024 38.5867 127.424 40.36 128.224 41.48C129.051 42.6 130.211 43.16 131.704 43.16C132.931 43.16 133.931 42.7733 134.704 42C135.478 41.2 136.078 40.2533 136.504 39.16C136.958 38.04 137.264 36.8933 137.424 35.72C137.584 34.52 137.664 33.5067 137.664 32.68C137.664 30.7333 137.331 29.2 136.664 28.08C135.998 26.9333 134.891 26.36 133.344 26.36ZM170.542 35.96C170.462 36.76 170.342 37.6533 170.182 38.64C170.022 39.6 169.769 40.5867 169.422 41.6C169.102 42.5867 168.662 43.5467 168.102 44.48C167.542 45.4133 166.822 46.2533 165.942 47C165.062 47.72 163.995 48.3067 162.742 48.76C161.515 49.1867 160.049 49.4 158.342 49.4C156.609 49.4 155.129 49.16 153.902 48.68C152.675 48.1733 151.675 47.4933 150.902 46.64C150.129 45.76 149.569 44.7467 149.222 43.6C148.875 42.4533 148.702 41.2267 148.702 39.92C148.702 39.3333 148.729 38.5467 148.782 37.56C148.835 36.5467 148.902 35.4533 148.982 34.28C149.089 33.1067 149.195 31.8933 149.302 30.64C149.409 29.36 149.502 28.1467 149.582 27C149.689 25.8533 149.782 24.8267 149.862 23.92C149.942 22.9867 149.995 22.28 150.022 21.8C150.049 21.2933 150.115 20.9733 150.222 20.84C150.329 20.68 150.489 20.6 150.702 20.6H152.902C154.529 20.6 155.622 20.9467 156.182 21.64C156.742 22.3333 157.022 23.36 157.022 24.72C157.022 24.8 156.995 25.16 156.942 25.8C156.915 26.4133 156.862 27.1733 156.782 28.08C156.729 28.9867 156.662 29.9733 156.582 31.04C156.529 32.1067 156.462 33.12 156.382 34.08C156.329 35.04 156.275 35.88 156.222 36.6C156.195 37.32 156.182 37.8 156.182 38.04C156.182 38.4933 156.195 39.0133 156.222 39.6C156.275 40.1867 156.382 40.7467 156.542 41.28C156.729 41.8133 157.009 42.2667 157.382 42.64C157.782 42.9867 158.342 43.16 159.062 43.16C159.969 43.16 160.702 42.8533 161.262 42.24C161.849 41.6267 162.289 40.8933 162.582 40.04C162.902 39.1867 163.115 38.32 163.222 37.44C163.355 36.56 163.449 35.84 163.502 35.28C163.609 33.92 163.715 32.52 163.822 31.08C163.955 29.64 164.062 28.2933 164.142 27.04C164.249 25.7867 164.329 24.6933 164.382 23.76C164.435 22.8267 164.462 22.1867 164.462 21.84C164.462 21.3067 164.502 20.9733 164.582 20.84C164.662 20.68 164.835 20.6 165.102 20.6H167.302C168.209 20.6 168.915 20.68 169.422 20.84C169.955 21 170.355 21.2133 170.622 21.48C170.889 21.7467 171.049 22.0533 171.102 22.4C171.182 22.7467 171.222 23.1067 171.222 23.48C171.222 23.8267 171.195 24.48 171.142 25.44C171.115 26.4 171.075 27.4933 171.022 28.72C170.969 29.9467 170.902 31.2133 170.822 32.52C170.742 33.8267 170.649 34.9733 170.542 35.96ZM187.789 26.2L186.269 48.4C186.242 48.8 186.096 49 185.829 49H183.629C182.136 49 181.069 48.7067 180.429 48.12C179.789 47.5333 179.469 46.6933 179.469 45.6C179.469 45.2 179.482 44.6 179.509 43.8C179.562 43 179.629 42.0667 179.709 41C179.789 39.9067 179.869 38.7333 179.949 37.48C180.056 36.2 180.162 34.92 180.269 33.64C180.376 32.3333 180.469 31.04 180.549 29.76C180.656 28.48 180.749 27.2933 180.829 26.2H174.429C174.136 26.2 173.989 26.0133 173.989 25.64L174.109 23.4C174.136 23.0533 174.189 22.72 174.269 22.4C174.376 22.0533 174.536 21.7467 174.749 21.48C174.962 21.2133 175.229 21 175.549 20.84C175.896 20.68 176.309 20.6 176.789 20.6H194.669C194.829 20.6 194.976 20.64 195.109 20.72C195.242 20.8 195.309 20.9467 195.309 21.16L195.149 23.52C195.096 24.32 194.869 24.9733 194.469 25.48C194.096 25.96 193.309 26.2 192.109 26.2H187.789ZM226.167 35.96C226.087 36.76 225.967 37.6533 225.807 38.64C225.647 39.6 225.394 40.5867 225.047 41.6C224.727 42.5867 224.287 43.5467 223.727 44.48C223.167 45.4133 222.447 46.2533 221.567 47C220.687 47.72 219.62 48.3067 218.367 48.76C217.14 49.1867 215.674 49.4 213.967 49.4C212.234 49.4 210.754 49.16 209.527 48.68C208.3 48.1733 207.3 47.4933 206.527 46.64C205.754 45.76 205.194 44.7467 204.847 43.6C204.5 42.4533 204.327 41.2267 204.327 39.92C204.327 39.3333 204.354 38.5467 204.407 37.56C204.46 36.5467 204.527 35.4533 204.607 34.28C204.714 33.1067 204.82 31.8933 204.927 30.64C205.034 29.36 205.127 28.1467 205.207 27C205.314 25.8533 205.407 24.8267 205.487 23.92C205.567 22.9867 205.62 22.28 205.647 21.8C205.674 21.2933 205.74 20.9733 205.847 20.84C205.954 20.68 206.114 20.6 206.327 20.6H208.527C210.154 20.6 211.247 20.9467 211.807 21.64C212.367 22.3333 212.647 23.36 212.647 24.72C212.647 24.8 212.62 25.16 212.567 25.8C212.54 26.4133 212.487 27.1733 212.407 28.08C212.354 28.9867 212.287 29.9733 212.207 31.04C212.154 32.1067 212.087 33.12 212.007 34.08C211.954 35.04 211.9 35.88 211.847 36.6C211.82 37.32 211.807 37.8 211.807 38.04C211.807 38.4933 211.82 39.0133 211.847 39.6C211.9 40.1867 212.007 40.7467 212.167 41.28C212.354 41.8133 212.634 42.2667 213.007 42.64C213.407 42.9867 213.967 43.16 214.687 43.16C215.594 43.16 216.327 42.8533 216.887 42.24C217.474 41.6267 217.914 40.8933 218.207 40.04C218.527 39.1867 218.74 38.32 218.847 37.44C218.98 36.56 219.074 35.84 219.127 35.28C219.234 33.92 219.34 32.52 219.447 31.08C219.58 29.64 219.687 28.2933 219.767 27.04C219.874 25.7867 219.954 24.6933 220.007 23.76C220.06 22.8267 220.087 22.1867 220.087 21.84C220.087 21.3067 220.127 20.9733 220.207 20.84C220.287 20.68 220.46 20.6 220.727 20.6H222.927C223.834 20.6 224.54 20.68 225.047 20.84C225.58 21 225.98 21.2133 226.247 21.48C226.514 21.7467 226.674 22.0533 226.727 22.4C226.807 22.7467 226.847 23.1067 226.847 23.48C226.847 23.8267 226.82 24.48 226.767 25.44C226.74 26.4 226.7 27.4933 226.647 28.72C226.594 29.9467 226.527 31.2133 226.447 32.52C226.367 33.8267 226.274 34.9733 226.167 35.96ZM241.454 20.2C243.961 20.2 245.814 20.7467 247.014 21.84C248.241 22.9333 248.854 24.36 248.854 26.12C248.854 27.6133 248.441 28.76 247.614 29.56C246.787 30.3333 245.601 30.72 244.054 30.72C243.574 30.72 243.267 30.68 243.134 30.6C243.001 30.4933 242.934 30.2933 242.934 30C242.934 29.7333 242.907 29.3867 242.854 28.96C242.827 28.5333 242.734 28.12 242.574 27.72C242.414 27.32 242.161 26.9867 241.814 26.72C241.467 26.4267 240.987 26.28 240.374 26.28C239.521 26.28 238.761 26.5467 238.094 27.08C237.427 27.5867 237.094 28.2533 237.094 29.08C237.094 29.8 237.361 30.3867 237.894 30.84C238.454 31.2933 239.147 31.72 239.974 32.12C240.801 32.4933 241.694 32.88 242.654 33.28C243.641 33.68 244.547 34.2133 245.374 34.88C246.201 35.52 246.881 36.3333 247.414 37.32C247.974 38.28 248.254 39.5067 248.254 41C248.254 42.1733 248.054 43.28 247.654 44.32C247.281 45.3333 246.707 46.2267 245.934 47C245.187 47.7467 244.227 48.3333 243.054 48.76C241.907 49.1867 240.561 49.4 239.014 49.4C237.681 49.4 236.441 49.2533 235.294 48.96C234.174 48.6667 233.187 48.3067 232.334 47.88C231.507 47.4267 230.854 46.9467 230.374 46.44C229.894 45.9067 229.654 45.4267 229.654 45C229.654 43.24 229.747 41.9733 229.934 41.2C230.147 40.4267 230.521 40.04 231.054 40.04C231.427 40.04 231.814 40.2 232.214 40.52C232.641 40.84 233.121 41.2 233.654 41.6C234.187 42 234.801 42.36 235.494 42.68C236.214 43 237.041 43.16 237.974 43.16C238.347 43.16 238.707 43.1333 239.054 43.08C239.427 43 239.747 42.88 240.014 42.72C240.307 42.56 240.534 42.3467 240.694 42.08C240.881 41.8133 240.974 41.4933 240.974 41.12C240.974 40.4533 240.721 39.92 240.214 39.52C239.707 39.12 239.067 38.76 238.294 38.44C237.521 38.0933 236.681 37.7467 235.774 37.4C234.894 37.0267 234.067 36.5333 233.294 35.92C232.521 35.28 231.881 34.4667 231.374 33.48C230.867 32.4933 230.614 31.2267 230.614 29.68C230.614 27.9467 230.934 26.48 231.574 25.28C232.241 24.08 233.081 23.1067 234.094 22.36C235.134 21.5867 236.294 21.04 237.574 20.72C238.881 20.3733 240.174 20.2 241.454 20.2Z" fill="#ffffff"/>
</g>
<defs>
<clipPath id="clip0_308_7963">
<rect width="335" height="69" fill="white"/>
</clipPath>
</defs>
</svg>
