<svg width="100" height="48" viewBox="0 0 100 48" fill="none" xmlns="http://www.w3.org/2000/svg">
<rect width="100" height="47.9769" rx="10" fill="white"/>
<path d="M60.5935 13C55.6232 13 51.1816 15.5769 51.1816 20.3379C51.1816 25.7979 59.0591 26.175 59.0591 28.918C59.0591 30.0729 57.7358 31.1068 55.4759 31.1068C52.2686 31.1068 49.8715 29.6622 49.8715 29.6622L48.8457 34.4666C48.8457 34.4666 51.6072 35.6868 55.2735 35.6868C60.7076 35.6868 64.9835 32.9835 64.9835 28.1409C64.9835 22.3715 57.0733 22.0056 57.0733 19.4597C57.0733 18.5549 58.1595 17.5636 60.413 17.5636C62.9556 17.5636 65.03 18.6142 65.03 18.6142L66.0338 13.974C66.0338 13.974 63.7767 13 60.5935 13ZM15.1204 13.3502L15 14.0506C15 14.0506 17.091 14.4334 18.9743 15.1971C21.3992 16.0726 21.5719 16.5824 21.9803 18.1656L26.4305 35.3257H32.396L41.5864 13.3502H35.6346L29.7293 28.2914L27.3195 15.6266C27.0985 14.1771 25.9791 13.3502 24.6089 13.3502H15.1204ZM43.9797 13.3502L39.3107 35.3257H44.9863L49.639 13.3502H43.9797ZM75.6345 13.3502C74.2659 13.3502 73.5408 14.0832 73.0087 15.3639L64.6936 35.3257H70.6454L71.797 31.9987H79.0481L79.7483 35.3257H85L80.4184 13.3502H75.6345ZM76.4086 19.2873L78.1729 27.5336H73.4464L76.4086 19.2873Z" fill="#1434CB"/>
</svg>
