<svg width="1468" height="481" viewBox="0 0 1468 481" fill="none" xmlns="http://www.w3.org/2000/svg">
<path d="M28.9895 54.4938H28.6216C28.6216 20.2391 56.4365 -7.54688 90.7269 -7.54688H91.0948C91.1684 26.7078 63.3535 54.4938 28.9895 54.4938Z" fill="#ffffff" fill-opacity="0.07"/>
<path d="M28.9895 54.7896H28.6216C28.6216 89.0442 56.4365 116.83 90.7269 116.83H91.0948C91.1684 82.5755 63.3535 54.7896 28.9895 54.7896Z" fill="#ffffff" fill-opacity="0.07"/>
<path d="M28.1053 54.7896H28.4733C28.4733 89.0442 0.658306 116.83 -33.6321 116.83H-34C-34 82.5755 -6.18505 54.7896 28.1053 54.7896Z" fill="#ffffff" fill-opacity="0.07"/>
<path d="M28.1053 54.4938H28.4733C28.4733 20.2391 0.658306 -7.54688 -33.6321 -7.54688H-34C-34 26.7078 -6.18505 54.4938 28.1053 54.4938Z" fill="#ffffff" fill-opacity="0.07"/>
<path d="M154.159 54.4938H153.791C153.791 20.2391 181.606 -7.54688 215.896 -7.54688H216.264C216.264 26.7078 188.449 54.4938 154.159 54.4938Z" fill="#ffffff" fill-opacity="0.07"/>
<path d="M154.159 54.7896H153.791C153.791 89.0442 181.606 116.83 215.896 116.83H216.264C216.264 82.5755 188.449 54.7896 154.159 54.7896Z" fill="#ffffff" fill-opacity="0.07"/>
<path d="M153.275 54.7896H153.643C153.643 89.0442 125.828 116.83 91.5374 116.83H91.1694C91.1694 82.5755 118.984 54.7896 153.275 54.7896Z" fill="#ffffff" fill-opacity="0.07"/>
<path d="M153.275 54.4938H153.643C153.643 20.2391 125.828 -7.54688 91.5374 -7.54688H91.1694C91.1694 26.7078 118.984 54.4938 153.275 54.4938Z" fill="#ffffff" fill-opacity="0.07"/>
<path d="M279.252 54.4938H278.884C278.884 20.2391 306.699 -7.54688 340.99 -7.54688H341.358C341.431 26.7078 313.616 54.4938 279.252 54.4938Z" fill="#ffffff" fill-opacity="0.07"/>
<path d="M279.252 54.7896H278.884C278.884 89.0442 306.699 116.83 340.99 116.83H341.358C341.431 82.5755 313.616 54.7896 279.252 54.7896Z" fill="#ffffff" fill-opacity="0.07"/>
<path d="M278.368 54.7896H278.736C278.736 89.0442 250.921 116.83 216.631 116.83H216.263C216.263 82.5755 244.078 54.7896 278.368 54.7896Z" fill="#ffffff" fill-opacity="0.07"/>
<path d="M278.368 54.4938H278.736C278.736 20.2391 250.921 -7.54688 216.631 -7.54688H216.263C216.263 26.7078 244.078 54.4938 278.368 54.4938Z" fill="#ffffff" fill-opacity="0.07"/>
<path d="M404.417 54.4938H404.049C404.049 20.2391 431.864 -7.54688 466.155 -7.54688H466.523C466.523 26.7078 438.708 54.4938 404.417 54.4938Z" fill="#ffffff" fill-opacity="0.07"/>
<path d="M404.417 54.7896H404.049C404.049 89.0442 431.864 116.83 466.155 116.83H466.523C466.523 82.5755 438.708 54.7896 404.417 54.7896Z" fill="#ffffff" fill-opacity="0.07"/>
<path d="M403.534 54.7896H403.901C403.901 89.0442 376.087 116.83 341.796 116.83H341.428C341.428 82.5755 369.243 54.7896 403.534 54.7896Z" fill="#ffffff" fill-opacity="0.07"/>
<path d="M403.534 54.4938H403.901C403.901 20.2391 376.087 -7.54688 341.796 -7.54688H341.428C341.428 26.7078 369.243 54.4938 403.534 54.4938Z" fill="#ffffff" fill-opacity="0.07"/>
<path d="M529.51 54.4938H529.142C529.142 20.2391 556.957 -7.54688 591.247 -7.54688H591.615C591.689 26.7078 563.874 54.4938 529.51 54.4938Z" fill="#ffffff" fill-opacity="0.07"/>
<path d="M529.51 54.7896H529.142C529.142 89.0442 556.957 116.83 591.247 116.83H591.615C591.689 82.5755 563.874 54.7896 529.51 54.7896Z" fill="#ffffff" fill-opacity="0.07"/>
<path d="M528.626 54.7896H528.994C528.994 89.0442 501.179 116.83 466.888 116.83H466.521C466.521 82.5755 494.335 54.7896 528.626 54.7896Z" fill="#ffffff" fill-opacity="0.07"/>
<path d="M528.626 54.4938H528.994C528.994 20.2391 501.179 -7.54688 466.888 -7.54688H466.521C466.521 26.7078 494.335 54.4938 528.626 54.4938Z" fill="#ffffff" fill-opacity="0.07"/>
<path d="M654.676 54.4938H654.308C654.308 20.2391 682.123 -7.54688 716.413 -7.54688H716.781C716.781 26.7078 688.966 54.4938 654.676 54.4938Z" fill="#ffffff" fill-opacity="0.07"/>
<path d="M654.676 54.7896H654.308C654.308 89.0442 682.123 116.83 716.413 116.83H716.781C716.781 82.5755 688.966 54.7896 654.676 54.7896Z" fill="#ffffff" fill-opacity="0.07"/>
<path d="M653.791 54.7896H654.159C654.159 89.0442 626.344 116.83 592.054 116.83H591.686C591.686 82.5755 619.501 54.7896 653.791 54.7896Z" fill="#ffffff" fill-opacity="0.07"/>
<path d="M653.791 54.4938H654.159C654.159 20.2391 626.344 -7.54688 592.054 -7.54688H591.686C591.686 26.7078 619.501 54.4938 653.791 54.4938Z" fill="#ffffff" fill-opacity="0.07"/>
<path d="M779.845 54.4938H779.478C779.478 20.2391 807.293 -7.54688 841.583 -7.54688H841.951C841.951 26.7078 814.136 54.4938 779.845 54.4938Z" fill="#ffffff" fill-opacity="0.07"/>
<path d="M779.845 54.7896H779.478C779.478 89.0442 807.293 116.83 841.583 116.83H841.951C841.951 82.5755 814.136 54.7896 779.845 54.7896Z" fill="#ffffff" fill-opacity="0.07"/>
<path d="M778.961 54.7896H779.329C779.329 89.0442 751.514 116.83 717.224 116.83H716.856C716.783 82.5755 744.597 54.7896 778.961 54.7896Z" fill="#ffffff" fill-opacity="0.07"/>
<path d="M778.961 54.4938H779.329C779.329 20.2391 751.514 -7.54688 717.224 -7.54688H716.856C716.783 26.7078 744.597 54.4938 778.961 54.4938Z" fill="#ffffff" fill-opacity="0.07"/>
<path d="M904.934 54.4938H904.566C904.566 20.2391 932.381 -7.54688 966.672 -7.54688H967.04C967.04 26.7078 939.225 54.4938 904.934 54.4938Z" fill="#ffffff" fill-opacity="0.07"/>
<path d="M904.934 54.7896H904.566C904.566 89.0442 932.381 116.83 966.672 116.83H967.04C967.04 82.5755 939.225 54.7896 904.934 54.7896Z" fill="#ffffff" fill-opacity="0.07"/>
<path d="M904.054 54.7896H904.422C904.422 89.0442 876.607 116.83 842.317 116.83H841.949C841.949 82.5755 869.764 54.7896 904.054 54.7896Z" fill="#ffffff" fill-opacity="0.07"/>
<path d="M904.054 54.4938H904.422C904.422 20.2391 876.607 -7.54688 842.317 -7.54688H841.949C841.949 26.7078 869.764 54.4938 904.054 54.4938Z" fill="#ffffff" fill-opacity="0.07"/>
<path d="M1030.1 54.4938H1029.74C1029.74 20.2391 1057.55 -7.54688 1091.84 -7.54688H1092.21C1092.21 26.7078 1064.4 54.4938 1030.1 54.4938Z" fill="#ffffff" fill-opacity="0.07"/>
<path d="M1030.1 54.7896H1029.74C1029.74 89.0442 1057.55 116.83 1091.84 116.83H1092.21C1092.21 82.5755 1064.4 54.7896 1030.1 54.7896Z" fill="#ffffff" fill-opacity="0.07"/>
<path d="M1029.22 54.7896H1029.59C1029.59 89.0442 1001.77 116.83 967.483 116.83H967.115C967.042 82.5755 994.857 54.7896 1029.22 54.7896Z" fill="#ffffff" fill-opacity="0.07"/>
<path d="M1029.22 54.4938H1029.59C1029.59 20.2391 1001.77 -7.54688 967.483 -7.54688H967.115C967.042 26.7078 994.857 54.4938 1029.22 54.4938Z" fill="#ffffff" fill-opacity="0.07"/>
<path d="M1155.2 54.4938H1154.83C1154.83 20.2391 1182.65 -7.54688 1216.94 -7.54688H1217.31C1217.31 26.7078 1189.49 54.4938 1155.2 54.4938Z" fill="#ffffff" fill-opacity="0.07"/>
<path d="M1155.2 54.7896H1154.83C1154.83 89.0442 1182.65 116.83 1216.94 116.83H1217.31C1217.31 82.5755 1189.49 54.7896 1155.2 54.7896Z" fill="#ffffff" fill-opacity="0.07"/>
<path d="M1154.32 54.7896H1154.69C1154.69 89.0442 1126.87 116.83 1092.58 116.83H1092.21C1092.21 82.5755 1120.03 54.7896 1154.32 54.7896Z" fill="#ffffff" fill-opacity="0.07"/>
<path d="M1154.32 54.4938H1154.69C1154.69 20.2391 1126.87 -7.54688 1092.58 -7.54688H1092.21C1092.21 26.7078 1120.03 54.4938 1154.32 54.4938Z" fill="#ffffff" fill-opacity="0.07"/>
<path d="M1280.37 54.4938H1280C1280 20.2391 1307.81 -7.54688 1342.1 -7.54688H1342.47C1342.47 26.7078 1314.66 54.4938 1280.37 54.4938Z" fill="#ffffff" fill-opacity="0.07"/>
<path d="M1280.37 54.7896H1280C1280 89.0442 1307.81 116.83 1342.1 116.83H1342.47C1342.47 82.5755 1314.66 54.7896 1280.37 54.7896Z" fill="#ffffff" fill-opacity="0.07"/>
<path d="M1279.48 54.7896H1279.85C1279.85 89.0442 1252.04 116.83 1217.75 116.83H1217.38C1217.3 82.5755 1245.12 54.7896 1279.48 54.7896Z" fill="#ffffff" fill-opacity="0.07"/>
<path d="M1279.48 54.4938H1279.85C1279.85 20.2391 1252.04 -7.54688 1217.75 -7.54688H1217.38C1217.3 26.7078 1245.12 54.4938 1279.48 54.4938Z" fill="#ffffff" fill-opacity="0.07"/>
<path d="M1405.46 54.4938H1405.09C1405.09 20.2391 1432.9 -7.54688 1467.2 -7.54688H1467.56C1467.64 26.7078 1439.82 54.4938 1405.46 54.4938Z" fill="#ffffff" fill-opacity="0.07"/>
<path d="M1405.46 54.7896H1405.09C1405.09 89.0442 1432.9 116.83 1467.2 116.83H1467.56C1467.64 82.5755 1439.82 54.7896 1405.46 54.7896Z" fill="#ffffff" fill-opacity="0.07"/>
<path d="M1404.57 54.7896H1404.94C1404.94 89.0442 1377.13 116.83 1342.84 116.83H1342.47C1342.47 82.5755 1370.28 54.7896 1404.57 54.7896Z" fill="#ffffff" fill-opacity="0.07"/>
<path d="M1404.57 54.4938H1404.94C1404.94 20.2391 1377.13 -7.54688 1342.84 -7.54688H1342.47C1342.47 26.7078 1370.28 54.4938 1404.57 54.4938Z" fill="#ffffff" fill-opacity="0.07"/>
<path d="M28.9895 178.866H28.6216C28.6216 144.612 56.4365 116.826 90.7269 116.826H91.0948C91.1684 151.08 63.3535 178.866 28.9895 178.866Z" fill="#ffffff" fill-opacity="0.07"/>
<path d="M28.9895 179.155H28.6216C28.6216 213.409 56.4365 241.195 90.7269 241.195H91.0948C91.1684 206.941 63.3535 179.155 28.9895 179.155Z" fill="#ffffff" fill-opacity="0.07"/>
<path d="M28.1053 179.155H28.4733C28.4733 213.409 0.658306 241.195 -33.6321 241.195H-34C-34 206.941 -6.18505 179.155 28.1053 179.155Z" fill="#ffffff" fill-opacity="0.07"/>
<path d="M28.1053 178.866H28.4733C28.4733 144.612 0.658306 116.826 -33.6321 116.826H-34C-34 151.08 -6.18505 178.866 28.1053 178.866Z" fill="#ffffff" fill-opacity="0.07"/>
<path d="M154.156 178.866H153.788C153.788 144.612 181.603 116.826 215.893 116.826H216.261C216.261 151.08 188.446 178.866 154.156 178.866Z" fill="#ffffff" fill-opacity="0.07"/>
<path d="M154.156 179.162H153.788C153.788 213.417 181.603 241.203 215.893 241.203H216.261C216.261 206.948 188.446 179.162 154.156 179.162Z" fill="#ffffff" fill-opacity="0.07"/>
<path d="M153.271 179.162H153.639C153.639 213.417 125.824 241.203 91.5339 241.203H91.166C91.166 206.948 118.981 179.162 153.271 179.162Z" fill="#ffffff" fill-opacity="0.07"/>
<path d="M153.271 178.866H153.639C153.639 144.612 125.824 116.826 91.5339 116.826H91.166C91.166 151.08 118.981 178.866 153.271 178.866Z" fill="#ffffff" fill-opacity="0.07"/>
<path d="M279.248 178.866H278.88C278.88 144.612 306.695 116.826 340.986 116.826H341.354C341.427 151.08 313.612 178.866 279.248 178.866Z" fill="#ffffff" fill-opacity="0.07"/>
<path d="M279.248 179.155H278.88C278.88 213.409 306.695 241.195 340.986 241.195H341.354C341.427 206.941 313.612 179.155 279.248 179.155Z" fill="#ffffff" fill-opacity="0.07"/>
<path d="M278.368 179.155H278.736C278.736 213.409 250.921 241.195 216.631 241.195H216.263C216.263 206.941 244.078 179.155 278.368 179.155Z" fill="#ffffff" fill-opacity="0.07"/>
<path d="M278.368 178.866H278.736C278.736 144.612 250.921 116.826 216.631 116.826H216.263C216.263 151.08 244.078 178.866 278.368 178.866Z" fill="#ffffff" fill-opacity="0.07"/>
<path d="M404.417 178.866H404.049C404.049 144.612 431.864 116.826 466.155 116.826H466.523C466.523 151.08 438.708 178.866 404.417 178.866Z" fill="#ffffff" fill-opacity="0.07"/>
<path d="M404.417 179.155H404.049C404.049 213.409 431.864 241.195 466.155 241.195H466.523C466.523 206.941 438.708 179.155 404.417 179.155Z" fill="#ffffff" fill-opacity="0.07"/>
<path d="M403.534 179.155H403.901C403.901 213.409 376.087 241.195 341.796 241.195H341.428C341.428 206.941 369.243 179.155 403.534 179.155Z" fill="#ffffff" fill-opacity="0.07"/>
<path d="M403.534 178.866H403.901C403.901 144.612 376.087 116.826 341.796 116.826H341.428C341.428 151.08 369.243 178.866 403.534 178.866Z" fill="#ffffff" fill-opacity="0.07"/>
<path d="M529.51 178.866H529.142C529.142 144.612 556.957 116.826 591.247 116.826H591.615C591.689 151.08 563.874 178.866 529.51 178.866Z" fill="#ffffff" fill-opacity="0.07"/>
<path d="M529.51 179.155H529.142C529.142 213.409 556.957 241.195 591.247 241.195H591.615C591.689 206.941 563.874 179.155 529.51 179.155Z" fill="#ffffff" fill-opacity="0.07"/>
<path d="M528.626 179.155H528.994C528.994 213.409 501.179 241.195 466.888 241.195H466.521C466.521 206.941 494.335 179.155 528.626 179.155Z" fill="#ffffff" fill-opacity="0.07"/>
<path d="M528.626 178.866H528.994C528.994 144.612 501.179 116.826 466.888 116.826H466.521C466.521 151.08 494.335 178.866 528.626 178.866Z" fill="#ffffff" fill-opacity="0.07"/>
<path d="M654.68 178.866H654.312C654.312 144.612 682.127 116.826 716.417 116.826H716.785C716.785 151.08 688.97 178.866 654.68 178.866Z" fill="#ffffff" fill-opacity="0.07"/>
<path d="M654.68 179.155H654.312C654.312 213.409 682.127 241.195 716.417 241.195H716.785C716.785 206.941 688.97 179.155 654.68 179.155Z" fill="#ffffff" fill-opacity="0.07"/>
<path d="M653.796 179.155H654.164C654.164 213.409 626.349 241.195 592.058 241.195H591.69C591.69 206.941 619.505 179.155 653.796 179.155Z" fill="#ffffff" fill-opacity="0.07"/>
<path d="M653.796 178.866H654.164C654.164 144.612 626.349 116.826 592.058 116.826H591.69C591.69 151.08 619.505 178.866 653.796 178.866Z" fill="#ffffff" fill-opacity="0.07"/>
<path d="M779.845 178.866H779.478C779.478 144.612 807.293 116.826 841.583 116.826H841.951C841.951 151.08 814.136 178.866 779.845 178.866Z" fill="#ffffff" fill-opacity="0.07"/>
<path d="M779.845 179.155H779.478C779.478 213.409 807.293 241.195 841.583 241.195H841.951C841.951 206.941 814.136 179.155 779.845 179.155Z" fill="#ffffff" fill-opacity="0.07"/>
<path d="M778.961 179.155H779.329C779.329 213.409 751.514 241.195 717.224 241.195H716.856C716.783 206.941 744.597 179.155 778.961 179.155Z" fill="#ffffff" fill-opacity="0.07"/>
<path d="M778.961 178.866H779.329C779.329 144.612 751.514 116.826 717.224 116.826H716.856C716.783 151.08 744.597 178.866 778.961 178.866Z" fill="#ffffff" fill-opacity="0.07"/>
<path d="M904.938 178.866H904.57C904.57 144.612 932.385 116.826 966.675 116.826H967.043C967.043 151.08 939.228 178.866 904.938 178.866Z" fill="#ffffff" fill-opacity="0.07"/>
<path d="M904.938 179.155H904.57C904.57 213.409 932.385 241.195 966.675 241.195H967.043C967.043 206.941 939.228 179.155 904.938 179.155Z" fill="#ffffff" fill-opacity="0.07"/>
<path d="M904.058 179.155H904.425C904.425 213.409 876.61 241.195 842.32 241.195H841.952C841.952 206.941 869.767 179.155 904.058 179.155Z" fill="#ffffff" fill-opacity="0.07"/>
<path d="M904.058 178.866H904.425C904.425 144.612 876.61 116.826 842.32 116.826H841.952C841.952 151.08 869.767 178.866 904.058 178.866Z" fill="#ffffff" fill-opacity="0.07"/>
<path d="M1030.1 178.866H1029.74C1029.74 144.612 1057.55 116.826 1091.84 116.826H1092.21C1092.21 151.08 1064.39 178.866 1030.1 178.866Z" fill="#ffffff" fill-opacity="0.07"/>
<path d="M1030.1 179.162H1029.74C1029.74 213.417 1057.55 241.203 1091.84 241.203H1092.21C1092.21 206.948 1064.39 179.162 1030.1 179.162Z" fill="#ffffff" fill-opacity="0.07"/>
<path d="M1029.22 179.162H1029.59C1029.59 213.417 1001.78 241.203 967.486 241.203H967.118C967.045 206.948 994.86 179.162 1029.22 179.162Z" fill="#ffffff" fill-opacity="0.07"/>
<path d="M1029.22 178.866H1029.59C1029.59 144.612 1001.78 116.826 967.486 116.826H967.118C967.045 151.08 994.86 178.866 1029.22 178.866Z" fill="#ffffff" fill-opacity="0.07"/>
<path d="M1155.2 178.866H1154.83C1154.83 144.612 1182.65 116.826 1216.94 116.826H1217.31C1217.31 151.08 1189.49 178.866 1155.2 178.866Z" fill="#ffffff" fill-opacity="0.07"/>
<path d="M1155.2 179.162H1154.83C1154.83 213.417 1182.65 241.203 1216.94 241.203H1217.31C1217.31 206.948 1189.49 179.162 1155.2 179.162Z" fill="#ffffff" fill-opacity="0.07"/>
<path d="M1154.32 179.162H1154.68C1154.68 213.417 1126.87 241.203 1092.58 241.203H1092.21C1092.21 206.948 1120.03 179.162 1154.32 179.162Z" fill="#ffffff" fill-opacity="0.07"/>
<path d="M1154.32 178.866H1154.68C1154.68 144.612 1126.87 116.826 1092.58 116.826H1092.21C1092.21 151.08 1120.03 178.866 1154.32 178.866Z" fill="#ffffff" fill-opacity="0.07"/>
<path d="M1280.37 178.866H1280C1280 144.612 1307.81 116.826 1342.1 116.826H1342.47C1342.47 151.08 1314.66 178.866 1280.37 178.866Z" fill="#ffffff" fill-opacity="0.07"/>
<path d="M1280.37 179.162H1280C1280 213.417 1307.81 241.203 1342.1 241.203H1342.47C1342.47 206.948 1314.66 179.162 1280.37 179.162Z" fill="#ffffff" fill-opacity="0.07"/>
<path d="M1279.48 179.162H1279.85C1279.85 213.417 1252.04 241.203 1217.75 241.203H1217.38C1217.3 206.948 1245.12 179.162 1279.48 179.162Z" fill="#ffffff" fill-opacity="0.07"/>
<path d="M1279.48 178.866H1279.85C1279.85 144.612 1252.04 116.826 1217.75 116.826H1217.38C1217.3 151.08 1245.12 178.866 1279.48 178.866Z" fill="#ffffff" fill-opacity="0.07"/>
<path d="M1405.46 178.866H1405.09C1405.09 144.612 1432.91 116.826 1467.2 116.826H1467.56C1467.64 151.08 1439.82 178.866 1405.46 178.866Z" fill="#ffffff" fill-opacity="0.07"/>
<path d="M1405.46 179.155H1405.09C1405.09 213.409 1432.91 241.195 1467.2 241.195H1467.56C1467.64 206.941 1439.82 179.155 1405.46 179.155Z" fill="#ffffff" fill-opacity="0.07"/>
<path d="M1404.58 179.155H1404.95C1404.95 213.409 1377.13 241.195 1342.84 241.195H1342.47C1342.47 206.941 1370.29 179.155 1404.58 179.155Z" fill="#ffffff" fill-opacity="0.07"/>
<path d="M1404.58 178.866H1404.95C1404.95 144.612 1377.13 116.826 1342.84 116.826H1342.47C1342.47 151.08 1370.29 178.866 1404.58 178.866Z" fill="#ffffff" fill-opacity="0.07"/>
<path d="M28.9895 303.313H28.6216C28.6216 269.058 56.4365 241.272 90.7269 241.272H91.0948C91.1684 275.527 63.3535 303.313 28.9895 303.313Z" fill="#ffffff" fill-opacity="0.07"/>
<path d="M28.9895 303.608H28.6216C28.6216 337.863 56.4365 365.649 90.7269 365.649H91.0948C91.1684 331.394 63.3535 303.608 28.9895 303.608Z" fill="#ffffff" fill-opacity="0.07"/>
<path d="M28.1053 303.608H28.4733C28.4733 337.863 0.658306 365.649 -33.6321 365.649H-34C-34 331.394 -6.18505 303.608 28.1053 303.608Z" fill="#ffffff" fill-opacity="0.07"/>
<path d="M28.1053 303.313H28.4733C28.4733 269.058 0.658306 241.272 -33.6321 241.272H-34C-34 275.527 -6.18505 303.313 28.1053 303.313Z" fill="#ffffff" fill-opacity="0.07"/>
<path d="M154.156 303.312H153.788C153.788 269.057 181.603 241.271 215.893 241.271H216.261C216.261 275.526 188.446 303.312 154.156 303.312Z" fill="#ffffff" fill-opacity="0.07"/>
<path d="M154.156 303.608H153.788C153.788 337.863 181.603 365.649 215.893 365.649H216.261C216.261 331.394 188.446 303.608 154.156 303.608Z" fill="#ffffff" fill-opacity="0.07"/>
<path d="M153.271 303.608H153.639C153.639 337.863 125.824 365.649 91.5339 365.649H91.166C91.166 331.394 118.981 303.608 153.271 303.608Z" fill="#ffffff" fill-opacity="0.07"/>
<path d="M153.271 303.312H153.639C153.639 269.057 125.824 241.271 91.5339 241.271H91.166C91.166 275.526 118.981 303.312 153.271 303.312Z" fill="#ffffff" fill-opacity="0.07"/>
<path d="M279.248 303.312H278.88C278.88 269.057 306.695 241.271 340.986 241.271H341.354C341.427 275.526 313.612 303.312 279.248 303.312Z" fill="#ffffff" fill-opacity="0.07"/>
<path d="M279.248 303.608H278.88C278.88 337.863 306.695 365.649 340.986 365.649H341.354C341.427 331.394 313.612 303.608 279.248 303.608Z" fill="#ffffff" fill-opacity="0.07"/>
<path d="M278.368 303.608H278.736C278.736 337.863 250.921 365.649 216.631 365.649H216.263C216.263 331.394 244.078 303.608 278.368 303.608Z" fill="#ffffff" fill-opacity="0.07"/>
<path d="M278.368 303.312H278.736C278.736 269.057 250.921 241.271 216.631 241.271H216.263C216.263 275.526 244.078 303.312 278.368 303.312Z" fill="#ffffff" fill-opacity="0.07"/>
<path d="M404.417 303.313H404.049C404.049 269.058 431.864 241.272 466.155 241.272H466.523C466.523 275.527 438.708 303.313 404.417 303.313Z" fill="#ffffff" fill-opacity="0.07"/>
<path d="M404.417 303.608H404.049C404.049 337.863 431.864 365.649 466.155 365.649H466.523C466.523 331.394 438.708 303.608 404.417 303.608Z" fill="#ffffff" fill-opacity="0.07"/>
<path d="M403.534 303.608H403.901C403.901 337.863 376.087 365.649 341.796 365.649H341.428C341.428 331.394 369.243 303.608 403.534 303.608Z" fill="#ffffff" fill-opacity="0.07"/>
<path d="M403.534 303.313H403.901C403.901 269.058 376.087 241.272 341.796 241.272H341.428C341.428 275.527 369.243 303.313 403.534 303.313Z" fill="#ffffff" fill-opacity="0.07"/>
<path d="M529.51 303.313H529.142C529.142 269.058 556.957 241.272 591.247 241.272H591.615C591.689 275.527 563.874 303.313 529.51 303.313Z" fill="#ffffff" fill-opacity="0.07"/>
<path d="M529.51 303.608H529.142C529.142 337.863 556.957 365.649 591.247 365.649H591.615C591.689 331.394 563.874 303.608 529.51 303.608Z" fill="#ffffff" fill-opacity="0.07"/>
<path d="M528.626 303.608H528.994C528.994 337.863 501.179 365.649 466.888 365.649H466.521C466.521 331.394 494.335 303.608 528.626 303.608Z" fill="#ffffff" fill-opacity="0.07"/>
<path d="M528.626 303.313H528.994C528.994 269.058 501.179 241.272 466.888 241.272H466.521C466.521 275.527 494.335 303.313 528.626 303.313Z" fill="#ffffff" fill-opacity="0.07"/>
<path d="M654.68 303.312H654.312C654.312 269.057 682.127 241.271 716.417 241.271H716.785C716.785 275.526 688.97 303.312 654.68 303.312Z" fill="#ffffff" fill-opacity="0.07"/>
<path d="M654.68 303.608H654.312C654.312 337.863 682.127 365.649 716.417 365.649H716.785C716.785 331.394 688.97 303.608 654.68 303.608Z" fill="#ffffff" fill-opacity="0.07"/>
<path d="M653.796 303.608H654.164C654.164 337.863 626.349 365.649 592.058 365.649H591.69C591.69 331.394 619.505 303.608 653.796 303.608Z" fill="#ffffff" fill-opacity="0.07"/>
<path d="M653.796 303.312H654.164C654.164 269.057 626.349 241.271 592.058 241.271H591.69C591.69 275.526 619.505 303.312 653.796 303.312Z" fill="#ffffff" fill-opacity="0.07"/>
<path d="M779.845 303.312H779.478C779.478 269.057 807.293 241.271 841.583 241.271H841.951C841.951 275.526 814.136 303.312 779.845 303.312Z" fill="#ffffff" fill-opacity="0.07"/>
<path d="M779.845 303.608H779.478C779.478 337.863 807.293 365.649 841.583 365.649H841.951C841.951 331.394 814.136 303.608 779.845 303.608Z" fill="#ffffff" fill-opacity="0.07"/>
<path d="M778.961 303.608H779.329C779.329 337.863 751.514 365.649 717.224 365.649H716.856C716.783 331.394 744.597 303.608 778.961 303.608Z" fill="#ffffff" fill-opacity="0.07"/>
<path d="M778.961 303.312H779.329C779.329 269.057 751.514 241.271 717.224 241.271H716.856C716.783 275.526 744.597 303.312 778.961 303.312Z" fill="#ffffff" fill-opacity="0.07"/>
<path d="M904.938 303.313H904.57C904.57 269.058 932.385 241.272 966.675 241.272H967.043C967.043 275.527 939.228 303.313 904.938 303.313Z" fill="#ffffff" fill-opacity="0.07"/>
<path d="M904.938 303.608H904.57C904.57 337.863 932.385 365.649 966.675 365.649H967.043C967.043 331.394 939.228 303.608 904.938 303.608Z" fill="#ffffff" fill-opacity="0.07"/>
<path d="M904.058 303.608H904.425C904.425 337.863 876.61 365.649 842.32 365.649H841.952C841.952 331.394 869.767 303.608 904.058 303.608Z" fill="#ffffff" fill-opacity="0.07"/>
<path d="M904.058 303.313H904.425C904.425 269.058 876.61 241.272 842.32 241.272H841.952C841.952 275.527 869.767 303.313 904.058 303.313Z" fill="#ffffff" fill-opacity="0.07"/>
<path d="M1030.1 303.313H1029.74C1029.74 269.058 1057.55 241.272 1091.84 241.272H1092.21C1092.21 275.527 1064.39 303.313 1030.1 303.313Z" fill="#ffffff" fill-opacity="0.07"/>
<path d="M1030.1 303.608H1029.74C1029.74 337.863 1057.55 365.649 1091.84 365.649H1092.21C1092.21 331.394 1064.39 303.608 1030.1 303.608Z" fill="#ffffff" fill-opacity="0.07"/>
<path d="M1029.22 303.608H1029.59C1029.59 337.863 1001.78 365.649 967.486 365.649H967.118C967.045 331.394 994.86 303.608 1029.22 303.608Z" fill="#ffffff" fill-opacity="0.07"/>
<path d="M1029.22 303.313H1029.59C1029.59 269.058 1001.78 241.272 967.486 241.272H967.118C967.045 275.527 994.86 303.313 1029.22 303.313Z" fill="#ffffff" fill-opacity="0.07"/>
<path d="M1155.2 303.312H1154.83C1154.83 269.057 1182.65 241.271 1216.94 241.271H1217.31C1217.31 275.526 1189.49 303.312 1155.2 303.312Z" fill="#ffffff" fill-opacity="0.07"/>
<path d="M1155.2 303.608H1154.83C1154.83 337.863 1182.65 365.649 1216.94 365.649H1217.31C1217.31 331.394 1189.49 303.608 1155.2 303.608Z" fill="#ffffff" fill-opacity="0.07"/>
<path d="M1154.32 303.608H1154.68C1154.68 337.863 1126.87 365.649 1092.58 365.649H1092.21C1092.21 331.394 1120.03 303.608 1154.32 303.608Z" fill="#ffffff" fill-opacity="0.07"/>
<path d="M1154.32 303.312H1154.68C1154.68 269.057 1126.87 241.271 1092.58 241.271H1092.21C1092.21 275.526 1120.03 303.312 1154.32 303.312Z" fill="#ffffff" fill-opacity="0.07"/>
<path d="M1280.37 303.313H1280C1280 269.058 1307.81 241.272 1342.1 241.272H1342.47C1342.47 275.527 1314.66 303.313 1280.37 303.313Z" fill="#ffffff" fill-opacity="0.07"/>
<path d="M1280.37 303.608H1280C1280 337.863 1307.81 365.649 1342.1 365.649H1342.47C1342.47 331.394 1314.66 303.608 1280.37 303.608Z" fill="#ffffff" fill-opacity="0.07"/>
<path d="M1279.48 303.608H1279.85C1279.85 337.863 1252.04 365.649 1217.75 365.649H1217.38C1217.3 331.394 1245.12 303.608 1279.48 303.608Z" fill="#ffffff" fill-opacity="0.07"/>
<path d="M1279.48 303.313H1279.85C1279.85 269.058 1252.04 241.272 1217.75 241.272H1217.38C1217.3 275.527 1245.12 303.313 1279.48 303.313Z" fill="#ffffff" fill-opacity="0.07"/>
<path d="M1405.46 303.313H1405.09C1405.09 269.058 1432.91 241.272 1467.2 241.272H1467.56C1467.64 275.527 1439.82 303.313 1405.46 303.313Z" fill="#ffffff" fill-opacity="0.07"/>
<path d="M1405.46 303.608H1405.09C1405.09 337.863 1432.91 365.649 1467.2 365.649H1467.56C1467.64 331.394 1439.82 303.608 1405.46 303.608Z" fill="#ffffff" fill-opacity="0.07"/>
<path d="M1404.58 303.608H1404.95C1404.95 337.863 1377.13 365.649 1342.84 365.649H1342.47C1342.47 331.394 1370.29 303.608 1404.58 303.608Z" fill="#ffffff" fill-opacity="0.07"/>
<path d="M1404.58 303.313H1404.95C1404.95 269.058 1377.13 241.272 1342.84 241.272H1342.47C1342.47 275.527 1370.29 303.313 1404.58 303.313Z" fill="#ffffff" fill-opacity="0.07"/>
<path d="M28.9895 427.685H28.6216C28.6216 393.431 56.4365 365.645 90.7269 365.645H91.0948C91.1684 399.899 63.3535 427.685 28.9895 427.685Z" fill="#ffffff" fill-opacity="0.07"/>
<path d="M28.9895 427.981H28.6216C28.6216 462.236 56.4365 490.022 90.7269 490.022H91.0948C91.1684 455.767 63.3535 427.981 28.9895 427.981Z" fill="#ffffff" fill-opacity="0.07"/>
<path d="M28.1053 427.981H28.4733C28.4733 462.236 0.658306 490.022 -33.6321 490.022H-34C-34 455.767 -6.18505 427.981 28.1053 427.981Z" fill="#ffffff" fill-opacity="0.07"/>
<path d="M28.1053 427.685H28.4733C28.4733 393.431 0.658306 365.645 -33.6321 365.645H-34C-34 399.899 -6.18505 427.685 28.1053 427.685Z" fill="#ffffff" fill-opacity="0.07"/>
<path d="M154.159 427.685H153.791C153.791 393.431 181.606 365.645 215.896 365.645H216.264C216.264 399.899 188.449 427.685 154.159 427.685Z" fill="#ffffff" fill-opacity="0.07"/>
<path d="M154.159 427.981H153.791C153.791 462.236 181.606 490.022 215.896 490.022H216.264C216.264 455.767 188.449 427.981 154.159 427.981Z" fill="#ffffff" fill-opacity="0.07"/>
<path d="M153.275 427.981H153.643C153.643 462.236 125.828 490.022 91.5374 490.022H91.1694C91.1694 455.767 118.984 427.981 153.275 427.981Z" fill="#ffffff" fill-opacity="0.07"/>
<path d="M153.275 427.685H153.643C153.643 393.431 125.828 365.645 91.5374 365.645H91.1694C91.1694 399.899 118.984 427.685 153.275 427.685Z" fill="#ffffff" fill-opacity="0.07"/>
<path d="M279.252 427.685H278.884C278.884 393.431 306.699 365.645 340.99 365.645H341.358C341.431 399.899 313.616 427.685 279.252 427.685Z" fill="#ffffff" fill-opacity="0.07"/>
<path d="M279.252 427.981H278.884C278.884 462.236 306.699 490.022 340.99 490.022H341.358C341.431 455.767 313.616 427.981 279.252 427.981Z" fill="#ffffff" fill-opacity="0.07"/>
<path d="M278.368 427.981H278.736C278.736 462.236 250.921 490.022 216.631 490.022H216.263C216.263 455.767 244.078 427.981 278.368 427.981Z" fill="#ffffff" fill-opacity="0.07"/>
<path d="M278.368 427.685H278.736C278.736 393.431 250.921 365.645 216.631 365.645H216.263C216.263 399.899 244.078 427.685 278.368 427.685Z" fill="#ffffff" fill-opacity="0.07"/>
<path d="M404.417 427.685H404.049C404.049 393.431 431.864 365.645 466.155 365.645H466.523C466.523 399.899 438.708 427.685 404.417 427.685Z" fill="#ffffff" fill-opacity="0.07"/>
<path d="M404.417 427.981H404.049C404.049 462.236 431.864 490.022 466.155 490.022H466.523C466.523 455.767 438.708 427.981 404.417 427.981Z" fill="#ffffff" fill-opacity="0.07"/>
<path d="M403.534 427.981H403.901C403.901 462.236 376.087 490.022 341.796 490.022H341.428C341.428 455.767 369.243 427.981 403.534 427.981Z" fill="#ffffff" fill-opacity="0.07"/>
<path d="M403.534 427.685H403.901C403.901 393.431 376.087 365.645 341.796 365.645H341.428C341.428 399.899 369.243 427.685 403.534 427.685Z" fill="#ffffff" fill-opacity="0.07"/>
<path d="M529.51 427.685H529.142C529.142 393.431 556.957 365.645 591.247 365.645H591.615C591.689 399.899 563.874 427.685 529.51 427.685Z" fill="#ffffff" fill-opacity="0.07"/>
<path d="M529.51 427.981H529.142C529.142 462.236 556.957 490.022 591.247 490.022H591.615C591.689 455.767 563.874 427.981 529.51 427.981Z" fill="#ffffff" fill-opacity="0.07"/>
<path d="M528.626 427.981H528.994C528.994 462.236 501.179 490.022 466.888 490.022H466.521C466.521 455.767 494.335 427.981 528.626 427.981Z" fill="#ffffff" fill-opacity="0.07"/>
<path d="M528.626 427.685H528.994C528.994 393.431 501.179 365.645 466.888 365.645H466.521C466.521 399.899 494.335 427.685 528.626 427.685Z" fill="#ffffff" fill-opacity="0.07"/>
<path d="M654.676 427.685H654.308C654.308 393.431 682.123 365.645 716.413 365.645H716.781C716.781 399.899 688.966 427.685 654.676 427.685Z" fill="#ffffff" fill-opacity="0.07"/>
<path d="M654.676 427.981H654.308C654.308 462.236 682.123 490.022 716.413 490.022H716.781C716.781 455.767 688.966 427.981 654.676 427.981Z" fill="#ffffff" fill-opacity="0.07"/>
<path d="M653.791 427.981H654.159C654.159 462.236 626.344 490.022 592.054 490.022H591.686C591.686 455.767 619.501 427.981 653.791 427.981Z" fill="#ffffff" fill-opacity="0.07"/>
<path d="M653.791 427.685H654.159C654.159 393.431 626.344 365.645 592.054 365.645H591.686C591.686 399.899 619.501 427.685 653.791 427.685Z" fill="#ffffff" fill-opacity="0.07"/>
<path d="M779.845 427.685H779.478C779.478 393.431 807.293 365.645 841.583 365.645H841.951C841.951 399.899 814.136 427.685 779.845 427.685Z" fill="#ffffff" fill-opacity="0.07"/>
<path d="M779.845 427.981H779.478C779.478 462.236 807.293 490.022 841.583 490.022H841.951C841.951 455.767 814.136 427.981 779.845 427.981Z" fill="#ffffff" fill-opacity="0.07"/>
<path d="M778.961 427.981H779.329C779.329 462.236 751.514 490.022 717.224 490.022H716.856C716.783 455.767 744.597 427.981 778.961 427.981Z" fill="#ffffff" fill-opacity="0.07"/>
<path d="M778.961 427.685H779.329C779.329 393.431 751.514 365.645 717.224 365.645H716.856C716.783 399.899 744.597 427.685 778.961 427.685Z" fill="#ffffff" fill-opacity="0.07"/>
<path d="M904.934 427.685H904.566C904.566 393.431 932.381 365.645 966.672 365.645H967.04C967.04 399.899 939.225 427.685 904.934 427.685Z" fill="#ffffff" fill-opacity="0.07"/>
<path d="M904.934 427.981H904.566C904.566 462.236 932.381 490.022 966.672 490.022H967.04C967.04 455.767 939.225 427.981 904.934 427.981Z" fill="#ffffff" fill-opacity="0.07"/>
<path d="M904.054 427.981H904.422C904.422 462.236 876.607 490.022 842.317 490.022H841.949C841.949 455.767 869.764 427.981 904.054 427.981Z" fill="#ffffff" fill-opacity="0.07"/>
<path d="M904.054 427.685H904.422C904.422 393.431 876.607 365.645 842.317 365.645H841.949C841.949 399.899 869.764 427.685 904.054 427.685Z" fill="#ffffff" fill-opacity="0.07"/>
<path d="M1030.1 427.685H1029.74C1029.74 393.431 1057.55 365.645 1091.84 365.645H1092.21C1092.21 399.899 1064.4 427.685 1030.1 427.685Z" fill="#ffffff" fill-opacity="0.07"/>
<path d="M1030.1 427.981H1029.74C1029.74 462.236 1057.55 490.022 1091.84 490.022H1092.21C1092.21 455.767 1064.4 427.981 1030.1 427.981Z" fill="#ffffff" fill-opacity="0.07"/>
<path d="M1029.22 427.981H1029.59C1029.59 462.236 1001.77 490.022 967.483 490.022H967.115C967.042 455.767 994.857 427.981 1029.22 427.981Z" fill="#ffffff" fill-opacity="0.07"/>
<path d="M1029.22 427.685H1029.59C1029.59 393.431 1001.77 365.645 967.483 365.645H967.115C967.042 399.899 994.857 427.685 1029.22 427.685Z" fill="#ffffff" fill-opacity="0.07"/>
<path d="M1155.2 427.685H1154.83C1154.83 393.431 1182.65 365.645 1216.94 365.645H1217.31C1217.31 399.899 1189.49 427.685 1155.2 427.685Z" fill="#ffffff" fill-opacity="0.07"/>
<path d="M1155.2 427.981H1154.83C1154.83 462.236 1182.65 490.022 1216.94 490.022H1217.31C1217.31 455.767 1189.49 427.981 1155.2 427.981Z" fill="#ffffff" fill-opacity="0.07"/>
<path d="M1154.32 427.981H1154.69C1154.69 462.236 1126.87 490.022 1092.58 490.022H1092.21C1092.21 455.767 1120.03 427.981 1154.32 427.981Z" fill="#ffffff" fill-opacity="0.07"/>
<path d="M1154.32 427.685H1154.69C1154.69 393.431 1126.87 365.645 1092.58 365.645H1092.21C1092.21 399.899 1120.03 427.685 1154.32 427.685Z" fill="#ffffff" fill-opacity="0.07"/>
<path d="M1280.37 427.685H1280C1280 393.431 1307.81 365.645 1342.1 365.645H1342.47C1342.47 399.899 1314.66 427.685 1280.37 427.685Z" fill="#ffffff" fill-opacity="0.07"/>
<path d="M1280.37 427.981H1280C1280 462.236 1307.81 490.022 1342.1 490.022H1342.47C1342.47 455.767 1314.66 427.981 1280.37 427.981Z" fill="#ffffff" fill-opacity="0.07"/>
<path d="M1279.48 427.981H1279.85C1279.85 462.236 1252.04 490.022 1217.75 490.022H1217.38C1217.3 455.767 1245.12 427.981 1279.48 427.981Z" fill="#ffffff" fill-opacity="0.07"/>
<path d="M1279.48 427.685H1279.85C1279.85 393.431 1252.04 365.645 1217.75 365.645H1217.38C1217.3 399.899 1245.12 427.685 1279.48 427.685Z" fill="#ffffff" fill-opacity="0.07"/>
<path d="M1405.46 427.685H1405.09C1405.09 393.431 1432.9 365.645 1467.2 365.645H1467.56C1467.64 399.899 1439.82 427.685 1405.46 427.685Z" fill="#ffffff" fill-opacity="0.07"/>
<path d="M1405.46 427.981H1405.09C1405.09 462.236 1432.9 490.022 1467.2 490.022H1467.56C1467.64 455.767 1439.82 427.981 1405.46 427.981Z" fill="#ffffff" fill-opacity="0.07"/>
<path d="M1404.57 427.981H1404.94C1404.94 462.236 1377.13 490.022 1342.84 490.022H1342.47C1342.47 455.767 1370.28 427.981 1404.57 427.981Z" fill="#ffffff" fill-opacity="0.07"/>
<path d="M1404.57 427.685H1404.94C1404.94 393.431 1377.13 365.645 1342.84 365.645H1342.47C1342.47 399.899 1370.28 427.685 1404.57 427.685Z" fill="#ffffff" fill-opacity="0.07"/>
</svg>
