<svg width="449" height="481" viewBox="0 0 449 481" fill="none" xmlns="http://www.w3.org/2000/svg">
<path d="M63.5535 54.4938H63.1855C63.1855 20.2391 91.0005 -7.54688 125.291 -7.54688H125.659C125.732 26.7078 97.9174 54.4938 63.5535 54.4938Z" fill="#A4E1D2" fill-opacity="0.07"/>
<path d="M63.5535 54.7896H63.1855C63.1855 89.0442 91.0005 116.83 125.291 116.83H125.659C125.732 82.5755 97.9174 54.7896 63.5535 54.7896Z" fill="#A4E1D2" fill-opacity="0.07"/>
<path d="M62.6698 54.7896H63.0377C63.0377 89.0442 35.2228 116.83 0.932376 116.83H0.564453C0.564453 82.5755 28.3794 54.7896 62.6698 54.7896Z" fill="#A4E1D2" fill-opacity="0.07"/>
<path d="M62.6698 54.4938H63.0377C63.0377 20.2391 35.2228 -7.54688 0.932376 -7.54688H0.564453C0.564453 26.7078 28.3794 54.4938 62.6698 54.4938Z" fill="#A4E1D2" fill-opacity="0.07"/>
<path d="M188.723 54.4938H188.355C188.355 20.2391 216.17 -7.54688 250.461 -7.54688H250.829C250.829 26.7078 223.014 54.4938 188.723 54.4938Z" fill="#A4E1D2" fill-opacity="0.07"/>
<path d="M188.723 54.7896H188.355C188.355 89.0442 216.17 116.83 250.461 116.83H250.829C250.829 82.5755 223.014 54.7896 188.723 54.7896Z" fill="#A4E1D2" fill-opacity="0.07"/>
<path d="M187.84 54.7896H188.208C188.208 89.0442 160.393 116.83 126.102 116.83H125.734C125.734 82.5755 153.549 54.7896 187.84 54.7896Z" fill="#A4E1D2" fill-opacity="0.07"/>
<path d="M187.84 54.4938H188.208C188.208 20.2391 160.393 -7.54688 126.102 -7.54688H125.734C125.734 26.7078 153.549 54.4938 187.84 54.4938Z" fill="#A4E1D2" fill-opacity="0.07"/>
<path d="M313.816 54.4938H313.448C313.448 20.2391 341.263 -7.54688 375.554 -7.54688H375.922C375.995 26.7078 348.18 54.4938 313.816 54.4938Z" fill="#A4E1D2" fill-opacity="0.07"/>
<path d="M313.816 54.7896H313.448C313.448 89.0442 341.263 116.83 375.554 116.83H375.922C375.995 82.5755 348.18 54.7896 313.816 54.7896Z" fill="#A4E1D2" fill-opacity="0.07"/>
<path d="M312.932 54.7896H313.3C313.3 89.0442 285.485 116.83 251.195 116.83H250.827C250.827 82.5755 278.642 54.7896 312.932 54.7896Z" fill="#A4E1D2" fill-opacity="0.07"/>
<path d="M312.932 54.4938H313.3C313.3 20.2391 285.485 -7.54688 251.195 -7.54688H250.827C250.827 26.7078 278.642 54.4938 312.932 54.4938Z" fill="#A4E1D2" fill-opacity="0.07"/>
<path d="M438.981 54.4938H438.613C438.613 20.2391 466.428 -7.54688 500.719 -7.54688H501.087C501.087 26.7078 473.272 54.4938 438.981 54.4938Z" fill="#A4E1D2" fill-opacity="0.07"/>
<path d="M438.981 54.7896H438.613C438.613 89.0442 466.428 116.83 500.719 116.83H501.087C501.087 82.5755 473.272 54.7896 438.981 54.7896Z" fill="#A4E1D2" fill-opacity="0.07"/>
<path d="M438.097 54.7896H438.465C438.465 89.0442 410.65 116.83 376.36 116.83H375.992C375.992 82.5755 403.807 54.7896 438.097 54.7896Z" fill="#A4E1D2" fill-opacity="0.07"/>
<path d="M438.097 54.4938H438.465C438.465 20.2391 410.65 -7.54688 376.36 -7.54688H375.992C375.992 26.7078 403.807 54.4938 438.097 54.4938Z" fill="#A4E1D2" fill-opacity="0.07"/>
<path d="M63.5535 178.866H63.1855C63.1855 144.612 91.0005 116.826 125.291 116.826H125.659C125.732 151.08 97.9174 178.866 63.5535 178.866Z" fill="#A4E1D2" fill-opacity="0.07"/>
<path d="M63.5535 179.155H63.1855C63.1855 213.409 91.0005 241.195 125.291 241.195H125.659C125.732 206.941 97.9174 179.155 63.5535 179.155Z" fill="#A4E1D2" fill-opacity="0.07"/>
<path d="M62.6698 179.155H63.0377C63.0377 213.409 35.2228 241.195 0.932376 241.195H0.564453C0.564453 206.941 28.3794 179.155 62.6698 179.155Z" fill="#A4E1D2" fill-opacity="0.07"/>
<path d="M62.6698 178.866H63.0377C63.0377 144.612 35.2228 116.826 0.932376 116.826H0.564453C0.564453 151.08 28.3794 178.866 62.6698 178.866Z" fill="#A4E1D2" fill-opacity="0.07"/>
<path d="M188.719 178.866H188.352C188.352 144.612 216.167 116.826 250.457 116.826H250.825C250.825 151.08 223.01 178.866 188.719 178.866Z" fill="#A4E1D2" fill-opacity="0.07"/>
<path d="M188.719 179.162H188.352C188.352 213.417 216.167 241.203 250.457 241.203H250.825C250.825 206.948 223.01 179.162 188.719 179.162Z" fill="#A4E1D2" fill-opacity="0.07"/>
<path d="M187.836 179.162H188.204C188.204 213.417 160.389 241.203 126.098 241.203H125.73C125.73 206.948 153.545 179.162 187.836 179.162Z" fill="#A4E1D2" fill-opacity="0.07"/>
<path d="M187.836 178.866H188.204C188.204 144.612 160.389 116.826 126.098 116.826H125.73C125.73 151.08 153.545 178.866 187.836 178.866Z" fill="#A4E1D2" fill-opacity="0.07"/>
<path d="M313.813 178.866H313.445C313.445 144.612 341.26 116.826 375.551 116.826H375.919C375.992 151.08 348.177 178.866 313.813 178.866Z" fill="#A4E1D2" fill-opacity="0.07"/>
<path d="M313.813 179.155H313.445C313.445 213.409 341.26 241.195 375.551 241.195H375.919C375.992 206.941 348.177 179.155 313.813 179.155Z" fill="#A4E1D2" fill-opacity="0.07"/>
<path d="M312.932 179.155H313.3C313.3 213.409 285.485 241.195 251.195 241.195H250.827C250.827 206.941 278.642 179.155 312.932 179.155Z" fill="#A4E1D2" fill-opacity="0.07"/>
<path d="M312.932 178.866H313.3C313.3 144.612 285.485 116.826 251.195 116.826H250.827C250.827 151.08 278.642 178.866 312.932 178.866Z" fill="#A4E1D2" fill-opacity="0.07"/>
<path d="M438.981 178.866H438.613C438.613 144.612 466.428 116.826 500.719 116.826H501.087C501.087 151.08 473.272 178.866 438.981 178.866Z" fill="#A4E1D2" fill-opacity="0.07"/>
<path d="M438.981 179.155H438.613C438.613 213.409 466.428 241.195 500.719 241.195H501.087C501.087 206.941 473.272 179.155 438.981 179.155Z" fill="#A4E1D2" fill-opacity="0.07"/>
<path d="M438.097 179.155H438.465C438.465 213.409 410.65 241.195 376.36 241.195H375.992C375.992 206.941 403.807 179.155 438.097 179.155Z" fill="#A4E1D2" fill-opacity="0.07"/>
<path d="M438.097 178.866H438.465C438.465 144.612 410.65 116.826 376.36 116.826H375.992C375.992 151.08 403.807 178.866 438.097 178.866Z" fill="#A4E1D2" fill-opacity="0.07"/>
<path d="M63.5535 303.313H63.1855C63.1855 269.058 91.0005 241.272 125.291 241.272H125.659C125.732 275.527 97.9174 303.313 63.5535 303.313Z" fill="#A4E1D2" fill-opacity="0.07"/>
<path d="M63.5535 303.608H63.1855C63.1855 337.863 91.0005 365.649 125.291 365.649H125.659C125.732 331.394 97.9174 303.608 63.5535 303.608Z" fill="#A4E1D2" fill-opacity="0.07"/>
<path d="M62.6698 303.608H63.0377C63.0377 337.863 35.2228 365.649 0.932376 365.649H0.564453C0.564453 331.394 28.3794 303.608 62.6698 303.608Z" fill="#A4E1D2" fill-opacity="0.07"/>
<path d="M62.6698 303.313H63.0377C63.0377 269.058 35.2228 241.272 0.932376 241.272H0.564453C0.564453 275.527 28.3794 303.313 62.6698 303.313Z" fill="#A4E1D2" fill-opacity="0.07"/>
<path d="M188.719 303.312H188.352C188.352 269.057 216.167 241.271 250.457 241.271H250.825C250.825 275.526 223.01 303.312 188.719 303.312Z" fill="#A4E1D2" fill-opacity="0.07"/>
<path d="M188.719 303.608H188.352C188.352 337.863 216.167 365.649 250.457 365.649H250.825C250.825 331.394 223.01 303.608 188.719 303.608Z" fill="#A4E1D2" fill-opacity="0.07"/>
<path d="M187.836 303.608H188.204C188.204 337.863 160.389 365.649 126.098 365.649H125.73C125.73 331.394 153.545 303.608 187.836 303.608Z" fill="#A4E1D2" fill-opacity="0.07"/>
<path d="M187.836 303.312H188.204C188.204 269.057 160.389 241.271 126.098 241.271H125.73C125.73 275.526 153.545 303.312 187.836 303.312Z" fill="#A4E1D2" fill-opacity="0.07"/>
<path d="M313.813 303.312H313.445C313.445 269.057 341.26 241.271 375.551 241.271H375.919C375.992 275.526 348.177 303.312 313.813 303.312Z" fill="#A4E1D2" fill-opacity="0.07"/>
<path d="M313.813 303.608H313.445C313.445 337.863 341.26 365.649 375.551 365.649H375.919C375.992 331.394 348.177 303.608 313.813 303.608Z" fill="#A4E1D2" fill-opacity="0.07"/>
<path d="M312.932 303.608H313.3C313.3 337.863 285.485 365.649 251.195 365.649H250.827C250.827 331.394 278.642 303.608 312.932 303.608Z" fill="#A4E1D2" fill-opacity="0.07"/>
<path d="M312.932 303.312H313.3C313.3 269.057 285.485 241.271 251.195 241.271H250.827C250.827 275.526 278.642 303.312 312.932 303.312Z" fill="#A4E1D2" fill-opacity="0.07"/>
<path d="M438.981 303.313H438.613C438.613 269.058 466.428 241.272 500.719 241.272H501.087C501.087 275.527 473.272 303.313 438.981 303.313Z" fill="#A4E1D2" fill-opacity="0.07"/>
<path d="M438.981 303.608H438.613C438.613 337.863 466.428 365.649 500.719 365.649H501.087C501.087 331.394 473.272 303.608 438.981 303.608Z" fill="#A4E1D2" fill-opacity="0.07"/>
<path d="M438.097 303.608H438.465C438.465 337.863 410.65 365.649 376.36 365.649H375.992C375.992 331.394 403.807 303.608 438.097 303.608Z" fill="#A4E1D2" fill-opacity="0.07"/>
<path d="M438.097 303.313H438.465C438.465 269.058 410.65 241.272 376.36 241.272H375.992C375.992 275.527 403.807 303.313 438.097 303.313Z" fill="#A4E1D2" fill-opacity="0.07"/>
<path d="M63.5535 427.685H63.1855C63.1855 393.431 91.0005 365.645 125.291 365.645H125.659C125.732 399.899 97.9174 427.685 63.5535 427.685Z" fill="#A4E1D2" fill-opacity="0.07"/>
<path d="M63.5535 427.981H63.1855C63.1855 462.236 91.0005 490.022 125.291 490.022H125.659C125.732 455.767 97.9174 427.981 63.5535 427.981Z" fill="#A4E1D2" fill-opacity="0.07"/>
<path d="M62.6698 427.981H63.0377C63.0377 462.236 35.2228 490.022 0.932376 490.022H0.564453C0.564453 455.767 28.3794 427.981 62.6698 427.981Z" fill="#A4E1D2" fill-opacity="0.07"/>
<path d="M62.6698 427.685H63.0377C63.0377 393.431 35.2228 365.645 0.932376 365.645H0.564453C0.564453 399.899 28.3794 427.685 62.6698 427.685Z" fill="#A4E1D2" fill-opacity="0.07"/>
<path d="M188.723 427.685H188.355C188.355 393.431 216.17 365.645 250.461 365.645H250.829C250.829 399.899 223.014 427.685 188.723 427.685Z" fill="#A4E1D2" fill-opacity="0.07"/>
<path d="M188.723 427.981H188.355C188.355 462.236 216.17 490.022 250.461 490.022H250.829C250.829 455.767 223.014 427.981 188.723 427.981Z" fill="#A4E1D2" fill-opacity="0.07"/>
<path d="M187.84 427.981H188.208C188.208 462.236 160.393 490.022 126.102 490.022H125.734C125.734 455.767 153.549 427.981 187.84 427.981Z" fill="#A4E1D2" fill-opacity="0.07"/>
<path d="M187.84 427.685H188.208C188.208 393.431 160.393 365.645 126.102 365.645H125.734C125.734 399.899 153.549 427.685 187.84 427.685Z" fill="#A4E1D2" fill-opacity="0.07"/>
<path d="M313.816 427.685H313.448C313.448 393.431 341.263 365.645 375.554 365.645H375.922C375.995 399.899 348.18 427.685 313.816 427.685Z" fill="#A4E1D2" fill-opacity="0.07"/>
<path d="M313.816 427.981H313.448C313.448 462.236 341.263 490.022 375.554 490.022H375.922C375.995 455.767 348.18 427.981 313.816 427.981Z" fill="#A4E1D2" fill-opacity="0.07"/>
<path d="M312.932 427.981H313.3C313.3 462.236 285.485 490.022 251.195 490.022H250.827C250.827 455.767 278.642 427.981 312.932 427.981Z" fill="#A4E1D2" fill-opacity="0.07"/>
<path d="M312.932 427.685H313.3C313.3 393.431 285.485 365.645 251.195 365.645H250.827C250.827 399.899 278.642 427.685 312.932 427.685Z" fill="#A4E1D2" fill-opacity="0.07"/>
<path d="M438.981 427.685H438.613C438.613 393.431 466.428 365.645 500.719 365.645H501.087C501.087 399.899 473.272 427.685 438.981 427.685Z" fill="#A4E1D2" fill-opacity="0.07"/>
<path d="M438.981 427.981H438.613C438.613 462.236 466.428 490.022 500.719 490.022H501.087C501.087 455.767 473.272 427.981 438.981 427.981Z" fill="#A4E1D2" fill-opacity="0.07"/>
<path d="M438.097 427.981H438.465C438.465 462.236 410.65 490.022 376.36 490.022H375.992C375.992 455.767 403.807 427.981 438.097 427.981Z" fill="#A4E1D2" fill-opacity="0.07"/>
<path d="M438.097 427.685H438.465C438.465 393.431 410.65 365.645 376.36 365.645H375.992C375.992 399.899 403.807 427.685 438.097 427.685Z" fill="#A4E1D2" fill-opacity="0.07"/>
</svg>
