<svg width="50" height="50" viewBox="0 0 50 50" fill="none" xmlns="http://www.w3.org/2000/svg">
<rect width="50" height="50" rx="25" fill="#A4E1D2"/>
<path opacity="0.4" d="M15.5 25C15.5 20.5217 15.5 18.2825 16.8912 16.8912C18.2825 15.5 20.5217 15.5 25 15.5C29.4783 15.5 31.7175 15.5 33.1088 16.8912C34.5 18.2825 34.5 20.5217 34.5 25C34.5 29.4783 34.5 31.7175 33.1088 33.1088C31.7175 34.5 29.4783 34.5 25 34.5C20.5217 34.5 18.2825 34.5 16.8912 33.1088C15.5 31.7175 15.5 29.4783 15.5 25Z" fill="#007373"/>
<path fill-rule="evenodd" clip-rule="evenodd" d="M21.1923 21.7115C21.072 21.4228 20.7851 21.2391 20.4726 21.2505C20.16 21.2619 19.8874 21.4661 19.7884 21.7628L17.7884 27.7628C17.6575 28.1558 17.8698 28.5805 18.2628 28.7115C18.6557 28.8425 19.0805 28.6301 19.2115 28.2372L19.5405 27.25H21.875L22.3077 28.2885C22.467 28.6708 22.9061 28.8516 23.2884 28.6923C23.6708 28.533 23.8516 28.0939 23.6923 27.7115L21.1923 21.7115ZM21.25 25.75H20.0405L20.5781 24.1374L21.25 25.75Z" fill="#007373"/>
<path fill-rule="evenodd" clip-rule="evenodd" d="M26.1598 21.2497L26.1999 21.2499H27.4999C28.7426 21.2499 29.7499 22.2573 29.7499 23.4999C29.7499 24.7426 28.7426 25.7499 27.4999 25.7499H26.2499V27.9999C26.2499 28.4141 25.9141 28.7499 25.4999 28.7499C25.0857 28.7499 24.7499 28.4141 24.7499 27.9999V22.6999L24.7497 22.6598C24.7489 22.5256 24.7475 22.3094 24.8111 22.1136C24.9347 21.7331 25.2331 21.4347 25.6136 21.3111C25.8094 21.2475 26.0256 21.2489 26.1598 21.2497ZM26.2499 24.2499H27.4999C27.9141 24.2499 28.2499 23.9141 28.2499 23.4999C28.2499 23.0857 27.9141 22.7499 27.4999 22.7499H26.2499V24.2499Z" fill="#007373"/>
<path d="M32.25 22C32.25 21.5858 31.9142 21.25 31.5 21.25C31.0858 21.25 30.75 21.5858 30.75 22V28C30.75 28.4142 31.0858 28.75 31.5 28.75C31.9142 28.75 32.25 28.4142 32.25 28V22Z" fill="#007373"/>
<path fill-rule="evenodd" clip-rule="evenodd" d="M25.0572 14.75H24.9428C22.7521 14.75 21.0314 14.75 19.688 14.9306C18.3114 15.1157 17.2191 15.5027 16.3609 16.3609C15.5027 17.2191 15.1157 18.3114 14.9306 19.688C14.75 21.0314 14.75 22.7521 14.75 24.9428V25.0572C14.75 27.2479 14.75 28.9686 14.9306 30.312C15.1157 31.6886 15.5027 32.7809 16.3609 33.6391C17.2191 34.4973 18.3114 34.8843 19.688 35.0694C21.0314 35.25 22.7521 35.25 24.9428 35.25H25.0572C27.2479 35.25 28.9686 35.25 30.312 35.0694C31.6886 34.8843 32.7809 34.4973 33.6391 33.6391C34.4973 32.7809 34.8843 31.6886 35.0694 30.312C35.25 28.9686 35.25 27.2479 35.25 25.0572V24.9428C35.25 22.7521 35.25 21.0314 35.0694 19.688C34.8843 18.3114 34.4973 17.2191 33.6391 16.3609C32.7809 15.5027 31.6886 15.1157 30.312 14.9306C28.9686 14.75 27.2479 14.75 25.0572 14.75ZM17.4216 17.4216C17.9546 16.8885 18.6776 16.5799 19.8879 16.4172C21.1198 16.2516 22.7396 16.25 25 16.25C27.2604 16.25 28.8802 16.2516 30.1121 16.4172C31.3224 16.5799 32.0454 16.8885 32.5784 17.4216C33.1115 17.9546 33.4201 18.6776 33.5828 19.8879C33.7484 21.1198 33.75 22.7396 33.75 25C33.75 27.2604 33.7484 28.8802 33.5828 30.1121C33.4201 31.3224 33.1115 32.0454 32.5784 32.5784C32.0454 33.1115 31.3224 33.4201 30.1121 33.5828C28.8802 33.7484 27.2604 33.75 25 33.75C22.7396 33.75 21.1198 33.7484 19.8879 33.5828C18.6776 33.4201 17.9546 33.1115 17.4216 32.5784C16.8885 32.0454 16.5799 31.3224 16.4172 30.1121C16.2516 28.8802 16.25 27.2604 16.25 25C16.25 22.7396 16.2516 21.1198 16.4172 19.8879C16.5799 18.6776 16.8885 17.9546 17.4216 17.4216Z" fill="#007373"/>
</svg>
