<svg width="50" height="50" viewBox="0 0 50 50" fill="none" xmlns="http://www.w3.org/2000/svg">
<rect width="50" height="50" rx="25" fill="#D20202" fill-opacity="0.11"/>
<path opacity="0.4" d="M30.2624 23.2459L32.0165 21.4917C32.4244 21.0839 32.6283 20.88 32.7507 20.6679C33.0831 20.0922 33.0831 19.383 32.7507 18.8073C32.6283 18.5952 32.4244 18.3913 32.0165 17.9835C31.6087 17.5756 31.4048 17.3717 31.1927 17.2493C30.617 16.9169 29.9078 16.9169 29.3321 17.2493C29.12 17.3717 28.9161 17.5756 28.5083 17.9835L26.7541 19.7376C25.9272 20.5645 25.5138 20.978 25 20.978C24.4862 20.978 24.0728 20.5645 23.2459 19.7376L21.4917 17.9835C21.0839 17.5756 20.88 17.3717 20.6679 17.2493C20.0922 16.9169 19.383 16.9169 18.8073 17.2493C18.5952 17.3717 18.3913 17.5756 17.9835 17.9835C17.5756 18.3913 17.3717 18.5952 17.2493 18.8073C16.9169 19.383 16.9169 20.0922 17.2493 20.6679C17.3717 20.88 17.5756 21.0839 17.9835 21.4917L19.7376 23.2459C20.5645 24.0728 20.978 24.4862 20.978 25C20.978 25.5138 20.5645 25.9272 19.7376 26.7541L17.9835 28.5083C17.5756 28.9161 17.3717 29.12 17.2493 29.3321C16.9169 29.9078 16.9169 30.617 17.2493 31.1927C17.3717 31.4048 17.5756 31.6087 17.9835 32.0165C18.3913 32.4244 18.5952 32.6283 18.8073 32.7507C19.383 33.0831 20.0922 33.0831 20.6679 32.7507C20.88 32.6283 21.0839 32.4244 21.4917 32.0165L23.2459 30.2624C24.0728 29.4355 24.4862 29.022 25 29.022C25.5138 29.022 25.9272 29.4355 26.7541 30.2624L28.5083 32.0165C28.9161 32.4244 29.12 32.6283 29.3321 32.7507C29.9078 33.0831 30.617 33.0831 31.1927 32.7507C31.4048 32.6283 31.6087 32.4244 32.0165 32.0165C32.4244 31.6087 32.6283 31.4048 32.7507 31.1927C33.0831 30.617 33.0831 29.9078 32.7507 29.3321C32.6283 29.12 32.4244 28.9161 32.0165 28.5083L30.2624 26.7541C29.4355 25.9272 29.022 25.5138 29.022 25C29.022 24.4862 29.4355 24.0728 30.2624 23.2459Z" fill="#FF3B30"/>
<path d="M19.8079 33.7542C18.6679 33.7542 17.8079 32.8842 17.4679 32.5442C17.0079 32.0842 15.6079 30.6942 16.6179 28.9542C16.7879 28.6542 17.0279 28.4142 17.4679 27.9742L19.2179 26.2242C19.7879 25.6542 20.2379 25.2042 20.2379 25.0042C20.2379 24.8042 19.7879 24.3542 19.2179 23.7842L17.4579 22.0242C17.0179 21.5842 16.7778 21.3442 16.6078 21.0442C15.6078 19.3042 16.9979 17.9142 17.4579 17.4542C17.9179 16.9942 19.3079 15.5942 21.0479 16.6042C21.3479 16.7742 21.5879 17.0142 22.0279 17.4542L23.7779 19.2042C24.3479 19.7742 24.7979 20.2242 24.9979 20.2242C25.1979 20.2242 25.6479 19.7742 26.2179 19.2042L27.9679 17.4542C28.4079 17.0142 28.6479 16.7742 28.9479 16.6042C30.6779 15.6042 32.0779 16.9942 32.5379 17.4542C32.9979 17.9142 34.3979 19.3042 33.3879 21.0442C33.2179 21.3442 32.9779 21.5842 32.5379 22.0242L30.7879 23.7742C30.2179 24.3442 29.7679 24.7942 29.7679 24.9942C29.7679 25.1942 30.2179 25.6442 30.7879 26.2142L32.5379 27.9642C32.9779 28.4042 33.2179 28.6442 33.3879 28.9442C34.3879 30.6842 32.9979 32.0742 32.5379 32.5342C32.0779 32.9942 30.6879 34.3942 28.9479 33.3842C28.6479 33.2142 28.4079 32.9742 27.9679 32.5342L26.2179 30.7842C25.6479 30.2142 25.1979 29.7642 24.9979 29.7642C24.7979 29.7642 24.3479 30.2142 23.7779 30.7842L22.0279 32.5342C21.5879 32.9742 21.3479 33.2142 21.0479 33.3842C20.6079 33.6342 20.1879 33.7342 19.8079 33.7342V33.7542ZM19.8079 17.7542C19.4779 17.7542 19.0879 17.9542 18.5279 18.5142C17.6579 19.3842 17.6479 19.8342 17.9079 20.2942C17.9779 20.4242 18.1879 20.6242 18.5179 20.9642L20.2679 22.7142C21.1779 23.6242 21.7278 24.1742 21.7278 24.9942C21.7278 25.8142 21.1779 26.3642 20.2679 27.2742L18.5179 29.0242C18.1779 29.3642 17.9779 29.5642 17.8979 29.6942C17.6379 30.1542 17.6479 30.6042 18.5079 31.4742C19.3779 32.3442 19.8279 32.3542 20.2879 32.0942C20.4179 32.0242 20.6179 31.8142 20.9579 31.4842L22.7079 29.7342C23.6179 28.8242 24.1679 28.2742 24.9879 28.2742C25.8079 28.2742 26.3579 28.8242 27.2679 29.7342L29.0179 31.4842C29.3579 31.8242 29.5579 32.0242 29.6879 32.1042C30.1479 32.3642 30.5979 32.3542 31.4679 31.4942C32.3379 30.6242 32.3479 30.1742 32.0879 29.7142C32.0179 29.5842 31.8078 29.3842 31.4778 29.0442L29.7278 27.2942C28.8178 26.3842 28.2679 25.8342 28.2679 25.0142C28.2679 24.1942 28.8178 23.6442 29.7278 22.7342L31.4879 20.9742C31.8279 20.6342 32.0278 20.4342 32.1078 20.3042C32.3678 19.8442 32.3579 19.3942 31.4979 18.5242C30.6279 17.6542 30.1779 17.6442 29.7179 17.9042C29.5879 17.9742 29.3879 18.1842 29.0479 18.5142L27.2979 20.2642C26.3879 21.1742 25.8379 21.7242 25.0179 21.7242C24.1979 21.7242 23.6479 21.1742 22.7379 20.2642L20.9879 18.5142C20.6479 18.1742 20.4479 17.9742 20.3179 17.8942C20.1579 17.8042 19.9979 17.7442 19.8179 17.7442L19.8079 17.7542Z" fill="#FF3B30"/>
</svg>
