<svg width="50" height="50" viewBox="0 0 50 50" fill="none" xmlns="http://www.w3.org/2000/svg">
<rect width="50" height="50" rx="25" fill="#A4E1D2"/>
<path opacity="0.4" d="M22.9985 22.1172C22.0808 23.5947 22.2438 25.5879 23.4875 26.8823C24.2054 27.6294 25.147 28.0018 26.088 27.9994C26.3954 28.0002 26.7028 27.961 27.0026 27.8817C26.8642 28.1046 26.7012 28.3157 26.5136 28.5109L23.2742 31.8823C23.0505 32.1151 22.805 32.3116 22.5446 32.4716C21.9695 32.8251 21.3215 33.0011 20.6739 32.9994C19.733 33.0018 18.7913 32.6294 18.0734 31.8823C16.6422 30.3927 16.6422 27.9776 18.0734 26.488L21.3129 23.1166C21.7962 22.6136 22.3809 22.2805 22.9985 22.1172Z" fill="#007373"/>
<path d="M32.4675 17.5975C30.7411 15.8008 27.9292 15.8008 26.2028 17.5975L25.4893 18.3401C25.2023 18.6388 25.2118 19.1136 25.5105 19.4006C25.8092 19.6876 26.284 19.6781 26.5709 19.3794L27.2845 18.6368C28.4206 17.4544 30.2497 17.4544 31.3859 18.6368C32.5382 19.8361 32.5382 21.7925 31.3859 22.9918L28.1465 26.3632C27.9668 26.5502 27.7711 26.7065 27.565 26.8332C26.4569 27.5143 25.0056 27.3629 24.0451 26.3632C23.8888 26.2006 23.7539 26.0244 23.6402 25.8381C23.4243 25.4846 22.9628 25.373 22.6092 25.5889C22.2557 25.8047 22.1441 26.2663 22.36 26.6198C22.5295 26.8975 22.7307 27.1603 22.9635 27.4025C24.418 28.9162 26.6477 29.1577 28.3504 28.1111C28.6651 27.9177 28.9603 27.6811 29.2281 27.4025L32.4675 24.0311C34.1777 22.2512 34.1776 19.3774 32.4675 17.5975Z" fill="#007373"/>
<path d="M27.0368 22.5975C25.3104 20.8008 22.4984 20.8008 20.7721 22.5975L17.5326 25.9689C15.8225 27.7488 15.8225 30.6226 17.5326 32.4025C19.259 34.1992 22.0709 34.1992 23.7973 32.4025L24.5111 31.6596C24.7981 31.3609 24.7886 30.8861 24.4899 30.5991C24.1913 30.3122 23.7165 30.3216 23.4295 30.6203L22.7157 31.3632C21.5796 32.5456 19.7504 32.5456 18.6143 31.3632C17.4619 30.1639 17.4619 28.2075 18.6143 27.0082L21.8537 23.6368C22.9898 22.4544 24.819 22.4544 25.9551 23.6368C26.1113 23.7994 26.2462 23.9756 26.3599 24.1617C26.5758 24.5152 27.0374 24.6268 27.3909 24.4109C27.7444 24.195 27.856 23.7334 27.6401 23.3799C27.4706 23.1024 27.2694 22.8397 27.0368 22.5975Z" fill="#007373"/>
</svg>
