<svg width="50" height="50" viewBox="0 0 50 50" fill="none" xmlns="http://www.w3.org/2000/svg">
<rect width="50" height="50" rx="25" fill="#A4E1D2"/>
<path opacity="0.4" d="M18 21.9997C18 18.6999 18 17.05 19.0251 16.0248C19.6779 15.3721 20.584 15.1349 22.0082 15.0488L22.089 15.5337C22.2902 16.7409 22.3972 17.3182 22.8276 17.6661C23.2401 17.9997 23.8268 17.9997 25 17.9997C26.2239 17.9997 26.8108 17.989 27.2248 17.6217C27.6217 17.2696 27.7181 16.691 27.911 15.5337L27.9918 15.0488C29.416 15.1349 30.3221 15.3721 30.9749 16.0248C32 17.05 32 18.6999 32 21.9997L32 27.9997C32 31.2995 32 32.9494 30.9749 33.9746C29.9497 34.9997 28.2998 34.9997 25 34.9997C21.7002 34.9997 20.0503 34.9997 19.0251 33.9746C18 32.9494 18 31.2995 18 27.9997L18 21.9997Z" fill="#007373"/>
<path fill-rule="evenodd" clip-rule="evenodd" d="M24.9442 14.25L25.0557 14.25C26.6583 14.25 27.9373 14.25 28.9404 14.3848C29.9766 14.5242 30.8301 14.8197 31.5052 15.4948C32.1803 16.1699 32.4758 17.0234 32.6152 18.0596C32.75 19.0627 32.75 20.3417 32.75 21.9443L32.75 28.0557C32.75 29.6583 32.75 30.9373 32.6152 31.9404C32.4758 32.9767 32.1803 33.8301 31.5052 34.5052C30.8301 35.1803 29.9766 35.4758 28.9404 35.6152C27.9373 35.75 26.6583 35.75 25.0557 35.75L24.9443 35.75C23.3417 35.75 22.0627 35.75 21.0596 35.6152C20.0233 35.4758 19.1699 35.1803 18.4948 34.5052C17.8197 33.8301 17.5242 32.9767 17.3848 31.9404C17.25 30.9373 17.25 29.6583 17.25 28.0557L17.25 21.9442C17.25 20.3417 17.25 19.0627 17.3848 18.0596C17.5242 17.0233 17.8197 16.1699 18.4948 15.4948C19.1699 14.8197 20.0233 14.5242 21.0596 14.3848C22.0627 14.25 23.3417 14.25 24.9442 14.25ZM21.2595 15.8714C20.3896 15.9884 19.9054 16.2055 19.5555 16.5555C19.2055 16.9054 18.9884 17.3895 18.8715 18.2595C18.7516 19.151 18.75 20.3289 18.75 22L18.75 28C18.75 29.6711 18.7516 30.849 18.8715 31.7405C18.9884 32.6104 19.2055 33.0946 19.5555 33.4445C19.9054 33.7945 20.3896 34.0116 21.2595 34.1285C22.151 34.2484 23.3289 34.25 25 34.25C26.6711 34.25 27.849 34.2484 28.7405 34.1285C29.6104 34.0116 30.0946 33.7945 30.4445 33.4445C30.7945 33.0946 31.0116 32.6104 31.1285 31.7405C31.2484 30.849 31.25 29.6711 31.25 28L31.25 22C31.25 20.3289 31.2484 19.151 31.1285 18.2595C31.0116 17.3896 30.7945 16.9054 30.4445 16.5555C30.0946 16.2055 29.6104 15.9884 28.7405 15.8715C28.7001 15.866 28.6592 15.8608 28.6176 15.8559C28.5377 16.3329 28.4639 16.7506 28.364 17.0909C28.2449 17.4968 28.0663 17.8778 27.7225 18.1828C27.367 18.4983 26.9574 18.6308 26.5188 18.6915C26.1052 18.7486 25.5948 18.7498 25 18.7498L24.9573 18.7498C24.4072 18.7498 23.9287 18.7498 23.5385 18.7026C23.1186 18.6519 22.7134 18.5384 22.356 18.2494C21.9864 17.9505 21.7883 17.5684 21.6564 17.1456C21.5463 16.7928 21.467 16.358 21.3825 15.8559C21.3409 15.8608 21.2999 15.866 21.2595 15.8714ZM22.8886 15.7645C22.9613 16.1861 23.0191 16.4772 23.0883 16.6988C23.1678 16.9535 23.2384 17.0339 23.2991 17.083C23.3543 17.1276 23.4487 17.1809 23.7185 17.2135C24.008 17.2485 24.3948 17.2498 25 17.2498C25.629 17.2498 26.024 17.2456 26.3134 17.2056C26.5777 17.1691 26.6686 17.1126 26.727 17.0608C26.7801 17.0137 26.8482 16.9294 26.9247 16.6685C26.9893 16.4485 27.0432 16.1657 27.1117 15.7645C26.5085 15.7504 25.8126 15.75 25 15.75C24.1875 15.75 23.4917 15.7504 22.8886 15.7645ZM23.25 32C23.25 31.5858 23.5858 31.25 24 31.25L26 31.25C26.4142 31.25 26.75 31.5858 26.75 32C26.75 32.4142 26.4142 32.75 26 32.75L24 32.75C23.5858 32.75 23.25 32.4142 23.25 32Z" fill="#007373"/>
</svg>
