<svg width="50" height="50" viewBox="0 0 50 50" fill="none" xmlns="http://www.w3.org/2000/svg">
<rect width="50" height="50" rx="25" fill="#A4E1D2"/>
<path opacity="0.4" d="M34.0477 16.0529C31.8697 13.7074 15.4865 19.4532 15.5 21.551C15.5153 23.9299 21.8981 24.6617 23.6672 25.1581C24.7311 25.4565 25.016 25.7625 25.2613 26.8781C26.3723 31.9305 26.9301 34.4435 28.2014 34.4996C30.2278 34.5892 36.1733 18.342 34.0477 16.0529Z" fill="#007373"/>
<path fill-rule="evenodd" clip-rule="evenodd" d="M24.1707 26.1741C24.1906 26.1904 24.207 26.2062 24.2213 26.2216C24.3108 26.318 24.4104 26.5007 24.5288 27.0391C25.0798 29.5447 25.5073 31.4888 25.9623 32.8071C26.1892 33.4645 26.4445 34.0336 26.7678 34.4533C27.1052 34.8913 27.5642 35.2222 28.1683 35.2489C28.5444 35.2655 28.8571 35.0938 29.0715 34.9344C29.2975 34.7666 29.51 34.5414 29.7071 34.2953C30.1031 33.8005 30.5192 33.1159 30.9332 32.3247C31.7652 30.7347 32.6462 28.6028 33.3917 26.4096C34.1368 24.2173 34.7577 21.9306 35.0568 20.0301C35.206 19.0823 35.2798 18.2021 35.2388 17.4648C35.1999 16.7656 35.0509 16.0311 34.5973 15.5426C34.1299 15.0392 33.397 14.8506 32.6968 14.7831C31.9611 14.7122 31.08 14.7594 30.1313 14.8838C28.2288 15.1334 25.9302 15.711 23.7222 16.4218C21.5128 17.1329 19.3591 17.9887 17.7463 18.8085C16.9435 19.2165 16.2473 19.6293 15.7412 20.0259C15.4892 20.2233 15.2592 20.436 15.0862 20.6624C14.9212 20.8783 14.7476 21.1855 14.75 21.5558C14.7563 22.5279 15.4183 23.2149 16.1233 23.676C16.8428 24.1467 17.78 24.5014 18.7116 24.7792C19.6532 25.06 20.6435 25.2776 21.4947 25.454C21.7009 25.4967 21.8964 25.5365 22.0802 25.574C22.6779 25.6958 23.1518 25.7924 23.4646 25.8802C23.7392 25.9572 23.9131 26.0237 24.0284 26.0832C24.073 26.1194 24.1208 26.1497 24.1707 26.1741ZM16.2361 21.6371C16.2359 21.6375 16.2361 21.6371 16.2361 21.6371L16.237 21.6351C16.2366 21.636 16.2363 21.6367 16.2361 21.6371ZM16.2781 21.5732C16.2679 21.5864 16.26 21.5976 16.254 21.6067C16.2802 21.8174 16.4426 22.0925 16.9444 22.4207C17.4812 22.7718 18.2532 23.0772 19.1403 23.3417C20.0174 23.6033 20.9555 23.8104 21.7991 23.9852C21.9799 24.0226 22.1587 24.059 22.3326 24.0945C22.9459 24.2193 23.4994 24.332 23.8698 24.4359C24.0345 24.4821 24.1952 24.5318 24.3498 24.5896L27.4697 21.4697C27.7626 21.1768 28.2374 21.1768 28.5303 21.4697C28.8232 21.7626 28.8232 22.2374 28.5303 22.5303L25.5542 25.5065C25.7765 25.8604 25.8965 26.2742 25.9938 26.717C26.5539 29.2638 26.9608 31.1024 27.3802 32.3177C27.5905 32.9271 27.7825 33.3126 27.956 33.5378C28.0528 33.6634 28.123 33.7143 28.1704 33.7352L28.1771 33.7303C28.2598 33.6688 28.3808 33.5519 28.5361 33.3579C28.8447 32.9723 29.209 32.3845 29.6042 31.6293C30.3904 30.1266 31.2429 28.0704 31.9715 25.9269C32.7003 23.7825 33.2939 21.5838 33.5751 19.7969C33.716 18.901 33.7738 18.1371 33.7411 17.5481C33.7062 16.921 33.5759 16.647 33.4981 16.5633C33.4211 16.4803 33.1655 16.3353 32.5529 16.2762C31.9758 16.2206 31.2198 16.2539 30.3264 16.3711C28.545 16.6047 26.3402 17.1549 24.1818 17.8496C22.0249 18.5439 19.9492 19.3714 18.4259 20.1456C17.6606 20.5347 17.0621 20.8966 16.6663 21.2066C16.4674 21.3625 16.3446 21.486 16.2781 21.5732Z" fill="#007373"/>
</svg>
