<svg width="50" height="50" viewBox="0 0 50 50" fill="none" xmlns="http://www.w3.org/2000/svg">
<rect width="50" height="50" rx="25" fill="#34C759" fill-opacity="0.11"/>
<path opacity="0.4" d="M22.738 16.6C22.098 17.24 21.464 17.54 20.552 17.54C19.756 17.54 18.622 17.38 18 18.01C17.382 18.63 17.536 19.76 17.536 20.55C17.536 21.46 17.239 22.1 16.599 22.74C15.533 23.8 15 24.34 15 25C15 25.66 15.533 26.2 16.599 27.26C17.316 27.98 17.536 28.44 17.536 29.45C17.536 30.24 17.382 31.38 18.009 32C18.632 32.62 19.761 32.46 20.552 32.46C21.523 32.46 21.991 32.65 22.685 33.35C23.275 33.94 24.066 35 25 35C25.934 35 26.725 33.94 27.315 33.35C28.009 32.65 28.477 32.46 29.448 32.46C30.239 32.46 31.368 32.62 31.991 32C32.618 31.38 32.464 30.24 32.464 29.45C32.464 28.44 32.684 27.98 33.401 27.26C34.467 26.2 35 25.66 35 25C35 24.34 34.467 23.8 33.401 22.74C32.684 22.02 32.464 21.56 32.464 20.55C32.464 19.76 32.618 18.62 31.991 18C31.368 17.38 30.239 17.54 29.448 17.54C28.535 17.54 27.902 17.24 27.262 16.6C26.196 15.53 25.662 15 25 15C24.338 15 23.804 15.53 22.738 16.6Z" fill="#34C759"/>
<path d="M22.46 34.201C23.068 34.855 23.901 35.75 25 35.75L24.999 35.748C26.098 35.748 26.931 34.853 27.539 34.199C27.5573 34.1796 27.5754 34.1603 27.5933 34.1412C27.683 34.0455 27.7678 33.9552 27.847 33.876C28.398 33.32 28.667 33.208 29.447 33.208C29.5642 33.208 29.6896 33.2117 29.8199 33.2155L29.8374 33.2161C30.6242 33.2401 31.6904 33.2726 32.438 32.606C32.504 32.559 32.562 32.501 32.609 32.435C33.275 31.686 33.244 30.615 33.221 29.824L33.2206 29.8106C33.2167 29.6843 33.213 29.562 33.213 29.448C33.213 28.667 33.334 28.387 33.929 27.79L33.9304 27.7886C35.0646 26.6605 35.749 25.9796 35.749 24.998C35.749 24.0164 35.0644 23.3354 33.9301 22.207L33.929 22.206C33.635 21.914 33.16 21.915 32.868 22.209C32.576 22.503 32.577 22.978 32.871 23.27C33.777 24.17 34.249 24.656 34.249 24.998C34.249 25.34 33.777 25.826 32.869 26.729C31.994 27.607 31.713 28.268 31.713 29.448C31.713 29.5732 31.7166 29.7074 31.7205 29.8474L31.7212 29.8732C31.7371 30.4531 31.7569 31.172 31.463 31.464L31.461 31.466C31.169 31.757 30.455 31.735 29.882 31.717C29.731 31.712 29.588 31.708 29.447 31.708C28.264 31.708 27.616 31.978 26.784 32.818C26.672 32.93 26.56 33.05 26.441 33.178L26.4397 33.1795C26.0198 33.6303 25.4445 34.248 24.999 34.248C24.553 34.248 23.977 33.63 23.557 33.178C23.439 33.05 23.326 32.929 23.217 32.82C22.382 31.978 21.734 31.708 20.551 31.708C20.41 31.708 20.267 31.712 20.116 31.717C19.542 31.736 18.829 31.757 18.535 31.465C18.239 31.173 18.26 30.449 18.277 29.868L18.2775 29.8516C18.2813 29.7114 18.285 29.5761 18.285 29.449C18.285 28.269 18.004 27.608 17.127 26.727C16.221 25.827 15.749 25.341 15.749 24.999C15.749 24.657 16.221 24.171 17.128 23.269C17.928 22.469 18.285 21.63 18.285 20.549C18.285 20.4217 18.2813 20.2862 18.2775 20.145L18.277 20.126C18.26 19.549 18.239 18.831 18.533 18.536C18.824 18.24 19.542 18.262 20.118 18.28C20.269 18.285 20.415 18.289 20.551 18.289C21.627 18.289 22.465 17.931 23.268 17.128C24.171 16.222 24.658 15.749 24.999 15.749C25.34 15.749 25.827 16.222 26.73 17.128C27.023 17.422 27.498 17.422 27.791 17.13C28.084 16.837 28.085 16.362 27.793 16.069C26.662 14.933 25.979 14.248 25 14.248C24.0215 14.248 23.3387 14.9333 22.2098 16.0662L22.208 16.068C21.683 16.593 21.234 16.788 20.552 16.788C20.4348 16.788 20.3103 16.7843 20.181 16.7805L20.165 16.78C19.343 16.755 18.217 16.721 17.469 17.479C16.7211 18.2289 16.754 19.3497 16.778 20.1686L16.7785 20.1853C16.7823 20.3125 16.786 20.4349 16.786 20.549C16.786 21.236 16.591 21.686 16.07 22.207L16.0686 22.2084C14.9345 23.3366 14.25 24.0174 14.25 24.999C14.25 25.9796 14.934 26.66 16.0631 27.7831L16.068 27.788C16.665 28.388 16.786 28.668 16.786 29.449C16.786 29.563 16.7822 29.6854 16.7784 29.8117L16.778 29.825L16.7778 29.8298C16.7549 30.6554 16.7234 31.7834 17.48 32.531C18.2292 33.2772 19.3448 33.243 20.1606 33.218L20.163 33.218L20.179 33.2175C20.3092 33.2137 20.4348 33.21 20.552 33.21C21.333 33.21 21.602 33.322 22.155 33.88C22.247 33.972 22.351 34.083 22.46 34.201Z" fill="#34C759"/>
<path d="M24.4697 26.53C24.6108 26.671 24.8007 26.75 24.9997 26.75L25.0197 26.7491C25.2257 26.7441 25.4197 26.654 25.5577 26.501L34.5577 16.501C34.8347 16.193 34.8097 15.719 34.5017 15.442C34.1937 15.165 33.7197 15.1901 33.4427 15.4981L24.9718 24.91L22.0307 21.9691C21.7377 21.6761 21.2628 21.6761 20.9697 21.9691C20.6768 22.2621 20.6768 22.737 20.9697 23.03L24.4697 26.53Z" fill="#34C759"/>
</svg>
