<svg width="50" height="50" viewBox="0 0 50 50" fill="none" xmlns="http://www.w3.org/2000/svg">
<rect width="50" height="50" rx="25" fill="#A4E1D2"/>
<path opacity="0.4" d="M26.5 16H23.5C20.2002 16 18.5503 16 17.5251 17.0251C16.5 18.0503 16.5 19.7002 16.5 23V28C16.5 31.2998 16.5 32.9497 17.5251 33.9749C18.5503 35 20.2002 35 23.5 35H26C26.2237 35 26.4405 34.9706 26.6468 34.9155L27.7615 34.274C28.2176 33.8211 28.5 33.1935 28.5 32.5C28.5 32.3595 28.4931 32.2119 28.486 32.0615C28.468 31.6775 28.4491 31.2754 28.5426 30.9265C28.6582 30.4951 28.9951 30.1582 29.4265 30.0426C29.7754 29.9491 30.1775 29.968 30.5615 29.986C30.7119 29.9931 30.8595 30 31 30C32.3807 30 33.5 28.8807 33.5 27.5V23C33.5 19.7002 33.5 18.0503 32.4749 17.0251C31.4497 16 29.7998 16 26.5 16Z" fill="#007373"/>
<path d="M20.25 23C20.25 22.5858 20.5858 22.25 21 22.25H29C29.4142 22.25 29.75 22.5858 29.75 23C29.75 23.4142 29.4142 23.75 29 23.75H21C20.5858 23.75 20.25 23.4142 20.25 23Z" fill="#007373"/>
<path d="M20.25 28C20.25 27.5858 20.5858 27.25 21 27.25H25C25.4142 27.25 25.75 27.5858 25.75 28C25.75 28.4142 25.4142 28.75 25 28.75H21C20.5858 28.75 20.25 28.4142 20.25 28Z" fill="#007373"/>
<path fill-rule="evenodd" clip-rule="evenodd" d="M20.75 15C20.75 14.5858 20.4142 14.25 20 14.25C19.5858 14.25 19.25 14.5858 19.25 15V15.3487C19.2021 15.3543 19.1548 15.3603 19.1083 15.3665C18.2081 15.4875 17.4503 15.7464 16.8484 16.3484C16.2464 16.9503 15.9875 17.7081 15.8665 18.6082C15.75 19.4752 15.75 20.5775 15.75 21.9451V29.0549C15.75 30.4225 15.75 31.5248 15.8665 32.3918C15.9875 33.2919 16.2464 34.0497 16.8484 34.6517C17.4503 35.2536 18.2081 35.5125 19.1083 35.6335C19.9752 35.75 21.0775 35.75 22.4451 35.75H23.5574C24.3969 35.75 25.1704 35.75 25.8827 35.7409C25.9209 35.7469 25.9601 35.75 26 35.75C26.1103 35.75 26.2193 35.7445 26.3267 35.7338C27.3829 35.7132 28.2968 35.6664 29.0863 35.5603C30.531 35.366 31.6711 34.9607 32.5659 34.0659C33.4607 33.1711 33.866 32.031 34.0603 30.5863C34.1664 29.7968 34.2132 28.8829 34.2338 27.8267C34.2445 27.7193 34.25 27.6103 34.25 27.5C34.25 27.4601 34.2469 27.4209 34.2409 27.3827C34.25 26.6704 34.25 25.8969 34.25 25.0574V21.9451C34.25 20.5775 34.25 19.4752 34.1335 18.6082C34.0125 17.7081 33.7536 16.9503 33.1517 16.3484C32.5497 15.7464 31.7919 15.4875 30.8918 15.3665C30.8452 15.3603 30.7979 15.3543 30.75 15.3487V15C30.75 14.5858 30.4142 14.25 30 14.25C29.5858 14.25 29.25 14.5858 29.25 15V15.2608C28.7373 15.25 28.1732 15.25 27.5549 15.25H25.75V15C25.75 14.5858 25.4142 14.25 25 14.25C24.5858 14.25 24.25 14.5858 24.25 15V15.25H22.4451C21.8268 15.25 21.2627 15.25 20.75 15.2608V15ZM32.7353 27.728C32.7497 26.9296 32.75 26.0273 32.75 25V22C32.75 20.5646 32.7484 19.5635 32.6469 18.8081C32.5482 18.0743 32.3678 17.6858 32.091 17.409C31.8216 17.1396 31.4464 16.9615 30.75 16.8612V17C30.75 17.4142 30.4142 17.75 30 17.75C29.5858 17.75 29.25 17.4142 29.25 17V16.7611C28.749 16.7504 28.1721 16.75 27.5 16.75H25.75V17C25.75 17.4142 25.4142 17.75 25 17.75C24.5858 17.75 24.25 17.4142 24.25 17V16.75H22.5C21.8279 16.75 21.251 16.7504 20.75 16.7611V17C20.75 17.4142 20.4142 17.75 20 17.75C19.5858 17.75 19.25 17.4142 19.25 17V16.8612C18.5536 16.9615 18.1784 17.1396 17.909 17.409C17.6322 17.6858 17.4518 18.0743 17.3531 18.8081C17.2516 19.5635 17.25 20.5646 17.25 22V29C17.25 30.4354 17.2516 31.4365 17.3531 32.1919C17.4518 32.9257 17.6322 33.3142 17.909 33.591C18.1858 33.8678 18.5743 34.0482 19.3081 34.1469C20.0635 34.2484 21.0646 34.25 22.5 34.25H23.5C24.5273 34.25 25.4296 34.2497 26.228 34.2353C27.0868 34.1235 27.75 33.3892 27.75 32.5C27.75 32.3945 27.7454 32.2798 27.7392 32.1465L27.7369 32.0975C27.7314 31.9815 27.7253 31.8523 27.7227 31.7236C27.7167 31.4336 27.7251 31.0796 27.8181 30.7324C28.0031 30.0422 28.5422 29.5031 29.2324 29.3181C29.5796 29.2251 29.9336 29.2167 30.2236 29.2227C30.3523 29.2253 30.4814 29.2314 30.5973 29.2369L30.6465 29.2392C30.7798 29.2453 30.8945 29.25 31 29.25C31.8892 29.25 32.6235 28.5868 32.7353 27.728ZM28.841 34.0797C28.8562 34.0777 28.8713 34.0757 28.8864 34.0736C30.1648 33.9018 30.9355 33.5749 31.5052 33.0052C32.0749 32.4355 32.4018 31.6648 32.5736 30.3864C32.5757 30.3713 32.5777 30.3562 32.5797 30.341C32.112 30.6015 31.5733 30.75 31 30.75C30.8559 30.75 30.7097 30.7437 30.577 30.7376L30.5259 30.7352C30.4081 30.7296 30.3001 30.7246 30.1925 30.7224C29.9419 30.7171 29.7589 30.73 29.6206 30.767C29.448 30.8133 29.3133 30.948 29.267 31.1206C29.23 31.2589 29.2171 31.4419 29.2224 31.6925C29.2246 31.8001 29.2296 31.9081 29.2352 32.0258L29.2376 32.077C29.2437 32.2097 29.25 32.3559 29.25 32.5C29.25 33.0733 29.1015 33.612 28.841 34.0797Z" fill="#007373"/>
</svg>
