<svg width="50" height="50" viewBox="0 0 50 50" fill="none" xmlns="http://www.w3.org/2000/svg">
<rect width="50" height="50" rx="25" fill="#A4E1D2"/>
<path opacity="0.4" d="M29.9459 16.175C30.5332 15.5877 30.8268 15.2941 31.1521 15.1537C31.6208 14.9514 32.1521 14.9514 32.6208 15.1537C32.946 15.2941 33.2397 15.5877 33.8269 16.175C34.4142 16.7623 34.7079 17.0559 34.8483 17.3812C35.0506 17.8498 35.0506 18.3812 34.8483 18.8498C34.7079 19.1751 34.4142 19.4688 33.8269 20.056L28.8054 25.0776C27.5682 26.3148 26.9496 26.9334 26.1748 27.2999C25.4 27.6665 24.5294 27.7524 22.7882 27.9242L22 28.002L22.0778 27.2137C22.2496 25.4725 22.3355 24.6019 22.702 23.8272C23.0685 23.0524 23.6871 22.4338 24.9243 21.1966L29.9459 16.175Z" fill="#007373"/>
<path fill-rule="evenodd" clip-rule="evenodd" d="M32.918 14.4651C32.2596 14.1809 31.5132 14.1809 30.8549 14.4651C30.5903 14.5793 30.3679 14.7442 30.1528 14.9328C29.9467 15.1136 29.7117 15.3485 29.4325 15.6277L24.2935 20.7667C23.1525 21.9073 22.4468 22.6128 22.0241 23.5064C21.6013 24.4 21.5035 25.3931 21.3453 26.9987L21.2536 27.9283C21.2316 28.1518 21.3109 28.3735 21.4697 28.5323C21.6285 28.6911 21.8501 28.7704 22.0737 28.7483L23.0033 28.6566C24.6089 28.4985 25.6019 28.4007 26.4955 27.9779C27.3891 27.5552 28.0946 26.8494 29.2352 25.7085L34.3743 20.5694C34.6535 20.2902 34.8884 20.0553 35.0691 19.8491C35.2577 19.634 35.4226 19.4117 35.5369 19.1471C35.8211 18.4887 35.8211 17.7423 35.5369 17.084C35.4226 16.8194 35.2577 16.597 35.0691 16.3819C34.8884 16.1758 34.6535 15.9409 34.3743 15.6617L34.3403 15.6277C34.0611 15.3485 33.8262 15.1135 33.62 14.9328C33.4049 14.7442 33.1826 14.5793 32.918 14.4651ZM31.4494 15.8423C31.7283 15.7218 32.0446 15.7218 32.3235 15.8423C32.3842 15.8685 32.4713 15.9206 32.6312 16.0607C32.7958 16.2051 32.996 16.4047 33.2966 16.7053C33.5972 17.0059 33.7969 17.2061 33.9412 17.3708C34.0814 17.5306 34.1335 17.6178 34.1597 17.6784C34.2801 17.9574 34.2801 18.2737 34.1597 18.5526C34.1335 18.6133 34.0814 18.7004 33.9412 18.8603C33.7969 19.0249 33.5972 19.2251 33.2966 19.5257L28.275 24.5473C27.0009 25.8214 26.4841 26.3239 25.8541 26.622C25.2385 26.9132 24.5405 26.997 22.8362 27.1658C23.0049 25.4614 23.0888 24.7634 23.38 24.1479C23.678 23.5179 24.1805 23.001 25.4547 21.7269L30.4762 16.7053C30.7769 16.4047 30.977 16.2051 31.1417 16.0607C31.3015 15.9206 31.3887 15.8685 31.4494 15.8423Z" fill="#007373"/>
<path d="M16.75 27.252C15.3693 27.252 14.25 28.3712 14.25 29.752C14.25 31.1327 15.3693 32.252 16.75 32.252H26.25C26.8023 32.252 27.25 32.6997 27.25 33.252C27.25 33.8042 26.8023 34.252 26.25 34.252H24C23.5858 34.252 23.25 34.5877 23.25 35.002C23.25 35.4162 23.5858 35.752 24 35.752H26.25C27.6307 35.752 28.75 34.6327 28.75 33.252C28.75 31.8712 27.6307 30.752 26.25 30.752H16.75C16.1977 30.752 15.75 30.3042 15.75 29.752C15.75 29.1997 16.1977 28.752 16.75 28.752H19C19.4142 28.752 19.75 28.4162 19.75 28.002C19.75 27.5877 19.4142 27.252 19 27.252H16.75Z" fill="#007373"/>
</svg>
