<svg width="50" height="50" viewBox="0 0 50 50" fill="none" xmlns="http://www.w3.org/2000/svg">
<rect width="50" height="50" rx="25" fill="#A4E1D2"/>
<path opacity="0.4" d="M19.5776 28.4816C18.1628 29.324 14.4534 31.0441 16.7127 33.1966C17.8163 34.248 19.0455 35 20.5909 35H29.4091C30.9545 35 32.1837 34.248 33.2873 33.1966C35.5466 31.0441 31.8372 29.324 30.4224 28.4816C27.1048 26.5061 22.8952 26.5061 19.5776 28.4816Z" fill="#007373"/>
<path fill-rule="evenodd" clip-rule="evenodd" d="M24.9999 14.25C22.1004 14.25 19.7499 16.6005 19.7499 19.5C19.7499 22.3995 22.1004 24.75 24.9999 24.75C27.8994 24.75 30.2499 22.3995 30.2499 19.5C30.2499 16.6005 27.8994 14.25 24.9999 14.25ZM21.2499 19.5C21.2499 17.4289 22.9288 15.75 24.9999 15.75C27.0709 15.75 28.7499 17.4289 28.7499 19.5C28.7499 21.5711 27.0709 23.25 24.9999 23.25C22.9288 23.25 21.2499 21.5711 21.2499 19.5Z" fill="#007373"/>
<path fill-rule="evenodd" clip-rule="evenodd" d="M31.2287 28.0792C31.0661 27.9874 30.9225 27.9064 30.8062 27.8372C27.2521 25.7209 22.748 25.7209 19.1939 27.8372C19.0776 27.9064 18.9339 27.9875 18.7713 28.0793C18.0585 28.4814 16.9809 29.0893 16.2428 29.8118C15.7811 30.2637 15.3425 30.8592 15.2627 31.5888C15.1779 32.3646 15.5164 33.0927 16.1954 33.7396C17.3668 34.8556 18.7726 35.75 20.5909 35.75H29.4092C31.2275 35.75 32.6333 34.8556 33.8047 33.7396C34.4837 33.0927 34.8222 32.3646 34.7374 31.5888C34.6577 30.8592 34.219 30.2637 33.7573 29.8118C33.0192 29.0893 31.9415 28.4813 31.2287 28.0792ZM19.9613 29.126C23.0425 27.2913 26.9576 27.2913 30.0388 29.126C30.2067 29.226 30.3906 29.3303 30.5833 29.4397C31.2959 29.8439 32.128 30.316 32.7081 30.8838C33.0682 31.2363 33.2217 31.5271 33.2463 31.7517C33.2658 31.9301 33.2207 32.2242 32.7701 32.6535C31.7342 33.6404 30.6816 34.25 29.4092 34.25H20.5909C19.3185 34.25 18.2659 33.6404 17.23 32.6535C16.7794 32.2242 16.7343 31.9301 16.7538 31.7517C16.7784 31.5271 16.9319 31.2363 17.292 30.8838C17.8721 30.316 18.7041 29.844 19.4167 29.4397C19.6094 29.3304 19.7935 29.226 19.9613 29.126Z" fill="#007373"/>
</svg>
