<svg width="50" height="50" viewBox="0 0 50 50" fill="none" xmlns="http://www.w3.org/2000/svg">
<rect width="50" height="50" rx="25" fill="#A4E1D2"/>
<path opacity="0.4" d="M17.2678 31.8447C17.4927 33.515 18.8761 34.8235 20.5597 34.9009C21.9763 34.966 23.4153 35 25 35C26.5847 35 28.0237 34.966 29.4403 34.9009C31.1239 34.8235 32.5073 33.515 32.7322 31.8447C32.879 30.7547 33 29.6376 33 28.5C33 27.3624 32.879 26.2453 32.7322 25.1553C32.5073 23.485 31.1239 22.1765 29.4403 22.0991C28.0237 22.034 26.5847 22 25 22C23.4153 22 21.9763 22.034 20.5597 22.0991C18.8761 22.1765 17.4927 23.485 17.2678 25.1553C17.121 26.2453 17 27.3624 17 28.5C17 29.6376 17.121 30.7547 17.2678 31.8447Z" fill="#007373"/>
<path d="M21.5 28.5C21.5 27.9477 21.9477 27.5 22.5 27.5H22.509C23.0613 27.5 23.509 27.9477 23.509 28.5C23.509 29.0523 23.0613 29.5 22.509 29.5H22.5C21.9477 29.5 21.5 29.0523 21.5 28.5Z" fill="#007373"/>
<path d="M26.491 28.5C26.491 27.9477 26.9387 27.5 27.491 27.5H27.5C28.0523 27.5 28.5 27.9477 28.5 28.5C28.5 29.0523 28.0523 29.5 27.5 29.5H27.491C26.9387 29.5 26.491 29.0523 26.491 28.5Z" fill="#007373"/>
<path fill-rule="evenodd" clip-rule="evenodd" d="M19.75 21.4591V19.5C19.75 16.6005 22.1005 14.25 25 14.25C27.8995 14.25 30.25 16.6005 30.25 19.5V21.4591C31.9408 21.8628 33.239 23.2984 33.4755 25.0552C33.6236 26.1556 33.75 27.3118 33.75 28.5C33.75 29.6882 33.6236 30.8444 33.4755 31.9448C33.2039 33.9618 31.5328 35.5555 29.4748 35.6501C28.0464 35.7158 26.5958 35.75 25 35.75C23.4042 35.75 21.9536 35.7158 20.5252 35.6501C18.4672 35.5555 16.7961 33.9618 16.5245 31.9448C16.3764 30.8444 16.25 29.6882 16.25 28.5C16.25 27.3118 16.3764 26.1556 16.5245 25.0552C16.761 23.2984 18.0592 21.8628 19.75 21.4591ZM21.25 19.5C21.25 17.4289 22.9289 15.75 25 15.75C27.0711 15.75 28.75 17.4289 28.75 19.5V21.3194C27.5532 21.2737 26.3269 21.25 25 21.25C23.6732 21.25 22.4468 21.2737 21.25 21.3194V19.5ZM25 22.75C23.4264 22.75 21.9989 22.7837 20.5941 22.8483C19.2851 22.9085 18.1893 23.9319 18.0111 25.2553C17.8657 26.3351 17.75 27.4129 17.75 28.5C17.75 29.5871 17.8657 30.6649 18.0111 31.7447C18.1893 33.0681 19.2851 34.0915 20.5941 34.1517C21.9989 34.2163 23.4264 34.25 25 34.25C26.5736 34.25 28.0011 34.2163 29.4059 34.1517C30.7149 34.0915 31.8107 33.0681 31.9889 31.7447C32.1343 30.6649 32.25 29.5871 32.25 28.5C32.25 27.4129 32.1343 26.3351 31.9889 25.2553C31.8107 23.9319 30.7149 22.9085 29.4059 22.8483C28.0011 22.7837 26.5736 22.75 25 22.75Z" fill="#007373"/>
</svg>
